<?xml version="1.0" encoding="utf-8"?>
<!-- Generator: Adobe Illustrator 19.0.0, SVG Export Plug-In . SVG Version: 6.00 Build 0)  -->
<svg version="1.1" id="Layer_1" xmlns="http://www.w3.org/2000/svg" xmlns:xlink="http://www.w3.org/1999/xlink" x="0px" y="0px"
	 viewBox="-509 276 260 250" style="enable-background:new -509 276 260 250;" xml:space="preserve">
<style type="text/css">
	.st0{fill:#EDEDED;}
	.st1{fill:#F4CC25;}
	.st2{fill:#2D2C2C;}
	.st3{fill:#595959;}
	.st4{fill:#D8D8D8;}
	.st5{fill:#E9635E;}
	.st6{fill:none;stroke:#F4CC25;stroke-miterlimit:10;}
	.st7{fill:none;stroke:#2E9B10;stroke-miterlimit:10;}
	.st8{fill:#1B7732;}
	.st9{fill:#074930;}
	.st10{fill:#C4764E;}
	.st11{fill:#AF5D38;}
	.st12{fill:#4758F4;}
	.st13{fill:#2E9B10;}
</style>
<path class="st0" d="M-291.7,518.5c-65.5,6.6-208.6,4.4-209.9-2.8c-0.1-0.5,0.5-1.2,3.3-2.1c1.8-0.4,5.1-1,9.5-1.6
	c5.7-0.7,10.5-0.9,12.6-0.9c20.7-0.7,71.2-1.5,76.8-1.6c7.9-0.1,16.2-0.3,28.4-0.3c7.5,0,10,0,17.9,0c14.9-0.1,18.1-0.3,28.4-0.3
	c19.6-0.2,36.8,0.4,53.3,2.4c7.1,0.9,9.2,1.4,9.5,2.1C-260.6,515.4-283.3,517.6-291.7,518.5z"/>
<ellipse class="st1" cx="-438.7" cy="402.4" rx="10.9" ry="10.6"/>
<rect x="-497.2" y="510.1" class="st2" width="73.8" height="2.5"/>
<path class="st3" d="M-423.4,510.1h-36.9l0,0h-36.9c-0.8-4,37-16.3,37-16.3l0,0C-460.2,493.8-422.6,506.1-423.4,510.1z"/>
<rect x="-462.6" y="483.3" class="st3" width="4.5" height="11.7"/>
<polygon class="st3" points="-498.8,413.6 -502.6,416.1 -461.8,478.5 -458,476.1 "/>
<polygon class="st3" points="-459.6,386.7 -462,383 -505.1,410.9 -502.6,414.7 "/>
<ellipse class="st3" cx="-460.3" cy="477.8" rx="6.7" ry="6.8"/>
<ellipse class="st3" cx="-502.3" cy="412.4" rx="6.7" ry="6.8"/>
<ellipse class="st4" cx="-502.3" cy="412.4" rx="2.9" ry="3"/>
<ellipse class="st4" cx="-460.3" cy="477.8" rx="2.9" ry="3"/>
<ellipse class="st3" cx="-459.6" cy="380.4" rx="5.8" ry="5.7"/>
<path class="st3" d="M-415,388.8c-9.7-12.4-27.9-14.8-40.6-5.3c-12.7,9.4-15.2,27.1-5.5,39.5L-415,388.8L-415,388.8z"/>
<polygon class="st3" points="-455.6,394.7 -464.3,383.7 -455,376.7 -446.3,387.7 "/>
<path d="M-456.7,511.5h-6.9c-0.3,0-0.5-0.2-0.5-0.5v-4c0-0.3,0.2-0.5,0.5-0.5h6.9c0.3,0,0.5,0.2,0.5,0.5v4
	C-456.3,511.3-456.5,511.5-456.7,511.5z"/>
<ellipse class="st0" cx="-463.8" cy="509.1" rx="0.6" ry="2.4"/>
<path class="st0" d="M-428.6,508.8v-7.7c0-0.2,0.2-0.4,0.4-0.4l0,0c0.2,0,0.4,0.2,0.4,0.4v7.7c0,0.2-0.2,0.4-0.4,0.4l0,0
	C-428.4,509.2-428.6,509-428.6,508.8z"/>
<path class="st0" d="M-426.7,508.8v-7.7c0-0.2,0.2-0.4,0.4-0.4l0,0c0.2,0,0.4,0.2,0.4,0.4v7.7c0,0.2-0.2,0.4-0.4,0.4l0,0
	C-426.5,509.2-426.7,509-426.7,508.8z"/>
<rect x="-429" y="499.1" class="st5" width="3.3" height="2.4"/>
<ellipse class="st5" cx="-427.3" cy="499.1" rx="1.6" ry="1.6"/>
<path class="st6" d="M-419.9,508.3c0.1-1.2,0.2-2.5,0.3-3.7c0-0.5,0.1-1,0.3-1.4c0.3-0.5,1-0.8,1.6-1c2.7-0.9,5.8-1,8.6-0.3
	c2.3,0.6,4.6,1.9,7,1.5c1.7-0.3,3.2-1.4,4.5-2.6c1.2-1.2,2.3-2.6,3.7-3.7c1.4-1.2,3.1-2,4.9-2.3c2.2-0.4,4.4-0.3,6.6-0.6
	c2.9-0.4,5.6-1.6,7.8-3.5c1.1-1,2.4-2.2,3.9-2c0.8,0.1,1.5,0.7,2.3,1c1.4,0.6,3.2,0.5,4.4-0.4"/>
<path class="st7" d="M-400.9,508.1c-0.1-2.8,0-5.7,0.3-8.5c0-0.2,0-0.3,0.1-0.4c0.1-0.2,0.4-0.2,0.6-0.3c1.1-0.1,2.2-0.4,3.3-0.7
	c0.9-0.3,1.9-0.6,2.4-1.4c0.8-1.5-0.3-3.4,0.3-5c0.5-1.1,1.7-1.6,2.8-1.8s2.3,0,3.5-0.3s2.3-1,2.6-2.1c0.2-0.7-0.1-1.5,0.4-2.1
	c0.3-0.5,0.9-0.6,1.4-0.8c2.2-0.5,4.6-0.5,6.8,0c1.4,0.3,2.7,0.9,4.1,1.1c0.5,0.1,1.1,0.1,1.4-0.3c0.6-0.6,0.5-1.8,1.2-1.9
	c0.2,0,0.5,0.1,0.7,0.2c1.2,0.6,2.6,0.7,3.9,0.3"/>
<rect x="-401.9" y="506.7" class="st0" width="1.9" height="2.4"/>
<rect x="-420.9" y="506.6" class="st0" width="1.9" height="2.4"/>
<path class="st0" d="M-365.2,494.8l0.3-28.9c0-0.5,0.2-1,0.4-1l2.5,0c0.2,0,0.4,0.4,0.4,1l-0.3,28.9c0,0.5-0.2,1-0.4,1l-2.5,0
	C-365.1,495.7-365.2,495.3-365.2,494.8z"/>
<path class="st8" d="M-249,374.2c-4.5,6.1-27.6,36.4-61.2,37.6c-6.8,0.2-13-0.8-18.5-2.4c0.4-4,0.7-8,1.1-12
	c4.5-5.1,16.6-17.9,36.4-23.8C-271.2,367.6-255,372.1-249,374.2z"/>
<path class="st8" d="M-388.3,346.4c7.1,1.5,42.2,9.8,58.9,41.7c3.4,6.5,5.5,13,6.8,19c-3.4,1.5-6.8,3.1-10.2,4.6
	c-4.4-0.5-25.5-3.3-41.1-22.2C-389,371.4-388.6,351.1-388.3,346.4z"/>
<path class="st9" d="M-327.3,478.3h-12.9c-1.9-10-5.6-36.4,5.5-66.1c12.3-32.9,34.8-49.3,42.5-54.3l0,0
	c-6.7,5.4-27.9,23.7-36.6,57.5C-336.3,444.7-330.1,469.1-327.3,478.3z"/>
<path class="st9" d="M-330.2,413.2l-1.9-2.6c3-3.2,11.2-11.5,22.6-17.6c12.6-6.8,21.3-6.8,24.1-6.7l0,0c-2.7,0.1-11.9,1-24.3,8.8
	C-320.4,401.9-327.5,410.1-330.2,413.2z"/>
<path class="st9" d="M-330.6,410.3l3.6-3.1c-2-4.1-7.7-14.6-18.5-22.8c-11.9-9.1-22.4-9.6-25.9-9.6l0,0c3.3,0.3,14,1.9,25.1,12.2
	C-336.6,395.9-332.1,406.3-330.6,410.3z"/>
<path class="st10" d="M-318.2,513.2h-37.2c-3.7,0-6.7-3-6.7-6.7v-48.9c0-3.7,3-6.7,6.7-6.7h37.2c3.7,0,6.7,3,6.7,6.7v48.9
	C-311.5,510.2-314.5,513.2-318.2,513.2z"/>
<path class="st11" d="M-312.5,458.5h-48.3c-0.8,0-1.4-0.6-1.4-1.4v-6.8c0-0.8,0.6-1.4,1.4-1.4h48.3c0.8,0,1.4,0.6,1.4,1.4v6.8
	C-311.2,457.9-311.8,458.5-312.5,458.5z"/>
<path class="st10" d="M-310.2,457.1h-53.1c-2.1,0-3.8-1.7-3.8-3.8v-2c0-2.1,1.7-3.8,3.8-3.8h53.1c2.1,0,3.8,1.7,3.8,3.8v2
	C-306.4,455.5-308.1,457.1-310.2,457.1z"/>
<path class="st0" d="M-328.7,493.6l0.3-23.2c0-2.1,1.7-3.8,3.8-3.7l0,0c2.1,0,3.8,1.7,3.7,3.8l-0.3,23.2c0,2.1-1.7,3.8-3.8,3.7l0,0
	C-327.1,497.4-328.7,495.7-328.7,493.6z"/>
<path class="st12" d="M-326.3,482l0.1-10.7c0-1,0.7-1.7,1.5-1.7h0c0.8,0,1.5,0.8,1.5,1.8l-0.1,10.7c0,1-0.7,1.7-1.5,1.7h0
	C-325.7,483.8-326.3,483-326.3,482z"/>
<ellipse class="st13" cx="-324.8" cy="486.5" rx="1.6" ry="1.6"/>
<ellipse class="st1" cx="-324.8" cy="490.4" rx="1.6" ry="1.6"/>
<ellipse class="st5" cx="-324.8" cy="494.2" rx="1.6" ry="1.6"/>
<path d="M-415.8,511.6h-16.7c-0.3,0-0.5-0.2-0.5-0.5v-2.7c0-0.3,0.2-0.5,0.5-0.5h16.7c0.3,0,0.5,0.2,0.5,0.5v2.7
	C-415.3,511.4-415.5,511.6-415.8,511.6z"/>
<path d="M-395.2,511.6h-16.7c-0.3,0-0.5-0.2-0.5-0.5v-2.7c0-0.3,0.2-0.5,0.5-0.5h16.7c0.3,0,0.5,0.2,0.5,0.5v2.7
	C-394.7,511.4-394.9,511.6-395.2,511.6z"/>
<path class="st12" d="M-389.5,513.4h-77.6c-0.6,0-1.1-0.5-1.1-1.1l0,0c0-0.6,0.5-1.1,1.1-1.1h77.6c0.6,0,1.1,0.5,1.1,1.1l0,0
	C-388.4,512.9-388.9,513.4-389.5,513.4z"/>
<rect x="-365.9" y="483.2" transform="matrix(-2.058114e-002 -0.9998 0.9998 -2.058114e-002 -856.7371 129.5209)" class="st0" width="1.9" height="2.4"/>
<rect x="-365.9" y="488.6" transform="matrix(1.991395e-002 -0.9998 0.9998 1.991395e-002 -847.3665 115.1943)" class="st0" width="1.9" height="2.4"/>
</svg>
