<?xml version="1.0" encoding="utf-8"?>
<!-- Generator: Adobe Illustrator 23.0.1, SVG Export Plug-In . SVG Version: 6.00 Build 0)  -->
<svg version="1.1" id="Layer_1" xmlns="http://www.w3.org/2000/svg" xmlns:xlink="http://www.w3.org/1999/xlink" x="0px" y="0px"
	 viewBox="0 0 500 250" style="enable-background:new 0 0 500 250;" xml:space="preserve">
<style type="text/css">
	.st0{fill:#D8D8D8;}
	.st1{fill:#E9635E;}
	.st2{fill:#2D2C2C;}
	.st3{fill:#282727;}
	.st4{fill:#EFD225;}
	.st5{fill:#5E5E5E;}
	.st6{fill:#2F6AC9;}
	.st7{fill:none;}
	.st8{fill:#1B8212;}
	.st9{fill:#4C2E07;}
	.st10{fill:#DDDDDD;}
	.st11{fill:#FFFFFF;}
	.st12{fill:#EDEDED;}
	.st13{fill:#282828;}
	.st14{fill:#6B440C;}
</style>
<path class="st0" d="M296.92,239.8c-8.99,3.65-10.16,1.81-24.15,4.83c-9.03,1.95-15.62,4.25-27.59,4.87
	c-0.2,0.01-0.36,0.02-0.39,0.02c-11.55,0.56-18.58-1.2-33.2-4.15c-14.8-2.98-19.9-3.66-20.79-7.91c-0.39-1.87,0.18-3.75,0.74-5.09
	c2.38-1.4,5.94-3.34,10.42-5.22c8.92-3.74,17.24-5.45,45.12-7.28c16-1.05,24.13-1.56,30.45-0.82c11.51,1.34,20.67,4.42,26.78,6.91
	c1.9,0.78,4.62,2.54,4.67,4.8C309.09,234.86,300.26,238.44,296.92,239.8z"/>
<path class="st1" d="M271.32,232.16c0.13-0.01,1.13-0.09,1.13-0.15c0,0-0.01-0.01-0.02-0.01c0.01,0.01,0.01,0.01,0.02,0.01
	c0.31-0.03-0.19-10.6,0.91-22.91c0.41-4.65,0.69-5.52,1.13-11.25c0.44-5.77,0.65-8.67,0.56-11.21c-0.06-1.35-0.92-19.83-9.59-20.37
	c-1.54-0.09-4.3,0.29-8.6,3.73c1.76,9.73,2.94,20.9,2.85,33.31c-0.08,11.02-1.14,21.19-2.69,30.31c0.09,0.03,0.19,0.06,0.28,0.08
	c0,0,0.14,0.04,0.29,0.07C258.11,233.9,270.1,232.28,271.32,232.16z"/>
<path d="M238.72,8.64c14.87-6.87,38.69-3.65,48.79,13.4c9.08,15.33,1.96,34.2-15.91,42.13c-21.46,9.53-43.94-4.26-48.79-13.4
	c-3.61-6.8-3.81-14.14-3.81-14.14c0,0-0.06-2.34,0.21-4.5C220.21,24.3,228.2,13.5,238.72,8.64z"/>
<path class="st1" d="M244.16,233.23c0.08-0.01,0.25-0.03,0.25-0.03c0.09-0.01,0.17-0.02,0.25-0.03c0.34-2.84,0.8-7.07,1.11-12.22
	c1.63-26.74-1.31-65.7-11.91-67.35c-1.58-0.24-4.04,0.22-7.59,3.96c0.48,9.62,1.28,17.38,1.95,22.67
	c0.99,7.92,1.63,10.44,2.23,17.79c0.56,7.04,0.6,12.5,0.63,17.82c0.03,5.11-0.04,11.29-0.4,18.3c0.04,0.02,0.09,0.04,0.13,0.06
	s0.09,0.04,0.13,0.06c0.11,0.04,0.2,0.08,0.27,0.1C236.25,236.3,243.64,233.28,244.16,233.23z"/>
<path class="st2" d="M244.31,213.58c0.08-0.01,0.25-0.03,0.25-0.03c0.04,0,0.09-0.01,0.13-0.02c0.47-0.06,0.94-0.12,1.41-0.18
	c-0.01-2.77-0.04-6.96-0.18-12.05c-0.73-26.63-1.73-65.8-11.91-67.35c-1.58-0.24-4.04,0.22-7.59,3.96
	c0.48,9.62,1.28,17.38,1.95,22.67c0.6,4.81,3.43,12.18,1.75,12.93c-0.84,0.37-1.89-1.27-2.74-0.95c-2.11,0.8,1.46,12.14,2.91,23.7
	c0.98,7.79,0.81,14.2,0.54,18.24c0.04,0.02,0.09,0.04,0.13,0.06c0.04,0.02,0.09,0.04,0.13,0.06c0.11,0.04,0.2,0.08,0.27,0.1
	C236.4,216.64,243.79,213.63,244.31,213.58z"/>
<path class="st2" d="M272.35,213.58c0.08-0.01,0.25-0.03,0.25-0.03c0.04,0,0.09-0.01,0.13-0.02c0.47-0.06,0.94-0.12,1.41-0.18
	c0.21-2.76,0.49-6.86,0.68-11.84c0,0,0.29-7.47,0.23-14.33c-0.07-8.63-1.81-51.5-13-53.24c-1.57-0.24-4.03,0.21-7.59,3.96
	c0.48,9.62,1.28,17.38,1.95,22.67c0.6,4.81,3.43,12.18,1.75,12.93c-0.84,0.37-1.89-1.27-2.74-0.95c-2.11,0.8,1.46,12.14,2.91,23.7
	c0.98,7.79,0.81,14.2,0.54,18.24c0.04,0.02,0.09,0.04,0.13,0.06c0.04,0.02,0.09,0.04,0.13,0.06c0.11,0.04,0.2,0.08,0.27,0.1
	C264.44,216.64,271.83,213.63,272.35,213.58z"/>
<ellipse transform="matrix(0.9998 -0.0184 0.0184 0.9998 -2.7457 4.6577)" class="st2" cx="251.65" cy="151.48" rx="37.81" ry="33.88"/>
<ellipse transform="matrix(0.3308 -0.9437 0.9437 0.3308 -19.1123 289.1961)" class="st1" cx="194.36" cy="158.07" rx="7.56" ry="5.53"/>
<ellipse transform="matrix(0.9892 -0.1468 0.1468 0.9892 -19.4218 47.4304)" class="st1" cx="311.61" cy="155.29" rx="5.31" ry="8.19"/>
<path class="st3" d="M257.75,241.17c1.43,0.19,4.9,0.63,8.26,0.77c0.7,0.03,2.07,0.07,3.81-0.06c1.3-0.1,2.06-0.24,2.54-0.35
	c0.91-0.2,1.66-0.44,2.2-0.64c0.35-0.38,1.76-1.97,1.66-4.26c-0.11-2.29-1.68-4.37-4.05-5.37c-5.04,0.34-10.09,0.67-15.13,1.02
	c-0.38,3.29-0.11,6.02,0.34,8.19c0.02,0.13,0.06,0.25,0.08,0.38C257.56,240.95,257.65,241.06,257.75,241.17z"/>
<path class="st3" d="M244.92,241.52c-1.47,0.28-5.03,0.94-8.51,1.3c-0.72,0.07-2.14,0.21-3.95,0.18c-1.35-0.02-2.16-0.1-2.66-0.18
	c-0.95-0.14-1.75-0.33-2.34-0.49c-0.4-0.36-1.98-1.86-2.05-4.15c-0.07-2.29,1.41-4.46,3.79-5.62c5.26,0.01,10.51,0.02,15.77,0.04
	c0.64,3.25,0.59,6,0.28,8.2c-0.02,0.13-0.03,0.25-0.06,0.38C245.1,241.28,245.01,241.4,244.92,241.52z"/>
<g>
	<path class="st1" d="M215.59,151.08l72.36,1.84c2.19-38.51,3.37-77.28,3.5-116.28c0-0.39,0-1.11,0-1.5
		c-24.12-0.61-48.24-1.22-72.35-1.84c-0.07,0.51-0.13,1.14-0.16,1.86c-0.05,1.28,0.03,2.23,0.04,2.31
		C219.07,38.79,218.08,72.79,215.59,151.08z"/>
</g>
<path class="st4" d="M213.84,151.23l75.63,1.92c-0.2-37.79,0.54-52.3,1.62-55.57c0.15-0.46,0.79-1.87,0.75-3.82
	c-0.03-1.57-0.46-2.09-1.11-5.78c-0.22-1.25-0.33-2.08-0.35-2.08c-0.04,0.01,0.16,2.25,0.29,2.25c0.19,0,0.24-4.71,0.24-9.67
	c-10.82,0.46-22.39,0.6-34.6,0.3c-13.58-0.34-26.33-1.21-38.16-2.39c-0.33,0.85-0.76,2.08-1.17,3.59c-0.71,2.6-1,4.7-1.14,5.97
	c-0.59,5.22-0.48,10.91-0.47,13.77c0.02,4.24-0.25,8.47-0.38,12.71C214.8,119.11,214.47,130.51,213.84,151.23z"/>
<g>
	<g>
		<path class="st2" d="M233.43,58.72c4.24,8.99,16.44,8.88,24.51,4.28c2.39-1.37,0.18-4.82-2.21-3.44
			c-6.18,3.53-15.17,4.18-18.48-2.84C236.12,54.36,232.33,56.39,233.43,58.72L233.43,58.72z"/>
	</g>
</g>
<path class="st5" d="M258.95,231.58c0.34-0.03,0.68-0.07,1.02-0.1"/>
<path class="st2" d="M243.74,227.81"/>
<path class="st6" d="M275.71,91.95L275.71,91.95z"/>
<path class="st2" d="M250.03,233.15"/>
<line class="st7" x1="260.96" y1="159.92" x2="260.96" y2="159.92"/>
<path class="st8" d="M214.3,151.36"/>
<path class="st8" d="M214.3,151.36"/>
<path class="st9" d="M245.76,152.96c2.37,0.01,4.73,0.03,7.1,0.04"/>
<path class="st9" d="M245.75,152.76c0,0.06,0,0.14,0.01,0.2"/>
<path class="st9" d="M252.85,152.97c0-0.02,0-0.03,0-0.05"/>
<path class="st9" d="M252.85,153c0-0.01,0-0.02,0-0.03"/>
<path class="st5" d="M262.1,234.75"/>
<path class="st5" d="M228.47,234.68"/>
<path class="st10" d="M262.21,156.6"/>
<path class="st4" d="M190.08,154.28c0.07,0.03,0.14,0.06,0.21,0.09c-0.12-1.53-0.27-3.79-0.29-6.49
	c-0.04-5.86,0.43-23.59,12.87-45.23c3.53-6.14,13.89-24.15,21.05-21.93c2.08,0.65,3.37,2.83,4.13,4.61
	c-3.1,6.68-7.86,16.8-14.02,29.46c-2.09,4.3-2.78,5.69-3.7,7.72c-3.48,7.68-7.71,19.04-10.4,34.41c-0.14,0.06-0.3,0.1-0.45,0.16
	C196.28,157.99,191.89,155.43,190.08,154.28z"/>
<path class="st4" d="M284.45,81.28c-0.06,0.04-0.11,0.07-0.17,0.12c1,0.89,2.44,2.23,4.09,3.96c4.87,5.11,12.59,14.67,20.81,40.1
	c5.29,16.35,8.96,28.08,4.35,31.73c-1.9,1.5-4.65,1.21-6.86,0.64c-2.45-6.92-6.14-17.49-10.64-30.86c-1.53-4.54-2.01-6.02-2.78-8.11
	c-2.87-7.9-7.58-18.81-15.52-31.02c0.05-0.17,0.09-0.32,0.14-0.48C278.98,84.07,282.82,82.04,284.45,81.28z"/>
<ellipse transform="matrix(0.0734 -0.9973 0.9973 0.0734 187.7526 281.218)" class="st11" cx="245.21" cy="39.57" rx="6.32" ry="6.14"/>
<ellipse transform="matrix(0.0734 -0.9973 0.9973 0.0734 205.3314 301.8681)" class="st11" cx="265.11" cy="40.44" rx="6.32" ry="6.14"/>
<ellipse transform="matrix(0.065 -0.9979 0.9979 0.065 190.3184 283.7045)" class="st2" cx="246.56" cy="40.29" rx="2.19" ry="2.12"/>
<ellipse transform="matrix(0.065 -0.9979 0.9979 0.065 205.6933 301.9199)" class="st2" cx="263.97" cy="41.19" rx="2.19" ry="2.12"/>
<path class="st12" d="M293.9,100.73"/>
<g>
	<path class="st1" d="M290.16,78.51c-24.12-0.73-48.23-1.45-72.35-2.18c10.6,6.5,21.21,13,31.81,19.51
		C263.14,90.06,276.65,84.29,290.16,78.51z"/>
</g>
<path class="st1" d="M189.15,71.42"/>
<path class="st13" d="M290.97,31.1c-23.7-0.65-47.39-1.3-71.09-1.94c-0.2,0.63-0.39,1.34-0.54,2.14c-0.13,0.72-0.21,1.39-0.24,2
	c24.12,0.61,48.24,1.22,72.35,1.84c-0.03-0.58-0.08-1.19-0.15-1.83C291.21,32.52,291.1,31.79,290.97,31.1z"/>
<g>
	<g>
		<path class="st14" d="M250.36,55.97c-0.07,0.2-0.14,0.4-0.22,0.61c0.43-0.25,0.86-0.5,1.3-0.74c-0.29,0.03-1.24-0.97-1.64-1.1
			c-0.56-0.19-1-0.13-1.55,0.07c-0.49,0.18-1.16,1.01-1.61,1.05c-0.18,0.01-0.96-0.99-1.19-1.27c-0.49-0.62-1.62-0.55-2.12,0
			c-0.79,0.86-1.36,0.66-2.17,0.13c-1.62-1.06-3.13,1.54-1.51,2.59c2.04,1.33,4.07,1.3,5.81-0.6c-0.71,0-1.41,0-2.12,0
			c0.67,0.85,1.6,1.92,2.68,2.25c0.54,0.16,0.99,0.1,1.5-0.1c0.31-0.13,0.58-0.3,0.83-0.52c0.6-0.17,0.74-0.4,0.41-0.68
			c-0.33-0.39-0.2-0.3,0.4,0.26c0.3,0.25,0.63,0.47,0.98,0.65c0.39,0.18,0.73,0.3,1.17,0.29c1.28-0.04,1.63-1.02,1.95-2.08
			C253.81,54.91,250.92,54.12,250.36,55.97L250.36,55.97z"/>
	</g>
</g>
</svg>
