<?xml version="1.0" encoding="utf-8"?>
<!-- Generator: Adobe Illustrator 23.0.1, SVG Export Plug-In . SVG Version: 6.00 Build 0)  -->
<svg version="1.1" id="Layer_1" xmlns="http://www.w3.org/2000/svg" xmlns:xlink="http://www.w3.org/1999/xlink" x="0px" y="0px"
	 viewBox="0 0 260 250" style="enable-background:new 0 0 260 250;" xml:space="preserve">
<style type="text/css">
	.st0{fill:#E9635E;}
	.st1{fill:#2C3E50;}
	.st2{fill:#D8D8D8;}
	.st3{fill:#2D2C2C;}
	.st4{fill:#282727;}
	.st5{fill:#5E5E5E;}
	.st6{fill:#2F6AC9;}
	.st7{fill:none;}
	.st8{fill:#1B8212;}
	.st9{fill:#4C2E07;}
	.st10{fill:#DDDDDD;}
	.st11{fill:#FFFFFF;}
	.st12{fill:#EDEDED;}
	.st13{fill:#6B440C;}
	.st14{fill:none;stroke:#6B6B6B;stroke-width:2;stroke-miterlimit:10;}
	.st15{fill:#6B6B6B;}
	.st16{font-family:'MyriadPro-Regular';}
	.st17{font-size:2.5578px;}
	.st18{font-size:3.176px;}
</style>
<ellipse transform="matrix(0.0392 -0.9992 0.9992 0.0392 22.3603 326.2795)" class="st0" cx="180.84" cy="151.51" rx="7.2" ry="4.44"/>
<path class="st1" d="M185.24,149.97c0.1-1.47,0.22-3.64,0.24-6.24c0.04-5.63-0.36-22.69-10.86-43.49
	c-2.98-5.9-11.72-23.22-17.76-21.08c-1.76,0.63-2.84,2.72-3.49,4.43c2.62,6.42,6.64,16.16,11.83,28.33
	c1.77,4.14,2.35,5.48,3.12,7.43c2.92,7.42,6.32,18.32,8.03,33.04c0.36,0.09,0.73,0.15,1.13,0.19
	C180.91,152.94,183.74,151.14,185.24,149.97z"/>
<path class="st2" d="M178.39,240c-9.62,3.27-10.81,1.47-25.71,4.01c-9.62,1.64-16.66,3.67-29.36,3.95c-0.22,0-0.38,0.01-0.41,0.01
	c-12.25,0.23-19.65-1.64-35.07-4.86c-15.6-3.25-20.99-4.04-21.82-8.15c-0.37-1.81,0.28-3.6,0.92-4.87
	c2.56-1.28,6.38-3.05,11.18-4.74c9.55-3.36,18.41-4.78,48-5.81c16.98-0.59,25.61-0.86,32.28,0.01c12.16,1.59,21.79,4.79,28.2,7.35
	c1.99,0.8,4.83,2.56,4.83,4.74C191.42,235.57,181.97,238.78,178.39,240z"/>
<path class="st0" d="M149.02,224.1c0.13-0.01,1.1-0.09,1.1-0.14c0,0-0.01-0.01-0.02-0.01c0.01,0.01,0.01,0.01,0.02,0.01
	c0.97-10.17,1.13-18.03,0.89-22.03c-0.09-1.55-0.25-3.93-1.09-6.95c-0.55-1.97-1.04-2.97-1.38-3.99c-1.46-4.32,0.08-7.88,0.69-11.31
	c1.37-7.65-1.3-17.55-5.93-18.93c-0.94-0.28-3.62-0.71-8.39,3.58c1.72,9.36,2.87,20.09,2.78,32.03c-0.08,10.6-1.11,20.38-2.63,29.15
	c0.09,0.03,0.18,0.06,0.27,0.08c0,0,0.14,0.04,0.28,0.07C136.13,225.78,147.83,224.21,149.02,224.1z"/>
<path class="st0" d="M118.09,9.17c13.79-6.61,35.88-3.51,45.24,12.88c8.42,14.75,1.81,32.88-14.75,40.51
	c-19.9,9.17-40.74-4.09-45.24-12.88c-3.35-6.54-3.53-13.59-3.53-13.59s-0.06-2.25,0.19-4.32C100.92,24.23,108.33,13.84,118.09,9.17z
	"/>
<path class="st0" d="M123.13,225.13c0.07-0.01,0.24-0.03,0.24-0.03c0.08-0.01,0.15-0.02,0.24-0.03c0.32-2.74,0.74-6.8,1.03-11.75
	c1.51-25.72-1.21-63.18-11.04-64.76c-1.47-0.23-3.75,0.21-7.04,3.8c0.44,9.25,1.19,16.71,1.81,21.8c0.91,7.62,1.51,10.04,2.06,17.11
	c0.52,6.77,0.55,12.02,0.59,17.14c0.03,4.92-0.04,10.86-0.37,17.6c0.04,0.02,0.08,0.04,0.12,0.06c0.04,0.02,0.08,0.04,0.12,0.06
	c0.1,0.04,0.18,0.08,0.25,0.1C115.79,228.08,122.64,225.18,123.13,225.13z"/>
<path class="st3" d="M123.26,206.23c0.07-0.01,0.24-0.03,0.24-0.03c0.03,0,0.08-0.01,0.12-0.02c0.44-0.06,0.87-0.11,1.31-0.17
	c-0.01-2.67-0.04-6.69-0.17-11.59c-0.67-25.61-1.6-63.27-11.04-64.76c-1.47-0.23-3.75,0.21-7.04,3.8c0.44,9.25,1.19,16.71,1.81,21.8
	c0.56,4.63,3.18,11.71,1.63,12.43c-0.78,0.36-1.76-1.22-2.54-0.91c-1.96,0.77,1.35,11.67,2.7,22.79c0.91,7.49,0.75,13.66,0.5,17.54
	c0.04,0.02,0.08,0.04,0.12,0.06c0.04,0.02,0.08,0.04,0.12,0.06c0.1,0.04,0.18,0.08,0.25,0.1
	C115.93,209.18,122.78,206.28,123.26,206.23z"/>
<path class="st3" d="M149.53,206.23c0.07-0.01,0.23-0.03,0.23-0.03c0.03,0,0.08-0.01,0.12-0.02c0.43-0.06,0.85-0.11,1.28-0.17
	c0.19-2.65,0.44-6.59,0.61-11.38c0,0,0.26-7.18,0.21-13.78c-0.06-8.29-1.64-49.52-11.77-51.19c-1.42-0.23-3.65,0.2-6.87,3.8
	c0.43,9.25,1.16,16.71,1.77,21.8c0.55,4.63,3.11,11.71,1.59,12.43c-0.76,0.36-1.71-1.22-2.48-0.91c-1.91,0.77,1.32,11.67,2.63,22.79
	c0.89,7.49,0.73,13.66,0.49,17.54c0.04,0.02,0.08,0.04,0.12,0.06c0.04,0.02,0.08,0.04,0.12,0.06c0.1,0.04,0.18,0.08,0.24,0.1
	C142.37,209.18,149.06,206.28,149.53,206.23z"/>
<ellipse transform="matrix(0.9996 -0.0275 0.0275 0.9996 -3.9865 3.6384)" class="st3" cx="130.07" cy="146.52" rx="35.06" ry="32.57"/>
<ellipse transform="matrix(0.9988 -0.0493 0.0493 0.9988 -7.3394 4.0279)" class="st0" cx="78.01" cy="150.85" rx="4.87" ry="7.2"/>
<path class="st4" d="M135.88,232.77c1.57,0.18,5.37,0.61,9.06,0.74c0.76,0.03,2.27,0.07,4.18-0.06c1.42-0.1,2.26-0.23,2.78-0.33
	c1-0.19,1.82-0.42,2.42-0.62c0.39-0.36,1.93-1.9,1.82-4.1c-0.12-2.2-1.85-4.2-4.44-5.17c-5.52,0.32-11.06,0.65-16.58,0.98
	c-0.41,3.16-0.12,5.79,0.38,7.87c0.02,0.12,0.06,0.24,0.08,0.36C135.67,232.56,135.77,232.66,135.88,232.77z"/>
<path class="st4" d="M123.82,233.1c-1.42,0.27-4.84,0.91-8.19,1.25c-0.69,0.07-2.06,0.2-3.81,0.17c-1.3-0.02-2.08-0.1-2.56-0.17
	c-0.92-0.13-1.69-0.31-2.25-0.47c-0.38-0.34-1.91-1.79-1.97-3.99c-0.06-2.2,1.35-4.29,3.65-5.4c5.07,0.01,10.12,0.02,15.19,0.04
	c0.62,3.13,0.57,5.77,0.27,7.88c-0.02,0.12-0.03,0.24-0.05,0.36C123.99,232.87,123.9,232.98,123.82,233.1z"/>
<g>
	<path class="st0" d="M96.64,146.14l67.1,1.77c2.03-37.03,3.12-74.31,3.24-111.81c0-0.38,0-1.07,0-1.44
		c-22.36-0.59-44.72-1.18-67.09-1.77c-0.06,0.49-0.12,1.1-0.15,1.79c-0.05,1.23,0.03,2.14,0.04,2.22
		C99.87,38.16,98.94,70.86,96.64,146.14z"/>
</g>
<path class="st1" d="M95.02,146.28l70.13,1.85c0.22-11.62,0.66-35.66,0.66-35.66l0,0c0,0,0-1.9,0-2c0-8.32,0-12.49,0.84-15.78
	c0.4-1.56,0.72-2.27,0.7-3.67c-0.03-1.51-0.42-2.01-1.03-5.56c-0.2-1.2-0.3-2-0.33-2c-0.04,0,0.15,2.17,0.27,2.16
	c0.18,0,0.22-4.52,0.22-9.3c-10.04,0.44-20.76,0.58-32.08,0.28c-12.59-0.33-24.42-1.16-35.38-2.3c-0.31,0.82-0.71,2-1.09,3.45
	c-0.66,2.5-0.92,4.52-1.06,5.74c-0.54,5.02-0.44,10.49-0.43,13.24c0.02,4.08-0.24,8.14-0.35,12.22
	C95.91,115.39,95.6,126.35,95.02,146.28z"/>
<g>
	<g>
		<path class="st3" d="M113.18,57.32c3.93,8.64,15.25,8.54,22.73,4.11c2.22-1.32,0.16-4.63-2.05-3.31
			c-5.73,3.4-14.06,4.02-17.14-2.73C115.67,53.13,112.16,55.09,113.18,57.32L113.18,57.32z"/>
	</g>
</g>
<path class="st5" d="M136.84,223.54c0.32-0.03,0.63-0.07,0.94-0.1"/>
<path class="st3" d="M122.74,219.91"/>
<path class="st6" d="M152.39,89.28"/>
<path class="st3" d="M128.57,225.05"/>
<line class="st7" x1="138.71" y1="154.63" x2="138.71" y2="154.63"/>
<path class="st8" d="M95.45,146.41"/>
<path class="st8" d="M95.45,146.41"/>
<path class="st9" d="M124.61,147.94c2.2,0.01,4.39,0.03,6.58,0.04"/>
<path class="st9" d="M124.6,147.75c0,0.06,0,0.13,0.01,0.19"/>
<path class="st9" d="M131.19,147.95c0-0.02,0-0.03,0-0.05"/>
<path class="st9" d="M131.19,147.98c0-0.01,0-0.02,0-0.03"/>
<path class="st5" d="M139.77,226.59"/>
<path class="st5" d="M108.59,226.53"/>
<path class="st10" d="M139.87,151.44"/>
<path class="st1" d="M73.18,149.31c-0.11-1.47-0.25-3.64-0.27-6.24c-0.04-5.63,0.4-22.69,11.93-43.49
	c3.28-5.9,12.88-23.22,19.51-21.08c1.93,0.63,3.12,2.72,3.83,4.43c-2.88,6.42-7.29,16.16-13,28.33c-1.94,4.14-2.59,5.48-3.43,7.43
	c-3.2,7.42-6.94,18.32-8.83,33.04c-0.39,0.09-0.81,0.15-1.24,0.19C77.94,152.28,74.83,150.48,73.18,149.31z"/>
<ellipse transform="matrix(0.0328 -0.9995 0.9995 0.0328 81.1357 161.6727)" class="st11" cx="124.1" cy="38.92" rx="6.08" ry="5.69"/>
<ellipse transform="matrix(0.0328 -0.9995 0.9995 0.0328 98.1516 180.9203)" class="st11" cx="142.55" cy="39.75" rx="6.08" ry="5.69"/>
<ellipse transform="matrix(0.0325 -0.9995 0.9995 0.0325 81.6963 163.6016)" class="st3" cx="125.35" cy="39.6" rx="2.11" ry="1.96"/>
<ellipse transform="matrix(0.0325 -0.9995 0.9995 0.0325 96.4446 180.5737)" class="st3" cx="141.49" cy="40.47" rx="2.11" ry="1.96"/>
<path class="st12" d="M169.25,97.72"/>
<g>
	<path class="st0" d="M165.78,76.35c-22.36-0.7-44.72-1.4-67.08-2.09c9.94,1.2,19.87,2.4,29.81,3.6
		C140.94,77.36,153.36,76.86,165.78,76.35z"/>
</g>
<g>
	<g>
		<path class="st13" d="M128.77,54.66c-0.06,0.19-0.13,0.38-0.19,0.57c0.43-0.25,0.86-0.5,1.3-0.74c-0.28,0.03-0.81-0.75-1.13-0.91
			c-0.4-0.19-0.82-0.3-1.27-0.26c-1.08,0.11-1.81,1.08-2.7,1.58c0.39-0.05,0.77-0.1,1.16-0.15c-0.46-0.08-1.06-0.85-1.29-1.16
			c-0.54-0.71-1.65-1.1-2.36-0.3c-0.71,0.8-1.14,0.62-1.88,0.12c-1.6-1.08-3.11,1.51-1.51,2.59c1.92,1.3,3.9,1.25,5.52-0.58
			c-0.79-0.1-1.57-0.2-2.36-0.3c1.64,2.15,3.26,3.45,5.54,1.44c-0.61-0.57-0.58-0.55,0.09,0.04c0.29,0.24,0.6,0.45,0.93,0.63
			c0.32,0.15,0.65,0.28,1.01,0.3c1.32,0.06,1.73-0.99,2.04-2.05C132.21,53.6,129.31,52.81,128.77,54.66L128.77,54.66z"/>
	</g>
</g>
<ellipse class="st14" cx="150.48" cy="92.15" rx="3.65" ry="3.52"/>
<path class="st15" d="M154.59,92.95c0.48,0.15-3.72,8.63-4.11,8.63s-4.59-8.48-4.11-8.63c0.41-0.13,1.54,2.18,3.91,2.3
	c0.13,0.01,0.26,0.01,0.39,0C153.04,95.13,154.18,92.82,154.59,92.95z"/>
<text transform="matrix(1.195 0 0 1 147.9897 92.8247)" class="st15 st16 st17">{     }</text>
<text transform="matrix(1.1774 0 0 1 149.3168 92.2876)" class="st15 st16 st18">...</text>
<ellipse class="st13" cx="127.48" cy="17.98" rx="5.18" ry="4.66"/>
<ellipse class="st13" cx="120.57" cy="11.99" rx="5.18" ry="4.66"/>
<ellipse class="st13" cx="126.09" cy="8.66" rx="5.18" ry="4.66"/>
<ellipse class="st13" cx="128.86" cy="10.66" rx="5.18" ry="4.66"/>
<ellipse class="st13" cx="134.38" cy="6.67" rx="5.18" ry="4.66"/>
<ellipse class="st13" cx="133.69" cy="11.32" rx="5.18" ry="4.66"/>
<ellipse class="st13" cx="143.36" cy="12.65" rx="5.18" ry="4.66"/>
<ellipse class="st13" cx="139.91" cy="9.99" rx="5.18" ry="4.66"/>
<ellipse class="st13" cx="139.91" cy="9.33" rx="5.18" ry="4.66"/>
<ellipse class="st13" cx="113.66" cy="13.32" rx="3.8" ry="3.33"/>
<ellipse class="st13" cx="116.43" cy="12.65" rx="3.8" ry="3.33"/>
<ellipse class="st13" cx="115.04" cy="15.32" rx="3.8" ry="3.33"/>
<ellipse class="st13" cx="145.43" cy="8.66" rx="3.8" ry="3.33"/>
<ellipse class="st13" cx="149.57" cy="11.99" rx="3.8" ry="3.33"/>
<ellipse class="st13" cx="150.96" cy="13.98" rx="3.8" ry="3.33"/>
<ellipse class="st13" cx="153.03" cy="13.98" rx="3.11" ry="2.66"/>
<ellipse class="st13" cx="156.48" cy="15.98" rx="3.11" ry="2.66"/>
<ellipse class="st13" cx="159.24" cy="16.98" rx="1.73" ry="1.66"/>
<ellipse class="st13" cx="108.83" cy="16.98" rx="1.73" ry="1.66"/>
<ellipse class="st13" cx="110.9" cy="15.98" rx="3.11" ry="2.66"/>
<ellipse class="st13" cx="133.69" cy="16.65" rx="3.11" ry="2.66"/>
<path class="st13" d="M95.07,145.14l-0.01,0.26c0,0.01,0,0.02,0,0.02l-0.05,1.13c15.89,0.68,69.94,3.64,70.12,2.04
	c0-0.02,0.03-0.37,0.05-0.82c0.02-0.4,0.02-0.74,0.02-1.01C141.82,146.23,118.44,145.68,95.07,145.14z"/>
</svg>
