<?xml version="1.0" encoding="utf-8"?>
<!-- Generator: Adobe Illustrator 23.0.1, SVG Export Plug-In . SVG Version: 6.00 Build 0)  -->
<svg version="1.1" id="Layer_1" xmlns="http://www.w3.org/2000/svg" xmlns:xlink="http://www.w3.org/1999/xlink" x="0px" y="0px"
	 viewBox="0 0 500 250" style="enable-background:new 0 0 500 250;" xml:space="preserve">
<style type="text/css">
	.st0{fill:#D8D8D8;}
	.st1{fill:#E9635E;}
	.st2{fill:#161616;}
	.st3{fill:#050505;}
	.st4{fill:#494949;}
	.st5{fill:#2D2C2C;}
	.st6{fill:#5E5E5E;}
	.st7{fill:#2F6AC9;}
	.st8{fill:none;}
	.st9{fill:#4C2E07;}
	.st10{fill:#FFFFFF;}
	.st11{fill:#F7F7F7;}
	.st12{fill:#7DC6EF;}
</style>
<path class="st0" d="M157.67,233.52c14.94-2.79,16.94-1.63,40.23-4.22c15.04-1.67,26.01-3.47,45.99-4.39
	c0.34-0.02,0.6-0.03,0.64-0.03c19.27-0.86,31.04,0,55.5,1.32c24.76,1.33,33.29,1.56,34.85,4.32c0.68,1.22-0.23,2.48-1.16,3.39
	c-3.96,1.02-9.86,2.46-17.31,3.89c-14.83,2.85-28.7,4.33-75.22,6.73c-26.7,1.38-40.27,2.06-50.83,1.84
	c-19.23-0.39-34.59-2.03-44.83-3.41c-3.19-0.43-7.76-1.48-7.88-2.96C137.42,237.3,152.1,234.56,157.67,233.52z"/>
<ellipse transform="matrix(0.9971 -0.0765 0.0765 0.9971 -12.1126 15.4897)" class="st1" cx="196.13" cy="165.85" rx="3.92" ry="7.12"/>
<ellipse transform="matrix(0.697 -0.7171 0.7171 0.697 40.9852 249.3341)" class="st1" cx="315.53" cy="76.17" rx="7.12" ry="3.76"/>
<path class="st2" d="M271.28,92.08c-21.28,0-42.56-0.01-63.84-0.01c-0.71-3.35-1.43-6.69-2.14-10.04c0.48-0.32,1.25-0.8,2.23-1.3
	c10.02-5.09,16.77,1.07,30.26,1.48c14.54,0.44,20.61-6.29,33.66-1.48c1.46,0.54,2.63,1.08,3.38,1.45
	C273.65,85.49,272.46,88.78,271.28,92.08z"/>
<path class="st3" d="M237.04,238.85c-1.18,0.21-4.04,0.68-6.82,0.86c-0.57,0.04-1.71,0.1-3.15,0c-1.08-0.08-1.71-0.2-2.1-0.29
	c-0.75-0.17-1.38-0.39-1.84-0.58c-0.3-0.36-1.49-1.86-1.43-4.03c0.05-2.18,1.33-4.19,3.27-5.18c4.18,0.24,8.35,0.49,12.53,0.73
	c0.36,3.12,0.18,5.74-0.16,7.81c-0.02,0.12-0.04,0.24-0.06,0.36C237.2,238.64,237.12,238.75,237.04,238.85z"/>
<path class="st3" d="M244.85,240.2c1.26,0.25,4.3,0.82,7.28,1.1c0.61,0.06,1.83,0.16,3.38,0.12c1.16-0.03,1.85-0.13,2.27-0.2
	c0.82-0.14,1.5-0.33,2-0.49c0.34-0.34,1.69-1.75,1.75-3.86c0.06-2.12-1.21-4.12-3.24-5.16c-4.5,0.08-8.99,0.15-13.49,0.23
	c-0.55,3.02-0.5,5.56-0.24,7.59c0.02,0.12,0.03,0.23,0.05,0.35C244.7,239.98,244.78,240.09,244.85,240.2z"/>
<ellipse transform="matrix(0.0955 -0.9954 0.9954 0.0955 65.8357 375.2327)" class="st4" cx="239.4" cy="151.39" rx="32.27" ry="31.29"/>
<ellipse transform="matrix(0.926 -0.3775 0.3775 0.926 2.2352 93.5963)" class="st1" cx="239.88" cy="41.1" rx="29.99" ry="29.74"/>
<g>
	<polygon class="st1" points="269.25,153.32 209.35,153.35 209.93,41.1 269.84,41.07 	"/>
</g>
<path d="M270.7,153.5l-62.61,0.03l0.37-71.03c4.25,0.62,16.54,0.97,29.26,1c13.94,0.04,28.39-0.3,33.36-1.03
	C270.94,106.15,270.82,129.82,270.7,153.5z"/>
<path d="M316.71,80.39c-0.01-0.06-0.03-0.12-0.04-0.19c-1,1.07-2.49,2.61-4.36,4.39c-4.04,3.84-16.63,15.12-38.24,22.23
	c-6.13,2.02-24.12,7.94-26.35,2.47c-0.65-1.59,0.19-3.74,1.03-5.32c6.28-2.6,15.83-6.52,27.88-11.32c4.09-1.63,5.42-2.14,7.33-2.95
	c7.18-3.05,17.32-8.07,29.41-16.57c0.12,0.04,0.23,0.09,0.35,0.15C316.02,74.49,316.56,78.62,316.71,80.39z"/>
<path d="M191.92,164.21c0.06,0.02,0.12,0.05,0.19,0.07c-0.31-1.44-0.74-3.55-1.12-6.1c-0.84-5.53-2.87-22.35,4.48-44.17
	c2.09-6.19,8.22-24.37,14.46-23.06c1.81,0.38,3.18,2.31,4.06,3.9c-1.66,6.65-4.22,16.75-7.6,29.41c-1.14,4.3-1.53,5.68-2.02,7.71
	c-1.83,7.65-3.79,18.86-3.92,33.68c-0.11,0.07-0.23,0.14-0.35,0.19C197.57,167.03,193.57,165.1,191.92,164.21z"/>
<path class="st4" d="M225.78,229.97c-0.11-0.01-0.93-0.08-0.94-0.12l0.01-0.01c-0.01,0.01-0.01,0.01-0.01,0.01
	c-0.25-0.02-0.01-10.1-1.09-21.81c-0.41-4.42-0.65-5.25-1.1-10.7c-0.45-5.5-0.67-8.25-0.63-10.67c0.02-1.29,0.47-18.9,7.64-19.56
	c1.27-0.12,3.56,0.21,7.17,3.41c-1.31,9.3-2.12,19.95-1.87,31.78c0.23,10.49,1.26,20.17,2.68,28.83c-0.07,0.03-0.15,0.06-0.23,0.09
	c0,0-0.12,0.04-0.24,0.08C236.73,231.42,226.8,230.06,225.78,229.97z"/>
<path class="st4" d="M254.77,232.11c0.09-0.01,0.83-0.05,0.83-0.1l-0.01-0.01c0.01,0.01,0.01,0.01,0.01,0.01
	c0.23-0.02-0.14-10.06,0.66-21.7c0.3-4.39,0.51-5.21,0.83-10.63c0.32-5.46,0.48-8.2,0.41-10.61c-0.04-1.29-0.69-18.84-7.09-19.69
	c-1.14-0.15-3.17,0.12-6.35,3.21c1.3,9.3,2.18,19.93,2.12,31.7c-0.05,10.45-0.84,20.06-1.98,28.65c0.07,0.03,0.14,0.06,0.21,0.09
	c0,0,0.11,0.04,0.21,0.08C245.02,233.27,253.87,232.17,254.77,232.11z"/>
<g>
	<g>
		<path class="st5" d="M241.52,62.45c-3.36,4.3-8.49,2.57-11.56-1.19c-1.22-1.5-3.33,0.64-2.12,2.12c4.02,4.94,11.48,6.72,15.8,1.19
			C244.82,63.06,242.71,60.93,241.52,62.45L241.52,62.45z"/>
	</g>
</g>
<path class="st5" d="M217.42,188.71"/>
<path class="st6" d="M227.01,229.74c-0.28-0.03-0.56-0.06-0.85-0.09"/>
<path class="st5" d="M239.53,225.92"/>
<path class="st7" d="M221.27,95.58L221.27,95.58z"/>
<path class="st5" d="M210.86,225.43"/>
<line class="st8" x1="208.21" y1="153.88" x2="208.21" y2="153.88"/>
<path class="st9" d="M244.25,154.39c-1.96-0.04-3.91-0.09-5.87-0.13"/>
<path class="st9" d="M244.26,154.2c0,0.06-0.01,0.13-0.01,0.19"/>
<path class="st9" d="M238.38,154.24c0-0.02,0-0.03,0-0.05"/>
<path class="st9" d="M238.38,154.26c0-0.01,0-0.02,0-0.03"/>
<path class="st6" d="M224.44,232.81"/>
<path class="st6" d="M252.27,232.23"/>
<ellipse transform="matrix(0.0417 -0.9991 0.9991 0.0417 171.2977 276.1882)" class="st10" cx="229.63" cy="48.8" rx="5.33" ry="4.83"/>
<ellipse transform="matrix(0.0417 -0.9991 0.9991 0.0417 188.6313 296.0837)" class="st10" cx="248.67" cy="49.71" rx="5.33" ry="4.83"/>
<ellipse transform="matrix(0.0414 -0.9991 0.9991 0.0414 171.9072 277.9691)" class="st5" cx="230.82" cy="49.4" rx="1.3" ry="1.18"/>
<ellipse transform="matrix(0.0414 -0.9991 0.9991 0.0414 187.2117 295.5312)" class="st5" cx="247.62" cy="50.2" rx="1.3" ry="1.18"/>
<g>
	<g>
		<path class="st5" d="M226.29,13.1c-1.75-1.56-3.56-2.85-5.62-3.98c-0.39,0.91-0.77,1.83-1.16,2.74c2.49,0.88,4.97,1.77,7.46,2.65
			c0.86,0.31,1.99-0.51,1.9-1.45c-0.24-2.54-0.57-5.04-0.98-7.55c-0.84,0.49-1.67,0.97-2.51,1.46c1.77,1.72,3.33,3.49,4.78,5.5
			c0.64,0.89,1.98,1.04,2.59,0c1.55-2.63,3.29-5.03,5.32-7.31c-0.79-0.1-1.57-0.2-2.36-0.3c0.27,0.96,0.53,1.91,0.8,2.87
			c0.02,1.13,1.26,1.88,2.26,1.3c1.8-1.06,3.46-2.23,5.09-3.53c-0.71-0.71-1.41-1.41-2.12-2.12c-0.94,1.16-1.49,2.16-1.87,3.6
			c-0.22,0.84,0.44,2.03,1.45,1.9c0.91-0.12,1.82-0.24,2.73-0.37c-0.48-0.63-0.96-1.27-1.45-1.9c-0.3,0.48-0.61,0.96-0.91,1.44
			c-0.86,0.93-0.28,2.57,1.06,2.56c2.53-0.02,4.97-0.26,7.45-0.71c-0.49-0.84-0.97-1.67-1.46-2.51c-0.76,0.64-1.52,1.28-2.28,1.92
			c-1.16,0.98,0.08,2.94,1.46,2.51c3.18-0.99,6.3-2.12,9.38-3.41c-0.56-0.73-1.13-1.47-1.69-2.2c-1,1.52-2.32,2.68-3.95,3.49
			c-1.24,0.73-0.76,2.87,0.76,2.8c2.2-0.11,4.4-0.21,6.6-0.32c-0.43-0.75-0.86-1.5-1.3-2.26c-0.85,0.85-1.71,1.69-2.56,2.54
			c-1.06,0.68-0.93,2.4,0.36,2.74c1.35,0.36,1.35,0.38,2.74,0.25c-0.43-0.75-0.86-1.5-1.3-2.26c-0.98,0.53-1.96,1.07-2.94,1.6
			c-0.1-1.05-0.87-1.6-1.9-1.45c-0.47,0.07-0.94,0.14-1.4,0.21c0.62,0.35,1.23,0.7,1.85,1.05c-0.43-1.2-0.69-2.45-0.75-3.74
			c-0.11-1.16-1.64-2.15-2.56-1.06c-0.29,0.34-0.58,0.68-0.86,1.02c0.61-0.08,1.21-0.16,1.82-0.23c-2.88-1.74-5.68-1.78-8.66-0.3
			c0.68,0.18,1.37,0.36,2.05,0.54c-2.71-3.92-8.98-1.34-12.47-0.01c0.39,0.91,0.77,1.83,1.16,2.74c0.91-0.45,1.83-0.91,2.74-1.36
			c-0.39-0.91-0.77-1.83-1.16-2.74c-1.8,0.82-3.39,1.77-4.97,2.97c-1.34,1.01-0.59,3.08,1.16,2.74c0.06-0.01,0.13-0.02,0.19-0.04
			c0.63-0.12,1.11-0.83,1.1-1.45c0-0.08,0-0.16,0-0.24c-0.01-0.77-0.68-1.55-1.5-1.5c-1.57,0.1-2.62,1.07-3.77,2.09
			c-1.45,1.29,0.68,3.4,2.12,2.12c0.55-0.4,1.1-0.81,1.65-1.21c-0.5-0.5-1-1-1.5-1.5c0,0.08,0,0.16,0,0.24
			c0.37-0.48,0.73-0.96,1.1-1.45c-0.06,0.01-0.13,0.02-0.19,0.04c0.39,0.91,0.77,1.83,1.16,2.74c1.58-1.2,3.16-2.15,4.97-2.97
			c1.53-0.7,0.44-3.33-1.16-2.74c-1.79,0.66-1.83,0.66-3.45,1.66c-1.38,0.85-0.5,3.37,1.16,2.74c1.42-0.54,7.84-3.16,9.08-1.37
			c0.49,0.7,1.28,0.92,2.05,0.54c2.04-1.07,3.92-0.97,5.63,0.3c0.53,0.32,1.4,0.26,1.82-0.23c0.29-0.34,0.58-0.68,0.86-1.02
			c-0.85-0.35-1.71-0.71-2.56-1.06c0.15,1.58,0.4,3,0.86,4.53c0.25,0.85,1.02,1.17,1.85,1.05c0.47-0.07,0.94-0.14,1.4-0.21
			c-0.63-0.48-1.27-0.96-1.9-1.45c0.56,5.89,6.37,3.17,8.53-0.09c0.6-0.9-0.18-2.36-1.3-2.26c-0.65-0.05-1.3-0.1-1.94-0.15
			c0.12,0.91,0.24,1.83,0.36,2.74c1.59-1.03,2.6-2.04,3.64-3.62c0.61-0.93-0.19-2.31-1.3-2.26c-2.2,0.11-4.4,0.21-6.6,0.32
			c0.25,0.93,0.5,1.86,0.76,2.8c2.08-1.21,3.59-2.64,5.03-4.57c0.74-1-0.51-2.7-1.69-2.2c-3.08,1.28-6.19,2.42-9.38,3.41
			c0.49,0.84,0.97,1.67,1.46,2.51c0.76-0.64,1.52-1.28,2.28-1.92c1.26-1.06-0.14-2.74-1.46-2.51c-2.31,0.41-4.35,0.58-6.65,0.6
			c0.35,0.85,0.71,1.71,1.06,2.56c1.01-1.09,1.16-1.37,1.68-2.76c0.32-0.83-0.52-2.02-1.45-1.9c-0.91,0.12-1.82,0.24-2.73,0.37
			c0.48,0.63,0.96,1.27,1.45,1.9c0.37-0.76,0.73-1.52,1.1-2.28c1.22-1.51-0.61-3.33-2.12-2.12c-1.46,1.17-2.88,2.12-4.48,3.06
			c0.75,0.43,1.5,0.86,2.26,1.3c-0.04-1.72-0.36-2.9-1.21-4.38c-0.46-0.8-1.71-1.03-2.36-0.3c-2.2,2.48-4.1,5.07-5.78,7.92
			c0.86,0,1.73,0,2.59,0c-1.59-2.2-3.29-4.21-5.25-6.1c-1.15-1.11-2.74,0.04-2.51,1.46c0.37,2.24,0.66,4.49,0.87,6.75
			c0.63-0.48,1.27-0.96,1.9-1.45c-2.49-0.88-4.97-1.77-7.46-2.65c-1.61-0.57-2.63,1.93-1.16,2.74c1.9,1.04,3.36,2.04,5.01,3.51
			C225.6,16.5,227.73,14.39,226.29,13.1L226.29,13.1z"/>
	</g>
</g>
<g>
	<g>
		<path class="st5" d="M235.91,9.98c1.93,0,1.93-3,0-3C233.98,6.98,233.98,9.98,235.91,9.98L235.91,9.98z"/>
	</g>
</g>
<g>
	<g>
		<path class="st5" d="M236.58,9.93c1.93,0,1.93-3,0-3C234.65,6.93,234.64,9.93,236.58,9.93L236.58,9.93z"/>
	</g>
</g>
<g>
	<g>
		<path class="st5" d="M229.67,12.55c1.93,0,1.93-3,0-3S227.74,12.55,229.67,12.55L229.67,12.55z"/>
	</g>
</g>
<g>
	<g>
		<path class="st5" d="M227.9,12.7c1.93,0,1.93-3,0-3S225.97,12.7,227.9,12.7L227.9,12.7z"/>
	</g>
</g>
<g>
	<g>
		<path class="st5" d="M227.04,15.7c1.93,0,1.93-3,0-3S225.11,15.7,227.04,15.7L227.04,15.7z"/>
	</g>
</g>
<g>
	<g>
		<path class="st5" d="M253.46,14.77c1.93,0,1.93-3,0-3C251.53,11.77,251.53,14.77,253.46,14.77L253.46,14.77z"/>
	</g>
</g>
<g>
	<g>
		<path class="st5" d="M253.52,11.66c-9.78-2.07-19.79-2.37-28.59,2.99c-1.65,1-0.14,3.6,1.51,2.59c8.13-4.95,17.26-4.6,26.28-2.69
			C254.6,14.96,255.41,12.06,253.52,11.66L253.52,11.66z"/>
	</g>
</g>
<g>
	<g>
		<path class="st5" d="M251.6,14.35c-8.25-4.08-16.79-1.94-25.16,0.66c-1.57,0.49-1.35,2.99,0.4,2.95
			c7.86-0.18,17.01-1.67,24.72,0.06c1.88,0.42,2.68-2.47,0.8-2.89c-8.01-1.79-17.36-0.35-25.52-0.16c0.13,0.98,0.27,1.96,0.4,2.95
			c7.48-2.33,15.39-4.65,22.85-0.97C251.81,17.79,253.33,15.21,251.6,14.35L251.6,14.35z"/>
	</g>
</g>
<g>
	<g>
		<path class="st5" d="M241.4,7.79c-0.44-0.32-0.92-0.42-1.45-0.47c-0.78-0.08-1.53,0.75-1.5,1.5c0.04,0.88,0.66,1.41,1.5,1.5
			c-0.14-0.01-0.26-0.08-0.06,0.06c0.66,0.48,1.67,0.11,2.05-0.54C242.38,9.08,242.06,8.27,241.4,7.79L241.4,7.79z"/>
	</g>
</g>
<g>
	<g>
		<path class="st5" d="M252.53,18.23c0.77,0.02,1.5-0.18,2.18-0.54c0.71-0.38,0.94-1.37,0.54-2.05c-0.42-0.72-1.33-0.92-2.05-0.54
			c-0.16,0.08-0.19,0.1-0.09,0.05c-0.08,0.03-0.16,0.05-0.24,0.07c-0.1,0.02-0.11,0.02-0.01,0.01c-0.11,0.01-0.22,0.01-0.33,0
			c-0.79-0.02-1.54,0.71-1.5,1.5C251.07,17.56,251.69,18.2,252.53,18.23L252.53,18.23z"/>
	</g>
</g>
<g>
	<g>
		<path class="st5" d="M223.69,16.4c1.03,0.49,2.06,0.97,3.08,1.46c0.39-0.91,0.77-1.83,1.16-2.74c-1.37-0.44-2.47-1.22-3.92-1.45
			c-1.36-0.22-2.7-0.13-4.04,0.19c-1.88,0.45-1.08,3.35,0.8,2.89c1.12-0.27,2.25-0.31,3.36-0.01c1.07,0.28,1.96,0.93,3.01,1.26
			c1.59,0.51,2.71-2.01,1.16-2.74c-1.03-0.49-2.06-0.97-3.08-1.46C223.47,12.99,221.94,15.57,223.69,16.4L223.69,16.4z"/>
	</g>
</g>
<g>
	<g>
		<path class="st5" d="M226.4,15.51c-0.66-0.08-1.3,0.13-1.89,0.41c-0.4,0.2-0.83,0.51-1.18,0.61c-0.78,0.23-1.27,1.05-1.05,1.85
			c0.21,0.77,1.07,1.28,1.85,1.05c0.51-0.15,0.96-0.39,1.42-0.65c0.39-0.23,0.45-0.32,0.85-0.26c0.8,0.1,1.5-0.76,1.5-1.5
			C227.9,16.11,227.21,15.61,226.4,15.51L226.4,15.51z"/>
	</g>
</g>
<g>
	<g>
		<path class="st5" d="M228.01,15.42c-0.73,0.31-1.17,0.77-1.59,1.43c-0.77,1.19,0.5,2.43,1.69,2.2c2.94-0.55,5.86-1.27,8.86-1.22
			c1.93,0.03,1.93-2.97,0-3c-3.27-0.05-6.45,0.73-9.66,1.33c0.56,0.73,1.13,1.47,1.69,2.2c0.17-0.12,0.34-0.23,0.51-0.35
			C231.29,17.25,229.77,14.67,228.01,15.42L228.01,15.42z"/>
	</g>
</g>
<g>
	<g>
		<path class="st5" d="M250.77,11.99c0.22,0.36,0.49,0.64,0.83,0.88c0.19,0.14,0.52,0.24,0.68,0.41c-0.17-0.18-0.02,0.11,0.01,0.22
			c0.13,0.45,0.26,0.89,0.38,1.34c0.53,1.85,3.43,1.07,2.89-0.8c-0.24-0.82-0.39-1.79-0.87-2.51c-0.23-0.35-0.54-0.62-0.9-0.84
			c-0.13-0.08-0.28-0.18-0.42-0.24c-0.18-0.08-0.1-0.11-0.02,0.03C252.37,8.82,249.77,10.32,250.77,11.99L250.77,11.99z"/>
	</g>
</g>
<g>
	<g>
		<path class="st5" d="M253.04,11.84c0.07,0.79,0.08,1.58,0.04,2.38c-0.04,0.78,0.72,1.54,1.5,1.5c0.85-0.04,1.46-0.66,1.5-1.5
			c0.04-0.79,0.03-1.59-0.04-2.38c-0.07-0.78-0.64-1.54-1.5-1.5C253.78,10.37,252.96,11,253.04,11.84L253.04,11.84z"/>
	</g>
</g>
<g>
	<g>
		<path class="st5" d="M250.93,11.65c-2.54-0.11-5.07-0.15-7.61-0.11c-1.93,0.03-1.93,3.03,0,3c2.54-0.03,5.08,0,7.61,0.11
			C252.86,14.73,252.85,11.73,250.93,11.65L250.93,11.65z"/>
	</g>
</g>
<g>
	<g>
		<path class="st5" d="M241.33,9.85c-1.05,0-2.11,0-3.16,0c-1.93,0-1.93,3,0,3c1.05,0,2.11,0,3.16,0
			C243.26,12.85,243.27,9.85,241.33,9.85L241.33,9.85z"/>
	</g>
</g>
<rect x="228.08" y="83.42" class="st11" width="2.49" height="15.76"/>
<rect x="245.59" y="83.42" class="st11" width="2.49" height="15.76"/>
<circle class="st11" cx="229.33" cy="100.04" r="1.95"/>
<circle class="st11" cx="246.83" cy="98.75" r="1.95"/>
<path class="st12" d="M215.82,83.8"/>
</svg>
