<?xml version="1.0" encoding="utf-8"?>
<!-- Generator: Adobe Illustrator 23.0.1, SVG Export Plug-In . SVG Version: 6.00 Build 0)  -->
<svg version="1.1" id="Layer_1" xmlns="http://www.w3.org/2000/svg" xmlns:xlink="http://www.w3.org/1999/xlink" x="0px" y="0px"
	 viewBox="0 0 197 250" style="enable-background:new 0 0 197 250;" xml:space="preserve">
<style type="text/css">
	.st0{fill:#E9635E;}
	.st1{fill:#D8D8D8;}
	.st2{fill:#161616;}
	.st3{fill:#050505;}
	.st4{fill:#494949;}
	.st5{fill:#2D2C2C;}
	.st6{fill:#5E5E5E;}
	.st7{fill:#2F6AC9;}
	.st8{fill:none;}
	.st9{fill:#4C2E07;}
	.st10{fill:#FFFFFF;}
	.st11{fill:#F7F7F7;}
	.st12{fill:#7DC6EF;}
</style>
<ellipse transform="matrix(0.6368 -0.7711 0.7711 0.6368 11.2228 161.1419)" class="st0" cx="176.64" cy="68.66" rx="7.21" ry="3.57"/>
<path class="st1" d="M78.43,231.77c7.18-3.26,8.17-1.73,19.4-4.57c7.25-1.83,12.52-3.9,22.18-4.67c0.16-0.01,0.29-0.02,0.31-0.02
	c9.31-0.71,15.03,0.62,26.9,2.8c12.01,2.2,16.15,2.67,16.96,6.22c0.36,1.57-0.06,3.16-0.49,4.3c-1.9,1.23-4.73,2.93-8.31,4.61
	c-7.12,3.33-13.81,4.95-36.28,7.07c-12.9,1.22-19.45,1.82-24.57,1.32c-9.32-0.89-16.79-3.29-21.78-5.26
	c-1.55-0.62-3.79-2.04-3.88-3.94C68.7,236.18,75.76,232.98,78.43,231.77z"/>
<ellipse transform="matrix(0.4776 -0.8786 0.8786 0.4776 -77.6963 72.7975)" class="st0" cx="22.37" cy="101.74" rx="3.99" ry="7.2"/>
<path class="st2" d="M132.88,86.02c-20.92,4.21-41.84,8.41-62.76,12.62c-1.37-3.23-2.74-6.45-4.11-9.68
	c0.41-0.42,1.07-1.05,1.93-1.75c8.83-7.11,16.7-2.24,30.04-4.5c14.38-2.43,19.01-10.41,32.79-8.15c1.54,0.25,2.8,0.57,3.61,0.79
	C133.9,78.92,133.38,82.47,132.88,86.02z"/>
<path class="st3" d="M122.04,195.93c0,1.02-0.02,3.47-0.3,5.81c-0.05,0.48-0.18,1.43-0.5,2.61c-0.24,0.88-0.45,1.38-0.6,1.68
	c-0.27,0.59-0.57,1.07-0.82,1.41c-0.37,0.18-1.92,0.88-3.88,0.43c-1.97-0.45-3.59-1.89-4.18-3.68c0.88-3.41,1.77-6.82,2.65-10.23
	c2.89,0.29,5.24,0.93,7.06,1.6c0.11,0.04,0.21,0.08,0.32,0.12C121.88,195.76,121.97,195.84,122.04,195.93z"/>
<path class="st3" d="M123.18,201.04c0.68,0.72,2.34,2.45,4.1,3.94c0.36,0.31,1.08,0.91,2.09,1.54c0.76,0.47,1.23,0.69,1.54,0.82
	c0.58,0.25,1.11,0.4,1.51,0.49c0.38-0.11,1.91-0.58,2.94-2.14c1.04-1.56,1.18-3.6,0.39-5.24c-2.89-1.87-5.78-3.73-8.67-5.61
	c-1.78,2.02-2.95,3.95-3.75,5.57c-0.05,0.09-0.09,0.19-0.14,0.28C123.18,200.81,123.18,200.93,123.18,201.04z"/>
<ellipse transform="matrix(0.9931 -0.1173 0.1173 0.9931 -17.0578 14.3555)" class="st4" cx="113.38" cy="152.04" rx="31.37" ry="33.12"/>
<ellipse transform="matrix(0.0337 -0.9994 0.9994 0.0337 47.8563 131.3103)" class="st0" cx="91.83" cy="40.91" rx="30.59" ry="30.01"/>
<g>
	<polygon class="st0" points="143.12,148.08 84.24,159.95 62.39,46.84 121.28,34.96 	"/>
</g>
<path d="M144.58,147.97l-61.54,12.41L69.21,88.81c4.3-0.22,16.45-2.29,28.96-4.78c13.71-2.72,27.85-5.92,32.59-7.64
	C135.36,100.26,139.97,124.11,144.58,147.97z"/>
<path d="M22.22,106.32c0-0.07-0.01-0.13,0-0.21c1.28,0.83,3.17,2.01,5.5,3.32c5.05,2.84,20.59,10.97,44.19,11.91
	c6.7,0.26,26.36,1.05,27.24-5.43c0.26-1.88-1.14-3.91-2.37-5.33c-6.99-0.85-17.62-2.09-31.01-3.49c-4.54-0.48-6.01-0.61-8.14-0.89
	c-8.02-1.05-19.51-3.28-33.87-8.6c-0.11,0.08-0.21,0.17-0.3,0.27C21.44,99.85,21.92,104.41,22.22,106.32z"/>
<path class="st4" d="M115.78,199.81c-0.76,0.63-2.82,1.8-14.07-0.32c-3.51-0.66-8.55-1.6-12.34-4.44c-0.78-0.58-4.65-3.59-4.25-8.59
	c0.02-0.24,0.08-0.53,0.2-1.1c0.8-4.04,1.75-5.89,3.72-11.26c1.63-4.44,1.66-5.05,2.71-5.6c1.38-0.72,2.85-0.48,6.35-1.84
	c0.92-0.36,1.12-0.54,1.63-0.69c3.28-1,6.89-0.33,9.19,0.3c-2.66,1.99-6.49,5.54-8.77,11.05c-1.17,2.84-3.26,7.87-1.05,10.68
	c1.79,2.27,4.86,1.16,11.15,2.99c3.55,1.03,6.29,2.48,8.11,3.6C118.14,196.13,117.56,198.34,115.78,199.81z"/>
<path class="st4" d="M129.02,201.34c0.85,0.31,2.94,0.64,11.35-5.43c2.62-1.89,6.39-4.61,8.46-8.63c0.42-0.82,2.49-5.03,0.37-9.52
	c-0.1-0.21-0.26-0.46-0.56-0.95c-2.11-3.46-3.55-4.82-7.08-9.08c-2.93-3.53-3.17-4.08-4.22-4.2c-1.38-0.16-2.49,0.6-5.84,0.61
	c-0.88,0-1.11-0.09-1.58-0.05c-3.03,0.27-5.73,2.21-7.38,3.63c2.88,0.88,7.28,2.77,11.13,7.05c1.98,2.2,5.49,6.11,4.7,9.52
	c-0.64,2.76-3.54,2.85-8.01,6.85c-2.52,2.25-4.23,4.6-5.31,6.3C125.77,198.78,127.04,200.62,129.02,201.34z"/>
<g>
	<g>
		<path class="st5" d="M97.71,62.08c-2.44,4.99-7.83,4.27-11.6,1.09c-1.5-1.27-3.15,1.3-1.66,2.55c4.94,4.18,12.63,4.49,15.77-1.93
			C101.08,62.04,98.58,60.32,97.71,62.08L97.71,62.08z"/>
	</g>
</g>
<path class="st5" d="M99.23,193.96"/>
<path class="st6" d="M107.1,194.5c-0.28,0.03-0.56,0.05-0.85,0.08"/>
<path class="st5" d="M118.64,188.18"/>
<path class="st7" d="M84.42,99.44"/>
<path class="st5" d="M90.36,193.35"/>
<line class="st8" x1="83.22" y1="160.71" x2="83.22" y2="160.71"/>
<path class="st9" d="M118.75,154.1c-1.93,0.35-3.86,0.68-5.8,1.03"/>
<path class="st9" d="M118.73,153.91c0.01,0.06,0.02,0.13,0.03,0.19"/>
<path class="st9" d="M112.95,155.11c0-0.02-0.01-0.03-0.01-0.05"/>
<path class="st9" d="M112.96,155.13c0-0.01,0-0.02-0.01-0.03"/>
<path class="st6" d="M105.18,198.1"/>
<path class="st6" d="M132.43,192.01"/>
<ellipse transform="matrix(0.9884 -0.1517 0.1517 0.9884 -6.7242 13.219)" class="st10" cx="83.29" cy="50.69" rx="4.84" ry="5.47"/>
<ellipse transform="matrix(0.9884 -0.1517 0.1517 0.9884 -6.0736 16.0524)" class="st10" cx="102.19" cy="47.84" rx="4.84" ry="5.47"/>
<ellipse transform="matrix(0.9884 -0.1519 0.1519 0.9884 -6.3847 13.4073)" class="st5" cx="84.58" cy="48.5" rx="1.18" ry="1.33"/>
<ellipse transform="matrix(0.9884 -0.1519 0.1519 0.9884 -5.7948 16.104)" class="st5" cx="102.53" cy="45.99" rx="1.18" ry="1.33"/>
<g>
	<g>
		<path class="st5" d="M72.88,15.41c-2.03-1.22-4.07-2.16-6.32-2.9c-0.2,0.99-0.39,1.99-0.59,2.99c2.62,0.39,5.24,0.8,7.86,1.19
			c0.91,0.14,1.85-0.91,1.58-1.84c-0.74-2.51-1.57-4.96-2.47-7.41c-0.73,0.66-1.45,1.31-2.18,1.97c2.08,1.38,3.97,2.85,5.8,4.59
			c0.81,0.77,2.15,0.66,2.55-0.51c1-2.95,2.23-5.71,3.77-8.41c-0.8,0.06-1.58,0.11-2.38,0.16c0.46,0.91,0.9,1.82,1.36,2.73
			c0.25,1.13,1.61,1.64,2.48,0.86c1.56-1.42,2.96-2.93,4.3-4.56c-0.84-0.57-1.67-1.14-2.51-1.71c-0.69,1.35-1.03,2.47-1.12,3.99
			c-0.05,0.89,0.84,1.96,1.8,1.63c0.87-0.3,1.74-0.6,2.61-0.91c-0.6-0.54-1.2-1.09-1.8-1.63c-0.2,0.54-0.41,1.09-0.61,1.63
			c-0.66,1.11,0.24,2.64,1.55,2.37c2.48-0.52,4.83-1.24,7.18-2.19c-0.65-0.75-1.29-1.49-1.94-2.24c-0.62,0.79-1.24,1.59-1.86,2.38
			c-0.94,1.22,0.67,2.94,1.94,2.24c2.93-1.63,5.77-3.38,8.54-5.29c-0.7-0.62-1.4-1.26-2.1-1.88c-0.68,1.73-1.75,3.16-3.19,4.29
			c-1.07,0.98-0.17,3.04,1.31,2.67c2.14-0.55,4.28-1.08,6.42-1.63c-0.57-0.67-1.14-1.34-1.73-2.02c-0.67,1.02-1.34,2.04-2.01,3.06
			c-0.91,0.89-0.43,2.6,0.9,2.69c1.4,0.1,1.4,0.12,2.74-0.29c-0.57-0.67-1.14-1.34-1.73-2.02c-0.86,0.73-1.71,1.46-2.57,2.19
			c-0.31-1.04-1.17-1.44-2.16-1.08c-0.45,0.16-0.9,0.33-1.33,0.49c0.68,0.23,1.35,0.46,2.03,0.69c-0.66-1.12-1.17-2.33-1.48-3.62
			c-0.34-1.15-2.04-1.84-2.73-0.56c-0.22,0.4-0.43,0.8-0.64,1.2c0.58-0.2,1.16-0.4,1.74-0.59c-3.18-1.18-5.94-0.67-8.57,1.41
			c0.7,0.05,1.42,0.09,2.12,0.14c-3.45-3.41-9.1,0.43-12.26,2.46c0.57,0.84,1.12,1.69,1.69,2.53c0.8-0.63,1.62-1.28,2.42-1.91
			c-0.57-0.84-1.12-1.69-1.69-2.53c-1.61,1.18-2.98,2.45-4.29,3.97c-1.12,1.28,0.04,3.22,1.69,2.53c0.06-0.02,0.12-0.05,0.18-0.08
			c0.6-0.25,0.93-1.06,0.79-1.68c-0.02-0.08-0.03-0.16-0.05-0.24c-0.16-0.77-0.98-1.43-1.77-1.21c-1.52,0.41-2.36,1.6-3.29,2.85
			c-1.17,1.59,1.35,3.29,2.51,1.71c0.46-0.51,0.92-1.03,1.38-1.54c-0.59-0.4-1.18-0.81-1.77-1.21c0.02,0.08,0.03,0.16,0.05,0.24
			c0.27-0.56,0.53-1.11,0.79-1.68c-0.06,0.02-0.12,0.05-0.18,0.08c0.57,0.84,1.12,1.69,1.69,2.53c1.31-1.52,2.68-2.79,4.29-3.97
			c1.36-1.01-0.23-3.44-1.69-2.53c-1.63,1.02-1.67,1.03-3.06,2.35c-1.19,1.13,0.18,3.49,1.69,2.53c1.29-0.82,7.08-4.73,8.65-3.18
			c0.62,0.61,1.44,0.67,2.12,0.14c1.79-1.48,3.66-1.75,5.59-0.81c0.58,0.22,1.43-0.02,1.74-0.59c0.22-0.4,0.43-0.8,0.64-1.2
			c-0.91-0.18-1.82-0.38-2.73-0.56c0.46,1.56,0.99,2.94,1.75,4.39c0.42,0.81,1.24,0.98,2.03,0.69c0.45-0.16,0.9-0.33,1.33-0.49
			c-0.72-0.36-1.44-0.72-2.16-1.08c1.73,5.82,6.9,1.93,8.37-1.78c0.41-1.02-0.65-2.34-1.73-2.02c-0.65,0.08-1.3,0.16-1.94,0.23
			c0.3,0.89,0.6,1.79,0.9,2.69c1.36-1.35,2.15-2.57,2.86-4.36c0.41-1.06-0.65-2.29-1.73-2.02c-2.14,0.55-4.28,1.08-6.42,1.63
			c0.43,0.89,0.86,1.77,1.31,2.67c1.8-1.63,3-3.37,4.03-5.6c0.53-1.15-1.04-2.62-2.1-1.88c-2.77,1.9-5.6,3.66-8.54,5.29
			c0.65,0.75,1.29,1.49,1.94,2.24c0.62-0.79,1.24-1.59,1.86-2.38c1.03-1.32-0.68-2.73-1.94-2.24c-2.19,0.87-4.16,1.44-6.42,1.92
			c0.51,0.79,1.04,1.58,1.55,2.37c0.78-1.3,0.87-1.61,1.1-3.11c0.15-0.9-0.91-1.93-1.8-1.63c-0.87,0.3-1.74,0.6-2.61,0.91
			c0.6,0.54,1.2,1.09,1.8,1.63c0.21-0.84,0.41-1.67,0.63-2.51c0.9-1.76-1.26-3.23-2.51-1.71c-1.2,1.47-2.41,2.7-3.79,3.97
			c0.82,0.28,1.65,0.57,2.48,0.86c-0.38-1.72-0.93-2.85-2.06-4.17c-0.61-0.71-1.89-0.7-2.38,0.16c-1.67,2.93-3.02,5.91-4.1,9.12
			c0.85-0.17,1.7-0.34,2.55-0.51c-2-1.9-4.08-3.59-6.38-5.1c-1.35-0.89-2.69,0.58-2.18,1.97c0.81,2.18,1.55,4.39,2.2,6.62
			c0.52-0.61,1.06-1.22,1.58-1.84c-2.62-0.39-5.24-0.8-7.86-1.19c-1.7-0.26-2.2,2.46-0.59,2.99c2.08,0.67,3.71,1.39,5.63,2.54
			C72.88,18.97,74.56,16.43,72.88,15.41L72.88,15.41z"/>
	</g>
</g>
<g>
	<g>
		<path class="st5" d="M81.72,10.37c1.9-0.38,1.3-3.4-0.6-3.02C79.22,7.73,79.82,10.75,81.72,10.37L81.72,10.37z"/>
	</g>
</g>
<g>
	<g>
		<path class="st5" d="M82.37,10.19c1.9-0.38,1.3-3.4-0.6-3.02C79.87,7.55,80.46,10.57,82.37,10.19L82.37,10.19z"/>
	</g>
</g>
<g>
	<g>
		<path class="st5" d="M76.1,14.19c1.9-0.38,1.3-3.4-0.6-3.02S74.2,14.57,76.1,14.19L76.1,14.19z"/>
	</g>
</g>
<g>
	<g>
		<path class="st5" d="M74.39,14.69c1.9-0.38,1.3-3.4-0.6-3.02S72.49,15.07,74.39,14.69L74.39,14.69z"/>
	</g>
</g>
<g>
	<g>
		<path class="st5" d="M74.14,17.88c1.9-0.38,1.3-3.4-0.6-3.02S72.24,18.26,74.14,17.88L74.14,17.88z"/>
	</g>
</g>
<g>
	<g>
		<path class="st5" d="M99.93,11.72c1.9-0.38,1.3-3.4-0.6-3.02C97.43,9.08,98.03,12.1,99.93,11.72L99.93,11.72z"/>
	</g>
</g>
<g>
	<g>
		<path class="st5" d="M99.36,8.58c-10.03-0.15-19.93,1.53-27.51,8.66c-1.42,1.33,0.58,3.65,2,2.31c7-6.59,16.05-8.04,25.3-7.91
			C101.08,11.69,101.3,8.61,99.36,8.58L99.36,8.58z"/>
	</g>
</g>
<g>
	<g>
		<path class="st5" d="M98.01,11.67c-8.93-2.48-16.89,1.37-24.6,5.64c-1.45,0.8-0.73,3.28,0.98,2.89
			c7.69-1.74,16.39-5.05,24.31-4.83c1.93,0.05,2.14-3.02,0.21-3.07c-8.23-0.22-17.14,3.08-25.12,4.89c0.32,0.96,0.66,1.92,0.98,2.89
			c6.89-3.83,14.2-7.73,22.27-5.5C98.91,15.09,99.89,12.19,98.01,11.67L98.01,11.67z"/>
	</g>
</g>
<g>
	<g>
		<path class="st5" d="M86.68,7.08c-0.5-0.24-0.99-0.24-1.52-0.19c-0.78,0.07-1.35,1.06-1.18,1.81c0.22,0.88,0.93,1.29,1.77,1.21
			c-0.14,0.02-0.27-0.03-0.05,0.07c0.74,0.35,1.66-0.22,1.91-0.95C87.9,8.18,87.42,7.43,86.68,7.08L86.68,7.08z"/>
	</g>
</g>
<g>
	<g>
		<path class="st5" d="M99.7,15.39c0.76-0.13,1.44-0.48,2.04-0.97c0.62-0.52,0.65-1.57,0.12-2.17c-0.56-0.64-1.49-0.66-2.12-0.14
			c-0.14,0.11-0.17,0.14-0.08,0.07c-0.07,0.05-0.15,0.08-0.22,0.12c-0.09,0.04-0.1,0.04-0.01,0.01c-0.11,0.03-0.21,0.05-0.32,0.07
			c-0.78,0.14-1.37,1.02-1.18,1.81C98.13,15,98.87,15.52,99.7,15.39L99.7,15.39z"/>
	</g>
</g>
<g>
	<g>
		<path class="st5" d="M70.99,19.25c1.11,0.29,2.22,0.57,3.32,0.86c0.2-0.99,0.39-1.99,0.59-2.99c-1.43-0.17-2.67-0.74-4.14-0.68
			c-1.38,0.05-2.68,0.4-3.93,0.99c-1.76,0.82-0.39,3.59,1.36,2.75c1.05-0.49,2.15-0.76,3.3-0.67c1.11,0.07,2.11,0.55,3.21,0.67
			c1.66,0.2,2.26-2.56,0.59-2.99c-1.11-0.29-2.22-0.57-3.32-0.86C70.09,15.86,69.1,18.76,70.99,19.25L70.99,19.25z"/>
	</g>
</g>
<g>
	<g>
		<path class="st5" d="M73.47,17.82c-0.66,0.05-1.25,0.39-1.78,0.79c-0.35,0.28-0.71,0.68-1.04,0.85c-0.72,0.39-1.04,1.31-0.66,2.07
			c0.36,0.73,1.31,1.08,2.03,0.69c0.47-0.25,0.87-0.58,1.27-0.94c0.34-0.31,0.38-0.41,0.78-0.43c0.81-0.06,1.32-1.06,1.18-1.81
			C75.07,18.12,74.29,17.76,73.47,17.82L73.47,17.82z"/>
	</g>
</g>
<g>
	<g>
		<path class="st5" d="M75.04,17.41c-0.66,0.46-1,1.01-1.28,1.75c-0.52,1.35,0.98,2.35,2.1,1.88c2.78-1.14,5.51-2.44,8.47-2.98
			c1.9-0.35,1.3-3.37-0.6-3.02c-3.22,0.6-6.2,2.01-9.23,3.25c0.7,0.62,1.4,1.26,2.1,1.88c0.14-0.15,0.29-0.3,0.43-0.45
			C78.63,18.6,76.62,16.31,75.04,17.41L75.04,17.41z"/>
	</g>
</g>
<g>
	<g>
		<path class="st5" d="M96.73,9.45c0.29,0.32,0.61,0.55,0.99,0.72c0.21,0.1,0.56,0.14,0.75,0.28c-0.2-0.15,0,0.11,0.05,0.22
			c0.22,0.43,0.43,0.84,0.64,1.27c0.89,1.76,3.59,0.4,2.68-1.38c-0.4-0.78-0.74-1.72-1.36-2.35c-0.3-0.31-0.65-0.52-1.05-0.67
			c-0.14-0.05-0.31-0.13-0.46-0.16c-0.19-0.04-0.12-0.09-0.01,0.03C97.67,5.95,95.41,7.97,96.73,9.45L96.73,9.45z"/>
	</g>
</g>
<g>
	<g>
		<path class="st5" d="M98.93,8.85c0.23,0.78,0.39,1.57,0.51,2.39c0.12,0.79,1.02,1.41,1.77,1.21c0.83-0.21,1.3-0.95,1.18-1.81
			c-0.12-0.8-0.29-1.61-0.51-2.39c-0.22-0.77-0.94-1.42-1.77-1.21C99.36,7.23,98.68,8.02,98.93,8.85L98.93,8.85z"/>
	</g>
</g>
<g>
	<g>
		<path class="st5" d="M96.82,9.08c-2.52,0.39-5.01,0.85-7.5,1.39c-1.89,0.41-1.29,3.43,0.6,3.02c2.49-0.53,4.99-1,7.5-1.39
			C99.33,11.8,98.72,8.78,96.82,9.08L96.82,9.08z"/>
	</g>
</g>
<g>
	<g>
		<path class="st5" d="M87.02,9.17c-1.03,0.21-2.07,0.42-3.11,0.63c-1.9,0.38-1.3,3.4,0.6,3.02c1.03-0.21,2.07-0.42,3.11-0.63
			C89.52,11.8,88.93,8.78,87.02,9.17L87.02,9.17z"/>
	</g>
</g>
<polygon class="st11" points="94.28,101.22 91.83,101.71 88.68,85.84 91.13,85.35 "/>
<polygon class="st11" points="111.49,97.76 109.04,98.25 105.89,82.38 108.34,81.89 "/>
<ellipse transform="matrix(0.9904 -0.1384 0.1384 0.9904 -13.2661 13.8878)" class="st11" cx="93.23" cy="102.33" rx="1.96" ry="2"/>
<ellipse transform="matrix(0.9904 -0.1384 0.1384 0.9904 -12.4446 16.1883)" class="st11" cx="110.18" cy="97.58" rx="1.96" ry="2"/>
<path class="st12" d="M76.71,88.66"/>
<path d="M178.59,72.28c-0.03-0.05-0.05-0.12-0.08-0.18c-0.78,1.24-1.93,3.04-3.41,5.12c-3.21,4.52-13.33,17.94-33.1,28.72
	c-5.61,3.06-22.1,12.04-25.36,6.96c-0.95-1.47-0.54-3.76-0.05-5.49c5.64-3.67,14.23-9.22,25.12-16.06c3.69-2.33,4.89-3.06,6.6-4.19
	c6.44-4.28,15.39-11.02,25.58-21.57c0.12,0.02,0.25,0.05,0.36,0.1C176.75,66.51,178.1,70.54,178.59,72.28z"/>
</svg>
