<?xml version="1.0" encoding="utf-8"?>
<!-- Generator: Adobe Illustrator 23.0.1, SVG Export Plug-In . SVG Version: 6.00 Build 0)  -->
<svg version="1.1" id="Layer_1" xmlns="http://www.w3.org/2000/svg" xmlns:xlink="http://www.w3.org/1999/xlink" x="0px" y="0px"
	 viewBox="0 0 500 250" style="enable-background:new 0 0 500 250;" xml:space="preserve">
<style type="text/css">
	.st0{fill:#AAAAAA;}
	.st1{fill:#D8D8D8;}
	.st2{fill:#595959;}
	.st3{fill:#050505;}
	.st4{fill:#E9635E;}
	.st5{fill:#2D2C2C;}
	.st6{fill:none;stroke:#2D2C2C;stroke-width:2;stroke-miterlimit:10;}
	.st7{fill:none;stroke:#2D2C2C;stroke-width:3;stroke-miterlimit:10;}
	.st8{fill:#EDEDED;}
	.st9{fill:#5E5E5E;}
	.st10{fill:#D6D6D6;}
	.st11{fill:#2F6AC9;}
	.st12{fill:#EAEAEA;}
	.st13{fill:#6B6B6B;}
	.st14{fill:#757575;}
	.st15{fill:#2E9B10;}
	.st16{fill:#E24B57;}
	.st17{fill:none;stroke:#6B6B6B;stroke-width:2;stroke-miterlimit:10;}
	.st18{font-family:'MyriadPro-Regular';}
	.st19{font-size:3.8439px;}
	.st20{font-size:4.7729px;}
	.st21{fill:#6B440C;}
	.st22{fill:#1B8212;}
	.st23{fill:#4C2E07;}
	.st24{fill:#FFFFFF;}
	.st25{fill:#EFD225;}
</style>
<path class="st0" d="M147.38,49.56L147.38,49.56c-0.39-0.39-0.93-0.49-1.2-0.22l-2.95,2.93c-0.27,0.27-0.17,0.81,0.22,1.2v0
	c0.39,0.39,0.93,0.49,1.2,0.22l2.95-2.93C147.87,50.49,147.77,49.96,147.38,49.56z"/>
<path class="st0" d="M149.75,51.98L149.75,51.98c-0.39-0.39-0.93-0.49-1.2-0.22l-2.95,2.93c-0.27,0.27-0.17,0.81,0.22,1.2l0,0
	c0.39,0.39,0.93,0.49,1.2,0.22l2.95-2.93C150.24,52.91,150.14,52.37,149.75,51.98z"/>
<path class="st1" d="M382.72,226.19c-35.72,16.83-105.9,4.34-107.99-8.15c-0.51-3.02,0.73-5.32,0.73-5.32
	c2.48-1.43,6.17-3.39,10.83-5.28c9.28-3.76,17.94-5.4,47.01-6.81c16.68-0.81,25.16-1.19,31.76-0.3c12.02,1.62,21.61,5.01,28,7.74
	c2.2,1.1,4.63,2.78,4.92,5.12C398.65,218.68,387.01,224.17,382.72,226.19z"/>
<g>
	<g>
		<path d="M322.17,206.18c-38.44-7.27-76.69,10.78-115.04,2.88c-8.63-1.78-16.98-4.95-24.27-9.95c-7.87-5.4-14.09-12.83-19.96-20.25
			c-12.24-15.49-23.27-32.13-26.77-51.91c-2.04-11.53-1.88-23.34-1.35-35c0.49-10.87,0.06-22.96,6.45-32.3
			c1.09-1.6-1.51-3.1-2.59-1.51c-5.16,7.55-5.92,16.52-6.43,25.4c-0.6,10.58-1.15,21.23-0.45,31.82c1.36,20.3,8.78,37.9,20.5,54.37
			c10.73,15.07,22.62,30.62,40.15,37.97c16.61,6.97,35.28,7.18,52.94,5.46c25.29-2.47,50.58-8.88,76.01-4.08
			C323.26,209.43,324.07,206.54,322.17,206.18L322.17,206.18z"/>
	</g>
</g>
<path class="st2" d="M366.66,132.74l-41.45-0.1c-1.41,0-2.56,2.11-2.57,4.72l-0.2,78.48c0-0.03,0-0.11,0-0.08
	c0,0.96,46.56,1.4,46.56,0.12l0,0c0,0,0,0.03,0,0.08l0.2-78.48C369.21,134.86,368.07,132.74,366.66,132.74z"/>
<path class="st1" d="M282.92,243.28c-2.52,4.29-22.62,4.16-22.62,4.16c-55.69-0.36-91.7,2.82-93.04-2.9
	c-0.19-0.83,0.36-1.74,2.12-3.01c18.15-13.12,78.61-8.03,89.08-7.1c3.82,0.38,7.85,0.85,12.07,1.46c3.64,0.52,7.1,1.1,10.35,1.69
	c0.63,0.37,1.96,1.25,2.45,2.63C283.32,240.22,283.85,241.69,282.92,243.28z"/>
<path class="st3" d="M224.66,241.38c-1.34,0.22-4.57,0.71-7.72,0.91c-0.65,0.04-1.93,0.11-3.56,0c-1.22-0.08-1.93-0.21-2.37-0.3
	c-0.85-0.18-1.56-0.41-2.08-0.6c-0.34-0.38-1.68-1.95-1.62-4.23c0.06-2.29,1.5-4.39,3.7-5.43c4.72,0.25,9.45,0.51,14.17,0.76
	c0.41,3.27,0.21,6.01-0.18,8.19c-0.02,0.13-0.05,0.25-0.07,0.38C224.83,241.16,224.74,241.27,224.66,241.38z"/>
<path d="M249.99,240.56c-1.17,0.34-4.01,1.15-6.8,1.65c-0.57,0.1-1.71,0.29-3.17,0.35c-1.09,0.04-1.74-0.02-2.14-0.07
	c-0.78-0.1-1.42-0.26-1.9-0.4c-0.33-0.34-1.66-1.77-1.8-4.05c-0.14-2.28,0.97-4.51,2.84-5.77c4.23-0.21,8.46-0.41,12.7-0.62
	c0.64,3.22,0.69,5.97,0.52,8.17c-0.01,0.13-0.02,0.26-0.03,0.38C250.13,240.32,250.06,240.44,249.99,240.56z"/>
<path class="st4" d="M142.56,74.69c-0.85,2.09-3.03,3.55-4.93,3.57c-1.53,0.01-2.48-0.91-3.19-1.6c-1.16-1.12-3.74-4.37-2.43-7.05
	c1.3-2.64,5.13-3.24,7.51-2.09C141.72,68.58,143.79,71.67,142.56,74.69z"/>
<ellipse transform="matrix(0.9724 -0.2334 0.2334 0.9724 -28.6285 70.2755)" class="st4" cx="282.57" cy="156.08" rx="4.76" ry="6.29"/>
<ellipse transform="matrix(0.999 -0.0448 0.0448 0.999 -6.4768 10.4107)" class="st5" cx="228.88" cy="149.61" rx="35.39" ry="33.84"/>
<ellipse transform="matrix(0.999 -0.0447 0.0447 0.999 -1.299 10.0319)" class="st4" cx="223.63" cy="34.06" rx="33.87" ry="31.23"/>
<g>
	
		<rect x="192.38" y="34" transform="matrix(0.999 -0.0446 0.0446 0.999 -3.9138 10.1759)" class="st4" width="67.73" height="117.72"/>
</g>
<circle class="st6" cx="211.96" cy="44.42" r="6.73"/>
<ellipse transform="matrix(0.2578 -0.9662 0.9662 0.2578 134.8029 263.3117)" class="st6" cx="238.78" cy="43.92" rx="7.75" ry="7.69"/>
<line class="st7" x1="218.92" y1="44.84" x2="231.15" y2="43.12"/>
<path class="st8" d="M264.34,150.27l-70.72,3.16L190.3,79c4.83,0.44,18.73,0.19,33.1-0.41c15.74-0.66,32.05-1.73,37.62-2.74
	C262.13,100.66,263.24,125.47,264.34,150.27z"/>
<g>
	<polygon class="st4" points="237.72,77.78 233.85,84.65 219.31,78.54 	"/>
</g>
<path class="st8" d="M208.88,108.48c0.03-0.06,0.07-0.12,0.1-0.18c-1.52,0-3.75-0.04-6.41-0.21c-5.78-0.39-23.27-2.09-44.23-14.82
	c-5.95-3.61-23.42-14.22-21.01-20.48c0.7-1.82,2.9-2.82,4.67-3.37c6.49,3.27,16.34,8.27,28.65,14.71c4.18,2.19,5.52,2.91,7.51,3.88
	c7.48,3.68,18.56,8.3,33.64,11.82c0.05,0.14,0.1,0.28,0.14,0.42C212.73,103.19,210.07,106.95,208.88,108.48z"/>
<path class="st8" d="M286.62,152.93c-0.06,0.03-0.13,0.07-0.19,0.1c0.09-1.54,0.19-3.79,0.16-6.49c-0.06-5.85-0.8-23.56-12.79-44.96
	c-3.4-6.07-13.4-23.9-20.06-21.56c-1.94,0.68-3.1,2.89-3.78,4.67c3.01,6.61,7.64,16.65,13.61,29.21c2.03,4.26,2.7,5.63,3.59,7.65
	c3.38,7.62,7.53,18.9,10.3,34.2c0.14,0.06,0.28,0.11,0.43,0.15C280.88,156.74,284.95,154.11,286.62,152.93z"/>
<path class="st5" d="M211.92,232.07c-0.12-0.01-1.05-0.08-1.06-0.13c0-0.01,0.01-0.01,0.02-0.01c-0.01,0.01-0.01,0.01-0.02,0.01
	c-0.29-0.02-0.01-10.59-1.23-22.87c-0.46-4.64-0.74-5.5-1.24-11.22c-0.51-5.76-0.76-8.65-0.71-11.19
	c0.03-1.36,0.53-19.82,8.64-20.51c1.44-0.12,4.03,0.22,8.11,3.58c-1.48,9.75-2.4,20.92-2.11,33.32c0.26,11,1.42,21.15,3.03,30.24
	c-0.08,0.03-0.17,0.06-0.26,0.09c0,0-0.13,0.04-0.27,0.08C224.3,233.59,213.07,232.16,211.92,232.07z"/>
<path class="st5" d="M237.35,232.69c-0.07-0.01-0.24-0.02-0.24-0.02c-0.08-0.01-0.16-0.02-0.24-0.02
	c-0.37-2.84-0.87-7.06-1.24-12.19c-1.97-26.69,0.12-65.65,10.02-67.48c1.47-0.27,3.78,0.16,7.17,3.83
	c-0.28,9.63-0.92,17.39-1.44,22.68c-0.79,7.93-1.35,10.46-1.78,17.81c-0.41,7.05-0.35,12.5-0.3,17.81
	c0.05,5.11,0.23,11.28,0.68,18.28c-0.04,0.02-0.08,0.04-0.12,0.06c-0.04,0.02-0.08,0.04-0.12,0.06c-0.1,0.05-0.19,0.09-0.25,0.11
	C244.8,235.62,237.83,232.73,237.35,232.69z"/>
<path class="st8" d="M167.57,94.7"/>
<g>
	<g>
		<path class="st5" d="M238.62,57.11c-1.88,5.48-8.42,5.35-12.76,2.99c-1.7-0.92-3.21,1.67-1.51,2.59
			c6.2,3.37,14.62,2.63,17.16-4.78C242.14,56.08,239.25,55.3,238.62,57.11L238.62,57.11z"/>
	</g>
</g>
<path class="st5" d="M202.47,188.8"/>
<path class="st9" d="M213.31,231.83c-0.32-0.03-0.64-0.06-0.96-0.09"/>
<path class="st5" d="M227.47,227.82"/>
<path class="st10" d="M216.11,96.81c-0.08,0.86-0.16,1.72-0.25,2.58c-0.08,0.86-0.16,1.72-0.25,2.58c-2.2,0.69-5.12,1.32-8.57,1.26
	c-1.49-0.03-2.85-0.18-4.06-0.39c-0.55-1.71-1.08-3.86-1.32-6.38c-0.13-1.32-0.16-2.55-0.13-3.66c0.58-0.12,1.34-0.27,2.23-0.41
	c1.24-0.2,2.81-0.39,4.61-0.5c1.69-0.1,3.81-0.12,6.27,0.08c0.19-0.03,0.35,0,0.48,0.05C216.03,92.38,216.38,94.31,216.11,96.81z"/>
<path class="st11" d="M206.53,92.03c0.2-0.05,0.42-0.07,0.65-0.06c0.1-0.01,0.22-0.01,0.33-0.01c0.12-0.02,0.25-0.02,0.38-0.02
	c0,0,0.01,0,0.01,0l-0.69-3.37c-0.03-0.18-0.2-0.29-0.38-0.26l-0.78,0.14c-0.18,0.03-0.29,0.2-0.26,0.38l0.6,3.22
	C206.44,92.04,206.48,92.04,206.53,92.03z"/>
<path class="st3" d="M208.65,91.92c0.01,0,0.01,0,0.02,0c0,0,0.01,0,0.01,0c0.02,0,0.03,0.01,0.04,0.01c0.03,0,0.05,0.01,0.07,0.01
	c0.21-0.04,0.44-0.05,0.68-0.02c0.01,0,0.03,0,0.04,0.01l-0.14-3.1c0-0.18-0.15-0.32-0.33-0.31l-0.79,0.02
	c-0.18,0-0.32,0.15-0.31,0.33l0.08,3.07C208.21,91.91,208.42,91.9,208.65,91.92z"/>
<path class="st11" d="M205.47,92.06L205.47,92.06z"/>
<path class="st12" d="M151.3,229.26"/>
<path class="st2" d="M373.91,208.07"/>
<path class="st13" d="M358.24,150.78h-26.79c-1.49,0-2.7-1.21-2.7-2.7v-1.21c0-1.49,1.21-2.7,2.7-2.7h26.79c1.49,0,2.7,1.21,2.7,2.7
	v1.21C360.94,149.57,359.73,150.78,358.24,150.78z"/>
<path class="st14" d="M140.98,61.95l-3.67-3.68c-0.53-0.54-0.59-1.35-0.12-1.82l4.99-4.97c0.47-0.47,1.28-0.41,1.82,0.12l3.67,3.68
	c0.53,0.54,0.59,1.35,0.12,1.82l-4.99,4.97C142.32,62.54,141.51,62.48,140.98,61.95z"/>
<circle class="st15" cx="357.34" cy="139.12" r="1.68"/>
<circle class="st16" cx="352.53" cy="139.12" r="1.68"/>
<path class="st2" d="M347.49,219.13"/>
<g>
	<g>
		<path class="st5" d="M205.48,42.55c-3.1-0.45-6.2-0.89-9.31-1.34c-1.84-0.26-4.03-0.92-5.79-0.09c-3.04,1.44-2.94,5.58-1.48,8.09
			c0.97,1.67,3.56,0.16,2.59-1.51c-0.83-1.42-0.97-3.51,1.03-3.97c1.16-0.27,3.37,0.46,4.59,0.63c2.52,0.36,5.04,0.72,7.56,1.09
			C206.58,45.72,207.39,42.83,205.48,42.55L205.48,42.55z"/>
	</g>
</g>
<g>
	<g>
		<path class="st5" d="M247.42,42.57c1.98-1.21,3.96-2.41,5.97-3.57c0.56-0.32,2.41-1.81,3.02-1.73c0.07-0.58,0.08-0.45,0.04,0.38
			c-0.02,0.48-0.06,0.95-0.12,1.42c-0.21,1.92,2.79,1.9,3,0c0.25-2.26,0.38-5.99-3.01-5.09c-1.67,0.44-3.34,1.79-4.82,2.65
			c-1.88,1.1-3.74,2.22-5.59,3.35C244.26,40.99,245.77,43.58,247.42,42.57L247.42,42.57z"/>
	</g>
</g>
<circle class="st17" cx="345.81" cy="167.47" r="5.28"/>
<path class="st13" d="M351.76,168.67c0.69,0.23-5.38,12.97-5.95,12.97s-6.64-12.75-5.95-12.97c0.59-0.19,2.24,3.27,5.67,3.46
	c0.19,0.01,0.38,0.01,0.57,0C349.52,171.94,351.16,168.48,351.76,168.67z"/>
<text transform="matrix(1.1515 0 0 1 342.2041 168.4814)" class="st13 st18 st19">{     }</text>
<text transform="matrix(1.1345 0 0 1 344.126 167.6729)" class="st13 st18 st20">...</text>
<path class="st5" d="M195.05,227.31"/>
<path class="st21" d="M264.34,148.48c-23.65,1.04-47.3,2.07-70.95,3.11c0,0.04,0.01,0.07,0.01,0.11c0.06,0.75,0.21,1.48,0.42,2.17
	c52-1.84,70.57-2.89,70.56-3.46c0-0.03-0.05-0.66-0.05-1.54C264.34,148.71,264.34,148.58,264.34,148.48z"/>
<line class="st22" x1="193.77" y1="153.78" x2="193.77" y2="153.78"/>
<path class="st22" d="M263.91,150.42"/>
<path class="st22" d="M263.91,150.42"/>
<path class="st23" d="M234.51,152.52c-2.21,0.05-4.42,0.11-6.64,0.16"/>
<path class="st23" d="M234.51,152.32c0,0.07,0,0.13,0,0.2"/>
<path class="st23" d="M227.88,152.6c0.04-0.83,0.09-1.66,0.13-2.5c2.19-0.11,4.38-0.21,6.56-0.32c-0.02,0.85-0.04,1.69-0.05,2.54"/>
<path class="st23" d="M227.87,152.65c0-0.02,0-0.04,0-0.05"/>
<path class="st23" d="M227.87,152.68c0-0.01,0-0.02,0-0.03"/>
<path class="st9" d="M210.41,235.04"/>
<path class="st9" d="M241.87,234.44"/>
<ellipse class="st24" cx="213.08" cy="44.24" rx="3.56" ry="3.62"/>
<ellipse class="st24" cx="237.72" cy="43.03" rx="3.56" ry="3.62"/>
<ellipse class="st5" cx="213.82" cy="44.39" rx="1.34" ry="1.36"/>
<ellipse class="st5" cx="236.97" cy="43.18" rx="1.34" ry="1.36"/>
<circle class="st25" cx="347.53" cy="139.12" r="1.68"/>
</svg>
