<?xml version="1.0" encoding="utf-8"?>
<!-- Generator: Adobe Illustrator 23.0.1, SVG Export Plug-In . SVG Version: 6.00 Build 0)  -->
<svg version="1.1" id="Layer_1" xmlns="http://www.w3.org/2000/svg" xmlns:xlink="http://www.w3.org/1999/xlink" x="0px" y="0px"
	 viewBox="0 0 500 250" style="enable-background:new 0 0 500 250;" xml:space="preserve">
<style type="text/css">
	.st0{fill:#D8D8D8;}
	.st1{fill:#DDDDDD;}
	.st2{fill:#E9635E;}
	.st3{fill:#050505;}
	.st4{fill:#2D2C2C;}
	.st5{fill:none;stroke:#2D2C2C;stroke-width:3;stroke-miterlimit:10;}
	.st6{fill:#EDEDED;}
	.st7{fill:#5E5E5E;}
	.st8{fill:#D6D6D6;}
	.st9{fill:#2F6AC9;}
	.st10{fill:#6B440C;}
	.st11{fill:none;}
	.st12{fill:#1B8212;}
	.st13{fill:#4C2E07;}
	.st14{fill:#FFFFFF;}
</style>
<path class="st0" d="M349.93,241.2c-4.48,4.28-39.88,4.37-39.88,4.37c-98.07,0.23-161.51,3.77-163.82-1.9
	c-0.33-0.82,0.66-1.74,3.76-3.01c32.1-13.22,138.52-8.8,156.94-7.98c6.72,0.33,13.82,0.77,21.24,1.32
	c6.41,0.48,12.49,1.01,18.21,1.57c1.11,0.36,3.43,1.22,4.29,2.58C350.66,238.15,351.58,239.61,349.93,241.2z"/>
<path class="st1" d="M221.7,111c0.03-0.06,0.07-0.12,0.1-0.18c-1.4,0.07-3.44,0.14-5.88,0.09c-5.29-0.1-21.28-0.94-39.93-12.27
	c-3.92-2.38-20.41-12.59-18.31-18.83c0.65-1.94,2.95-3.01,4.93-3.62c5.72,2.98,14.35,7.46,25.15,13.03
	c4.18,2.16,5.31,2.74,6.71,3.41c6.69,3.21,16.65,7.16,30.34,9.87c0.04,0.13,0.08,0.26,0.11,0.4
	C225.49,105.7,222.87,109.46,221.7,111z"/>
<path class="st1" d="M279.15,150.97c-19.81,1.49-39.63,2.99-59.44,4.48c-0.01,0-1.52,0.27-2.24,0c-1.18-0.44-1.35-2.7-1.52-6.18
	c-0.16-3.2-0.24-4.81-0.25-6.16c0-0.39,0-0.07-0.38-9.23c-0.13-3.23-0.28-6.9-0.45-10.83c-0.11-2.59-1.24-30.06-1.52-37.03
	c9.71,0.12,19.93,0,30.62-0.48c14.57-0.66,29.66-1.69,34.81-2.65c0.01,0.19,2.03,49.37,2.03,49.39c0.11,2.71,0.17,4.07,0.17,4.07
	c0.18,4.18,0.24,4.79,0.24,5.3c0,0,0,0.15-0.01,0.3c-0.06,1.57-1.39,12.31-1.96,12.25c-0.4-0.05-0.1-5.43-0.09-5.43
	C279.16,148.77,279.16,149.23,279.15,150.97z"/>
<ellipse transform="matrix(0.9703 -0.2417 0.2417 0.9703 -29.9415 76.3275)" class="st2" cx="296.13" cy="160.2" rx="4.63" ry="7.12"/>
<path class="st3" d="M244.83,240.87c-1.18,0.21-4.04,0.68-6.82,0.86c-0.57,0.04-1.71,0.1-3.15,0c-1.08-0.08-1.71-0.2-2.1-0.29
	c-0.75-0.17-1.38-0.39-1.84-0.58c-0.3-0.36-1.49-1.86-1.43-4.03c0.05-2.18,1.33-4.19,3.27-5.18c4.18,0.24,8.35,0.49,12.53,0.73
	c0.36,3.12,0.18,5.74-0.16,7.81c-0.02,0.12-0.04,0.24-0.06,0.36C244.99,240.66,244.91,240.77,244.83,240.87z"/>
<path d="M267.24,240.09c-1.04,0.33-3.55,1.1-6.02,1.57c-0.51,0.1-1.52,0.28-2.81,0.33c-0.96,0.04-1.54-0.02-1.89-0.07
	c-0.69-0.09-1.26-0.24-1.68-0.38c-0.3-0.33-1.47-1.69-1.59-3.86c-0.12-2.18,0.86-4.31,2.51-5.5c3.74-0.2,7.49-0.39,11.23-0.59
	c0.56,3.07,0.61,5.69,0.46,7.79c-0.01,0.12-0.02,0.24-0.03,0.36C267.36,239.86,267.3,239.97,267.24,240.09z"/>
<ellipse transform="matrix(0.0652 -0.9979 0.9979 0.0652 79.3518 391.4015)" class="st4" cx="248.58" cy="153.35" rx="32.28" ry="31.29"/>
<ellipse transform="matrix(0.8898 -0.4563 0.4563 0.8898 7.1752 116.0555)" class="st2" cx="243.91" cy="43.17" rx="30" ry="29.73"/>
<g>
	<polygon class="st2" points="278.48,153.88 218.64,156.75 214.01,44.61 273.84,41.73 	"/>
</g>
<ellipse class="st5" cx="233.61" cy="53.07" rx="5.95" ry="6.44"/>
<ellipse transform="matrix(0.0265 -0.9996 0.9996 0.0265 197.9297 308.4078)" class="st5" cx="257.31" cy="52.58" rx="7.39" ry="6.8"/>
<line class="st5" x1="239.76" y1="53.45" x2="250.58" y2="51.81"/>
<path class="st6" d="M279.93,153.99L217.39,157l-2.93-70.97c4.27,0.42,16.56,0.18,29.27-0.39c13.92-0.63,28.35-1.65,33.27-2.62
	C277.97,106.68,278.95,130.34,279.93,153.99z"/>
<g>
	<polygon class="st2" points="256.39,84.86 252.97,91.41 240.11,85.59 	"/>
</g>
<path class="st4" d="M233.57,231.99c-0.11-0.01-0.93-0.08-0.94-0.12l0.01-0.01c-0.01,0.01-0.01,0.01-0.01,0.01
	c-0.25-0.02-0.01-10.1-1.09-21.81c-0.41-4.42-0.65-5.25-1.1-10.7c-0.45-5.5-0.67-8.25-0.63-10.67c0.02-1.29,0.47-18.9,7.64-19.56
	c1.27-0.12,3.56,0.21,7.17,3.41c-1.31,9.3-2.12,19.95-1.87,31.78c0.23,10.49,1.26,20.17,2.68,28.83c-0.07,0.03-0.15,0.06-0.23,0.09
	c0,0-0.12,0.04-0.24,0.08C244.52,233.44,234.59,232.08,233.57,231.99z"/>
<path class="st4" d="M256.06,232.58c-0.07-0.01-0.21-0.02-0.21-0.02c-0.07-0.01-0.14-0.01-0.21-0.02c-0.33-2.7-0.77-6.73-1.1-11.62
	c-1.74-25.45,0.11-62.61,8.86-64.35c1.3-0.26,3.34,0.15,6.34,3.65c-0.25,9.18-0.81,16.58-1.28,21.63c-0.7,7.57-1.19,9.97-1.57,16.99
	c-0.36,6.72-0.31,11.92-0.26,16.99c0.05,4.87,0.21,10.75,0.6,17.43c-0.03,0.02-0.07,0.04-0.11,0.06c-0.04,0.02-0.07,0.04-0.11,0.06
	c-0.09,0.05-0.17,0.08-0.22,0.11C262.65,235.38,256.49,232.63,256.06,232.58z"/>
<path class="st6" d="M217.91,106.67"/>
<g>
	<g>
		<path class="st4" d="M257.02,65.14c-1.59,4.98-7.08,5.13-11.02,2.81c-1.67-0.98-3.18,1.61-1.51,2.59
			c5.73,3.36,13.24,2.26,15.43-4.6C260.5,64.09,257.6,63.3,257.02,65.14L257.02,65.14z"/>
	</g>
</g>
<path class="st4" d="M225.22,190.73"/>
<path class="st7" d="M234.8,231.77c-0.28-0.03-0.56-0.06-0.85-0.09"/>
<path class="st4" d="M247.32,227.94"/>
<path class="st8" d="M237.28,103.01c-0.07,0.82-0.15,1.64-0.22,2.46s-0.15,1.64-0.22,2.46c-1.94,0.66-4.53,1.26-7.57,1.2
	c-1.32-0.02-2.52-0.17-3.59-0.37c-0.49-1.63-0.95-3.68-1.17-6.08c-0.11-1.26-0.14-2.43-0.12-3.49c0.52-0.12,1.19-0.26,1.97-0.39
	c1.1-0.19,2.49-0.38,4.08-0.47c1.49-0.09,3.37-0.11,5.54,0.08c0.17-0.03,0.31,0,0.42,0.04C237.2,98.78,237.51,100.63,237.28,103.01z
	"/>
<path class="st9" d="M228.81,98.45c0.18-0.05,0.37-0.07,0.57-0.06c0.09-0.01,0.19-0.01,0.29-0.01c0.11-0.01,0.22-0.02,0.34-0.02
	h0.01l-0.61-3.22c-0.03-0.17-0.18-0.28-0.33-0.25l-0.69,0.14c-0.16,0.03-0.26,0.19-0.23,0.36l0.53,3.07
	C228.72,98.47,228.77,98.46,228.81,98.45z"/>
<path class="st3" d="M230.68,98.35c0.01,0,0.01,0,0.02,0h0.01c0.01,0,0.02,0.01,0.04,0.01c0.02,0,0.04,0.01,0.06,0.01
	c0.19-0.03,0.39-0.05,0.6-0.02c0.01,0,0.02,0,0.04,0.01l-0.12-2.96c0-0.17-0.14-0.31-0.29-0.3l-0.7,0.02
	c-0.16,0-0.28,0.15-0.28,0.32l0.08,2.93C230.29,98.34,230.48,98.33,230.68,98.35z"/>
<path class="st9" d="M227.87,98.48L227.87,98.48z"/>
<g>
	<g>
		<path class="st4" d="M227.93,51.2c-2.74-0.42-5.49-0.85-8.23-1.27c-1.67-0.26-3.61-0.86-5.21-0.08c-2.89,1.39-2.71,5.4-1.41,7.81
			c0.92,1.7,3.51,0.19,2.59-1.51c-0.63-1.17-0.94-3.22,0.76-3.68c0.95-0.26,3,0.44,4.02,0.6c2.23,0.34,4.46,0.69,6.69,1.03
			C229.02,54.39,229.83,51.5,227.93,51.2L227.93,51.2z"/>
	</g>
</g>
<g>
	<g>
		<path class="st4" d="M265.05,51.35c2.92-1.93,5.96-4.29,9.17-5.71c-0.39,0.05-0.77,0.1-1.16,0.15c0.18,0.03,0.35,0.07,0.53,0.1
			c-0.3-0.23-0.6-0.46-0.9-0.69c0.36,0.62,0.04,2.06-0.03,2.74c-0.19,1.92,2.81,1.91,3,0c0.22-2.17,0.3-5.9-2.96-4.9
			c-1.47,0.45-2.97,1.72-4.27,2.54c-1.64,1.04-3.28,2.09-4.9,3.17C261.94,49.82,263.44,52.42,265.05,51.35L265.05,51.35z"/>
	</g>
</g>
<path class="st4" d="M242.2,233.13"/>
<path class="st10" d="M279.93,152.29c-20.91,0.99-41.83,1.98-62.74,2.97c0,0.03,0,0.07,0.01,0.1c0.06,0.72,0.19,1.41,0.37,2.07
	c45.98-1.75,62.41-2.75,62.4-3.3c0-0.03-0.04-0.63-0.04-1.47C279.93,152.51,279.93,152.38,279.93,152.29z"/>
<line class="st11" x1="241.08" y1="163.01" x2="241.08" y2="163.01"/>
<path class="st12" d="M279.54,154.13"/>
<path class="st12" d="M279.54,154.13"/>
<path class="st13" d="M253.55,156.14c-1.96,0.05-3.91,0.1-5.87,0.15"/>
<path class="st13" d="M253.55,155.95c0,0.06,0,0.13,0,0.19"/>
<path class="st13" d="M247.68,156.21c0.04-0.79,0.08-1.59,0.11-2.38c1.93-0.1,3.87-0.2,5.8-0.3c-0.02,0.81-0.03,1.61-0.05,2.42"/>
<path class="st13" d="M247.68,156.26c0-0.02,0-0.03,0-0.05"/>
<path class="st13" d="M247.68,156.29c0-0.01,0-0.02,0-0.03"/>
<path class="st7" d="M232.23,234.83"/>
<path class="st7" d="M260.06,234.25"/>
<ellipse class="st14" cx="234.6" cy="52.87" rx="3.15" ry="3.45"/>
<ellipse class="st14" cx="256.38" cy="51.72" rx="3.15" ry="3.45"/>
<ellipse class="st4" cx="235.25" cy="53.02" rx="1.18" ry="1.3"/>
<ellipse class="st4" cx="255.73" cy="51.87" rx="1.18" ry="1.3"/>
<path class="st1" d="M299.06,156.89c-0.06,0.03-0.12,0.06-0.17,0.1c0.1-1.46,0.2-3.59,0.2-6.14c0-5.54-0.48-22.3-10.96-42.45
	c-2.97-5.72-11.7-22.5-17.66-20.22c-1.73,0.66-2.79,2.77-3.42,4.46c2.62,6.23,6.64,15.69,11.84,27.52c1.76,4.01,2.35,5.31,3.13,7.21
	c2.94,7.18,6.53,17.82,8.84,32.28c0.12,0.05,0.25,0.1,0.38,0.13C293.91,160.55,297.56,158.02,299.06,156.89z"/>
<path class="st1" d="M239.99,159.87"/>
<path class="st6" d="M299.63,156.53c-0.06,0.03-0.11,0.06-0.17,0.1c0.08-1.47,0.16-3.61,0.14-6.18c-0.05-5.58-0.7-22.47-11.31-42.88
	c-3.01-5.79-11.85-22.79-17.74-20.56c-1.71,0.65-2.74,2.76-3.35,4.46c2.67,6.31,6.75,15.88,12.03,27.85
	c1.79,4.06,2.38,5.37,3.18,7.3c2.99,7.26,6.66,18.02,9.11,32.62c0.12,0.05,0.25,0.1,0.38,0.14
	C294.56,160.16,298.16,157.65,299.63,156.53z"/>
<path class="st2" d="M162.51,79.25c-0.74,1.85-2.8,3.09-4.65,3.03c-1.49-0.04-2.45-0.91-3.16-1.56c-1.17-1.06-3.81-4.08-2.63-6.44
	c1.16-2.33,4.85-2.73,7.21-1.61C161.46,73.71,163.58,76.58,162.51,79.25z"/>
<path class="st6" d="M221.17,109.96c0.03-0.06,0.07-0.12,0.1-0.18c-1.4,0.07-3.44,0.14-5.88,0.09c-5.29-0.1-21.28-0.94-39.93-12.27
	c-3.92-2.38-20.41-12.59-18.31-18.83c0.65-1.94,2.95-3.01,4.93-3.62c5.72,2.98,14.35,7.46,25.15,13.03
	c4.18,2.16,5.31,2.74,6.71,3.41c6.69,3.21,16.65,7.16,30.34,9.87c0.04,0.13,0.08,0.26,0.11,0.4
	C224.96,104.66,222.33,108.42,221.17,109.96z"/>
<path class="st6" d="M184.82,96.93"/>
</svg>
