<?xml version="1.0" encoding="utf-8"?>
<!-- Generator: Adobe Illustrator 23.0.2, SVG Export Plug-In . SVG Version: 6.00 Build 0)  -->
<svg version="1.1" id="Layer_1" xmlns="http://www.w3.org/2000/svg" xmlns:xlink="http://www.w3.org/1999/xlink" x="0px" y="0px"
	 viewBox="0 0 583 250" style="enable-background:new 0 0 583 250;" xml:space="preserve">
<style type="text/css">
	.st0{fill:#EDEDED;}
	.st1{fill:#1B7732;}
	.st2{fill:#074930;}
	.st3{fill:#C4764E;}
	.st4{fill:#AF5D38;}
	.st5{fill:#DDDDDD;}
	.st6{fill:#383838;}
	.st7{fill:#E9635E;}
	.st8{fill:#C64E4E;}
	.st9{fill:#595959;}
	.st10{fill:#D8D8D8;}
	.st11{fill:#FFFFFF;}
	.st12{fill:#6D482F;}
	.st13{fill:none;stroke:#2D2C2C;stroke-width:3;stroke-miterlimit:10;}
	.st14{fill:#2D2C2C;}
	.st15{font-family:'ArialMT';}
	.st16{font-size:3.5958px;}
	.st17{font-size:7.7px;}
</style>
<path class="st0" d="M457.5,221.3c-125.9,34-400.9,22.8-403.5-14.6c-0.2-2.6,0.9-6.3,6.4-10.8c3.5-2.1,9.8-5.4,18.2-8.1
	c11-3.6,20.2-4.5,24.3-4.9c39.7-3.8,136.8-8,147.6-8.5c15.2-0.7,31.1-1.5,54.6-1.8c14.5-0.2,19.3,0.1,34.4-0.1
	c28.7-0.3,34.8-1.4,54.6-1.8c37.6-0.8,70.8,2,102.5,12.3c13.7,4.5,17.6,7.4,18.3,10.6C517.2,205.2,473.6,217,457.5,221.3z"/>
<path class="st1" d="M472.5,37.4c-4.5,6.1-27.6,36.4-61.2,37.6c-6.8,0.2-13-0.8-18.5-2.4c0.4-4,0.7-8,1.1-12
	c4.5-5.1,16.6-17.9,36.4-23.8C450.3,30.8,466.5,35.3,472.5,37.4z"/>
<path class="st1" d="M333.2,9.6c7.1,1.5,42.2,9.8,58.9,41.7c3.4,6.5,5.5,13,6.8,19c-3.4,1.5-6.8,3.1-10.2,4.6
	c-4.4-0.5-25.5-3.3-41.1-22.2C332.5,34.6,332.9,14.3,333.2,9.6z"/>
<path class="st2" d="M394.2,141.5h-12.9c-1.9-10-5.6-36.4,5.5-66.1c12.3-32.9,34.8-49.3,42.5-54.3l0,0c-6.7,5.4-27.9,23.7-36.6,57.5
	C385.2,107.9,391.4,132.3,394.2,141.5z"/>
<path class="st2" d="M391.3,76.4l-1.9-2.6c3-3.2,11.2-11.5,22.6-17.6c12.6-6.8,21.3-6.8,24.1-6.7l0,0c-2.7,0.1-11.9,1-24.3,8.8
	C401.1,65.1,394,73.3,391.3,76.4z"/>
<path class="st2" d="M390.9,73.5l3.6-3.1c-2-4.1-7.7-14.6-18.5-22.8c-11.9-9.1-22.4-9.6-25.9-9.6l0,0c3.3,0.3,14,1.9,25.1,12.2
	C384.9,59.1,389.4,69.5,390.9,73.5z"/>
<path class="st3" d="M403.3,176.4h-37.2c-3.7,0-6.7-3-6.7-6.7v-48.9c0-3.7,3-6.7,6.7-6.7h37.2c3.7,0,6.7,3,6.7,6.7v48.9
	C410,173.4,407,176.4,403.3,176.4z"/>
<path class="st4" d="M409,121.7h-48.3c-0.8,0-1.4-0.6-1.4-1.4v-6.8c0-0.8,0.6-1.4,1.4-1.4H409c0.8,0,1.4,0.6,1.4,1.4v6.8
	C410.3,121.1,409.7,121.7,409,121.7z"/>
<path class="st3" d="M411.3,120.3h-53.1c-2.1,0-3.8-1.7-3.8-3.8v-2c0-2.1,1.7-3.8,3.8-3.8h53.1c2.1,0,3.8,1.7,3.8,3.8v2
	C415.1,118.7,413.4,120.3,411.3,120.3z"/>
<path class="st5" d="M135,180c51.1,19,102.2,38.1,153.4,57.1l0,0c0,0.3,0,0.7,0,1v0c-0.6,1.8-2.6,2.8-4.4,2.1l-151.3-53.7
	c-1.8-0.6-2.8-2.6-2.1-4.5v0C131.2,180.3,133.2,179.3,135,180z"/>
<path class="st0" d="M289.8,134.5c34.8,15,69.5,29.9,104.3,44.9c0.7,0.2,1.7,0.6,2.3,1.5c0.3,0.4,0.3,0.6,0.3,0.7
	c-0.1,0.4-0.7,0.7-1.5,0.7c0,0.3,0.1,0.6,0.1,0.8c-0.2,0.1-0.4,0.2-0.5,0.2c-0.5,0.2-1,0.4-1.5,0.6l-106-43.1
	c-1.8-0.7-2.6-2.8-1.9-4.5C286,134.7,288,133.8,289.8,134.5z"/>
<path class="st5" d="M285,236.1l107.8-55.9c0.5-0.2,1.7-0.6,2.6-0.7c0.1,0,0.3,0,0.5,0c0.6,0.1,1,0.5,1.1,0.8l0,0
	c0.5,1-0.5,2.7-2.4,3.6l-107.8,55.9c-0.5,0.2-1.7,0.6-3,0.3c-0.5-0.1-0.9-0.3-1.3-0.5l0,0C282.1,238.7,283.2,237,285,236.1z"/>
<path class="st6" d="M289.5,29.3L135.3,65.8c-1.3,0.3-2.6-0.5-2.9-1.9l-0.5-2.2c-0.3-1.3,0.5-2.7,1.8-3L288,22.2
	c1.3-0.3,2.6,0.5,2.9,1.9l0.5,2.2C291.6,27.7,290.8,29,289.5,29.3z"/>
<path class="st6" d="M289.3,137.4l-153.7,45.4c-1.3,0.4-2.6-0.4-3-1.7l-0.6-2.2c-0.4-1.3,0.4-2.7,1.7-3.1l153.7-45.4
	c1.3-0.4,2.6,0.4,3,1.7l0.6,2.2C291.3,135.6,290.5,137,289.3,137.4z"/>
<path class="st6" d="M131.2,180.1V61.3c0-1.5,1.2-2.8,2.8-2.8h1.4c1.5,0,2.8,1.2,2.8,2.8v118.7c0,1.5-1.2,2.8-2.8,2.8H134
	C132.5,182.9,131.2,181.6,131.2,180.1z"/>
<path class="st6" d="M284.4,134.6V25.1c0-1.5,1.2-2.8,2.8-2.8h1.4c1.5,0,2.8,1.2,2.8,2.8v109.5c0,1.5-1.2,2.8-2.8,2.8h-1.4
	C285.7,137.4,284.4,136.1,284.4,134.6z"/>
<path class="st7" d="M284.4,131.2c-48.7,14.4-97.5,28.8-146.2,43.2c0-36.4,0-72.8,0-109.3c48.7-11.5,97.5-23.1,146.2-34.6
	C284.4,64.1,284.4,97.6,284.4,131.2z"/>
<path class="st8" d="M284.4,131.2c-48.7,14.4-97.5,28.8-146.2,43.2c0-36.4,97.5-132.3,146.2-143.9
	C284.4,64.1,284.4,97.6,284.4,131.2z"/>
<path class="st0" d="M285,237.3c-50.5-18.2-101-36.4-151.5-54.7c52.8-15.9,105.5-31.8,158.3-47.7c34.8,14.8,69.6,29.7,104.4,44.5
	C359.1,198.8,322,218,285,237.3z"/>
<path class="st9" d="M290.6,137.3c-48.1,15.2-96.3,30.4-144.4,45.6c1.9,0.6,3.8,1.1,5.6,1.7c47.6-15.2,95.1-30.4,142.7-45.6
	C293.2,138.4,291.9,137.8,290.6,137.3z"/>
<path class="st10" d="M297.3,142c-4.7,1.5-9.4,3.1-14.2,4.6c1.9,1.2,3.8,2.5,5.7,3.7c4.9-1.8,9.8-3.6,14.7-5.3
	C301.5,144,299.4,143,297.3,142z"/>
<path class="st10" d="M281.1,147.8c-4.7,1.5-9.4,3.1-14.2,4.6c1.9,1.2,3.8,2.5,5.7,3.7c4.9-1.8,9.8-3.6,14.7-5.3
	C285.2,149.8,283.2,148.8,281.1,147.8z"/>
<path class="st10" d="M264.5,153.5c-4.7,1.5-9.4,3.1-14.2,4.6c1.9,1.2,3.8,2.5,5.7,3.7c4.9-1.8,9.8-3.6,14.7-5.3
	C268.6,155.4,266.5,154.5,264.5,153.5z"/>
<path class="st10" d="M269.7,160.4c-4.7,1.5-9.4,3.1-14.2,4.6c1.8,1.4,3.6,2.8,5.3,4.2c4.9-1.7,9.8-3.4,14.7-5
	C273.7,162.9,271.7,161.6,269.7,160.4z"/>
<path class="st10" d="M286.4,171.8c-4.6,1.8-9.3,3.6-13.9,5.4c1.9,1.3,3.7,2.6,5.6,3.9c4.8-1.9,9.6-3.9,14.5-5.8
	C290.5,174.1,288.4,172.9,286.4,171.8z"/>
<path class="st10" d="M315.1,177.9c-13.1,6.7-26.1,13.4-39.2,20c6.1,4.1,12.3,8.1,18.4,12.2c13.6-7.2,27.1-14.4,40.7-21.6
	C328.3,185,321.7,181.5,315.1,177.9z"/>
<path class="st10" d="M304.6,164.8c-4.6,1.8-9.3,3.6-13.9,5.4c1.9,1.3,3.7,2.6,5.6,3.9c4.8-1.9,9.6-3.9,14.5-5.8
	C308.7,167.2,306.7,166,304.6,164.8z"/>
<path class="st10" d="M253.3,166.3c-4.7,1.5-9.4,3.1-14.2,4.6c1.8,1.4,3.6,2.8,5.3,4.2c4.9-1.7,9.8-3.4,14.7-5
	C257.3,168.8,255.3,167.5,253.3,166.3z"/>
<path class="st10" d="M235.9,172.4c-4.7,1.5-9.4,3.1-14.2,4.6c1.8,1.4,3.6,2.8,5.3,4.2c4.9-1.7,9.8-3.4,14.7-5
	C239.9,174.9,237.9,173.7,235.9,172.4z"/>
<path class="st10" d="M217.9,178.4c-4.7,1.5-9.4,3.1-14.2,4.6c1.8,1.4,3.6,2.8,5.3,4.2c4.9-1.7,9.8-3.4,14.7-5
	C221.8,181,219.9,179.7,217.9,178.4z"/>
<path class="st10" d="M244.1,179c-4.7,1.5-9.4,3.1-14.2,4.6c1.8,1.4,3.6,2.8,5.3,4.2c4.9-1.7,9.8-3.4,14.7-5
	C248,181.5,246.1,180.3,244.1,179z"/>
<path class="st10" d="M201.1,184.5c-2.8,1-5.6,2-8.4,3.1c1.3,1.5,2.6,2.9,3.9,4.4c3-1.2,6-2.3,8.9-3.5
	C204,187.1,202.6,185.8,201.1,184.5z"/>
<path class="st10" d="M257.3,174.3c-2.7,1.2-5.5,2.4-8.2,3.7c1.4,1.4,2.8,2.7,4.2,4.1c2.9-1.4,5.8-2.8,8.7-4.2
	C260.4,176.7,258.9,175.5,257.3,174.3z"/>
<path class="st10" d="M218.1,198.4c-2.7,1.2-5.5,2.4-8.2,3.7c1.4,1.4,2.8,2.7,4.2,4.1c2.9-1.4,5.8-2.8,8.7-4.2
	C221.2,200.8,219.7,199.6,218.1,198.4z"/>
<path class="st10" d="M230.3,193.1c-2.7,1.2-5.5,2.4-8.2,3.7c1.4,1.4,2.8,2.7,4.2,4.1c2.9-1.4,5.8-2.8,8.7-4.2
	C233.4,195.5,231.8,194.3,230.3,193.1z"/>
<path class="st10" d="M269.7,169.5c-2.7,1.2-5.4,2.5-8.2,3.7c1.4,1.3,2.8,2.7,4.2,4c2.9-1.4,5.8-2.8,8.6-4.3
	C272.8,171.8,271.2,170.6,269.7,169.5z"/>
<path class="st10" d="M281.9,164.9c-2.7,1.2-5.5,2.4-8.2,3.6c1.4,1.4,2.8,2.7,4.2,4.1c2.9-1.4,5.8-2.8,8.7-4.1
	C285,167.3,283.4,166.1,281.9,164.9z"/>
<path class="st10" d="M316.7,159.5c-2.7,1.2-5.5,2.4-8.2,3.6c1.4,1.4,2.8,2.7,4.2,4.1c2.9-1.4,5.8-2.8,8.7-4.1
	C319.8,161.9,318.3,160.7,316.7,159.5z"/>
<path class="st10" d="M328,154.6c-2.7,1.2-5.5,2.4-8.2,3.6c1.4,1.4,2.8,2.7,4.2,4.1c2.9-1.4,5.8-2.8,8.7-4.1
	C331.1,156.9,329.6,155.7,328,154.6z"/>
<path class="st10" d="M188.7,189c-4.2,1.4-8.4,2.8-12.6,4.2c1.7,1.3,3.4,2.7,5.1,4c4.5-1.6,8.9-3.2,13.4-4.7
	C192.6,191.4,190.6,190.2,188.7,189z"/>
<path class="st10" d="M248.2,159.2c-4.7,1.5-9.4,3.1-14.2,4.6c1.9,1.2,3.8,2.5,5.7,3.7c4.9-1.8,9.8-3.6,14.7-5.3
	C252.3,161.2,250.3,160.2,248.2,159.2z"/>
<path class="st10" d="M231.3,165c-4.7,1.5-9.4,3.1-14.2,4.6c1.9,1.2,3.8,2.5,5.7,3.7c4.9-1.8,9.8-3.6,14.7-5.3
	C235.4,167,233.3,166,231.3,165z"/>
<path class="st10" d="M213.9,170.7c-4.7,1.5-9.4,3.1-14.2,4.6c1.9,1.2,3.8,2.5,5.7,3.7c4.9-1.8,9.8-3.6,14.7-5.3
	C218,172.7,216,171.7,213.9,170.7z"/>
<path class="st10" d="M196.7,176.4c-11.6,3.7-23.2,7.5-34.8,11.2c2.5,1.1,5,2.1,7.5,3.2c11-3.7,22-7.3,33-11
	C200.5,178.7,198.6,177.5,196.7,176.4z"/>
<path class="st10" d="M305.1,146.8c-11,4.2-22.1,8.4-33.1,12.6c1.7,1.4,3.4,2.7,5.1,4.1c11.3-4.6,22.6-9.1,33.9-13.7
	C309,148.9,307.1,147.8,305.1,146.8z"/>
<path class="st10" d="M317.5,151.4c-11,4.2-22.1,8.4-33.1,12.6c1.7,1.4,3.4,2.7,5.1,4.1c11.3-4.6,22.6-9.1,33.9-13.7
	C321.5,153.5,319.5,152.5,317.5,151.4z"/>
<path class="st10" d="M225,186.1c-11,4.2-22.1,8.4-33.1,12.6c1.7,1.4,3.4,2.7,5.1,4.1c11.3-4.6,22.6-9.1,33.9-13.7
	C229,188.2,227,187.2,225,186.1z"/>
<path class="st10" d="M268,178.9c-11,4.2-22.1,8.4-33.1,12.6c1.7,1.4,3.4,2.7,5.1,4.1c11.3-4.6,22.6-9.1,33.9-13.7
	C271.9,180.9,270,179.9,268,178.9z"/>
<path class="st9" d="M220.1,161.8"/>
<path class="st11" d="M154.1,234.9c-13.8-12-23.9-43-17.3-66.1c4.8-17,53.1-16.3,57.7,0c6.4,23-3.5,54.3-17.4,66.2"/>
<path class="st10" d="M191.2,164.4c-0.4,3.9-21.7,4.3-24.5,4.4c-16.7,0.3-26.2-2.4-26.3-4.2c0-0.3,0.2-1.3,0.9-2.1
	c0.2-0.2,0.4-0.4,1.1-0.8c1.1-0.7,2-1.1,2.4-1.3c1.5-0.7,2.2-1.1,2.8-1.3c0.8-0.3,4-1.3,2.7-0.9l0,0c0,0,2.6-0.8,5.1-1.3
	c2.7-0.5,10.8-0.8,8.1-0.7l0,0c0,0,2.4,0,2.6,0c13.4-0.1,21.4,4.7,21.4,4.7C189.9,162.5,191.3,163.4,191.2,164.4z"/>
<path class="st12" d="M189.3,165.9c-0.1,2.1-15.1,2.9-23.9,2.9c-8.6,0-23.4-0.8-23.5-2.9c-0.1-1.9,11.9-4.7,23.7-4.8
	C177.3,161.1,189.4,164,189.3,165.9z"/>
<path class="st10" d="M140.8,157.1"/>
<path class="st11" d="M183.6,211.4c0.4,1.1,5.5,0.1,8.2-0.7c10.9-3.4,21.3-17.3,18.1-24.5c-2.5-5.5-12.4-5.7-15.9-5.8
	c-7.5-0.2-13.8,2.4-13.6,3.1c0.1,0.7,5.5-0.3,14.6,0.8c6.4,0.8,9.6,1.2,10.6,3.3c2.1,4.2-3.5,14.7-10.6,17c-1.7,0.5-5.1,1.2-8.9,3.9
	C185.2,209.3,183.3,210.7,183.6,211.4z"/>
<ellipse class="st13" cx="174.8" cy="186.9" rx="7.3" ry="7.8"/>
<path class="st14" d="M183.1,189.4c1,0.3-7.6,15.4-8.3,15.4c-0.8,0-9.4-15.1-8.4-15.4c0.8-0.2,3.2,3.9,8,4.1c0.3,0,0.5,0,0.8,0
	C179.9,193.2,182.3,189.1,183.1,189.4z"/>
<text transform="matrix(0.904 0 0 1 171.1807 187.8095)" class="st14 st15 st16">{      }</text>
<text transform="matrix(0.8354 0 0 1 172.3535 187.0449)" class="st14 st15 st17">...</text>
</svg>
