<?xml version="1.0" encoding="utf-8"?>
<!-- Generator: Adobe Illustrator 23.0.2, SVG Export Plug-In . SVG Version: 6.00 Build 0)  -->
<svg version="1.1" id="Layer_1" xmlns="http://www.w3.org/2000/svg" xmlns:xlink="http://www.w3.org/1999/xlink" x="0px" y="0px"
	 viewBox="0 0 583 250" style="enable-background:new 0 0 583 250;" xml:space="preserve">
<style type="text/css">
	.st0{fill:#D8D8D8;}
	.st1{opacity:0.5;fill:#EDEDED;}
</style>
<path class="st0" d="M140.8,157.1"/>
<path class="st1" d="M167.4,164.5c-3.9,0.2-7.8,0.3-11.7,0.5c6.7-3.5,7.6-6.3,7.3-8.2c-0.5-3-4.1-3.3-3.8-6.5
	c0.3-3.3,4.1-4.1,2.4-7.1c-1-1.8-2.7-2.1-2.4-3.7c0.3-2.2,3.6-2.6,3-4.4c-0.6-1.9-4.3-2-4.3-3.7c0-1.6,3.3-1.6,4.3-3.8
	c0.8-1.7-0.5-3.1,1.6-3.4c0.6-0.1,1.2,0,1.6,0c-0.5,0-1.1,0-1.6,0c6.3,1.4,8.4,2.7,9.2,3.6c1.2,1.4-0.6,1.9,1.1,3.8
	c1.3,1.4,2.9,1.8,2.7,2.8c-0.2,1-1.7,1.2-3.8,2.5c-0.8,0.5-5.1,3.3-2.4,6.1c1,1.1,2,1,2.2,1.8c0.5,1.7-4,2.2-5.7,4.1
	c-1.2,1.3,0.6,1.5,1.8,5.3c0,0,0.5,1.6,0.6,3.3C169.6,159.3,169.3,161.6,167.4,164.5z"/>
<path class="st1" d="M171.5,165c-3.9-0.2-7.7-0.3-11.6-0.5c6.3-4.1,7.1-6.9,6.6-8.8c-0.8-2.9-4.4-2.9-4.3-6.2c0-3.3,3.7-4.4,1.8-7.2
	c-1.1-1.7-2.8-1.9-2.7-3.5c0.1-2.2,3.3-2.9,2.6-4.6c-0.8-1.8-4.5-1.6-4.6-3.3c-0.1-1.6,3.2-1.9,4-4.1c0.6-1.7-0.8-3,1.3-3.5
	c0.6-0.1,1.2-0.1,1.6-0.1c-0.5,0-1.1,0.1-1.6,0.1c6.4,0.8,8.6,2,9.5,2.8c1.3,1.3-0.5,2,1.4,3.7c1.4,1.3,3.1,1.5,2.9,2.6
	c-0.1,1-1.6,1.3-3.6,2.8c-0.7,0.6-4.8,3.7-1.9,6.3c1.1,1,2,0.8,2.3,1.6c0.6,1.7-3.8,2.5-5.3,4.5c-1.1,1.4,0.8,1.5,2.3,5.1
	c0,0,0,0,0,0c0.6,1.8,0.9,3.2,0.9,3.2C173.5,157.8,171.8,164,171.5,165z"/>
</svg>
