<?xml version="1.0" encoding="utf-8"?>
<!-- Generator: Adobe Illustrator 19.0.0, SVG Export Plug-In . SVG Version: 6.00 Build 0)  -->
<svg version="1.1" id="Layer_1" xmlns="http://www.w3.org/2000/svg" xmlns:xlink="http://www.w3.org/1999/xlink" x="0px" y="0px"
	 viewBox="-509 276 260 250" style="enable-background:new -509 276 260 250;" xml:space="preserve">
<style type="text/css">
	.st0{fill:#3F1B06;}
	.st1{fill:#592706;}
	.st2{fill:#757575;}
	.st3{fill:#D8D8D8;}
	.st4{fill:#595959;}
	.st5{fill:#EDEDED;}
	.st6{fill:#141414;}
	.st7{fill:#3D3D3D;}
	.st8{fill:#EFD225;}
	.st9{fill:#E24B57;}
	.st10{fill:#2E9B10;}
	.st11{fill:#6B6B6B;}
	.st12{fill:#472C0C;}
	.st13{fill:#6B440C;}
	.st14{fill:#1E1E1E;}
	.st15{fill:#E9635E;}
	.st16{fill:#2D2C2C;}
	.st17{fill:#8FCDF7;}
	.st18{fill:#FFFFFF;}
	.st19{fill:#050505;}
</style>
<path class="st0" d="M-346,315.9c5.7,5.3,18.7,10.3,3.5,9.3c-15.1-1-56.3-16.7-55.7-24.6c0.5-7.9,4.1-9.1,19.3-8.9
	C-362.5,291.9-351.6,310.6-346,315.9z"/>
<path class="st1" d="M-335.2,322.9c4.4,6.9,16.5,15.7,1.1,10s-53.8-33.7-51.1-41.1c2.7-7.4,6.8-7.5,22.5-2.5
	C-345.6,294.7-339.5,316.1-335.2,322.9z"/>
<path class="st1" d="M-337.2,338.1c-0.1,8.8,14.9,15.8-1,10c-15.5-5.7-45.7-44.1-41.5-50.8s8.2-5.9,22.6,2.3
	C-341.6,308.3-337.1,330-337.2,338.1z"/>
<path class="st0" d="M-373.3,310.8c1.1-4.6-3.4-11.9-2.8-12.3c0.7-0.5,2.8,1.7,5.4,5.1c15.5,20.1,15.2,37,30.2,53
	c3.1,3.3,5.7,5.3,5.1,6.3c-1.3,2.3-20.3-0.5-29.1-12.6C-371.3,340.9-379.3,335.6-373.3,310.8z"/>
<path class="st1" d="M-366,311.7c1.1-4.6-3.4-11.9-2.8-12.3c0.7-0.5,2.8,1.7,5.4,5.1c15.5,20.1,15.2,37,30.2,53
	c3.1,3.3,5.7,5.3,5.1,6.3c-1.3,2.3-20.3-0.5-29.1-12.6C-364,341.9-372,336.5-366,311.7z"/>
<path class="st0" d="M-367.1,305.1c1.1-4.6-3.4-11.9-2.8-12.3c0.7-0.5,2.8,1.7,5.4,5.1c15.5,20.1,15.2,37,30.2,53
	c3.1,3.3,5.7,5.3,5.1,6.3c-1.3,2.3-20.3-0.5-29.1-12.6C-365.1,335.3-373.1,329.9-367.1,305.1z"/>
<path class="st1" d="M-364.1,305.1c1.1-4.6-3.4-11.9-2.8-12.3c0.7-0.5,2.8,1.7,5.4,5.1c15.5,20.1,15.2,37,30.2,53
	c3.1,3.3,5.7,5.3,5.1,6.3c-1.3,2.3-20.3-0.5-29.1-12.6C-362.1,335.2-370.1,329.8-364.1,305.1z"/>
<path class="st1" d="M-333.7,329.9c-0.1,8.8,14.9,15.8-1,10c-15.5-5.7-45.7-44.1-41.5-50.8c4.2-6.7,8.2-5.9,22.6,2.3
	C-338.1,300.1-333.6,321.8-333.7,329.9z"/>
<path class="st0" d="M-369.8,302.6c1.1-4.6-3.4-11.9-2.8-12.3c0.7-0.5,2.8,1.7,5.4,5.1c15.5,20.1,15.2,37,30.2,53
	c3.1,3.3,5.7,5.3,5.1,6.3c-1.3,2.3-20.3-0.5-29.1-12.6C-367.8,332.7-375.8,327.4-369.8,302.6z"/>
<path class="st1" d="M-362.5,303.5c1.1-4.6-3.4-11.9-2.8-12.3c0.7-0.5,2.8,1.7,5.4,5.1c15.5,20.1,15.2,37,30.2,53
	c3.1,3.3,5.7,5.3,5.1,6.3c-1.3,2.3-20.3-0.5-29.1-12.6C-360.5,333.7-368.4,328.3-362.5,303.5z"/>
<path class="st0" d="M-363.6,297c1.1-4.6-3.4-11.9-2.8-12.3c0.7-0.5,2.8,1.7,5.4,5.1c15.5,20.1,15.2,37,30.2,53
	c3.1,3.3,5.7,5.3,5.1,6.3c-1.3,2.3-20.3-0.5-29.1-12.6C-361.6,327.1-369.6,321.7-363.6,297z"/>
<path class="st1" d="M-360.6,296.9c1.1-4.6-3.4-11.9-2.8-12.3c0.7-0.5,2.8,1.7,5.4,5.1c15.5,20.1,15.2,37,30.2,53
	c3.1,3.3,5.7,5.3,5.1,6.3c-1.3,2.3-20.3-0.5-29.1-12.6C-358.6,327-366.6,321.6-360.6,296.9z"/>
<path class="st1" d="M-420.7,312.8c-3.9,4.9-13.4,8.7-2,9.3c11.5,0.5,41.6-11.4,40.5-19.7c-1-8.3-3.9-9.9-15.4-11.3
	C-410.1,289.6-416.9,307.9-420.7,312.8z"/>
<path class="st1" d="M-421.1,328.3c-1,8.5-12.2,9.5-0.5,10.1c11.5,0.6,37.1-24.8,35-32.9c-2.1-8.1-5-9-16-6.7
	C-414.5,301.2-420.2,320.4-421.1,328.3z"/>
<path class="st0" d="M-392.7,316.2c-0.2-4.9,3.8-10.2,3.4-10.8c-0.4-0.8-2.2,0.6-4.3,2.8c-13.2,13.4-15,29.9-27.4,39.5
	c-2.6,2-4.6,2.9-4.3,4.1c0.6,2.8,14.2,7.6,21.8-0.7C-397.7,344.6-391.5,342.6-392.7,316.2z"/>
<path class="st1" d="M-397.9,314.1c-0.2-4.9,3.8-10.2,3.4-10.8c-0.4-0.8-2.2,0.6-4.3,2.8c-13.2,13.4-15,29.9-27.4,39.5
	c-2.6,2-4.6,2.9-4.3,4.1c0.6,2.8,14.2,7.6,21.8-0.7C-402.9,342.6-396.7,340.6-397.9,314.1z"/>
<path class="st0" d="M-396.3,308.2c-0.2-4.9,3.8-10.2,3.4-10.8c-0.4-0.8-2.2,0.6-4.3,2.8c-13.2,13.4-15,29.9-27.4,39.5
	c-2.6,2-4.6,2.9-4.3,4.1c0.6,2.8,14.2,7.6,21.8-0.7C-401.3,336.6-395.1,334.6-396.3,308.2z"/>
<path class="st1" d="M-398.4,306.9c-0.2-4.9,3.8-10.2,3.4-10.8c-0.4-0.8-2.2,0.6-4.3,2.8c-13.2,13.4-15,29.9-27.4,39.5
	c-2.6,2-4.6,2.9-4.3,4.1c0.6,2.8,14.2,7.6,21.8-0.7C-403.4,335.4-397.2,333.3-398.4,306.9z"/>
<path class="st1" d="M-422.6,319c-1,8.5-12.2,9.5-0.5,10.1c11.5,0.6,37.1-24.8,35-32.9c-2.1-8.1-5-9-16-6.7
	C-416,291.8-421.7,311.1-422.6,319z"/>
<path class="st0" d="M-394.2,306.8c-0.2-4.9,3.8-10.2,3.4-10.8c-0.4-0.8-2.2,0.6-4.3,2.8c-13.2,13.4-15,29.9-27.4,39.5
	c-2.6,2-4.6,2.9-4.3,4.1c0.6,2.8,14.2,7.6,21.8-0.7C-399.1,335.3-392.9,333.2-394.2,306.8z"/>
<path class="st1" d="M-399.4,304.8c-0.2-4.9,3.8-10.2,3.4-10.8c-0.4-0.8-2.2,0.6-4.3,2.8c-13.2,13.4-15,29.9-27.4,39.5
	c-2.6,2-4.6,2.9-4.3,4.1c0.6,2.8,14.2,7.6,21.8-0.7C-404.4,333.3-398.2,331.2-399.4,304.8z"/>
<path class="st0" d="M-397.8,298.9c-0.2-4.9,3.8-10.2,3.4-10.8c-0.4-0.8-2.2,0.6-4.3,2.8c-13.2,13.4-15,29.9-27.4,39.5
	c-2.6,2-4.6,2.9-4.3,4.1c0.6,2.8,14.2,7.6,21.8-0.7C-402.8,327.3-396.6,325.3-397.8,298.9z"/>
<path class="st1" d="M-399.9,297.6c-0.2-4.9,3.8-10.2,3.4-10.8c-0.4-0.8-2.2,0.6-4.3,2.8c-13.2,13.4-15,29.9-27.4,39.5
	c-2.6,2-4.6,2.9-4.3,4.1c0.6,2.8,14.2,7.6,21.8-0.7C-404.9,326-398.7,324-399.9,297.6z"/>
<path class="st1" d="M-341.5,323.5c6.3,2.2,20.5,5.2,4.1,3c-16.3-2.2-61.2-11.8-60.9-13.9c0.3-2.1,4.1-1.9,20.4,0.1
	C-360.1,314.8-347.7,321.3-341.5,323.5z"/>
<path class="st1" d="M-340.5,317.7c0,20.6-16.6,37.3-37.1,37.3s-34.8-16.4-37.1-37.3c-2.1-19.9,17.1-35.7,37.1-37.3
	C-357.2,278.6-340.5,297-340.5,317.7z"/>
<ellipse class="st0" cx="-384.1" cy="321.1" rx="27.5" ry="35.2"/>
<path class="st2" d="M-461.8,402.8h-1.8c-0.6-2.5-1.2-6-1-10.1c0.1-2.4,0.5-4.5,1-6.2c0.6,0,1.2,0,1.8,0c-0.6,1.9-1.1,4.4-1.2,7.5
	C-463,397.7-462.4,400.7-461.8,402.8z"/>
<circle class="st2" cx="-462.9" cy="386.7" r="2.2"/>
<path class="st3" d="M-277.7,513.3c-19.3,3.7-21.9,1.8-51.9,4.8c-19.4,2-33.6,4.3-59.4,4.9c-0.4,0-0.8,0-0.8,0
	c-24.8,0.6-40-1.2-71.4-4.2c-31.8-3-42.8-3.7-44.7-7.9c-0.8-1.9,0.4-3.8,1.6-5.1c5.1-1.4,12.8-3.3,22.4-5.2
	c19.2-3.7,37.1-5.5,97.1-7.3c34.4-1.1,51.9-1.6,65.5-0.8c24.8,1.3,44.5,4.4,57.6,6.9c4.1,0.8,9.9,2.5,10,4.8
	C-251.5,508.4-270.5,512-277.7,513.3z"/>
<path class="st2" d="M-462.3,514.8h-2c-7.9,0-14.2-6.4-14.2-14.2v-5.6c0-7.9,6.4-14.2,14.2-14.2h2c7.9,0,14.2,6.4,14.2,14.2v5.6
	C-448,508.4-454.4,514.8-462.3,514.8z"/>
<path class="st4" d="M-434,492.3h-59.2c-5.2,0-9.4-4.2-9.4-9.4v-21.6c0-5.2,4.2-9.5,9.4-9.5h59.2c5.2,0,9.5,4.2,9.5,9.5v21.6
	C-424.6,488.1-428.8,492.3-434,492.3z"/>
<path class="st4" d="M-452.4,496.9h-22.6c-0.2,0-0.4-0.2-0.4-0.4v-0.7c0-0.2,0.2-0.4,0.4-0.4h22.6c0.2,0,0.4,0.2,0.4,0.4v0.7
	C-451.9,496.7-452.1,496.9-452.4,496.9z"/>
<path class="st4" d="M-452.4,500.8h-22.6c-0.2,0-0.4-0.2-0.4-0.4v-0.7c0-0.2,0.2-0.4,0.4-0.4h22.6c0.2,0,0.4,0.2,0.4,0.4v0.7
	C-451.9,500.6-452.1,500.8-452.4,500.8z"/>
<path class="st4" d="M-452.4,504.7h-22.6c-0.2,0-0.4-0.2-0.4-0.4v-0.7c0-0.2,0.2-0.4,0.4-0.4h22.6c0.2,0,0.4,0.2,0.4,0.4v0.7
	C-451.9,504.5-452.1,504.7-452.4,504.7z"/>
<rect x="-502.7" y="451.8" class="st4" width="78.1" height="7.3"/>
<ellipse class="st4" cx="-463.6" cy="423.3" rx="30.5" ry="25.6"/>
<rect x="-494.1" y="422.6" class="st4" width="60.9" height="26.3"/>
<path class="st4" d="M-424.6,451.8h-78.1c13-4.3,26-8.6,39-13l0,0l0,0l0,0C-450.6,443.1-437.6,447.5-424.6,451.8z"/>
<ellipse class="st5" cx="-463.2" cy="431.9" rx="9" ry="8.5"/>
<path class="st0" d="M-344.2,326.4c2.8,5.3,18.3,10.7,2.4,6c-15.5-4.6-54.8-30.2-53.2-33.9c1.6-3.7,5.4-2.9,20.7,3.1
	C-357.8,308.1-346.8,321.5-344.2,326.4z"/>
<ellipse cx="-463.2" cy="431.9" rx="7.4" ry="7"/>
<ellipse class="st6" cx="-463.2" cy="431.9" rx="5.1" ry="4.6"/>
<ellipse cx="-463.2" cy="431.9" rx="3.5" ry="3.1"/>
<ellipse class="st5" cx="-462.9" cy="431.1" rx="0.8" ry="0.8"/>
<ellipse class="st5" cx="-463.2" cy="432.3" rx="0.4" ry="0.4"/>
<circle class="st5" cx="-463.6" cy="431.9" r="0"/>
<rect x="-494.1" y="448.5" class="st2" width="60.9" height="0.4"/>
<path class="st7" d="M-436.4,476h-56.1c-1.3,0-2.4-1.1-2.4-2.4V466c0-1.3,1.1-2.4,2.4-2.4h56.1c1.3,0,2.4,1.1,2.4,2.4v7.6
	C-434,474.9-435,476-436.4,476z"/>
<ellipse class="st8" cx="-455.6" cy="470" rx="2.5" ry="2.2"/>
<ellipse class="st9" cx="-447.8" cy="470" rx="2.5" ry="2.2"/>
<ellipse class="st10" cx="-440" cy="470" rx="2.5" ry="2.2"/>
<path class="st11" d="M-464.9,471.5h-24.9c-0.7,0-1.3-0.6-1.3-1.3l0,0c0-0.7,0.6-1.3,1.3-1.3h24.9c0.7,0,1.3,0.6,1.3,1.3l0,0
	C-463.6,471-464.2,471.5-464.9,471.5z"/>
<path class="st12" d="M-353.2,498.8c1.5-0.5,1.9-1.1,1.9-1.5c0.2-1.4-3.3-2.4-7.9-5.5c-3.3-2.2-5-3.4-6-5.4c-1.5-3-1-7,1.6-9.9
	c3.3-3.6,9.6-4.8,15-2.6c0.8-1.3,1.6-2.5,2.4-3.8c-9.2-2.5-18.1-0.8-21.6,3.8c-2.1,2.8-2,7.9-2.1,9.8c0,1.2,0.1,2.3,0.5,3.6
	c0.4,1.3,1.1,2.3,1.6,2.9l0,0l0,0c1.1,0.8,2.2,1.6,3.4,2.4C-360.4,495-356.7,497-353.2,498.8z"/>
<path class="st12" d="M-309.1,494.4c-1.2-0.2-1.6-0.6-1.8-1c-0.6-1.3,1.5-3.1,3.6-7.1c1.5-2.9,2.3-4.4,2.3-6.6
	c0.1-3.2-1.5-7-4.2-9.1c-3.3-2.7-7.9-2.4-10.8,1c-0.9-1-1.9-2-2.8-3c5.3-4.6,11.8-5,15.6-1.4c2.3,2.2,3.8,7,4.4,8.9
	c0.4,1.1,0.7,2.2,0.8,3.5c0.1,1.3,0,2.4-0.1,3.1l0,0l0,0c-0.5,1-1,2-1.5,3.1C-305.4,489.1-307.3,491.9-309.1,494.4z"/>
<path class="st13" d="M-316.8,508l-20.8,2.3c-8.4,0.9-17-10.6-19.3-25.8c0,0,0-0.1,0-0.1c17-1.9,34.1-3.8,51.1-5.7l0,0
	c0,0,0,0.1,0,0.1C-303.4,494-308.4,507.1-316.8,508z"/>
<path class="st12" d="M-320.7,494l-17.1,1.9c-2,0-5.6-0.4-9.3-2.1c-6.4-2.9-9-7.9-9.7-9.5c5.1-4.3,10.3-8.7,15.4-13c0,0,0,0-0.1,0
	l17.1-1.9c0,0,0,0-0.1,0c6.2,3.1,12.5,6.1,18.7,9.2c-0.2,1.6-1.2,7-6.6,11.3C-315.4,492.5-318.8,493.5-320.7,494z"/>
<path class="st12" d="M-343.6,469.6l20.8-2.4c8.4-0.9,16,4.1,17.1,11.3c0,0,0,0,0,0.1c-17,1.9-34.1,3.9-51.1,5.8l0,0c0,0,0,0,0-0.1
	C-357.9,477.2-352,470.6-343.6,469.6z"/>
<path class="st13" d="M-322.2,491.9c-5.3,0.7-10.6,1.4-15.9,2.1c-1.2,0.1-5.3,0.2-9.3-2.1c-4.1-2.3-5.6-5.7-5.9-6.7
	c-0.3-0.4-2.9-5.3,0.2-10.2c2.3-3.6,6.7-5.7,11.5-5.7c0,0,0,0-0.1,0l17.1-1.9c0,0,0,0-0.1,0c0.5-0.1,6.2-1.5,10.9,1.7
	c3.7,2.6,5.2,6.9,3.8,11.1c0,0.9-0.2,4.6-3.5,7.8C-316.9,491.3-321.1,491.8-322.2,491.9z"/>
<path class="st14" d="M-326,495.7l-3.5,0.4c-1.1,0.1-2.1-0.5-2.2-1.5l-0.2-1.6c-0.1-0.9,0.6-1.8,1.7-1.9l3.5-0.4
	c1.1-0.1,2.1,0.5,2.2,1.5l0.2,1.6C-324.2,494.8-325,495.6-326,495.7z"/>
<path class="st15" d="M-358.2,504.1c0.1,0,0.8,0,0.8-0.1l0,0c0,0,0,0,0,0c0.2,0-0.1-10.1,0.7-21.7c0.3-4.4,0.5-5.2,0.8-10.6
	c0.3-5.5,0.5-8.2,0.4-10.6c0-1.3-0.7-18.8-7.1-19.7c-1.1-0.2-3.2,0.1-6.4,3.2c1.3,9.3,2.2,19.9,2.1,31.7c0,10.5-0.8,20.1-2,28.7
	c0.1,0,0.1,0.1,0.2,0.1c0,0,0.1,0,0.2,0.1C-368,505.3-359.1,504.2-358.2,504.1z"/>
<path class="st15" d="M-400.2,504c-0.1,0-0.9-0.1-0.9-0.1l0,0c0,0,0,0,0,0c-0.3,0,0-10.1-1.1-21.8c-0.4-4.4-0.6-5.3-1.1-10.7
	c-0.4-5.5-0.7-8.3-0.6-10.7c0-1.3,0.5-18.9,7.6-19.6c1.3-0.1,3.6,0.2,7.2,3.4c-1.3,9.3-2.1,20-1.9,31.8c0.2,10.5,1.3,20.2,2.7,28.8
	c-0.1,0-0.2,0.1-0.2,0.1c0,0-0.1,0-0.2,0.1C-389.3,505.4-399.2,504.1-400.2,504z"/>
<path class="st16" d="M-387,475c-3.9,0.1-4.7-0.3-8,0c-8.2,0.7-10.5,3.6-13,3c-7.5-1.8-16.4-34.6,0.3-56.3
	c11.4-14.8,34.1-23.8,48.9-15.9c7.4,4,11.2,16.7,18.9,42.2c5.5,18.5,5.7,26.3,2,29c-0.9,0.7-1.9,0.9-5,1c-15,0.3-18.9-6-30-5
	C-377.8,473.4-379.8,474.8-387,475z"/>
<path class="st15" d="M-330.7,427.1c2.1-0.4,4.2,1.4,5.1,3.8c0.7,1.9,0.4,3.8,0.2,5.1c-0.4,2.2-1.8,7.8-4.5,8c-2.7,0.2-5-4.2-5.1-8
	C-335.2,432.4-333.6,427.7-330.7,427.1z"/>
<path class="st15" d="M-428,428.5c1.7-1.7,4.6-1.8,6.7-0.5c1.7,1,2.4,2.6,2.9,3.8c0.8,1.9,2.4,7.1,0,9c-2.4,1.9-6.8,0.1-8.9-2.7
	C-429.4,435.5-430.5,430.9-428,428.5z"/>
<g>
	<polygon class="st15" points="-413.5,436.9 -343.9,438.8 -340.5,317.1 -410.1,315.2 	"/>
</g>
<ellipse transform="matrix(-0.9997 -2.479981e-002 2.479981e-002 -0.9997 -758.3781 624.1127)" class="st15" cx="-375.3" cy="316.8" rx="34.8" ry="32.3"/>
<path class="st17" d="M-415.1,437l72.7,2c-0.2-39,0.5-54,1.6-57.4c0.2-0.5,0.7-1.9,0.7-4c0.1-3.2-1.2-4-1.4-8.1c0,0,0,0-0.1-3.7
	c0-0.3-0.1-3.4-0.1-3.7c-10.3,0.3-21.2,0.4-32.6,0c-13-0.4-25.2-1.3-36.7-2.5c-0.3,0.9-0.7,2.1-1.1,3.7c-0.7,2.7-1,4.9-1.1,6.2
	c-0.6,5.4-0.5,11.3-0.4,14.2c0,4.4-0.2,8.8-0.4,13.1C-414.2,403.8-414.5,415.6-415.1,437z"/>
<g>
	<g>
		<path class="st16" d="M-393.3,341.9c3.1,7.3,11.9,7.3,17.8,3.5c1.7-1.1,0.1-3.9-1.6-2.8c-4.5,2.9-11,3.4-13.4-2.3
			C-391.4,338.4-394.1,340-393.3,341.9L-393.3,341.9z"/>
	</g>
</g>
<ellipse transform="matrix(-0.9998 -2.119947e-002 2.119947e-002 -0.9998 -776.7214 635.0938)" class="st18" cx="-385" cy="321.7" rx="5.9" ry="6.5"/>
<ellipse transform="matrix(-0.9998 -2.119947e-002 2.119947e-002 -0.9998 -738.4998 637.2898)" class="st18" cx="-365.9" cy="322.6" rx="5.9" ry="6.5"/>
<ellipse transform="matrix(-0.9998 -2.179918e-002 2.179918e-002 -0.9998 -774.3039 636.3744)" class="st16" cx="-383.7" cy="322.4" rx="2" ry="2.3"/>
<ellipse transform="matrix(-0.9998 -2.179918e-002 2.179918e-002 -0.9998 -740.8767 638.6038)" class="st16" cx="-367" cy="323.3" rx="2" ry="2.3"/>
<g>
	<path class="st15" d="M-341.7,362.2c-23.2-0.8-46.4-1.7-69.6-2.5c4.6,1.5,9.8,3.5,15.4,6.3c6.2,3.1,11.4,6.5,15.6,9.5
		c5.3-2.8,11.7-5.7,19.2-8.3C-354,364.8-347.4,363.2-341.7,362.2z"/>
</g>
<path class="st15" d="M-438.9,354.6"/>
<path class="st17" d="M-324.5,434.2c-0.1,0-0.2,0.1-0.2,0.1c0.3-1.5,0.6-3.7,0.8-6.3c0.5-5.6,1.5-22.6-9.8-41.9
	c-3.2-5.5-12.6-21.6-20.4-18.7c-2.2,0.9-3.8,3.1-4.7,4.9c2.7,6,6.9,15.2,12.3,26.7c1.9,3.9,2.5,5.1,3.3,7c3,7,6.5,17.4,8.1,31.8
	c0.1,0,0.3,0.1,0.5,0.1C-331.3,438.5-326.5,435.5-324.5,434.2z"/>
<path class="st17" d="M-427.2,439.8c-0.5-0.7-1.2-1.7-1.9-3c-4-7.6-3.3-16-3-19.3c0.4-4.2,1.4-7.4,3.5-13.9c2.7-8.6,4-12.9,6.4-16.5
	c6.3-9.4,17.8-15.4,21.2-12.3c0.9,0.8,1.3,2.4,1,5.1c-3.6,3.8-8.8,10.3-13,19.5c-6.2,13.9-6.3,26.2-6,31.8
	C-421.7,434-424.5,436.9-427.2,439.8z"/>
<path class="st19" d="M-368.1,511.2c1.3,0.3,4.3,0.8,7.3,1.1c0.6,0.1,1.8,0.2,3.4,0.1c1.2,0,1.9-0.1,2.3-0.2c0.8-0.1,1.5-0.3,2-0.5
	c0.3-0.3,1.7-1.8,1.8-3.9c0.1-2.1-1.2-4.1-3.2-5.2c-4.5,0.1-9,0.1-13.5,0.2c-0.5,3-0.5,5.6-0.2,7.6c0,0.1,0,0.2,0,0.4
	C-368.3,511-368.2,511.1-368.1,511.2z"/>
<path class="st19" d="M-389,511.9c-1.2,0.2-4,0.7-6.8,0.9c-0.6,0-1.7,0.1-3.1,0c-1.1-0.1-1.7-0.2-2.1-0.3c-0.8-0.2-1.4-0.4-1.8-0.6
	c-0.3-0.4-1.5-1.9-1.4-4c0-2.2,1.3-4.2,3.3-5.2c4.2,0.2,8.4,0.5,12.5,0.7c0.4,3.1,0.2,5.7-0.2,7.8c0,0.1,0,0.2-0.1,0.4
	C-388.8,511.6-388.9,511.8-389,511.9z"/>
<path class="st1" d="M-392.6,293.4c0-1.2,0.2-0.3,8.7,5.6c8.6,6,33.5,16.1,33,16.9c-0.5,0.8-16.8-2.2-25.5-8.1
	C-385.7,301.4-392.6,294.9-392.6,293.4z"/>
<path class="st0" d="M-398.5,300.8c-5.8,4.4-11.7,6.3-13.2,4.4s2.1-6.8,7.8-11.5c5.4-4.4,11.3-5.9,13.2-4.4
	C-388.7,290.9-392.7,296.4-398.5,300.8z"/>
<path class="st0" d="M-343.3,305.8c2,9.8,21,9,4.5,9c-30.2,0-62.4-11.1-62.2-20.8c0-1.5,0.9-2.7,2-4.1c5.3-6.8,16.4-6.2,18.3-6.1
	C-371.3,284.4-349.6,275.2-343.3,305.8z"/>
<path class="st1" d="M-342.3,304.8c2.1,10.1,21.3,9.2,4.6,9.2c-28.4,0-63.4-11.4-63.1-21.2c0.1-1.5,0.9-2.6,2.2-4.1
	c5.6-6.8,16.5-6.3,18.3-6.3C-370.7,282.8-348.8,273.6-342.3,304.8z"/>
<path class="st1" d="M-402.8,286.1"/>
<path class="st1" d="M-398.9,300.6c-5.9,4.4-11.8,6.4-13.3,4.5c-1.5-2,2.1-6.9,8-11.6c5.5-4.5,11.4-6,13.3-4.5
	C-389,290.6-393.1,296.1-398.9,300.6z"/>
</svg>
