<?xml version="1.0" encoding="utf-8"?>
<!-- Generator: Adobe Illustrator 23.0.1, SVG Export Plug-In . SVG Version: 6.00 Build 0)  -->
<svg version="1.1" id="Layer_1" xmlns="http://www.w3.org/2000/svg" xmlns:xlink="http://www.w3.org/1999/xlink" x="0px" y="0px"
	 viewBox="0 0 260 250" style="enable-background:new 0 0 260 250;" xml:space="preserve">
<style type="text/css">
	.st0{fill:#D8D8D8;}
	.st1{fill:#757575;}
	.st2{fill:#595959;}
	.st3{fill:#EDEDED;}
	.st4{fill:#141414;}
	.st5{fill:#3D3D3D;}
	.st6{fill:#EFD225;}
	.st7{fill:#E24B57;}
	.st8{fill:#2E9B10;}
	.st9{fill:#6B6B6B;}
	.st10{fill:#472C0C;}
	.st11{fill:#6B440C;}
	.st12{fill:#1E1E1E;}
	.st13{fill:#E9635E;}
	.st14{fill:#2D2C2C;}
	.st15{fill:#282727;}
	.st16{fill:#8FCDF7;}
	.st17{fill:#FFFFFF;}
	.st18{fill:#050505;}
</style>
<path class="st0" d="M231.21,239.8c-19.33,3.65-21.86,1.81-51.94,4.83c-19.42,1.95-33.6,4.25-59.35,4.87
	c-0.44,0.01-0.77,0.02-0.83,0.02c-24.84,0.56-39.96-1.2-71.41-4.15c-31.83-2.98-42.81-3.66-44.72-7.91
	c-0.84-1.87,0.38-3.75,1.6-5.09c5.13-1.4,12.78-3.34,22.42-5.22c19.19-3.74,37.09-5.45,97.06-7.28c34.42-1.05,51.91-1.56,65.5-0.82
	c24.75,1.34,44.47,4.42,57.61,6.91c4.09,0.78,9.94,2.54,10.05,4.8C257.4,234.86,238.41,238.44,231.21,239.8z"/>
<path class="st1" d="M46.75,238.75h-1.98c-7.87,0-14.24-6.38-14.24-14.24v-5.6c0-7.87,6.38-14.24,14.24-14.24h1.98
	c7.87,0,14.24,6.38,14.24,14.24v5.6C60.99,232.38,54.62,238.75,46.75,238.75z"/>
<path class="st2" d="M74.97,216.29H15.77c-5.22,0-9.45-4.23-9.45-9.45v-21.59c0-5.22,4.23-9.45,9.45-9.45h59.21
	c5.22,0,9.45,4.23,9.45,9.45v21.59C84.42,212.06,80.19,216.29,74.97,216.29z"/>
<path class="st2" d="M56.65,220.94H34.09c-0.24,0-0.44-0.2-0.44-0.44v-0.67c0-0.24,0.2-0.44,0.44-0.44h22.55
	c0.24,0,0.44,0.2,0.44,0.44v0.67C57.09,220.74,56.89,220.94,56.65,220.94z"/>
<path class="st2" d="M56.65,224.81H34.09c-0.24,0-0.44-0.2-0.44-0.44v-0.67c0-0.24,0.2-0.44,0.44-0.44h22.55
	c0.24,0,0.44,0.2,0.44,0.44v0.67C57.09,224.61,56.89,224.81,56.65,224.81z"/>
<path class="st2" d="M56.65,228.68H34.09c-0.24,0-0.44-0.2-0.44-0.44v-0.67c0-0.24,0.2-0.44,0.44-0.44h22.55
	c0.24,0,0.44,0.2,0.44,0.44v0.67C57.09,228.49,56.89,228.68,56.65,228.68z"/>
<rect x="6.32" y="175.79" class="st2" width="78.11" height="7.29"/>
<ellipse class="st2" cx="45.37" cy="147.34" rx="30.46" ry="25.56"/>
<rect x="14.91" y="146.57" class="st2" width="60.92" height="26.34"/>
<path class="st2" d="M84.42,175.79H6.32c13.02-4.32,26.04-8.64,39.05-12.96l0,0l0,0l0,0C58.39,167.15,71.41,171.47,84.42,175.79z"/>
<ellipse class="st3" cx="45.76" cy="155.86" rx="8.98" ry="8.52"/>
<ellipse cx="45.76" cy="155.86" rx="7.42" ry="6.97"/>
<ellipse class="st4" cx="45.76" cy="155.86" rx="5.08" ry="4.65"/>
<ellipse cx="45.76" cy="155.86" rx="3.51" ry="3.1"/>
<ellipse class="st3" cx="46.15" cy="155.09" rx="0.78" ry="0.77"/>
<ellipse class="st3" cx="45.76" cy="156.25" rx="0.39" ry="0.39"/>
<circle class="st3" cx="45.37" cy="155.87" r="0"/>
<rect x="14.91" y="172.53" class="st1" width="60.92" height="0.38"/>
<path class="st5" d="M72.65,200.02H16.53c-1.33,0-2.41-1.08-2.41-2.41v-7.58c0-1.33,1.08-2.41,2.41-2.41h56.11
	c1.33,0,2.41,1.08,2.41,2.41v7.58C75.05,198.94,73.97,200.02,72.65,200.02z"/>
<ellipse class="st6" cx="53.41" cy="193.99" rx="2.46" ry="2.24"/>
<ellipse class="st7" cx="61.23" cy="193.99" rx="2.46" ry="2.24"/>
<ellipse class="st8" cx="69.03" cy="193.99" rx="2.46" ry="2.24"/>
<path class="st9" d="M44.08,195.55H19.15c-0.71,0-1.29-0.58-1.29-1.29l0,0c0-0.71,0.58-1.29,1.29-1.29h24.92
	c0.71,0,1.29,0.58,1.29,1.29l0,0C45.37,194.97,44.79,195.55,44.08,195.55z"/>
<path class="st10" d="M155.83,222.75c1.49-0.55,1.88-1.11,1.94-1.53c0.21-1.45-3.31-2.41-7.89-5.47c-3.29-2.2-5.03-3.36-6.04-5.4
	c-1.46-2.96-1.02-7.02,1.65-9.92c3.33-3.61,9.57-4.79,15.03-2.61c0.81-1.26,1.62-2.51,2.44-3.77c-9.21-2.55-18.1-0.81-21.59,3.79
	c-2.1,2.77-2.03,7.85-2.06,9.82c-0.02,1.16,0.09,2.3,0.53,3.57c0.45,1.28,1.08,2.25,1.56,2.88l0,0l0,0
	c1.08,0.79,2.22,1.58,3.41,2.37C148.59,218.98,152.31,221.05,155.83,222.75z"/>
<path class="st10" d="M199.93,218.37c-1.16-0.18-1.6-0.62-1.77-1.01c-0.59-1.33,1.46-3.08,3.56-7.07c1.51-2.87,2.31-4.39,2.34-6.57
	c0.06-3.17-1.51-6.96-4.19-9.1c-3.34-2.67-7.87-2.35-10.83,1c-0.93-1.01-1.86-2.02-2.8-3.03c5.34-4.59,11.81-4.99,15.57-1.41
	c2.26,2.16,3.8,7.04,4.43,8.92c0.37,1.1,0.66,2.23,0.76,3.54c0.1,1.32-0.02,2.4-0.15,3.12l0,0l0,0c-0.48,1.01-0.99,2.03-1.54,3.06
	C203.58,213.08,201.74,215.92,199.93,218.37z"/>
<path class="st11" d="M192.24,232l-20.77,2.32c-8.38,0.93-17.01-10.62-19.28-25.81c-0.01-0.04-0.01-0.09-0.02-0.13
	c17.04-1.9,34.09-3.8,51.13-5.7l0,0c0.01,0.04,0.01,0.09,0.02,0.13C205.58,218,200.62,231.07,192.24,232z"/>
<path class="st10" d="M188.3,218l-17.13,1.91c-2.03-0.04-5.56-0.35-9.3-2.06c-6.44-2.94-8.99-7.94-9.7-9.48
	c5.13-4.34,10.27-8.69,15.4-13.03c-0.02,0-0.04,0-0.06,0.01l17.13-1.91c-0.02,0-0.04,0-0.06,0.01c6.24,3.08,12.48,6.15,18.72,9.23
	c-0.23,1.65-1.23,7.05-6.6,11.3C193.57,216.45,190.25,217.52,188.3,218z"/>
<path class="st10" d="M165.37,193.63l20.77-2.35c8.38-0.95,16.05,4.1,17.14,11.27c0,0.02,0.01,0.04,0.01,0.06
	c-17.04,1.92-34.08,3.85-51.12,5.77l0,0c0-0.02-0.01-0.04-0.01-0.06C151.08,201.16,156.99,194.58,165.37,193.63z"/>
<path class="st11" d="M186.83,215.93c-5.31,0.69-10.63,1.38-15.94,2.07c-1.23,0.09-5.27,0.23-9.3-2.06
	c-4.11-2.33-5.55-5.69-5.93-6.69c-0.26-0.44-2.92-5.3,0.16-10.17c2.25-3.55,6.68-5.73,11.47-5.66c-0.02,0-0.04,0-0.06,0.01
	l17.13-1.91c-0.02,0-0.04,0-0.06,0.01c0.5-0.13,6.22-1.54,10.89,1.71c3.68,2.56,5.19,6.94,3.8,11.06c-0.01,0.92-0.2,4.57-3.51,7.76
	C192.12,215.29,187.86,215.82,186.83,215.93z"/>
<path class="st12" d="M182.96,219.73l-3.54,0.38c-1.07,0.12-2.05-0.54-2.19-1.47l-0.24-1.63c-0.13-0.93,0.63-1.78,1.7-1.89
	l3.54-0.38c1.07-0.12,2.05,0.54,2.19,1.47l0.24,1.63C184.8,218.76,184.04,219.61,182.96,219.73z"/>
<path class="st13" d="M150.77,228.11c0.09-0.01,0.83-0.05,0.83-0.1l-0.01-0.01c0.01,0.01,0.01,0.01,0.01,0.01
	c0.23-0.02-0.14-10.06,0.66-21.7c0.3-4.39,0.51-5.21,0.83-10.63c0.32-5.46,0.48-8.2,0.41-10.61c-0.04-1.29-0.69-18.84-7.09-19.69
	c-1.14-0.15-3.17,0.12-6.35,3.21c1.3,9.3,2.18,19.93,2.12,31.7c-0.05,10.45-0.84,20.06-1.98,28.65c0.07,0.03,0.14,0.06,0.21,0.09
	c0,0,0.11,0.04,0.21,0.08C141.02,229.27,149.87,228.17,150.77,228.11z"/>
<path class="st13" d="M108.78,227.97c-0.11-0.01-0.93-0.08-0.94-0.12l0.01-0.01c-0.01,0.01-0.01,0.01-0.01,0.01
	c-0.25-0.02-0.01-10.1-1.09-21.81c-0.41-4.42-0.65-5.25-1.1-10.7c-0.45-5.5-0.67-8.25-0.63-10.67c0.02-1.29,0.47-18.9,7.64-19.56
	c1.27-0.12,3.56,0.21,7.17,3.41c-1.31,9.3-2.12,19.95-1.87,31.78c0.23,10.49,1.26,20.17,2.68,28.83c-0.07,0.03-0.15,0.06-0.23,0.09
	c0,0-0.12,0.04-0.24,0.08C119.73,229.42,109.8,228.06,108.78,227.97z"/>
<path class="st14" d="M122,199c-3.87,0.09-4.72-0.27-8,0c-8.17,0.68-10.48,3.6-13,3c-7.53-1.78-16.37-34.65,0.27-56.34
	c11.35-14.8,34.11-23.82,48.86-15.87c7.43,4,11.24,16.74,18.87,42.22c5.53,18.46,5.72,26.27,2,29c-0.89,0.66-1.91,0.94-5,1
	c-15.05,0.28-18.91-5.97-30-5C131.2,197.42,129.25,198.83,122,199z"/>
<path class="st13" d="M178.32,151.12c2.06-0.37,4.23,1.37,5.13,3.77c0.72,1.93,0.42,3.78,0.19,5.15c-0.36,2.24-1.76,7.77-4.51,7.95
	c-2.71,0.18-4.96-4.24-5.14-8.05C173.83,156.41,175.35,151.66,178.32,151.12z"/>
<path class="st13" d="M80.98,152.52c1.7-1.65,4.61-1.77,6.68-0.54c1.67,0.99,2.35,2.59,2.86,3.78c0.83,1.94,2.42,7.07-0.01,9.03
	c-2.4,1.94-6.77,0.07-8.92-2.7C79.6,159.53,78.52,154.91,80.98,152.52z"/>
<g>
	<g>
		<path class="st15" d="M157.36,46.56c1.31,5.45,4.99,10,7.12,15.14c1.58,3.81,2.25,8.31,5.71,10.82c1.67,1.21,3.27-1.6,1.61-2.81
			c-3.08-2.24-3.97-8.55-5.58-12.01c-1.87-4.02-4.74-7.63-5.78-12C159.96,43.66,156.87,44.53,157.36,46.56L157.36,46.56z"/>
	</g>
</g>
<g>
	<g>
		<path class="st15" d="M158.57,52.7c1.31,5.45,4.99,10,7.12,15.14c1.58,3.81,2.25,8.31,5.71,10.82c1.67,1.21,3.27-1.6,1.61-2.81
			c-3.08-2.24-3.97-8.55-5.58-12.01c-1.87-4.02-4.74-7.63-5.78-12C161.15,49.81,158.08,50.68,158.57,52.7L158.57,52.7z"/>
	</g>
</g>
<g>
	<g>
		<path class="st15" d="M157.36,56.4c1.31,5.45,4.99,10,7.12,15.14c1.58,3.81,2.25,8.31,5.71,10.82c1.67,1.21,3.27-1.6,1.61-2.81
			c-3.08-2.24-3.97-8.55-5.58-12.01c-1.87-4.02-4.74-7.63-5.78-12C159.96,53.49,156.87,54.36,157.36,56.4L157.36,56.4z"/>
	</g>
</g>
<g>
	<g>
		<path class="st15" d="M165.32,52.94c1.09,1.4,1.25,4.01,1.67,5.7c0.52,2.08,1.04,4.15,1.57,6.23c0.76,3.02,1.26,5.84,3.26,8.27
			c1.32,1.6,3.58-0.7,2.26-2.3c-2.47-2.99-2.89-8.6-3.81-12.3c-0.68-2.71-0.96-5.68-2.68-7.91
			C166.31,48.99,164.06,51.31,165.32,52.94L165.32,52.94z"/>
	</g>
</g>
<g>
	<g>
		<path class="st15" d="M161.73,54.17c1.09,1.4,1.25,4.01,1.67,5.7c0.52,2.08,1.04,4.15,1.57,6.23c0.76,3.02,1.26,5.84,3.26,8.27
			c1.32,1.6,3.58-0.7,2.26-2.3c-2.47-2.99-2.89-8.6-3.81-12.3c-0.68-2.71-0.96-5.68-2.68-7.91
			C162.72,50.23,160.47,52.54,161.73,54.17L161.73,54.17z"/>
	</g>
</g>
<g>
	<g>
		<path class="st15" d="M161.73,59.09c1.09,1.4,1.25,4.01,1.67,5.7c0.52,2.08,1.04,4.15,1.57,6.23c0.76,3.02,1.26,5.84,3.26,8.27
			c1.32,1.6,3.58-0.7,2.26-2.3c-2.47-2.99-2.89-8.6-3.81-12.3c-0.68-2.71-0.96-5.68-2.68-7.91
			C162.72,55.14,160.47,57.46,161.73,59.09L161.73,59.09z"/>
	</g>
</g>
<g>
	<g>
		<path class="st15" d="M97.34,53.82c-1.16,5.76-2.18,11.84-4.43,17.28c-0.8,1.93,2.3,2.76,3.08,0.87
			c2.25-5.44,3.27-11.53,4.43-17.28C100.83,52.64,97.75,51.76,97.34,53.82L97.34,53.82z"/>
	</g>
</g>
<g>
	<g>
		<path class="st15" d="M99.72,55.04c-1.16,5.76-2.18,11.84-4.43,17.28c-0.8,1.93,2.3,2.76,3.08,0.87
			c2.25-5.44,3.27-11.53,4.43-17.28C103.22,53.86,100.14,53,99.72,55.04L99.72,55.04z"/>
	</g>
</g>
<g>
	<g>
		<path class="st15" d="M96.15,66.11c-1.16,5.76-2.18,11.84-4.43,17.28c-0.8,1.93,2.3,2.76,3.08,0.87
			c2.25-5.44,3.27-11.53,4.43-17.28C99.64,64.93,96.56,64.05,96.15,66.11L96.15,66.11z"/>
	</g>
</g>
<g>
	<g>
		<path class="st15" d="M98.53,67.34c-1.16,5.76-2.18,11.84-4.43,17.28c-0.8,1.93,2.3,2.76,3.08,0.87
			c2.25-5.44,3.27-11.53,4.43-17.28C102.02,66.16,98.95,65.29,98.53,67.34L98.53,67.34z"/>
	</g>
</g>
<ellipse transform="matrix(0.0248 -0.9997 0.9997 0.0248 90.2427 172.7793)" class="st13" cx="133.68" cy="40.14" rx="32.29" ry="34.78"/>
<g>
	<polygon class="st13" points="95.54,160.86 165.09,162.76 168.46,41.09 98.91,39.19 	"/>
</g>
<path class="st16" d="M93.86,161.02l72.69,1.98c-0.19-39.03,0.52-54.03,1.55-57.4c0.16-0.53,0.69-1.94,0.72-3.95
	c0.06-3.18-1.17-3.98-1.41-8.12c0-0.03,0-0.01-0.06-3.69c0-0.31-0.05-3.38-0.06-3.69c-10.31,0.33-21.2,0.37-32.62,0.01
	c-12.96-0.41-25.21-1.29-36.68-2.47c-0.32,0.88-0.73,2.15-1.13,3.71c-0.68,2.69-0.96,4.86-1.1,6.17
	c-0.56,5.39-0.46,11.27-0.45,14.22c0.02,4.38-0.24,8.75-0.36,13.13C94.78,127.84,94.46,139.61,93.86,161.02z"/>
<g>
	<g>
		<path class="st14" d="M115.67,65.92c3.08,7.34,11.93,7.25,17.79,3.49c1.74-1.12,0.13-3.94-1.61-2.81
			c-4.48,2.88-11.01,3.42-13.41-2.32C117.62,62.36,114.87,64.02,115.67,65.92L115.67,65.92z"/>
	</g>
</g>
<ellipse transform="matrix(0.0212 -0.9998 0.9998 0.0212 75.7157 168.6809)" class="st17" cx="124.01" cy="45.67" rx="6.53" ry="5.9"/>
<ellipse transform="matrix(0.0212 -0.9998 0.9998 0.0212 93.543 188.6736)" class="st17" cx="143.13" cy="46.56" rx="6.53" ry="5.9"/>
<ellipse transform="matrix(0.0218 -0.9998 0.9998 0.0218 76.1841 170.6807)" class="st14" cx="125.31" cy="46.41" rx="2.27" ry="2.03"/>
<ellipse transform="matrix(0.0218 -0.9998 0.9998 0.0218 91.6153 188.3196)" class="st14" cx="142.04" cy="47.34" rx="2.27" ry="2.03"/>
<g>
	<g>
		<path class="st15" d="M118.07,9.43c-3.79,0.64-7.83,1.45-10.77,4.14c-3.63,3.31-5.55,8.96-7.14,13.5
			c-4.18,11.88-4.85,24.64-7.24,36.94c-0.39,2.05,2.68,2.92,3.08,0.87c1.93-9.91,2.74-20.05,5.15-29.87
			c1.31-5.35,3.15-10.52,5.75-15.35c2.68-4.99,6.86-6.23,12.03-7.1C120.94,12.22,120.08,9.08,118.07,9.43L118.07,9.43z"/>
	</g>
</g>
<g>
	<g>
		<path class="st15" d="M117.29,15.56c-4.18,0.3-8.66,0.75-11.99,3.62c-3.9,3.36-6.39,9.04-8.38,13.69
			c-4.76,11.12-6.61,23.2-9.98,34.78c-0.59,2.02,2.5,2.87,3.08,0.87c2.64-9.11,4.34-18.48,7.26-27.5c1.59-4.88,3.56-9.62,6.19-14.02
			c3.56-5.94,7.23-7.72,13.82-8.2C119.32,18.67,119.34,15.42,117.29,15.56L117.29,15.56z"/>
	</g>
</g>
<g>
	<g>
		<path class="st15" d="M118.48,21.7c-4.18,0.3-8.66,0.75-11.99,3.62c-3.9,3.36-6.39,9.04-8.38,13.69
			c-4.76,11.12-6.61,23.2-9.98,34.78c-0.59,2.02,2.5,2.87,3.08,0.87c2.64-9.11,4.34-18.48,7.26-27.5c1.59-4.88,3.56-9.62,6.19-14.02
			c3.56-5.94,7.23-7.72,13.82-8.2C120.52,24.82,120.54,21.56,118.48,21.7L118.48,21.7z"/>
	</g>
</g>
<g>
	<g>
		<path class="st15" d="M119.67,31.55c-4.18,0.3-8.66,0.75-11.99,3.62c-3.9,3.36-6.39,9.04-8.38,13.69
			c-4.76,11.12-6.61,23.2-9.98,34.78c-0.59,2.02,2.5,2.87,3.08,0.87c2.64-9.11,4.34-18.48,7.26-27.5c1.59-4.88,3.56-9.62,6.19-14.02
			c3.56-5.94,7.23-7.72,13.82-8.2C121.71,34.65,121.73,31.4,119.67,31.55L119.67,31.55z"/>
	</g>
</g>
<g>
	<g>
		<path class="st15" d="M117.01,11.17c-6.92,4.04-11.84,10.56-13.99,18.38c-0.55,2.02,2.52,2.88,3.08,0.87
			c1.94-7.03,6.3-12.79,12.52-16.44C120.41,12.93,118.8,10.13,117.01,11.17L117.01,11.17z"/>
	</g>
</g>
<g>
	<g>
		<path class="st15" d="M117.68,12c-2.69,1.19-2.82,4.17-3.84,6.61c-1.14,2.7-2.6,5.04-2.61,8.07c-0.01,2.09,3.18,2.09,3.19,0
			c0.01-2.32,1.18-4.21,2.1-6.26c0.76-1.69,1.02-4.85,2.78-5.62C121.18,13.99,119.56,11.18,117.68,12L117.68,12z"/>
	</g>
</g>
<g>
	<g>
		<path class="st15" d="M110.67,12.56c-2.16,2.65-4.14,5.42-5.92,8.34c-1.09,1.78,1.67,3.42,2.76,1.64
			c1.64-2.69,3.44-5.25,5.43-7.69C114.22,13.27,111.98,10.96,110.67,12.56L110.67,12.56z"/>
	</g>
</g>
<g>
	<g>
		<path class="st15" d="M114.96,11.14c-2.13,2.93-4.72,5.84-5.42,9.52c-0.39,2.05,2.68,2.92,3.08,0.87c0.64-3.36,3.15-6.07,5.1-8.75
			C118.94,11.1,116.17,9.49,114.96,11.14L114.96,11.14z"/>
	</g>
</g>
<g>
	<g>
		<path class="st15" d="M109.82,19.5c-0.86,1.54-1.71,3.09-2.58,4.63c-1.01,1.82,1.75,3.47,2.76,1.64c0.86-1.54,1.71-3.09,2.58-4.63
			C113.6,19.32,110.84,17.68,109.82,19.5L109.82,19.5z"/>
	</g>
</g>
<g>
	<g>
		<path class="st15" d="M120.99,9.23c-3.83,3.17-5.1,10.17-5.07,14.92c0.01,2.09,3.2,2.09,3.19,0c-0.02-3.85,1.03-10.06,4.13-12.62
			C124.86,10.2,122.58,7.91,120.99,9.23L120.99,9.23z"/>
	</g>
</g>
<g>
	<g>
		<path class="st15" d="M122.46,9.91c-0.14,2.57-1.29,5.32-1.95,7.81c-0.54,2.02,2.53,2.88,3.08,0.87c0.75-2.79,1.92-5.77,2.07-8.67
			C125.76,7.82,122.57,7.83,122.46,9.91L122.46,9.91z"/>
	</g>
</g>
<g>
	<g>
		<path class="st15" d="M148.88,14.06c4.13,2.43,8.44,4.94,11,9.22c1.95,3.26,3.79,8.14,4.74,11.86c2.2,8.68-0.27,18.12,1.69,27.01
			c0.45,2.04,3.52,1.18,3.08-0.87c-2.38-10.85,0.53-21.6-3.56-32.1c-1.23-3.19-2.32-6.54-4.38-9.29c-2.83-3.81-6.97-6.28-10.97-8.62
			C148.71,10.2,147.1,13.02,148.88,14.06L148.88,14.06z"/>
	</g>
</g>
<g>
	<g>
		<path class="st15" d="M159.32,20c3.26,6.35,6.76,12.4,8.52,19.39c1.44,5.72,1.8,12.03,4.19,17.42c0.85,1.91,3.6,0.25,2.76-1.64
			c-2.66-5.96-2.9-13.4-4.66-19.74c-1.68-6.03-5.22-11.55-8.06-17.07C161.13,16.51,158.37,18.15,159.32,20L159.32,20z"/>
	</g>
</g>
<g>
	<g>
		<path class="st15" d="M161.99,17.88c-5.4-4.5-11.56-7.17-18.48-8c-2.03-0.25-2.02,3.01,0,3.25c6,0.73,11.55,3.14,16.22,7.05
			C161.31,21.49,163.59,19.2,161.99,17.88L161.99,17.88z"/>
	</g>
</g>
<g>
	<g>
		<path class="st15" d="M150.09,10.26c-9.09-2.44-20.06-4.2-28.96-0.3c-1.88,0.82-0.26,3.62,1.61,2.81
			c7.95-3.48,18.45-1.53,26.5,0.63C151.23,13.92,152.08,10.79,150.09,10.26L150.09,10.26z"/>
	</g>
</g>
<g>
	<g>
		<path class="st15" d="M125.31,8.31c-2.68-0.38-5.09,0.27-7.61,1.16c-1.93,0.68-1.1,3.83,0.85,3.13c1.87-0.66,3.9-1.45,5.92-1.16
			C126.47,11.74,127.34,8.6,125.31,8.31L125.31,8.31z"/>
	</g>
</g>
<g>
	<g>
		<path class="st15" d="M121.48,12.5c2.73-0.88,5.49-1.49,8.34-1.75c2.03-0.18,2.05-3.45,0-3.25c-3.13,0.29-6.19,0.89-9.19,1.86
			C118.68,10,119.52,13.14,121.48,12.5L121.48,12.5z"/>
	</g>
</g>
<g>
	<g>
		<path class="st15" d="M133.99,9.72c-5.73,2.11-6.33,8.57-6.58,13.93c-0.1,2.09,3.1,2.09,3.19,0c0.16-3.55,0.2-9.3,4.24-10.8
			C136.76,12.15,135.93,9.01,133.99,9.72L133.99,9.72z"/>
	</g>
</g>
<g>
	<g>
		<path class="st15" d="M122.21,12.39c-1.17,1.95-1.33,4.25-1.91,6.43c-0.7,2.71-0.64,5.22-0.31,7.99c0.24,2.05,3.44,2.08,3.19,0
			c-0.3-2.46-0.44-4.69,0.19-7.12c0.48-1.85,0.59-4.01,1.59-5.66C126.04,12.24,123.28,10.6,122.21,12.39L122.21,12.39z"/>
	</g>
</g>
<g>
	<g>
		<path class="st15" d="M125.72,10.27c-1.21,4.08-2.53,8.04-1.72,12.34c0.38,2.05,3.47,1.18,3.08-0.87
			c-0.68-3.62,0.7-7.2,1.72-10.61C129.41,9.12,126.32,8.26,125.72,10.27L125.72,10.27z"/>
	</g>
</g>
<g>
	<g>
		<path class="st15" d="M128.11,9.67c0.07,1.19-0.73,2.36-1.06,3.49c-0.36,1.27-0.62,2.57-0.93,3.85c-0.48,2.04,2.6,2.91,3.08,0.87
			c0.34-1.45,0.61-2.97,1.09-4.39c0.45-1.3,1.11-2.39,1.01-3.82C131.16,7.59,127.97,7.58,128.11,9.67L128.11,9.67z"/>
	</g>
</g>
<g>
	<g>
		<path class="st15" d="M134.94,8.99c-1.33,1.14-1.8,3.08-2.36,4.69c-0.67,1.95-1.14,3.9-1.34,5.95c-0.2,2.08,2.99,2.07,3.19,0
			c0.15-1.53,0.53-3,1.01-4.46c0.39-1.2,0.78-3.06,1.76-3.89C138.77,9.94,136.51,7.65,134.94,8.99L134.94,8.99z"/>
	</g>
</g>
<g>
	<g>
		<path class="st15" d="M137.71,10.4c-1.64,3.43-2.57,7.03-2.77,10.82c-0.12,2.09,3.08,2.08,3.19,0c0.17-3.21,0.95-6.29,2.33-9.18
			C141.36,10.16,138.6,8.51,137.71,10.4L137.71,10.4z"/>
	</g>
</g>
<g>
	<g>
		<path class="st15" d="M139.64,13.67c2.18,2.35,1.69,6.04,1.45,9.02c-0.18,2.08,3.02,2.07,3.19,0c0.34-4.03,0.52-8.2-2.37-11.33
			C140.49,9.84,138.23,12.14,139.64,13.67L139.64,13.67z"/>
	</g>
</g>
<g>
	<g>
		<path class="st15" d="M138.39,13.88c0.4,0.86,0.27,1.95,0.26,2.87c-0.01,1.14-0.06,2.26-0.2,3.38c-0.24,2.07,2.95,2.06,3.19,0
			c0.3-2.53,0.62-5.54-0.49-7.9C140.26,10.34,137.51,11.99,138.39,13.88L138.39,13.88z"/>
	</g>
</g>
<g>
	<g>
		<path class="st15" d="M143.99,13.64c3.03,3.96,1.9,9.51,2.12,14.15c0.1,2.08,3.29,2.09,3.19,0c-0.28-5.81,0.7-11.56-3.04-16.45
			C144.98,9.69,142.73,12.01,143.99,13.64L143.99,13.64z"/>
	</g>
</g>
<g>
	<g>
		<path class="st15" d="M142.65,14.81c0.61,1.55,0.9,3.21,0.68,4.88c-0.12,0.88,0.2,1.73,1.12,2.01c0.75,0.22,1.85-0.27,1.97-1.14
			c0.3-2.27,0.14-4.47-0.68-6.6C144.98,12.02,141.89,12.86,142.65,14.81L142.65,14.81z"/>
	</g>
</g>
<g>
	<g>
		<path class="st15" d="M147,13.89c1.29,1.78,3.14,3.69,3.81,5.83c0.76,2.44,0.98,5.18,1.29,7.7c0.24,2.05,3.45,2.07,3.19,0
			c-0.34-2.83-0.62-5.82-1.41-8.57c-0.72-2.52-2.64-4.55-4.13-6.61C148.56,10.57,145.78,12.2,147,13.89L147,13.89z"/>
	</g>
</g>
<g>
	<g>
		<path class="st15" d="M147.08,16.83c0.99,2.2,1.35,4.54,1.21,6.95c-0.12,2.09,3.08,2.08,3.19,0c0.17-3-0.43-5.87-1.65-8.6
			C148.98,13.28,146.23,14.93,147.08,16.83L147.08,16.83z"/>
	</g>
</g>
<g>
	<g>
		<path class="st15" d="M152.52,17.74c2.97,4.84,5.53,9.9,5.82,15.7c0.11,2.08,3.3,2.09,3.19,0c-0.32-6.4-2.97-11.99-6.26-17.35
			C154.19,14.32,151.43,15.96,152.52,17.74L152.52,17.74z"/>
	</g>
</g>
<g>
	<g>
		<path class="st15" d="M157.7,23.37c2.58,2.75,3.06,5.96,3.08,9.63c0.01,2.09,3.2,2.09,3.19,0c-0.03-4.55-0.84-8.54-4.01-11.93
			C158.54,19.56,156.29,21.87,157.7,23.37L157.7,23.37z"/>
	</g>
</g>
<g>
	<g>
		<path class="st15" d="M153.73,23.93c0.83,1.05,0.71,2.73,0.69,3.99c-0.02,2.09,3.17,2.09,3.19,0c0.03-2.29-0.18-4.45-1.63-6.29
			c-0.54-0.68-1.69-0.57-2.26,0C153.07,22.31,153.19,23.24,153.73,23.93L153.73,23.93z"/>
	</g>
</g>
<g>
	<g>
		<path class="st15" d="M161.12,35.68c1.3,2.92,0.98,6.53,1.64,9.66c0.43,2.05,3.51,1.18,3.08-0.87c-0.75-3.53-0.48-7.09-1.96-10.43
			C163.03,32.13,160.28,33.78,161.12,35.68L161.12,35.68z"/>
	</g>
</g>
<g>
	<g>
		<path class="st15" d="M103.66,29.15c-1.45,3.17-2.25,5.56-3.02,9.05c-0.92,4.13-2.12,8.18-3.51,12.16
			c-0.69,1.97,2.4,2.82,3.08,0.87c2.37-6.74,3.27-14.03,6.22-20.44C107.28,28.91,104.54,27.26,103.66,29.15L103.66,29.15z"/>
	</g>
</g>
<g>
	<g>
		<path class="st15" d="M108.27,25.6c0.27,2.3-1.58,4.9-2.41,6.96c-0.84,2.09-1.38,4.15-1.43,6.42c-0.04,2.09,3.15,2.09,3.19,0
			c0.05-2.78,1.16-5.15,2.24-7.65c0.78-1.8,1.83-3.73,1.61-5.74C111.23,23.54,108.04,23.52,108.27,25.6L108.27,25.6z"/>
	</g>
</g>
<g>
	<g>
		<path class="st15" d="M107.97,24.2c-0.53,1.32-1.18,2.58-1.87,3.82c-0.62,1.11-1.13,2.23-1.01,3.53c0.19,2.06,3.39,2.08,3.19,0
			c-0.11-1.17,0.76-2.18,1.28-3.18c0.56-1.07,1.04-2.19,1.49-3.32C111.83,23.13,108.74,22.28,107.97,24.2L107.97,24.2z"/>
	</g>
</g>
<g>
	<g>
		<path class="st15" d="M113.13,24.09c-0.89,3.52-1.78,7.04-2.67,10.56c-0.51,2.03,2.57,2.89,3.08,0.87
			c0.89-3.52,1.78-7.04,2.67-10.56C116.73,22.93,113.65,22.06,113.13,24.09L113.13,24.09z"/>
	</g>
</g>
<g>
	<g>
		<path class="st15" d="M116.77,20c0.09,1.76-0.55,3.43-0.92,5.13c-0.37,1.75-0.66,3.5-0.94,5.26c-0.33,2.05,2.75,2.93,3.08,0.87
			c0.32-2.03,0.65-4.05,1.11-6.06c0.39-1.73,0.94-3.39,0.85-5.19C119.87,17.92,116.67,17.91,116.77,20L116.77,20z"/>
	</g>
</g>
<g>
	<g>
		<path class="st15" d="M120.82,17.09c-0.43,3.75-1.37,7.48-2.37,11.1c-0.55,2.02,2.52,2.88,3.08,0.87
			c1.08-3.91,2.03-7.93,2.48-11.97C124.25,15.02,121.06,15.03,120.82,17.09L120.82,17.09z"/>
	</g>
</g>
<g>
	<g>
		<path class="st15" d="M111.68,23.32c-1.77,3.02-2.95,6.29-3.49,9.76c-0.32,2.05,2.76,2.93,3.08,0.87c0.5-3.22,1.53-6.18,3.17-8.99
			C115.49,23.16,112.73,21.52,111.68,23.32L111.68,23.32z"/>
	</g>
</g>
<g>
	<g>
		<path class="st15" d="M119.73,15.7c-0.76,2.47-1.85,4.87-2.8,7.26c-0.77,1.94,2.32,2.79,3.08,0.87c0.95-2.4,2.04-4.79,2.8-7.26
			C123.42,14.56,120.33,13.7,119.73,15.7L119.73,15.7z"/>
	</g>
</g>
<g>
	<g>
		<path class="st15" d="M115.11,19.82c-1.52,1.23-2.82,2.67-3.96,4.27c-0.51,0.72-0.12,1.81,0.57,2.22
			c0.81,0.48,1.67,0.13,2.18-0.59c0.98-1.37,2.16-2.57,3.46-3.61c0.68-0.54,0.56-1.73,0-2.3C116.69,19.14,115.78,19.27,115.11,19.82
			L115.11,19.82z"/>
	</g>
</g>
<g>
	<g>
		<path class="st15" d="M105.43,20.91c-1.99,2.4-2.63,5.52-4.48,7.98c-1.25,1.66,1.52,3.29,2.76,1.64c1.68-2.23,2.2-5.17,3.98-7.32
			C109.02,21.62,106.76,19.31,105.43,20.91L105.43,20.91z"/>
	</g>
</g>
<g>
	<g>
		<path class="st15" d="M126.11,16.52c-1.65,2.59-2.95,5.37-3.94,8.28c-0.67,1.98,2.42,2.84,3.08,0.87
			c0.89-2.67,2.11-5.15,3.61-7.51C129.98,16.4,127.22,14.78,126.11,16.52L126.11,16.52z"/>
	</g>
</g>
<g>
	<g>
		<path class="st15" d="M129.84,14.85c-1.33,3.1-2.86,6.14-3.24,9.53c-0.23,2.08,2.97,2.06,3.19,0c0.31-2.76,1.72-5.38,2.81-7.89
			C133.42,14.59,130.66,12.93,129.84,14.85L129.84,14.85z"/>
	</g>
</g>
<g>
	<g>
		<path class="st15" d="M134.07,13.89c-1.32,2.36-1.33,5.3-1.65,7.94c-0.26,2.07,2.95,2.05,3.19,0c0.24-2.03,0.2-4.48,1.21-6.29
			C137.85,13.71,135.09,12.07,134.07,13.89L134.07,13.89z"/>
	</g>
</g>
<g>
	<g>
		<path class="st15" d="M137.74,15.87c-0.16,1.81-0.44,3.6-0.82,5.38c-0.44,2.04,2.64,2.92,3.08,0.87c0.45-2.06,0.75-4.14,0.94-6.25
			C141.12,13.79,137.92,13.8,137.74,15.87L137.74,15.87z"/>
	</g>
</g>
<g>
	<g>
		<path class="st15" d="M131.13,17.63c-0.34,1.33-0.49,2.71-0.42,4.08c0.04,0.88,0.7,1.63,1.6,1.63c0.83,0,1.64-0.75,1.6-1.63
			c-0.06-1.11,0.03-2.15,0.31-3.21C134.73,16.47,131.65,15.6,131.13,17.63L131.13,17.63z"/>
	</g>
</g>
<g>
	<g>
		<path class="st15" d="M143.3,18.05c1.46,2.39-0.81,4.93,0.37,7.41c0.89,1.89,3.65,0.24,2.76-1.64c-0.2-0.42,0.26-1.31,0.35-1.75
			c0.14-0.64,0.23-1.31,0.24-1.97c0.02-1.31-0.29-2.57-0.97-3.69C144.97,14.64,142.21,16.26,143.3,18.05L143.3,18.05z"/>
	</g>
</g>
<g>
	<g>
		<path class="st15" d="M139.01,19.04c-0.06,0.59-0.21,1.33-0.37,1.98c-0.21,0.82,0.27,1.8,1.12,2.01c0.83,0.2,1.75-0.25,1.97-1.14
			c0.23-0.93,0.38-1.89,0.49-2.85c0.1-0.85-0.8-1.66-1.6-1.63C139.66,17.45,139.1,18.13,139.01,19.04L139.01,19.04z"/>
	</g>
</g>
<g>
	<g>
		<path class="st15" d="M149.38,21.95c0.5,0.4,0.27,1.86,0.21,2.46c-0.07,0.95-0.32,1.88-0.63,2.78c-0.67,1.98,2.42,2.83,3.08,0.87
			c0.75-2.19,1.72-6.7-0.42-8.4C150.04,18.38,147.76,20.66,149.38,21.95L149.38,21.95z"/>
	</g>
</g>
<g>
	<g>
		<path class="st15" d="M153.76,24.04c1.88,2.43,1.71,6.94,1.57,9.83c-0.11,2.09,3.09,2.08,3.19,0c0.2-3.97,0.01-8.89-2.5-12.13
			C154.75,20.09,152.51,22.41,153.76,24.04L153.76,24.04z"/>
	</g>
</g>
<g>
	<g>
		<path class="st15" d="M158.27,30.53c0.38,1.72,0.06,3.5,0.43,5.24c0.46,2.14,0.71,4.03,0.7,6.25c-0.01,2.09,3.18,2.09,3.19,0
			c0.01-2.16-0.13-4.16-0.6-6.27c-0.45-2.03-0.19-4.05-0.64-6.08C160.89,27.62,157.81,28.49,158.27,30.53L158.27,30.53z"/>
	</g>
</g>
<g>
	<g>
		<path class="st15" d="M161.6,41.27c1.04,1.73,0.62,3.73,0.82,5.66c0.07,0.73,0.3,1.47,0.3,2.21c0,0.85-0.29,1.62-0.24,2.47
			c0.11,2.08,3.3,2.09,3.19,0c-0.05-0.94,0.26-1.84,0.22-2.79c-0.03-1.11-0.34-2.18-0.36-3.3c-0.04-2.11-0.06-4.04-1.18-5.9
			C163.28,37.86,160.52,39.49,161.6,41.27L161.6,41.27z"/>
	</g>
</g>
<g>
	<g>
		<path class="st15" d="M165.32,44.33c1.09,1.4,1.25,4.01,1.67,5.7c0.52,2.08,1.04,4.15,1.57,6.23c0.76,3.02,1.26,5.84,3.26,8.27
			c1.32,1.6,3.58-0.7,2.26-2.3c-2.47-2.99-2.89-8.6-3.81-12.3c-0.68-2.71-0.96-5.68-2.68-7.91
			C166.31,40.39,164.06,42.71,165.32,44.33L165.32,44.33z"/>
	</g>
</g>
<g>
	<g>
		<path class="st15" d="M102.23,23.79c-3.33,9.55-6.6,18.9-10.43,28.29c-0.79,1.93,2.3,2.78,3.08,0.87
			c3.83-9.39,7.1-18.74,10.43-28.29C105.99,22.67,102.91,21.82,102.23,23.79L102.23,23.79z"/>
	</g>
</g>
<g>
	<g>
		<path class="st15" d="M102.19,21.76c-0.42,2.96-2.45,6.14-3.76,8.81c-1.54,3.16-3.24,6.16-5.51,8.85
			c-1.33,1.58,0.92,3.89,2.26,2.3c2.45-2.89,4.34-6.08,6-9.5c1.44-2.93,3.62-6.32,4.09-9.58C105.57,20.58,102.49,19.69,102.19,21.76
			L102.19,21.76z"/>
	</g>
</g>
<g>
	<g>
		<path class="st15" d="M106.66,14.92c-0.9,2.85-3.44,5.62-5.17,8.04c-2.05,2.84-4.22,5.51-6.91,7.77
			c-1.58,1.33,0.25,3.99,1.84,2.66c2.9-2.43,5.29-5.24,7.5-8.32c1.9-2.64,4.62-5.6,5.63-8.74C110.18,14.34,107.3,12.93,106.66,14.92
			L106.66,14.92z"/>
	</g>
</g>
<g>
	<g>
		<path class="st15" d="M104.11,20.5c-0.9,2.85-3.44,5.62-5.17,8.04c-2.05,2.84-4.22,5.51-6.91,7.77c-1.58,1.33,0.25,3.99,1.84,2.66
			c2.9-2.43,5.29-5.24,7.5-8.32c1.9-2.64,4.62-5.6,5.63-8.74C107.64,19.92,104.75,18.51,104.11,20.5L104.11,20.5z"/>
	</g>
</g>
<g>
	<g>
		<path class="st15" d="M102.66,27.61c-0.9,2.85-3.44,5.62-5.17,8.04c-2.05,2.84-4.22,5.51-6.91,7.77
			c-1.58,1.33,0.25,3.99,1.84,2.66c2.9-2.43,5.29-5.24,7.5-8.32c1.9-2.64,4.62-5.6,5.63-8.74C106.18,27.03,103.3,25.62,102.66,27.61
			L102.66,27.61z"/>
	</g>
</g>
<g>
	<g>
		<path class="st15" d="M100.39,33.17c-0.9,2.85-3.44,5.62-5.17,8.04c-2.05,2.84-4.22,5.51-6.91,7.77
			c-1.58,1.33,0.25,3.99,1.84,2.66c2.9-2.43,5.29-5.24,7.5-8.32c1.9-2.64,4.62-5.6,5.63-8.74
			C103.92,32.59,101.03,31.18,100.39,33.17L100.39,33.17z"/>
	</g>
</g>
<g>
	<g>
		<path class="st15" d="M99.27,37.58c-0.9,2.85-3.44,5.62-5.17,8.04c-2.05,2.84-4.22,5.51-6.91,7.77c-1.58,1.33,0.25,3.99,1.84,2.66
			c2.9-2.43,5.29-5.24,7.5-8.32c1.9-2.64,4.62-5.6,5.63-8.74C102.8,37,99.91,35.59,99.27,37.58L99.27,37.58z"/>
	</g>
</g>
<g>
	<g>
		<path class="st15" d="M97.73,42.03c-0.9,2.85-3.44,5.62-5.17,8.04c-2.05,2.84-4.22,5.51-6.91,7.77c-1.58,1.33,0.25,3.99,1.84,2.66
			c2.9-2.43,5.29-5.24,7.5-8.32c1.9-2.64,4.62-5.6,5.63-8.74C101.25,41.45,98.37,40.04,97.73,42.03L97.73,42.03z"/>
	</g>
</g>
<g>
	<g>
		<path class="st15" d="M96.28,47.93c-0.9,2.85-3.44,5.62-5.17,8.04c-2.05,2.84-4.22,5.51-6.91,7.77c-1.58,1.33,0.25,3.99,1.84,2.66
			c2.9-2.43,5.29-5.24,7.5-8.32c1.9-2.64,4.62-5.6,5.63-8.74C99.81,47.34,96.92,45.94,96.28,47.93L96.28,47.93z"/>
	</g>
</g>
<g>
	<g>
		<path class="st15" d="M94.83,52.95c-0.9,2.85-3.44,5.62-5.17,8.04c-2.05,2.84-4.22,5.51-6.91,7.77c-1.58,1.33,0.25,3.99,1.84,2.66
			c2.9-2.43,5.29-5.24,7.5-8.32c1.9-2.64,4.62-5.6,5.63-8.74C98.35,52.37,95.47,50.96,94.83,52.95L94.83,52.95z"/>
	</g>
</g>
<g>
	<g>
		<path class="st15" d="M94.43,57.24c-0.9,2.85-3.44,5.62-5.17,8.04c-2.05,2.84-4.22,5.51-6.91,7.77c-1.58,1.33,0.25,3.99,1.84,2.66
			c2.9-2.43,5.29-5.24,7.5-8.32c1.9-2.64,4.62-5.6,5.63-8.74C97.95,56.66,95.06,55.25,94.43,57.24L94.43,57.24z"/>
	</g>
</g>
<g>
	<g>
		<path class="st15" d="M94.11,59.58c-0.9,2.85-3.44,5.62-5.17,8.04c-2.05,2.84-4.22,5.51-6.91,7.77c-1.58,1.33,0.25,3.99,1.84,2.66
			c2.9-2.43,5.29-5.24,7.5-8.32c1.9-2.64,4.62-5.6,5.63-8.74C97.64,59,94.75,57.59,94.11,59.58L94.11,59.58z"/>
	</g>
</g>
<g>
	<g>
		<path class="st15" d="M92.56,65.5c-0.9,2.85-3.44,5.62-5.17,8.04c-2.05,2.84-4.22,5.51-6.91,7.77c-1.58,1.33,0.25,3.99,1.84,2.66
			c2.9-2.43,5.29-5.24,7.5-8.32c1.9-2.64,4.62-5.6,5.63-8.74C96.09,64.92,93.2,63.51,92.56,65.5L92.56,65.5z"/>
	</g>
</g>
<g>
	<g>
		<path class="st15" d="M92.92,67.43c-0.9,2.85-3.44,5.62-5.17,8.04c-2.05,2.84-4.22,5.51-6.91,7.77c-1.58,1.33,0.25,3.99,1.84,2.66
			c2.9-2.43,5.29-5.24,7.5-8.32c1.9-2.64,4.62-5.6,5.63-8.74C96.44,66.85,93.56,65.44,92.92,67.43L92.92,67.43z"/>
	</g>
</g>
<g>
	<g>
		<path class="st15" d="M94.9,67.36c-0.61,2.93-2.84,5.96-4.32,8.54c-1.74,3.04-3.63,5.93-6.07,8.46c-1.43,1.49,0.66,3.95,2.1,2.44
			c2.63-2.72,4.73-5.78,6.61-9.07c1.62-2.82,4.02-6.06,4.7-9.29C98.35,66.41,95.34,65.31,94.9,67.36L94.9,67.36z"/>
	</g>
</g>
<g>
	<g>
		<path class="st15" d="M160.95,24.43c1.31,5.45,4.99,10,7.12,15.14c1.58,3.81,2.25,8.31,5.71,10.82c1.67,1.21,3.27-1.6,1.61-2.81
			c-3.08-2.24-3.97-8.55-5.58-12.01c-1.87-4.02-4.74-7.63-5.78-12C163.54,21.53,160.46,22.39,160.95,24.43L160.95,24.43z"/>
	</g>
</g>
<g>
	<g>
		<path class="st15" d="M160.61,20.2c1.62,5.37,5.55,9.69,7.97,14.69c1.79,3.71,2.71,8.16,6.31,10.47c1.74,1.11,3.17-1.79,1.45-2.9
			c-3.2-2.06-4.45-8.31-6.25-11.66c-2.1-3.91-5.16-7.34-6.45-11.64C163.03,17.16,160.01,18.19,160.61,20.2L160.61,20.2z"/>
	</g>
</g>
<g>
	<g>
		<path class="st15" d="M159.76,22.86c1.62,5.37,5.55,9.69,7.97,14.69c1.79,3.71,2.71,8.16,6.31,10.47c1.74,1.11,3.17-1.79,1.45-2.9
			c-3.2-2.06-4.45-8.31-6.25-11.66c-2.1-3.91-5.16-7.34-6.45-11.64C162.18,19.82,159.16,20.85,159.76,22.86L159.76,22.86z"/>
	</g>
</g>
<g>
	<g>
		<path class="st15" d="M159.94,28.01c1.62,5.37,5.55,9.69,7.97,14.69c1.79,3.71,2.71,8.16,6.31,10.47c1.74,1.11,3.17-1.79,1.45-2.9
			c-3.2-2.06-4.45-8.31-6.25-11.66c-2.1-3.91-5.16-7.34-6.45-11.64C162.36,24.97,159.34,26.01,159.94,28.01L159.94,28.01z"/>
	</g>
</g>
<g>
	<g>
		<path class="st15" d="M161.49,32.89c1.62,5.37,5.55,9.69,7.97,14.69c1.79,3.71,2.71,8.16,6.31,10.47c1.74,1.11,3.17-1.79,1.45-2.9
			c-3.2-2.06-4.45-8.31-6.25-11.66c-2.1-3.91-5.16-7.34-6.45-11.64C163.91,29.85,160.89,30.88,161.49,32.89L161.49,32.89z"/>
	</g>
</g>
<g>
	<g>
		<path class="st15" d="M161.21,36.62c1.62,5.37,5.55,9.69,7.97,14.69c1.79,3.71,2.71,8.16,6.31,10.47c1.74,1.11,3.17-1.79,1.45-2.9
			c-3.2-2.06-4.45-8.31-6.25-11.66c-2.1-3.91-5.16-7.34-6.45-11.64C163.63,33.58,160.61,34.62,161.21,36.62L161.21,36.62z"/>
	</g>
</g>
<g>
	<g>
		<path class="st15" d="M160.28,37.97c1.62,5.37,5.55,9.69,7.97,14.69c1.79,3.71,2.71,8.16,6.31,10.47c1.74,1.11,3.17-1.79,1.45-2.9
			c-3.2-2.06-4.45-8.31-6.25-11.66c-2.1-3.91-5.16-7.34-6.45-11.64C162.7,34.93,159.67,35.97,160.28,37.97L160.28,37.97z"/>
	</g>
</g>
<g>
	<g>
		<path class="st15" d="M161.21,42.23c1.62,5.37,5.55,9.69,7.97,14.69c1.79,3.71,2.71,8.16,6.31,10.47c1.74,1.11,3.17-1.79,1.45-2.9
			c-3.2-2.06-4.45-8.31-6.25-11.66c-2.1-3.91-5.16-7.34-6.45-11.64C163.63,39.19,160.61,40.23,161.21,42.23L161.21,42.23z"/>
	</g>
</g>
<g>
	<g>
		<path class="st15" d="M161.49,47.16c1.62,5.37,5.55,9.69,7.97,14.69c1.79,3.71,2.71,8.16,6.31,10.47c1.74,1.11,3.17-1.79,1.45-2.9
			c-3.2-2.06-4.45-8.31-6.25-11.66c-2.1-3.91-5.16-7.34-6.45-11.64C163.91,44.12,160.89,45.15,161.49,47.16L161.49,47.16z"/>
	</g>
</g>
<g>
	<g>
		<path class="st15" d="M159.76,42.87c1.31,5.45,4.99,10,7.12,15.14c1.58,3.81,2.25,8.31,5.71,10.82c1.67,1.21,3.27-1.6,1.61-2.81
			c-3.08-2.24-3.97-8.55-5.58-12.01c-1.87-4.02-4.74-7.63-5.78-12C162.35,39.97,159.27,40.83,159.76,42.87L159.76,42.87z"/>
	</g>
</g>
<g>
	<g>
		<path class="st15" d="M162.01,51.65c1.09,5.5,4.79,10.25,6.78,15.49c1.47,3.88,1.93,8.39,5.51,11.11
			c1.73,1.31,3.61-1.38,1.89-2.68c-3.18-2.43-3.77-8.75-5.3-12.29c-1.78-4.11-4.65-7.88-5.52-12.29
			C164.95,48.95,161.6,49.6,162.01,51.65L162.01,51.65z"/>
	</g>
</g>
<g>
	<g>
		<path class="st15" d="M130.52,19.43c-4.27,3.84-8.04,7.63-13.86,8.68c-2.02,0.37-1.16,3.5,0.85,3.13
			c6.33-1.14,10.61-5.32,15.28-9.52C134.32,20.34,132.07,18.04,130.52,19.43L130.52,19.43z"/>
	</g>
</g>
<g>
	<g>
		<path class="st15" d="M135.55,19.35c-3.12,3.73-7.19,6.04-11.95,6.77c-2.02,0.31-1.16,3.45,0.85,3.13c5.24-0.8,9.92-3.5,13.35-7.6
			C139.13,20.07,136.88,17.75,135.55,19.35L135.55,19.35z"/>
	</g>
</g>
<g>
	<g>
		<path class="st15" d="M140.53,20.57c-2.99,1.98-6.28,4.24-9.85,4.91c-2.02,0.38-1.16,3.51,0.85,3.13
			c3.84-0.72,7.38-3.11,10.6-5.24C143.86,22.24,142.27,19.43,140.53,20.57L140.53,20.57z"/>
	</g>
</g>
<g>
	<g>
		<path class="st15" d="M143.75,20.98c-0.12,0.31-0.77,0.6-1.02,0.8c-0.46,0.37-0.86,0.8-1.34,1.15c-1.16,0.83-2.52,1.41-3.78,2.05
			c-1.83,0.94-0.22,3.75,1.61,2.81c1.64-0.85,3.36-1.6,4.78-2.83c1.11-0.96,2.31-1.67,2.83-3.12
			C147.54,19.87,144.45,19.03,143.75,20.98L143.75,20.98z"/>
	</g>
</g>
<g>
	<g>
		<path class="st15" d="M147.65,22.17c-2.12,1.66-4.24,3.61-6.82,4.48c-1.94,0.65-1.11,3.79,0.85,3.13c2.9-0.98,5.2-2.94,7.58-4.81
			C150.88,23.72,149.29,20.89,147.65,22.17L147.65,22.17z"/>
	</g>
</g>
<g>
	<g>
		<path class="st15" d="M120.3,27.21c-2.38,1.15-4.13,3.02-6.21,4.63c-2.48,1.92-5.33,3.14-8.23,4.24
			c-1.91,0.73-1.09,3.87,0.85,3.13c2.76-1.04,5.51-2.16,7.97-3.82c2.5-1.69,4.48-4.07,7.22-5.38
			C123.77,29.13,122.16,26.32,120.3,27.21L120.3,27.21z"/>
	</g>
</g>
<g>
	<g>
		<path class="st15" d="M110.98,33.16c-3.72,2.49-7.54,4.81-11.46,6.95c-1.81,0.99-0.2,3.79,1.61,2.81
			c3.92-2.15,7.74-4.46,11.46-6.95C114.3,34.82,112.7,32,110.98,33.16L110.98,33.16z"/>
	</g>
</g>
<g>
	<g>
		<path class="st15" d="M109.18,32.04c-2.04,1.21-4.08,2.46-6.1,3.72c-1.75,1.1-0.15,3.91,1.61,2.81c2.02-1.27,4.05-2.5,6.1-3.72
			C112.56,33.79,110.96,30.97,109.18,32.04L109.18,32.04z"/>
	</g>
</g>
<g>
	<g>
		<path class="st15" d="M111.71,32.71c-4.25,4.05-8.53,8.02-13.78,10.69c-1.84,0.93-0.22,3.74,1.61,2.81
			c5.48-2.79,9.99-6.96,14.42-11.2C115.47,33.57,113.21,31.28,111.71,32.71L111.71,32.71z"/>
	</g>
</g>
<g>
	<g>
		<path class="st15" d="M129.54,24.84c-5.97,4.76-13.45,7.69-20.23,11.03c-1.85,0.91-0.23,3.72,1.61,2.81
			c7.1-3.49,14.63-6.56,20.88-11.54C133.42,25.85,131.14,23.56,129.54,24.84L129.54,24.84z"/>
	</g>
</g>
<g>
	<g>
		<path class="st15" d="M134.43,26.19c-3.5,1.92-7.09,3.66-10.77,5.2c-1.87,0.78-1.05,3.94,0.85,3.13
			c3.94-1.65,7.78-3.47,11.54-5.53C137.85,28.01,136.24,25.21,134.43,26.19L134.43,26.19z"/>
	</g>
</g>
<g>
	<g>
		<path class="st15" d="M142.56,24.36c-3.14,1.78-6.37,3.38-9.68,4.78c-1.87,0.79-1.05,3.94,0.85,3.13
			c3.58-1.51,7.06-3.2,10.44-5.11C145.97,26.15,144.36,23.34,142.56,24.36L142.56,24.36z"/>
	</g>
</g>
<g>
	<g>
		<path class="st15" d="M141.8,26.27c-1.92,0.51-3.76,1.24-5.51,2.17c-1.83,0.96-0.21,3.77,1.61,2.81c1.52-0.8,3.1-1.4,4.75-1.83
			C144.64,28.88,143.8,25.75,141.8,26.27L141.8,26.27z"/>
	</g>
</g>
<g>
	<g>
		<path class="st15" d="M147.44,24.9c-2.83,0.36-5.21,1.93-7.67,3.31c-1.8,1.01-0.19,3.83,1.61,2.81c1.85-1.04,3.91-2.59,6.06-2.86
			C149.45,27.91,149.47,24.64,147.44,24.9L147.44,24.9z"/>
	</g>
</g>
<g>
	<g>
		<path class="st15" d="M150.63,25.14c-1.98,0.88-3.91,1.85-5.77,2.95c-1.78,1.04-0.17,3.85,1.61,2.81c1.87-1.1,3.79-2.08,5.77-2.95
			c0.8-0.35,0.96-1.53,0.57-2.22C152.35,24.89,151.42,24.79,150.63,25.14L150.63,25.14z"/>
	</g>
</g>
<g>
	<g>
		<path class="st15" d="M152.68,25.84c-1.33,0.49-2.63,1.06-3.88,1.72c-1.82,0.98-0.21,3.78,1.61,2.81c1.01-0.54,2.04-1.01,3.12-1.4
			c0.81-0.29,1.35-1.11,1.12-2.01C154.42,26.17,153.49,25.54,152.68,25.84L152.68,25.84z"/>
	</g>
</g>
<g>
	<g>
		<path class="st15" d="M155.15,27.39c-0.72,0.42-1.44,0.85-2.16,1.28c-0.75,0.44-1.01,1.46-0.57,2.22
			c0.44,0.76,1.44,1.03,2.18,0.59c0.72-0.42,1.44-0.85,2.16-1.28c0.75-0.44,1.01-1.46,0.57-2.22
			C156.89,27.21,155.89,26.95,155.15,27.39L155.15,27.39z"/>
	</g>
</g>
<g>
	<g>
		<path class="st15" d="M120.15,12.07c0.24,2.18-1.54,3.85-2.38,5.7c-0.86,1.89,1.9,3.53,2.76,1.64c1.11-2.43,3.14-4.46,2.82-7.35
			C123.12,10.01,119.93,9.98,120.15,12.07L120.15,12.07z"/>
	</g>
</g>
<g>
	<g>
		<path class="st15" d="M123.89,13.15c-1.36,3.77-2.73,7.54-4.09,11.31c-0.71,1.96,2.37,2.82,3.08,0.87
			c1.36-3.77,2.73-7.54,4.09-11.31C127.68,12.06,124.6,11.2,123.89,13.15L123.89,13.15z"/>
	</g>
</g>
<g>
	<g>
		<path class="st15" d="M125.3,15.94c-0.84,2.78-1.96,5.41-3.37,7.94c-1.02,1.82,1.74,3.46,2.76,1.64c1.54-2.76,2.78-5.67,3.7-8.71
			C128.98,14.8,125.9,13.94,125.3,15.94L125.3,15.94z"/>
	</g>
</g>
<g>
	<g>
		<path class="st15" d="M128.32,17.06c-0.89,2.44-2.08,4.73-3.5,6.88c-1.15,1.75,1.62,3.37,2.76,1.64c1.59-2.4,2.84-4.95,3.82-7.67
			C132.11,15.96,129.02,15.11,128.32,17.06L128.32,17.06z"/>
	</g>
</g>
<g>
	<g>
		<path class="st15" d="M125.72,16.99c-2.8,0.35-4.57,2.14-6.42,4.17c-2.02,2.23-3.83,4.64-5.47,7.18
			c-1.14,1.76,1.63,3.38,2.76,1.64c1.22-1.89,2.53-3.69,3.98-5.39c1.27-1.49,3.09-4.1,5.15-4.35
			C127.73,19.99,127.77,16.73,125.72,16.99L125.72,16.99z"/>
	</g>
</g>
<g>
	<g>
		<path class="st15" d="M120.49,21.26c-1.76,2.92-3.77,5.62-6.06,8.12c-1.41,1.53,0.85,3.84,2.26,2.3c2.47-2.7,4.67-5.63,6.56-8.78
			C124.33,21.11,121.57,19.47,120.49,21.26L120.49,21.26z"/>
	</g>
</g>
<g>
	<g>
		<path class="st15" d="M116.82,25.08c-1.78,2.29-3.77,4.36-5.97,6.21c-1.59,1.33,0.68,3.62,2.26,2.3c2.2-1.85,4.21-3.92,5.97-6.21
			C120.33,25.75,118.09,23.44,116.82,25.08L116.82,25.08z"/>
	</g>
</g>
<g>
	<g>
		<path class="st15" d="M113.94,14.91c-1.33,2.92-1.93,6.38-4.34,8.61c-1.52,1.41,0.73,3.71,2.26,2.3c2.69-2.48,3.37-6.04,4.84-9.27
			C117.56,14.66,114.8,13.01,113.94,14.91L113.94,14.91z"/>
	</g>
</g>
<g>
	<g>
		<path class="st15" d="M112.4,18.21c-2.58,4.54-5.04,9.15-7.38,13.82c-0.94,1.86,1.82,3.51,2.76,1.64
			c2.34-4.67,4.8-9.28,7.38-13.82C116.19,18.04,113.44,16.4,112.4,18.21L112.4,18.21z"/>
	</g>
</g>
<g>
	<g>
		<path class="st15" d="M106.88,28.41c-1.36,2.07-2.74,4.13-4.1,6.2c-1.15,1.75,1.62,3.37,2.76,1.64c1.36-2.07,2.74-4.13,4.1-6.2
			C110.79,28.31,108.03,26.68,106.88,28.41L106.88,28.41z"/>
	</g>
</g>
<g>
	<g>
		<path class="st15" d="M107.03,28.48c-1.29,1.91-2.64,3.77-4.07,5.57c-1.28,1.62,0.97,3.94,2.26,2.3c1.6-2.02,3.13-4.1,4.57-6.23
			C110.94,28.39,108.18,26.77,107.03,28.48L107.03,28.48z"/>
	</g>
</g>
<g>
	<g>
		<path class="st15" d="M129.19,11.04c-0.6,1.06-1.2,2.13-1.8,3.19c-1.02,1.82,1.74,3.46,2.76,1.64c0.6-1.06,1.2-2.13,1.8-3.19
			C132.98,10.85,130.21,9.21,129.19,11.04L129.19,11.04z"/>
	</g>
</g>
<g>
	<g>
		<path class="st15" d="M133.47,12.52c-0.05-0.02-2.14,4.55-2.32,4.94c-0.86,1.89,1.88,3.53,2.76,1.64
			c0.82-1.78,1.82-3.56,2.46-5.41c0.52-1.51,0.21-3.22-1.28-3.99C133.26,8.77,131.63,11.58,133.47,12.52L133.47,12.52z"/>
	</g>
</g>
<g>
	<g>
		<path class="st15" d="M137.17,10.92c-1.57,2.09-2.97,4.29-4.22,6.6c-0.99,1.83,1.77,3.48,2.76,1.64c1.25-2.31,2.65-4.5,4.22-6.6
			C141.17,10.9,138.39,9.27,137.17,10.92L137.17,10.92z"/>
	</g>
</g>
<g>
	<g>
		<path class="st15" d="M135.91,10.7c-2.08,3.43-4.3,6.74-6.69,9.95c-1.25,1.67,1.53,3.3,2.76,1.64c2.38-3.21,4.61-6.53,6.69-9.95
			C139.75,10.56,136.99,8.92,135.91,10.7L135.91,10.7z"/>
	</g>
</g>
<g>
	<g>
		<path class="st15" d="M129.86,21.14c-0.75,0.98-1.5,1.95-2.25,2.93c-0.53,0.69-0.66,1.63,0,2.3c0.55,0.56,1.72,0.69,2.26,0
			c0.75-0.98,1.5-1.95,2.25-2.93c0.53-0.69,0.66-1.63,0-2.3C131.57,20.58,130.4,20.44,129.86,21.14L129.86,21.14z"/>
	</g>
</g>
<g>
	<g>
		<path class="st15" d="M135.83,18.7c-1.34,1.47-2.69,2.93-4.07,4.36c-1.44,1.5,0.82,3.81,2.26,2.3c1.37-1.44,2.73-2.89,4.07-4.36
			C139.48,19.47,137.22,17.16,135.83,18.7L135.83,18.7z"/>
	</g>
</g>
<g>
	<g>
		<path class="st15" d="M137.05,19.94c-1.32,1.68-2.68,3.32-4.08,4.92c-1.36,1.56,0.89,3.87,2.26,2.3c1.41-1.6,2.76-3.25,4.08-4.92
			c0.54-0.68,0.66-1.63,0-2.3C138.74,19.37,137.58,19.25,137.05,19.94L137.05,19.94z"/>
	</g>
</g>
<g>
	<g>
		<path class="st15" d="M136.63,21.68c-0.61,1.08-1.1,2.22-1.49,3.39c-0.28,0.83,0.32,1.78,1.12,2.01c0.87,0.25,1.68-0.3,1.97-1.14
			c0.31-0.91,0.69-1.78,1.17-2.61C140.4,21.5,137.65,19.86,136.63,21.68L136.63,21.68z"/>
	</g>
</g>
<g>
	<g>
		<path class="st15" d="M137.73,23.86c-0.81,0.96-1.68,1.86-2.61,2.71c-0.64,0.59-0.59,1.7,0,2.3c0.64,0.65,1.62,0.59,2.26,0
			c0.93-0.85,1.8-1.75,2.61-2.71c0.56-0.66,0.64-1.65,0-2.3C139.41,23.28,138.3,23.19,137.73,23.86L137.73,23.86z"/>
	</g>
</g>
<g>
	<g>
		<path class="st15" d="M136.5,25.04c-0.02,0.04-0.04,0.1-0.07,0.14c-0.38,0.78-0.2,1.76,0.57,2.22c0.7,0.42,1.8,0.21,2.18-0.59
			c0.02-0.04,0.04-0.1,0.07-0.14c0.38-0.78,0.2-1.76-0.57-2.22C137.97,24.04,136.88,24.25,136.5,25.04L136.5,25.04z"/>
	</g>
</g>
<g>
	<g>
		<path class="st15" d="M149.31,18.78c-1.69,1.89-3.25,3.87-4.7,5.95c-1.19,1.71,1.58,3.34,2.76,1.64c1.29-1.85,2.69-3.62,4.19-5.3
			C152.96,19.54,150.7,17.24,149.31,18.78L149.31,18.78z"/>
	</g>
</g>
<g>
	<g>
		<path class="st15" d="M150.61,21.54c-0.65,0.95-1.31,1.91-1.96,2.86c-0.49,0.72-0.13,1.81,0.57,2.22c0.8,0.48,1.69,0.14,2.18-0.59
			c0.65-0.95,1.31-1.91,1.96-2.86c0.49-0.72,0.13-1.81-0.57-2.22C152,20.49,151.1,20.83,150.61,21.54L150.61,21.54z"/>
	</g>
</g>
<g>
	<g>
		<path class="st15" d="M150.28,21.85c-0.99,0.91-1.91,1.88-2.75,2.93c-0.55,0.67-0.65,1.64,0,2.3c0.56,0.57,1.7,0.68,2.26,0
			c0.84-1.04,1.76-2.02,2.75-2.93c0.64-0.59,0.59-1.7,0-2.3C151.91,21.2,150.93,21.26,150.28,21.85L150.28,21.85z"/>
	</g>
</g>
<g>
	<g>
		<path class="st15" d="M155.89,18.69c-0.18,0.39-0.38,0.76-0.62,1.12c-0.24,0.37-0.34,0.5-0.64,0.82c-0.57,0.65-0.63,1.66,0,2.3
			c0.59,0.6,1.68,0.65,2.26,0c0.69-0.78,1.3-1.65,1.75-2.6c0.37-0.79,0.21-1.76-0.57-2.22C157.37,17.69,156.27,17.9,155.89,18.69
			L155.89,18.69z"/>
	</g>
</g>
<g>
	<g>
		<path class="st15" d="M152.94,20.51c-0.53,1.36-0.84,3,0.07,4.27c0.51,0.7,1.38,1.06,2.18,0.59c0.68-0.41,1.09-1.52,0.57-2.22
			c-0.01-0.02-0.22-0.43-0.15-0.23c-0.07-0.21-0.05-0.08-0.02-0.26c0.09-0.39,0.24-0.87,0.42-1.28c0.32-0.81-0.35-1.79-1.12-2.01
			C154,19.11,153.27,19.69,152.94,20.51L152.94,20.51z"/>
	</g>
</g>
<g>
	<g>
		<path class="st15" d="M160.41,27.43c0.05,2.24,1.29,3.9,2.37,5.76c1.04,1.8,3.81,0.16,2.76-1.64c-0.73-1.27-1.9-2.57-1.94-4.11
			C163.55,25.34,160.35,25.33,160.41,27.43L160.41,27.43z"/>
	</g>
</g>
<g>
	<g>
		<path class="st15" d="M162.1,32.29c-0.11,3.89,1.9,7.38,3.46,10.82c0.86,1.9,3.62,0.25,2.76-1.64c-1.32-2.89-3.12-5.89-3.02-9.17
			C165.35,30.19,162.15,30.19,162.1,32.29L162.1,32.29z"/>
	</g>
</g>
<g>
	<g>
		<path class="st15" d="M165.28,40.32c0.96,1.78,1.51,3.74,2.59,5.45c1.1,1.76,3.86,0.13,2.76-1.64c-1.08-1.71-1.63-3.68-2.59-5.45
			C167.05,36.84,164.29,38.48,165.28,40.32L165.28,40.32z"/>
	</g>
</g>
<g>
	<path class="st13" d="M167.3,86.16c-23.2-0.84-46.41-1.67-69.61-2.51c4.59,1.5,9.82,3.53,15.39,6.33c6.2,3.11,11.4,6.46,15.62,9.54
		c5.32-2.81,11.73-5.74,19.18-8.29C155,88.79,161.58,87.2,167.3,86.16z"/>
</g>
<path class="st13" d="M70.13,78.58"/>
<path class="st16" d="M184.52,158.21c-0.08,0.04-0.15,0.08-0.23,0.12c0.26-1.49,0.59-3.66,0.83-6.25
	c0.52-5.61,1.48-22.55-9.83-41.88c-3.21-5.49-12.63-21.59-20.35-18.66c-2.24,0.85-3.77,3.09-4.72,4.88
	c2.72,6.04,6.89,15.21,12.33,26.66c1.85,3.89,2.46,5.13,3.26,6.98c3.03,6.97,6.55,17.38,8.12,31.8c0.15,0.04,0.31,0.07,0.46,0.1
	C177.69,162.46,182.53,159.52,184.52,158.21z"/>
<path class="st16" d="M81.78,163.77c-0.48-0.65-1.19-1.68-1.91-3.04c-4.01-7.6-3.28-16.03-2.96-19.31
	c0.41-4.16,1.43-7.42,3.48-13.94c2.69-8.6,4.04-12.9,6.45-16.52c6.25-9.4,17.81-15.43,21.17-12.27c0.89,0.83,1.32,2.42,1.04,5.07
	c-3.57,3.8-8.83,10.25-12.96,19.49c-6.21,13.9-6.31,26.16-6.04,31.78C87.3,157.95,84.54,160.86,81.78,163.77z"/>
<path class="st18" d="M140.85,235.2c1.26,0.25,4.3,0.82,7.28,1.1c0.61,0.06,1.83,0.16,3.38,0.12c1.16-0.03,1.85-0.13,2.27-0.2
	c0.82-0.14,1.5-0.33,2-0.49c0.34-0.34,1.69-1.75,1.75-3.86c0.06-2.12-1.21-4.12-3.24-5.16c-4.5,0.08-8.99,0.15-13.49,0.23
	c-0.55,3.02-0.5,5.56-0.24,7.59c0.02,0.12,0.03,0.23,0.05,0.35C140.7,234.98,140.78,235.09,140.85,235.2z"/>
<path class="st18" d="M120.04,235.85c-1.18,0.21-4.04,0.68-6.82,0.86c-0.57,0.04-1.71,0.1-3.15,0c-1.08-0.08-1.71-0.2-2.1-0.29
	c-0.75-0.17-1.38-0.39-1.84-0.58c-0.3-0.36-1.49-1.86-1.43-4.03c0.05-2.18,1.33-4.19,3.27-5.18c4.18,0.24,8.35,0.49,12.53,0.73
	c0.36,3.12,0.18,5.74-0.16,7.81c-0.02,0.12-0.04,0.24-0.06,0.36C120.2,235.64,120.12,235.75,120.04,235.85z"/>
</svg>
