<?xml version="1.0" encoding="utf-8"?>
<!-- Generator: Adobe Illustrator 23.0.2, SVG Export Plug-In . SVG Version: 6.00 Build 0)  -->
<svg version="1.1" id="Layer_1" xmlns="http://www.w3.org/2000/svg" xmlns:xlink="http://www.w3.org/1999/xlink" x="0px" y="0px"
	 viewBox="0 0 465 532" style="enable-background:new 0 0 465 532;" xml:space="preserve">
<style type="text/css">
	.st0{fill:#2D2C2C;}
	.st1{fill:#EDEDED;}
	.st2{fill:#5E5E5E;}
	.st3{fill:#DDDDDD;}
	.st4{fill:#E9635E;}
	.st5{fill:#C64E4E;}
	.st6{fill:none;stroke:#EDEDED;stroke-width:6.9;stroke-miterlimit:10;}
	.st7{font-family:'ArialMT';}
	.st8{font-size:8.0814px;}
	.st9{font-size:17.3056px;}
</style>
<rect x="172.3" y="43.6" class="st0" width="224.7" height="411.3"/>
<path class="st1" d="M119.5,469.1c28.2-3.9,32-1.4,76-4c28.4-1.7,49.1-4.1,86.8-3.7c0.7,0,1.1,0,1.2,0c36.4,0.4,58.6,3.4,104.8,8.6
	c46.7,5.3,62.9,6.7,65.8,12.4c1.3,2.5-0.5,4.9-2.2,6.6c-7.5,1.6-18.6,3.8-32.7,5.8c-28,4-54.2,5.5-142,5.2c-50.4-0.2-76-0.3-96-1.9
	c-36.3-2.9-65.3-7.8-84.6-11.6c-6-1.2-14.6-3.8-14.9-6.7C81.2,474.3,109,470.5,119.5,469.1z"/>
<path class="st2" d="M-239.9,469.1"/>
<rect x="172.3" y="447.9" class="st3" width="224.7" height="11.1"/>
<path class="st3" d="M229.8,469h-25.4c-3.1,0-5.5-2.5-5.5-5.5l0,0c0-3.1,2.5-5.5,5.5-5.5h25.4c3.1,0,5.5,2.5,5.5,5.5l0,0
	C235.3,466.6,232.9,469,229.8,469z"/>
<path class="st3" d="M368.6,469h-25.4c-3.1,0-5.5-2.5-5.5-5.5l0,0c0-3.1,2.5-5.5,5.5-5.5h25.4c3.1,0,5.5,2.5,5.5,5.5l0,0
	C374.2,466.6,371.7,469,368.6,469z"/>
<rect x="172.3" y="33.9" class="st3" width="224.7" height="11.1"/>
<path class="st4" d="M397,262.2c0,0,0,51.8,0,52.8c0,6.7,0,6.7,0,6.7c0,1.6,0,1.7,0,1.8c0,0,0,0,0,0c-0.5,0.9-170.4-51.5-167-106.2
	c2.4-39,92.6-74.8,163.2-74.9c0.1,0,3.8,0,3.8,0c0,0,0,25.9,0,31.9C397,184.4,397,215.6,397,262.2z"/>
<path class="st5" d="M172.3,276.5c0,0,0,34.5,0,35.2c0,4.4,0,4.4,0,4.4c0,1.1,0,1.2,0,1.2c0,0,0,0,0,0c0.3,0.6,111.2-34.3,109-70.8
	c-1.6-26-60.4-49.9-106.5-50c0,0-2.5,0-2.5,0c0,0,0,17.2,0,21.3C172.3,224.6,172.3,245.4,172.3,276.5z"/>
<ellipse class="st6" cx="270.8" cy="229.4" rx="16.1" ry="17.5"/>
<path class="st1" d="M289.3,235.1c2.2,0.6-16.8,34.5-18.5,34.5s-20.8-33.9-18.6-34.5c1.8-0.5,7,8.7,17.7,9.2c0.6,0,1.2,0,1.8,0
	C282.3,243.7,287.5,234.5,289.3,235.1z"/>
<text transform="matrix(0.8924 0 0 1 262.857 231.5682)" class="st1 st7 st8">{      }</text>
<text transform="matrix(0.8247 0 0 1 265.4586 229.8494)" class="st1 st7 st9">...</text>
</svg>
