<?xml version="1.0" encoding="utf-8"?>
<!-- Generator: Adobe Illustrator 23.0.1, SVG Export Plug-In . SVG Version: 6.00 Build 0)  -->
<svg version="1.1" id="Layer_1" xmlns="http://www.w3.org/2000/svg" xmlns:xlink="http://www.w3.org/1999/xlink" x="0px" y="0px"
	 viewBox="0 0 465 532" style="enable-background:new 0 0 465 532;" xml:space="preserve">
<style type="text/css">
	.st0{fill:#E9635E;}
	.st1{fill:#D8D8D8;}
	.st2{fill:#161616;}
	.st3{fill:#050505;}
	.st4{fill:#494949;}
	.st5{fill:#2D2C2C;}
	.st6{fill:#5E5E5E;}
	.st7{fill:#2F6AC9;}
	.st8{fill:none;}
	.st9{fill:#4C2E07;}
	.st10{fill:#FFFFFF;}
	.st11{fill:#F7F7F7;}
	.st12{fill:#7DC6EF;}
</style>
<path class="st0" d="M364.35,192.49"/>
<ellipse transform="matrix(0.6366 -0.7712 0.7712 0.6366 -9.561 335.0202)" class="st0" cx="350.68" cy="177.65" rx="11.2" ry="5.55"/>
<path class="st1" d="M198.11,431.12c11.15-5.06,12.69-2.7,30.13-7.1c11.26-2.84,19.45-6.06,34.45-7.26
	c0.26-0.02,0.45-0.04,0.48-0.04c14.47-1.11,23.34,0.97,41.78,4.35c18.66,3.42,25.09,4.14,26.34,9.67c0.55,2.43-0.1,4.91-0.76,6.68
	c-2.95,1.91-7.34,4.56-12.9,7.16c-11.07,5.18-21.45,7.68-56.36,10.98c-20.04,1.89-30.22,2.82-38.17,2.06
	c-14.48-1.38-26.08-5.11-33.83-8.17c-2.41-0.96-5.88-3.17-6.02-6.13C183,437.97,193.96,433.01,198.11,431.12z"/>
<ellipse transform="matrix(0.4779 -0.8784 0.8784 0.4779 -143.2387 217.1277)" class="st0" cx="111.03" cy="229.05" rx="6.2" ry="11.18"/>
<path class="st2" d="M282.7,204.64c-32.5,6.54-65,13.07-97.5,19.61c-2.12-5.02-4.26-10.03-6.38-15.05c0.63-0.65,1.66-1.64,3-2.72
	c13.72-11.04,25.94-3.48,46.67-6.99c22.34-3.78,29.52-16.17,50.94-12.66c2.4,0.4,4.35,0.88,5.61,1.23
	C284.28,193.6,283.48,199.11,282.7,204.64z"/>
<path class="st3" d="M265.86,375.42c0.01,1.58-0.04,5.39-0.47,9.02c-0.08,0.74-0.28,2.23-0.78,4.05c-0.38,1.37-0.7,2.14-0.93,2.62
	c-0.42,0.91-0.89,1.66-1.27,2.2c-0.58,0.28-2.99,1.37-6.03,0.66c-3.06-0.7-5.58-2.93-6.49-5.72c1.37-5.31,2.75-10.6,4.12-15.9
	c4.49,0.45,8.13,1.44,10.97,2.48c0.16,0.06,0.33,0.12,0.49,0.18C265.61,375.15,265.74,375.29,265.86,375.42z"/>
<path class="st3" d="M267.63,383.37c1.05,1.13,3.64,3.81,6.37,6.12c0.56,0.48,1.68,1.41,3.24,2.39c1.17,0.73,1.91,1.08,2.39,1.28
	c0.9,0.38,1.72,0.62,2.34,0.76c0.58-0.17,2.96-0.9,4.56-3.32c1.62-2.42,1.84-5.59,0.6-8.14c-4.49-2.91-8.98-5.8-13.46-8.71
	c-2.76,3.14-4.58,6.14-5.82,8.66c-0.07,0.15-0.14,0.29-0.21,0.44C267.63,383.02,267.63,383.2,267.63,383.37z"/>
<ellipse transform="matrix(0.9932 -0.1166 0.1166 0.9932 -34.1125 31.539)" class="st4" cx="252.4" cy="307.22" rx="48.74" ry="51.47"/>
<ellipse transform="matrix(0.0331 -0.9995 0.9995 0.0331 77.2288 348.8878)" class="st0" cx="218.93" cy="134.53" rx="47.53" ry="46.61"/>
<g>
	<polygon class="st0" points="298.6,301.06 207.13,319.52 173.2,143.74 264.68,125.28 	"/>
</g>
<path d="M300.87,300.9l-95.6,19.29l-21.47-111.23c6.68-0.34,25.56-3.57,44.99-7.43c21.3-4.22,43.26-9.2,50.63-11.86
	C286.55,226.75,293.71,263.82,300.87,300.9z"/>
<path d="M110.79,236.17c0-0.1-0.01-0.21,0-0.32c1.99,1.28,4.93,3.13,8.55,5.15c7.84,4.41,31.98,17.04,68.64,18.51
	c10.4,0.41,40.95,1.62,42.32-8.44c0.4-2.92-1.76-6.07-3.68-8.29c-10.86-1.31-27.38-3.25-48.17-5.43c-7.06-0.75-9.34-0.96-12.64-1.38
	c-12.45-1.63-30.31-5.1-52.61-13.36c-0.16,0.12-0.33,0.26-0.47,0.41C109.58,226.13,110.33,233.2,110.79,236.17z"/>
<path class="st4" d="M256.14,381.46c-1.18,0.98-4.38,2.79-21.86-0.49c-5.45-1.02-13.28-2.49-19.18-6.9
	c-1.21-0.9-7.22-5.58-6.6-13.34c0.03-0.37,0.13-0.82,0.3-1.71c1.24-6.28,2.73-9.15,5.78-17.49c2.53-6.9,2.57-7.85,4.21-8.7
	c2.14-1.12,4.43-0.74,9.87-2.86c1.43-0.56,1.74-0.84,2.53-1.08c5.1-1.55,10.71-0.51,14.28,0.46c-4.13,3.1-10.08,8.6-13.63,17.17
	c-1.82,4.41-5.07,12.24-1.63,16.6c2.78,3.53,7.55,1.81,17.33,4.65c5.51,1.6,9.76,3.86,12.59,5.6
	C259.79,375.73,258.89,379.18,256.14,381.46z"/>
<path class="st4" d="M276.7,383.83c1.32,0.48,4.57,0.99,17.63-8.44c4.07-2.94,9.92-7.16,13.14-13.4c0.66-1.28,3.87-7.81,0.58-14.79
	c-0.16-0.33-0.4-0.71-0.86-1.48c-3.27-5.38-5.51-7.49-11-14.12c-4.54-5.48-4.92-6.34-6.56-6.53c-2.14-0.25-3.87,0.93-9.07,0.95
	c-1.37,0-1.72-0.14-2.45-0.08c-4.71,0.42-8.91,3.43-11.46,5.64c4.48,1.36,11.31,4.3,17.28,10.95c3.07,3.42,8.53,9.5,7.3,14.8
	c-0.99,4.29-5.5,4.43-12.44,10.64c-3.91,3.5-6.57,7.15-8.24,9.79C271.66,379.85,273.63,382.72,276.7,383.83z"/>
<g>
	<g>
		<path class="st5" d="M228.06,167.43c-3.8,7.76-12.17,6.63-18.02,1.69c-2.33-1.97-4.89,2.02-2.58,3.97
			c7.67,6.49,19.62,6.98,24.5-2.99C233.29,167.37,229.41,164.69,228.06,167.43L228.06,167.43z"/>
	</g>
</g>
<path class="st5" d="M230.42,372.36"/>
<path class="st6" d="M242.65,373.2c-0.44,0.04-0.87,0.08-1.33,0.12"/>
<path class="st5" d="M260.58,363.38"/>
<path class="st7" d="M207.41,225.48"/>
<path class="st5" d="M216.65,371.42"/>
<line class="st8" x1="205.56" y1="320.7" x2="205.56" y2="320.7"/>
<path class="st9" d="M260.75,310.42c-3.01,0.54-6,1.06-9,1.6"/>
<path class="st9" d="M260.71,310.12c0.02,0.09,0.03,0.21,0.04,0.3"/>
<path class="st9" d="M251.74,311.99c-0.01-0.03-0.01-0.05-0.02-0.08"/>
<path class="st9" d="M251.75,312.02c0-0.02-0.01-0.03-0.01-0.05"/>
<path class="st6" d="M239.67,378.79"/>
<path class="st6" d="M281.99,369.33"/>
<ellipse transform="matrix(0.9885 -0.1513 0.1513 0.9885 -20.2823 32.8328)" class="st10" cx="205.66" cy="149.73" rx="7.52" ry="8.5"/>
<ellipse transform="matrix(0.9885 -0.1513 0.1513 0.9885 -19.275 37.2227)" class="st10" cx="235.02" cy="145.3" rx="7.52" ry="8.5"/>
<ellipse transform="matrix(0.9885 -0.1515 0.1515 0.9885 -19.7671 33.1402)" class="st5" cx="207.66" cy="146.33" rx="1.84" ry="2.07"/>
<ellipse transform="matrix(0.9885 -0.1515 0.1515 0.9885 -18.854 37.3182)" class="st5" cx="235.55" cy="142.42" rx="1.84" ry="2.07"/>
<g>
	<g>
		<path class="st5" d="M189.49,94.91c-3.16-1.9-6.32-3.36-9.82-4.5c-0.31,1.54-0.61,3.1-0.92,4.64c4.08,0.61,8.14,1.24,12.21,1.85
			c1.41,0.22,2.88-1.41,2.45-2.85c-1.15-3.9-2.43-7.71-3.84-11.51c-1.13,1.02-2.25,2.03-3.38,3.06c3.24,2.15,6.17,4.44,9.01,7.13
			c1.25,1.2,3.35,1.02,3.96-0.8c1.55-4.59,3.46-8.88,5.86-13.07c-1.24,0.09-2.46,0.17-3.7,0.26c0.71,1.42,1.4,2.83,2.11,4.24
			c0.38,1.76,2.51,2.55,3.85,1.34c2.42-2.21,4.59-4.55,6.68-7.09c-1.3-0.89-2.59-1.77-3.9-2.66c-1.08,2.1-1.61,3.84-1.74,6.21
			c-0.08,1.38,1.3,3.04,2.8,2.53c1.35-0.47,2.7-0.93,4.05-1.42c-0.93-0.84-1.86-1.69-2.8-2.53c-0.31,0.84-0.63,1.69-0.94,2.53
			c-1.02,1.72,0.37,4.11,2.41,3.68c3.86-0.81,7.51-1.93,11.16-3.4c-1.01-1.16-2-2.31-3.01-3.48c-0.96,1.23-1.92,2.47-2.89,3.7
			c-1.47,1.89,1.03,4.57,3.01,3.48c4.55-2.53,8.96-5.25,13.27-8.22c-1.08-0.97-2.18-1.95-3.26-2.92c-1.06,2.69-2.71,4.91-4.95,6.67
			c-1.67,1.52-0.27,4.72,2.03,4.15c3.33-0.85,6.65-1.68,9.98-2.53c-0.89-1.04-1.78-2.08-2.69-3.14c-1.03,1.59-2.09,3.17-3.12,4.76
			c-1.41,1.39-0.68,4.04,1.4,4.18c2.17,0.15,2.18,0.18,4.26-0.45c-0.89-1.04-1.78-2.08-2.69-3.14c-1.33,1.13-2.66,2.28-3.99,3.41
			c-0.48-1.61-1.82-2.24-3.35-1.68c-0.7,0.25-1.39,0.51-2.07,0.76c1.06,0.36,2.1,0.72,3.15,1.07c-1.03-1.75-1.81-3.62-2.31-5.62
			c-0.53-1.78-3.17-2.86-4.24-0.87c-0.34,0.62-0.67,1.24-1,1.86c0.91-0.31,1.8-0.62,2.71-0.92c-4.94-1.84-9.23-1.04-13.32,2.19
			c1.09,0.07,2.2,0.14,3.3,0.21c-5.35-5.3-14.13,0.66-19.05,3.82c0.88,1.3,1.74,2.63,2.62,3.93c1.25-0.98,2.51-1.99,3.76-2.97
			c-0.88-1.3-1.74-2.63-2.62-3.93c-2.49,1.84-4.63,3.81-6.67,6.17c-1.73,1.99,0.05,5,2.62,3.93c0.09-0.03,0.19-0.07,0.28-0.12
			c0.92-0.38,1.44-1.64,1.23-2.61c-0.02-0.13-0.05-0.25-0.07-0.38c-0.25-1.2-1.52-2.22-2.76-1.89c-2.37,0.64-3.67,2.48-5.11,4.43
			c-1.81,2.46,2.09,5.11,3.9,2.66c0.72-0.79,1.43-1.61,2.14-2.4c-0.92-0.63-1.84-1.26-2.76-1.89c0.02,0.13,0.05,0.25,0.07,0.38
			c0.42-0.86,0.82-1.73,1.23-2.61c-0.09,0.03-0.19,0.07-0.28,0.12c0.88,1.3,1.74,2.63,2.62,3.93c2.04-2.36,4.16-4.33,6.67-6.17
			c2.12-1.57-0.36-5.34-2.62-3.93c-2.53,1.58-2.59,1.59-4.75,3.66c-1.84,1.75,0.28,5.43,2.62,3.93c2-1.28,10.99-7.35,13.44-4.93
			c0.97,0.94,2.24,1.05,3.3,0.21c2.78-2.3,5.69-2.72,8.69-1.26c0.91,0.34,2.22-0.02,2.71-0.92c0.34-0.62,0.67-1.24,1-1.86
			c-1.41-0.29-2.83-0.59-4.24-0.87c0.72,2.43,1.54,4.57,2.72,6.82c0.65,1.25,1.92,1.52,3.15,1.07c0.7-0.25,1.39-0.51,2.07-0.76
			c-1.11-0.56-2.24-1.11-3.35-1.68c2.68,9.04,10.71,3,13-2.76c0.64-1.59-1.01-3.64-2.69-3.14c-1.01,0.12-2.02,0.24-3.01,0.36
			c0.47,1.39,0.93,2.79,1.4,4.18c2.11-2.1,3.34-3.99,4.44-6.78c0.64-1.64-1.01-3.56-2.69-3.14c-3.33,0.85-6.65,1.68-9.98,2.53
			c0.67,1.38,1.34,2.76,2.03,4.15c2.8-2.53,4.66-5.23,6.26-8.7c0.82-1.79-1.62-4.07-3.26-2.92c-4.31,2.95-8.7,5.69-13.27,8.22
			c1.01,1.16,2,2.31,3.01,3.48c0.96-1.23,1.92-2.47,2.89-3.7c1.6-2.05-1.06-4.24-3.01-3.48c-3.4,1.35-6.46,2.24-9.97,2.98
			c0.8,1.22,1.61,2.46,2.41,3.68c1.2-2.02,1.35-2.5,1.71-4.83c0.23-1.4-1.42-3-2.8-2.53c-1.35,0.47-2.7,0.93-4.05,1.42
			c0.93,0.84,1.86,1.69,2.8,2.53c0.33-1.3,0.64-2.6,0.97-3.9c1.39-2.74-1.96-5.02-3.9-2.66c-1.87,2.28-3.74,4.2-5.89,6.16
			c1.28,0.44,2.56,0.88,3.85,1.34c-0.59-2.68-1.45-4.43-3.21-6.48c-0.95-1.11-2.93-1.09-3.7,0.26c-2.59,4.56-4.69,9.19-6.37,14.17
			c1.31-0.26,2.64-0.53,3.96-0.8c-3.11-2.95-6.33-5.57-9.91-7.93c-2.1-1.38-4.17,0.9-3.38,3.06c1.26,3.39,2.4,6.82,3.42,10.29
			c0.81-0.94,1.64-1.89,2.45-2.85c-4.08-0.61-8.14-1.24-12.21-1.85c-2.64-0.4-3.42,3.83-0.92,4.64c3.22,1.04,5.76,2.16,8.74,3.95
			C189.49,100.44,192.09,96.49,189.49,94.91L189.49,94.91z"/>
	</g>
</g>
<g>
	<g>
		<path class="st5" d="M203.22,87.08c2.95-0.59,2.02-5.29-0.93-4.69C199.34,82.98,200.27,87.67,203.22,87.08L203.22,87.08z"/>
	</g>
</g>
<g>
	<g>
		<path class="st5" d="M204.22,86.79c2.95-0.59,2.02-5.29-0.93-4.69C200.35,82.69,201.26,87.39,204.22,86.79L204.22,86.79z"/>
	</g>
</g>
<g>
	<g>
		<path class="st5" d="M194.48,93.01c2.95-0.59,2.02-5.29-0.93-4.69C190.61,88.91,191.54,93.61,194.48,93.01L194.48,93.01z"/>
	</g>
</g>
<g>
	<g>
		<path class="st5" d="M191.83,93.79c2.95-0.59,2.02-5.29-0.93-4.69C187.95,89.69,188.88,94.39,191.83,93.79L191.83,93.79z"/>
	</g>
</g>
<g>
	<g>
		<path class="st5" d="M191.45,98.75c2.95-0.59,2.02-5.29-0.93-4.69C187.57,94.65,188.5,99.34,191.45,98.75L191.45,98.75z"/>
	</g>
</g>
<g>
	<g>
		<path class="st5" d="M231.5,89.17c2.95-0.59,2.02-5.29-0.93-4.69C227.63,85.07,228.56,89.77,231.5,89.17L231.5,89.17z"/>
	</g>
</g>
<g>
	<g>
		<path class="st5" d="M230.63,84.29c-15.58-0.23-30.96,2.37-42.73,13.46c-2.21,2.07,0.9,5.67,3.11,3.59
			c10.88-10.24,24.93-12.5,39.3-12.29C233.3,89.12,233.64,84.34,230.63,84.29L230.63,84.29z"/>
	</g>
</g>
<g>
	<g>
		<path class="st5" d="M196.37,101.14c14.02,3.22,26.12-3.3,37.8-10.47c2.19-1.35,0.91-5.14-1.72-4.42
			c-11.82,3.23-25.09,8.97-37.4,9.19c-3,0.06-3.12,4.83-0.12,4.78c12.79-0.23,26.38-5.98,38.65-9.33c-0.57-1.47-1.15-2.93-1.72-4.42
			c-10.43,6.42-21.51,12.98-34.19,10.08C194.75,95.89,193.43,100.46,196.37,101.14L196.37,101.14z"/>
	</g>
</g>
<g>
	<g>
		<path class="st5" d="M181.66,105.38c13.98,3.38,26.16-3,37.91-10.04c2.2-1.32,0.97-5.13-1.67-4.44
			c-11.85,3.1-25.19,8.69-37.5,8.77c-3,0.02-3.17,4.8-0.17,4.78c12.79-0.09,26.45-5.68,38.75-8.9c-0.55-1.48-1.12-2.95-1.67-4.44
			c-10.5,6.3-21.65,12.74-34.3,9.7C180.1,100.12,178.73,104.67,181.66,105.38L181.66,105.38z"/>
	</g>
</g>
<g>
	<g>
		<path class="st5" d="M210.92,81.96c-0.77-0.37-1.54-0.37-2.36-0.29c-1.22,0.11-2.1,1.64-1.83,2.81c0.33,1.36,1.45,2,2.76,1.89
			c-0.22,0.03-0.42-0.05-0.07,0.11c1.16,0.55,2.58-0.34,2.96-1.47C212.82,83.68,212.08,82.51,210.92,81.96L210.92,81.96z"/>
	</g>
</g>
<g>
	<g>
		<path class="st5" d="M219.04,98.2c4.5-0.86,8.68-2.17,12.48-3.78c3.97-1.69,4.87-4.19,2.23-5.24c-2.77-1.12-8.18-0.5-12.21,1.2
			c-0.9,0.37-1.06,0.45-0.5,0.22c-0.45,0.16-0.91,0.3-1.37,0.44c-0.57,0.16-0.63,0.17-0.05,0.03c-0.64,0.15-1.28,0.28-1.93,0.39
			c-4.62,0.89-8.67,3.41-8.08,5.14C210.22,98.41,214.13,99.12,219.04,98.2L219.04,98.2z"/>
	</g>
</g>
<g>
	<g>
		<path class="st5" d="M186.55,100.87c1.72,0.45,3.45,0.88,5.16,1.34c0.31-1.54,0.61-3.1,0.92-4.64c-2.23-0.27-4.15-1.15-6.44-1.06
			c-2.15,0.07-4.16,0.63-6.11,1.54c-2.73,1.28-0.61,5.57,2.12,4.28c1.63-0.77,3.34-1.18,5.13-1.05c1.72,0.11,3.28,0.85,4.99,1.05
			c2.59,0.31,3.51-3.98,0.92-4.64c-1.72-0.45-3.45-0.88-5.16-1.34C185.15,95.61,183.62,100.11,186.55,100.87L186.55,100.87z"/>
	</g>
</g>
<g>
	<g>
		<path class="st5" d="M226.53,85.65c0.45,0.5,0.95,0.85,1.54,1.12c0.33,0.16,0.87,0.22,1.17,0.43c-0.32-0.23,0,0.18,0.08,0.34
			c0.34,0.66,0.67,1.31,1,1.98c1.38,2.73,5.57,0.62,4.17-2.14c-0.62-1.21-1.15-2.68-2.11-3.66c-0.46-0.48-1.02-0.8-1.63-1.04
			c-0.22-0.09-0.48-0.2-0.72-0.25c-0.3-0.07-0.19-0.14-0.02,0.05C227.99,80.2,224.49,83.35,226.53,85.65L226.53,85.65z"/>
	</g>
</g>
<g>
	<g>
		<path class="st5" d="M229.95,84.72c0.35,1.21,0.61,2.45,0.8,3.71c0.18,1.23,1.58,2.19,2.76,1.89c1.29-0.32,2.02-1.48,1.83-2.81
			c-0.18-1.25-0.45-2.5-0.8-3.71c-0.35-1.2-1.46-2.21-2.76-1.89C230.63,82.19,229.57,83.43,229.95,84.72L229.95,84.72z"/>
	</g>
</g>
<g>
	<g>
		<path class="st5" d="M224.47,85.55c-7.8,1.37-15.54,2.85-23.29,4.49c-5.89,1.24-4.81,6.65,1.08,5.41
			c7.75-1.62,15.52-3.13,23.29-4.49C231.47,89.91,230.37,84.51,224.47,85.55L224.47,85.55z"/>
	</g>
</g>
<g>
	<g>
		<path class="st5" d="M211.45,85.21c-1.6,0.32-3.22,0.65-4.83,0.97c-2.95,0.59-2.02,5.29,0.93,4.69c1.6-0.32,3.22-0.65,4.83-0.97
			C215.33,89.31,214.42,84.61,211.45,85.21L211.45,85.21z"/>
	</g>
</g>
<polygon class="st11" points="222.73,228.25 218.93,229.01 214.04,204.36 217.84,203.59 "/>
<polygon class="st11" points="249.46,222.87 245.66,223.63 240.77,198.98 244.58,198.21 "/>
<ellipse transform="matrix(0.9906 -0.1365 0.1365 0.9906 -29.3249 32.3346)" class="st11" cx="221.1" cy="229.98" rx="3.04" ry="3.11"/>
<ellipse transform="matrix(0.9906 -0.1365 0.1365 0.9906 -28.0693 35.8603)" class="st11" cx="247.43" cy="222.59" rx="3.04" ry="3.11"/>
<path class="st12" d="M195.44,208.73"/>
<path d="M353.71,183.27c-0.04-0.08-0.07-0.18-0.12-0.27c-1.2,1.92-2.99,4.72-5.3,7.95c-4.99,7.03-20.7,27.87-51.43,44.63
	c-8.72,4.75-34.32,18.7-39.4,10.82c-1.47-2.29-0.85-5.85-0.07-8.53c8.76-5.7,22.11-14.33,39.02-24.96c5.74-3.62,7.6-4.76,10.26-6.52
	c10-6.64,23.9-17.12,39.73-33.51c0.19,0.04,0.39,0.08,0.56,0.15C350.84,174.31,352.94,180.58,353.71,183.27z"/>
<path class="st6" d="M256.15,458"/>
</svg>
