<?xml version="1.0" encoding="utf-8"?>
<!-- Generator: Adobe Illustrator 23.0.2, SVG Export Plug-In . SVG Version: 6.00 Build 0)  -->
<svg version="1.1" id="Layer_1" xmlns="http://www.w3.org/2000/svg" xmlns:xlink="http://www.w3.org/1999/xlink" x="0px" y="0px"
	 viewBox="0 0 465 532" style="enable-background:new 0 0 465 532;" xml:space="preserve">
<style type="text/css">
	.st0{fill:#5E5E5E;}
	.st1{fill:#E9635E;}
	.st2{fill:#050505;}
	.st3{fill:#494949;}
	.st4{fill:#161616;}
	.st5{fill:#2D2C2C;}
	.st6{fill:#2F6AC9;}
	.st7{fill:none;}
	.st8{fill:#FFFFFF;}
	.st9{fill:#F7F7F7;}
	.st10{fill:#7DC6EF;}
	.st11{fill:#4C2E07;}
</style>
<path class="st0" d="M-239.9,469.1"/>
<ellipse transform="matrix(0.5643 -0.8256 0.8256 0.5643 -56.1705 294.8958)" class="st1" cx="251.3" cy="200.7" rx="11.2" ry="5.6"/>
<path d="M254.8,206c0-0.1-0.1-0.2-0.1-0.3c-1,2-2.6,5-4.6,8.4c-4.3,7.5-18.1,29.6-47.2,49.1c-8.3,5.5-32.5,21.7-38.3,14.3
	c-1.7-2.1-1.4-5.7-0.8-8.5c8.2-6.5,20.7-16.3,36.6-28.4c5.4-4.1,7.1-5.4,9.6-7.4c9.4-7.5,22.3-19.2,36.5-37c0.2,0,0.4,0,0.6,0.1
	C251.1,197.3,253.8,203.4,254.8,206z"/>
<path class="st2" d="M184.7,405.3c0.2,1.6,0.4,5.4,0.3,9c0,0.7-0.1,2.2-0.4,4.1c-0.3,1.4-0.5,2.2-0.7,2.7c-0.3,0.9-0.7,1.7-1.1,2.3
	c-0.6,0.3-2.9,1.6-5.9,1.2c-3.1-0.4-5.8-2.4-7-5.1c0.9-5.4,1.8-10.8,2.7-16.2c4.5,0,8.2,0.7,11.1,1.5c0.2,0,0.3,0.1,0.5,0.1
	C184.4,405,184.6,405.2,184.7,405.3z"/>
<path class="st2" d="M187.2,413c1.1,1,4,3.5,6.9,5.5c0.6,0.4,1.8,1.3,3.4,2.1c1.2,0.6,2,0.9,2.5,1.1c0.9,0.3,1.8,0.5,2.4,0.5
	c0.6-0.2,2.9-1.2,4.2-3.7c1.4-2.6,1.3-5.7-0.1-8.2c-4.7-2.5-9.5-5-14.2-7.5c-2.5,3.4-4,6.5-5,9.2c-0.1,0.2-0.1,0.3-0.2,0.5
	C187.1,412.7,187.2,412.9,187.2,413z"/>
<path class="st3" d="M196.2,412.7c1.4,0.4,4.6,0.6,16.8-10c3.8-3.3,9.2-8,11.9-14.5c0.5-1.3,3.1-8.1-0.8-14.8
	c-0.2-0.3-0.5-0.7-1-1.4c-3.7-5.1-6.2-7-12.2-13.1c-5-5-5.5-5.9-7.1-5.9c-2.2-0.1-3.8,1.3-8.9,1.8c-1.4,0.1-1.7,0-2.4,0.1
	c-4.7,0.8-8.6,4.2-10.9,6.7c4.6,0.9,11.7,3.3,18.2,9.3c3.4,3.1,9.4,8.7,8.6,14.1c-0.6,4.4-5.1,4.9-11.4,11.7
	c-3.6,3.8-5.9,7.7-7.3,10.5C190.9,409.2,193.1,411.8,196.2,412.7z"/>
<ellipse transform="matrix(0.3965 -0.918 0.918 0.3965 -240.6852 180.8932)" class="st1" cx="17.2" cy="273.5" rx="6.2" ry="11.2"/>
<path class="st4" d="M186,233.7c-31.8,9.5-63.6,18.9-95.3,28.3c-2.6-4.8-5.1-9.6-7.7-14.4c0.6-0.7,1.5-1.8,2.7-3
	c12.7-12.2,25.5-5.8,45.8-11.2c21.9-5.8,27.9-18.8,49.6-17.2c2.4,0.2,4.4,0.5,5.7,0.7C186.6,222.5,186.3,228.1,186,233.7z"/>
<ellipse transform="matrix(0.9786 -0.2059 0.2059 0.9786 -66.1845 41.2562)" class="st3" cx="165.1" cy="338.6" rx="48.7" ry="51.5"/>
<ellipse transform="matrix(0.9984 -5.740673e-02 5.740673e-02 0.9984 -9.5447 6.9489)" class="st1" cx="116.2" cy="169.6" rx="46.6" ry="47.5"/>
<g>
	<polygon class="st1" points="210.6,328.3 121.1,354.9 71.5,182.9 160.9,156.3 	"/>
</g>
<path d="M212.8,327.9l-93.5,27.9L87.9,246.9c6.6-0.9,25.1-5.9,44.1-11.5c20.8-6.1,42.3-13.1,49.4-16.4
	C191.8,255.3,202.3,291.6,212.8,327.9z"/>
<path d="M17.7,280.6c0-0.1,0-0.2,0-0.3c2.1,1.1,5.2,2.7,9,4.4c8.2,3.7,33.4,14.1,70,12.2c10.4-0.5,40.9-2.1,41.4-12.2
	c0.1-2.9-2.3-5.9-4.4-7.9c-10.9-0.3-27.6-0.8-48.5-1.1c-7.1-0.1-9.4-0.1-12.7-0.2c-12.5-0.5-30.6-2.3-53.6-8.5
	c-0.1,0.1-0.3,0.3-0.4,0.5C15.5,270.7,16.9,277.7,17.7,280.6z"/>
<path class="st3" d="M175.6,412.2c-1.1,1.1-4.1,3.2-21.8,1.5c-5.5-0.5-13.5-1.3-19.7-5.1c-1.3-0.8-7.7-4.9-7.8-12.7
	c0-0.4,0.1-0.8,0.1-1.7c0.7-6.4,1.9-9.4,4.2-17.9c1.9-7.1,1.8-8.1,3.4-9c2-1.3,4.3-1.1,9.6-3.7c1.4-0.7,1.7-1,2.4-1.3
	c4.9-2,10.6-1.5,14.3-0.8c-3.8,3.5-9.3,9.5-12,18.3c-1.4,4.6-3.9,12.6-0.1,16.7c3.1,3.3,7.7,1.1,17.7,3.1c5.6,1.1,10.1,3,13,4.4
	C178.7,406.1,178.1,409.6,175.6,412.2z"/>
<g>
	<g>
		<path class="st5" d="M128.2,201.6c-3.1,8.1-11.5,7.7-17.8,3.3c-2.5-1.8-4.7,2.5-2.2,4.2c8.2,5.8,20.2,5.2,24.1-5.2
			C133.4,201,129.3,198.7,128.2,201.6L128.2,201.6z"/>
	</g>
</g>
<path class="st5" d="M149.1,405.4"/>
<path class="st0" d="M161.4,405.2c-0.4,0.1-0.9,0.2-1.3,0.2"/>
<path class="st6" d="M112.9,261.2"/>
<path class="st5" d="M135.3,405.7"/>
<line class="st7" x1="119.7" y1="356.2" x2="119.7" y2="356.2"/>
<path class="st0" d="M158.9,411"/>
<ellipse transform="matrix(0.9708 -0.2401 0.2401 0.9708 -41.5865 30.4829)" class="st8" cx="104.3" cy="185.9" rx="7.5" ry="8.5"/>
<ellipse transform="matrix(0.9708 -0.2401 0.2401 0.9708 -39.0465 37.1991)" class="st8" cx="133.2" cy="178.9" rx="7.5" ry="8.5"/>
<ellipse transform="matrix(0.9707 -0.2402 0.2402 0.9707 -40.7111 30.8138)" class="st5" cx="106" cy="182.4" rx="1.8" ry="2.1"/>
<ellipse transform="matrix(0.9707 -0.2402 0.2402 0.9707 -38.366 37.2139)" class="st5" cx="133.4" cy="176" rx="1.8" ry="2.1"/>
<g>
	<g>
		<path class="st5" d="M83.3,132.8c-3.3-1.6-6.6-2.8-10.2-3.6c-0.2,1.6-0.3,3.1-0.5,4.7c4.1,0.2,8.2,0.5,12.3,0.7
			c1.4,0.1,2.7-1.7,2.2-3.1c-1.5-3.8-3.1-7.5-4.9-11.1c-1,1.1-2.1,2.2-3.1,3.4c3.4,1.8,6.5,3.9,9.6,6.3c1.4,1.1,3.4,0.7,3.9-1.2
			c1.1-4.7,2.6-9.2,4.7-13.5c-1.2,0.2-2.4,0.4-3.7,0.6c0.8,1.3,1.7,2.7,2.5,4c0.5,1.7,2.7,2.3,4,1c2.2-2.4,4.2-4.9,6-7.7
			c-1.4-0.8-2.7-1.5-4.1-2.3c-0.9,2.2-1.3,4-1.2,6.3c0,1.4,1.6,2.9,3,2.3c1.3-0.6,2.6-1.2,3.9-1.8c-1-0.8-2-1.5-3-2.3
			c-0.2,0.9-0.5,1.7-0.7,2.6c-0.9,1.8,0.7,4.1,2.7,3.4c3.8-1.2,7.3-2.6,10.8-4.4c-1.1-1.1-2.2-2.1-3.3-3.2c-0.8,1.3-1.7,2.6-2.5,3.9
			c-1.3,2,1.4,4.5,3.3,3.2c4.3-2.9,8.4-6,12.5-9.4c-1.2-0.9-2.3-1.7-3.5-2.6c-0.8,2.8-2.3,5.1-4.3,7.1c-1.5,1.7,0.2,4.7,2.4,3.9
			c3.2-1.1,6.5-2.3,9.7-3.4c-1-1-2-1.9-3-2.9c-0.9,1.7-1.8,3.3-2.7,5c-1.3,1.5-0.3,4.1,1.8,4c2.2,0,2.2,0,4.2-0.8c-1-1-2-1.9-3-2.9
			c-1.2,1.2-2.4,2.5-3.7,3.8c-0.6-1.6-2-2.1-3.5-1.4c-0.7,0.3-1.3,0.6-2,0.9c1.1,0.3,2.2,0.5,3.2,0.8c-1.2-1.6-2.1-3.4-2.8-5.4
			c-0.7-1.7-3.4-2.6-4.3-0.5c-0.3,0.6-0.6,1.3-0.8,1.9c0.9-0.4,1.7-0.8,2.6-1.2c-5.1-1.4-9.3-0.2-13.1,3.4c1.1,0,2.2-0.1,3.3-0.1
			c-5.8-4.8-14,1.9-18.6,5.5c1,1.2,2,2.5,3,3.7c1.2-1.1,2.3-2.2,3.5-3.3c-1-1.2-2-2.5-3-3.7c-2.3,2.1-4.3,4.2-6.1,6.7
			c-1.5,2.1,0.5,5,3,3.7c0.1,0,0.2-0.1,0.3-0.1c0.9-0.5,1.3-1.8,1-2.7c0-0.1-0.1-0.2-0.1-0.4c-0.4-1.2-1.7-2.1-2.9-1.6
			c-2.3,0.9-3.4,2.8-4.7,4.9c-1.6,2.6,2.5,4.9,4.1,2.3c0.6-0.9,1.3-1.7,1.9-2.6c-1-0.5-1.9-1.1-2.9-1.6c0,0.1,0.1,0.2,0.1,0.4
			c0.3-0.9,0.7-1.8,1-2.7c-0.1,0-0.2,0.1-0.3,0.1c1,1.2,2,2.5,3,3.7c1.8-2.5,3.8-4.7,6.1-6.7c2-1.8-0.8-5.3-3-3.7
			c-2.4,1.8-2.4,1.8-4.4,4.1c-1.7,1.9,0.8,5.4,3,3.7c1.9-1.5,10.3-8.3,12.9-6.1c1.1,0.8,2.3,0.8,3.3-0.1c2.6-2.5,5.4-3.2,8.5-2
			c0.9,0.3,2.2-0.2,2.6-1.2c0.3-0.6,0.6-1.3,0.8-1.9c-1.4-0.2-2.9-0.3-4.3-0.5c0.9,2.4,1.9,4.4,3.3,6.5c0.8,1.2,2,1.3,3.2,0.8
			c0.7-0.3,1.3-0.6,2-0.9c-1.2-0.5-2.3-0.9-3.5-1.4c3.5,8.8,10.9,2,12.7-3.9c0.5-1.6-1.3-3.5-3-2.9c-1,0.2-2,0.4-3,0.6
			c0.6,1.3,1.2,2.7,1.8,4c1.9-2.3,3-4.3,3.8-7.2c0.5-1.7-1.3-3.5-3-2.9c-3.2,1.1-6.5,2.3-9.7,3.4c0.8,1.3,1.6,2.6,2.4,3.9
			c2.6-2.8,4.2-5.6,5.4-9.2c0.7-1.9-2-3.9-3.5-2.6c-4,3.3-8.1,6.5-12.5,9.4c1.1,1.1,2.2,2.1,3.3,3.2c0.8-1.3,1.7-2.6,2.5-3.9
			c1.4-2.2-1.4-4.1-3.3-3.2c-3.3,1.7-6.2,2.8-9.7,3.9c0.9,1.1,1.8,2.3,2.7,3.4c1-2.1,1.1-2.6,1.3-5c0.1-1.4-1.7-2.9-3-2.3
			c-1.3,0.6-2.6,1.2-3.9,1.8c1,0.8,2,1.5,3,2.3c0.2-1.3,0.4-2.6,0.6-4c1.1-2.9-2.4-4.8-4.1-2.3c-1.7,2.4-3.3,4.5-5.3,6.7
			c1.3,0.3,2.6,0.6,4,1c-0.8-2.6-1.8-4.3-3.8-6.2c-1-1-3-0.8-3.7,0.6c-2.2,4.8-3.8,9.6-5.1,14.7c1.3-0.4,2.6-0.8,3.9-1.2
			c-3.4-2.7-6.8-5-10.6-7c-2.2-1.2-4.1,1.3-3.1,3.4c1.6,3.3,3,6.6,4.3,9.9c0.7-1,1.5-2,2.2-3.1c-4.1-0.2-8.2-0.5-12.3-0.7
			c-2.7-0.2-3.1,4.1-0.5,4.7c3.3,0.7,5.9,1.6,9.1,3.1C83.8,138.3,86,134.2,83.3,132.8L83.3,132.8z"/>
	</g>
</g>
<g>
	<g>
		<path class="st5" d="M96.2,123.8c2.9-0.9,1.5-5.5-1.4-4.6C92,120,93.3,124.6,96.2,123.8L96.2,123.8z"/>
	</g>
</g>
<g>
	<g>
		<path class="st5" d="M97.2,123.4c2.9-0.9,1.5-5.5-1.4-4.6C93,119.7,94.3,124.3,97.2,123.4L97.2,123.4z"/>
	</g>
</g>
<g>
	<g>
		<path class="st5" d="M88.1,130.5c2.9-0.9,1.5-5.5-1.4-4.6C83.8,126.7,85.2,131.3,88.1,130.5L88.1,130.5z"/>
	</g>
</g>
<g>
	<g>
		<path class="st5" d="M85.5,131.5c2.9-0.9,1.5-5.5-1.4-4.6C81.3,127.8,82.6,132.4,85.5,131.5L85.5,131.5z"/>
	</g>
</g>
<g>
	<g>
		<path class="st5" d="M85.6,136.5c2.9-0.9,1.5-5.5-1.4-4.6C81.3,132.7,82.7,137.3,85.6,136.5L85.6,136.5z"/>
	</g>
</g>
<g>
	<g>
		<path class="st5" d="M124.6,123.3c2.9-0.9,1.5-5.5-1.4-4.6C120.4,119.6,121.7,124.2,124.6,123.3L124.6,123.3z"/>
	</g>
</g>
<g>
	<g>
		<path class="st5" d="M123.3,118.5c-15.5,1.2-30.6,5.2-41.3,17.3c-2,2.3,1.4,5.6,3.4,3.3c9.9-11.2,23.7-14.7,38-15.8
			C126.4,123.1,126.3,118.3,123.3,118.5L123.3,118.5z"/>
	</g>
</g>
<g>
	<g>
		<path class="st5" d="M90.7,138.4c14.3,1.9,25.7-5.6,36.7-13.8c2.1-1.5,0.4-5.2-2.1-4.2c-11.5,4.3-24.2,11.2-36.4,12.5
			c-3,0.3-2.7,5.1,0.3,4.8c12.7-1.4,25.7-8.3,37.6-12.8c-0.7-1.4-1.4-2.8-2.1-4.2c-9.8,7.3-20.2,14.9-33.1,13.1
			C88.6,133.3,87.7,138,90.7,138.4L90.7,138.4z"/>
	</g>
</g>
<g>
	<g>
		<path class="st5" d="M76.4,144c14.2,2.1,25.8-5.4,36.8-13.4c2.1-1.5,0.5-5.2-2.1-4.3c-11.5,4.2-24.3,10.9-36.6,12.1
			c-3,0.3-2.7,5.1,0.3,4.8c12.7-1.2,25.8-8,37.8-12.4c-0.7-1.4-1.4-2.8-2.1-4.3c-9.9,7.2-20.4,14.6-33.3,12.8
			C74.4,138.9,73.4,143.5,76.4,144L76.4,144z"/>
	</g>
</g>
<g>
	<g>
		<path class="st5" d="M103.4,118c-0.8-0.3-1.6-0.2-2.4-0.1c-1.2,0.2-1.9,1.8-1.6,3c0.5,1.3,1.6,1.9,2.9,1.6c-0.2,0-0.4,0-0.1,0.1
			c1.2,0.4,2.5-0.6,2.8-1.7C105.5,119.5,104.6,118.4,103.4,118L103.4,118z"/>
	</g>
</g>
<g>
	<g>
		<path class="st5" d="M113,133.4c4.4-1.3,8.4-2.9,12.1-4.9c3.8-2,4.5-4.6,1.7-5.4c-2.9-0.9-8.2,0.2-12.1,2.3
			c-0.9,0.4-1,0.5-0.5,0.3c-0.4,0.2-0.9,0.4-1.3,0.6c-0.6,0.2-0.6,0.2,0,0c-0.6,0.2-1.2,0.4-1.9,0.6c-4.5,1.3-8.3,4.2-7.6,5.8
			C104.2,134.4,108.2,134.8,113,133.4L113,133.4z"/>
	</g>
</g>
<g>
	<g>
		<path class="st5" d="M80.9,139c1.8,0.3,3.5,0.6,5.3,0.9c0.2-1.6,0.3-3.1,0.5-4.7c-2.2-0.1-4.2-0.8-6.5-0.5c-2.1,0.3-4.1,1-5.9,2.1
			c-2.6,1.5-0.1,5.6,2.5,4.1c1.6-0.9,3.2-1.5,5-1.5c1.7,0,3.3,0.5,5.1,0.6c2.6,0.1,3.1-4.3,0.5-4.7c-1.8-0.3-3.5-0.6-5.3-0.9
			C79,133.9,77.9,138.5,80.9,139L80.9,139z"/>
	</g>
</g>
<g>
	<g>
		<path class="st5" d="M119.3,120.2c0.5,0.5,1,0.8,1.6,1c0.3,0.1,0.9,0.1,1.2,0.3c-0.3-0.2,0,0.2,0.1,0.3c0.4,0.6,0.8,1.2,1.2,1.9
			c1.6,2.6,5.6,0.1,4-2.5c-0.7-1.1-1.4-2.6-2.4-3.5c-0.5-0.4-1.1-0.7-1.7-0.9c-0.2-0.1-0.5-0.2-0.7-0.2c-0.3,0-0.2-0.1,0,0.1
			C120.3,114.7,117.1,118.1,119.3,120.2L119.3,120.2z"/>
	</g>
</g>
<g>
	<g>
		<path class="st5" d="M122.6,119c0.5,1.2,0.8,2.4,1.1,3.6c0.3,1.2,1.8,2,2.9,1.6c1.3-0.4,1.9-1.7,1.6-3c-0.3-1.2-0.7-2.4-1.1-3.6
			c-0.5-1.2-1.7-2.1-2.9-1.6C123.1,116.4,122.1,117.8,122.6,119L122.6,119z"/>
	</g>
</g>
<g>
	<g>
		<path class="st5" d="M117.3,120.3c-7.6,2.1-15.2,4.2-22.8,6.6c-5.8,1.8-4.2,7.1,1.6,5.3c7.6-2.3,15.2-4.5,22.8-6.6
			C124.6,124,123,118.8,117.3,120.3L117.3,120.3z"/>
	</g>
</g>
<g>
	<g>
		<path class="st5" d="M104.3,121.2c-1.6,0.5-3.1,0.9-4.7,1.4c-2.9,0.9-1.5,5.5,1.4,4.6c1.6-0.5,3.1-0.9,4.7-1.4
			C108.5,124.9,107.2,120.3,104.3,121.2L104.3,121.2z"/>
	</g>
</g>
<polygon class="st9" points="128.4,262.6 124.7,263.7 117.6,239.6 121.3,238.5 "/>
<polygon class="st9" points="154.6,254.8 150.8,255.9 143.7,231.8 147.5,230.7 "/>
<ellipse transform="matrix(0.9742 -0.2255 0.2255 0.9742 -56.3726 35.4422)" class="st9" cx="126.9" cy="264.5" rx="3" ry="3.1"/>
<ellipse transform="matrix(0.9742 -0.2255 0.2255 0.9742 -53.5179 40.954)" class="st9" cx="152.5" cy="254.7" rx="3" ry="3.1"/>
<path class="st10" d="M99.5,245.6"/>
<path class="st1" d="M266.2,214.2"/>
<path class="st5" d="M178.3,393.8"/>
<path class="st11" d="M173.7,341c-2.9,0.8-5.9,1.6-8.8,2.4"/>
<path class="st11" d="M173.7,340.7c0,0.1,0,0.2,0.1,0.3"/>
<path class="st11" d="M164.9,343.4C164.9,343.4,164.9,343.3,164.9,343.4"/>
<path class="st11" d="M164.9,343.4C164.9,343.4,164.9,343.4,164.9,343.4"/>
<path class="st0" d="M200.2,397.7"/>
</svg>
