<?xml version="1.0" encoding="utf-8"?>
<!-- Generator: Adobe Illustrator 23.0.1, SVG Export Plug-In . SVG Version: 6.00 Build 0)  -->
<svg version="1.1" id="Layer_1" xmlns="http://www.w3.org/2000/svg" xmlns:xlink="http://www.w3.org/1999/xlink" x="0px" y="0px"
	 viewBox="0 0 583 250" style="enable-background:new 0 0 583 250;" xml:space="preserve">
<style type="text/css">
	.st0{fill:#AAAAAA;}
	.st1{fill:#D8D8D8;}
	.st2{fill:#0C0C0C;}
	.st3{fill:#050505;}
	.st4{fill:#E9635E;}
	.st5{fill:#DDDDDD;}
	.st6{fill:#EDEDED;}
	.st7{fill:#2D2C2C;}
	.st8{fill:#3A3A3A;}
	.st9{fill:#595959;}
	.st10{fill:#6B6B6B;}
	.st11{fill:#4FE067;}
	.st12{fill:#E24B57;}
	.st13{fill:none;stroke:#6B6B6B;stroke-width:4;stroke-miterlimit:10;}
	.st14{font-family:'MyriadPro-Regular';}
	.st15{font-size:6.5999px;}
	.st16{font-size:8.1951px;}
	.st17{fill:#6B440C;}
	.st18{fill:#4C2E07;}
	.st19{fill:#FFFFFF;}
	.st20{fill:none;stroke:#2D2C2C;stroke-width:3;stroke-miterlimit:10;}
	.st21{fill:#757575;}
</style>
<path class="st0" d="M396.58,152.35L396.58,152.35c-0.17-0.82-1.02-1.35-1.9-1.2l-9.53,1.69c-0.88,0.16-1.45,0.94-1.28,1.76l0,0
	c0.17,0.82,1.02,1.35,1.9,1.2l9.53-1.69C396.18,153.96,396.75,153.17,396.58,152.35z"/>
<path class="st0" d="M395.72,148.21L395.72,148.21c-0.17-0.82-1.02-1.35-1.9-1.2l-9.53,1.69c-0.88,0.16-1.45,0.94-1.28,1.76l0,0
	c0.17,0.82,1.02,1.35,1.9,1.2l9.53-1.69C395.32,149.81,395.89,149.02,395.72,148.21z"/>
<path class="st1" d="M528.68,210.77c-10.52,12.73-94.02,12.62-94.02,12.62c-231.34-0.3-380.94,9.61-386.45-7.29
	c-0.8-2.45,1.54-5.16,8.84-8.94c75.57-39.08,326.65-24.84,370.12-22.22c15.85,1.06,32.6,2.42,50.11,4.15
	c15.13,1.5,29.47,3.14,42.97,4.87c2.63,1.09,8.11,3.66,10.15,7.74C530.39,201.7,532.57,206.06,528.68,210.77z"/>
<g>
	<g>
		<path d="M413.48,180.05c-17.94,2.56-35.95,0.87-53.9,2.73c-15.53,1.61-33.19,2.69-47.63,9.11c-4.41,1.96-6.13,4.99-4.93,9.73
			c1.3,5.12,4.09,10.38,9.47,11.99c11.51,3.44,22.98-5.91,29.18-14.6c5.01-7.03,8.11-15.19,12.34-22.68
			c4.19-7.41,12.83-21.4,22.56-20.63c1.92,0.15,1.91-2.85,0-3c-7.68-0.61-12.5,5.27-17.02,10.62c-5.42,6.41-9.26,13.43-12.98,20.91
			c-3.73,7.49-7.64,15.03-14.11,20.56c-6.51,5.57-19.24,10.72-24.61,1.09c-0.83-1.49-2.04-3.93-2.12-5.73
			c-0.22-5.23,4.14-5.88,7.69-7.02c4.03-1.28,8.15-2.29,12.29-3.14c9.52-1.93,19.23-3.08,28.88-4.12
			c18.54-1.99,37.15-0.3,55.68-2.94C416.18,182.68,415.37,179.78,413.48,180.05L413.48,180.05z"/>
	</g>
</g>
<path class="st2" d="M60.7,178.24c-0.48,2.07-1.6,7.08-2.15,11.95c-0.11,1-0.31,3-0.22,5.52c0.07,1.89,0.27,3,0.42,3.69
	c0.28,1.33,0.66,2.42,0.99,3.23c0.68,0.53,3.5,2.63,7.74,2.57c4.24-0.06,8.22-2.27,10.28-5.66c-0.19-7.33-0.37-14.66-0.56-21.98
	c-6.04-0.67-11.13-0.4-15.17,0.17c-0.24,0.03-0.47,0.07-0.7,0.1C61.13,177.97,60.92,178.1,60.7,178.24z"/>
<path class="st3" d="M61.76,197.24c-1.23,1.76-4.15,6.04-6.5,10.4c-0.48,0.9-1.42,2.68-2.28,5.07c-0.64,1.78-0.88,2.89-1,3.58
	c-0.24,1.33-0.29,2.49-0.29,3.36c0.43,0.73,2.28,3.67,6.24,5.08c3.97,1.41,8.52,0.74,11.72-1.71c2.59-6.9,5.17-13.79,7.76-20.69
	c-5.38-2.73-10.22-4.24-14.21-5.11c-0.23-0.05-0.46-0.1-0.69-0.15C62.26,197.14,62.01,197.19,61.76,197.24z"/>
<ellipse transform="matrix(0.9988 -0.048 0.048 0.9988 -8.7926 13.7547)" class="st4" cx="281.71" cy="189.77" rx="6.83" ry="16.67"/>
<path class="st5" d="M286.66,193.64c-0.08,0.04-0.16,0.08-0.24,0.12c0.24-1.54,0.55-3.8,0.75-6.49c0.44-5.83,1.11-23.44-11.21-43.78
	c-3.5-5.77-13.76-22.71-21.84-19.81c-2.35,0.84-3.92,3.15-4.88,4.99c2.99,6.34,7.58,15.97,13.54,27.99c2.02,4.08,2.7,5.39,3.58,7.33
	c3.34,7.31,7.26,18.21,9.2,33.25c0.16,0.04,0.32,0.08,0.49,0.11C279.55,197.93,284.59,194.96,286.66,193.64z"/>
<path class="st6" d="M288.56,193.97c0.15-1.63,0.31-3.93,0.34-6.69c0.08-6.32,0.12-25.08-11.21-43.78
	c-3.5-5.77-13.76-22.71-21.84-19.81c-2.35,0.84-3.92,3.15-4.88,4.99c2.99,6.34,7.58,15.97,13.54,27.99c2.02,4.08,2.7,5.39,3.58,7.33
	c3.34,7.31,7.26,18.21,9.2,33.25c0.16,0.04,0.33,0.08,0.49,0.11C281.87,198.14,285.79,196.04,288.56,193.97z"/>
<ellipse transform="matrix(0.2587 -0.9659 0.9659 0.2587 91.487 465.619)" class="st4" cx="349.12" cy="173.2" rx="6.73" ry="17.3"/>
<path class="st7" d="M68.76,191.92c0,0,0.01,0.11,0.02,0.2c0.01,0.07,0.01,0.13,0.01,0.13c0.01,0.11,0.02,0.22,0.04,0.33
	c3.88,0.24,10.22,0.65,18.05,1.28c23.78,1.91,30.09,3.3,41.05,2c2.96-0.35,1.51-0.33,20.75-5.06c28.15-6.92,36.9-8.34,37.87-13.37
	c0.36-1.88-0.23-4.99-5.77-9.82c-14.68-0.88-25.94,0.98-33.53,2.85c-11.58,2.86-14.46,5.7-25.62,6.99
	c-9.45,1.09-13.08-0.65-27.27-0.95c-10.06-0.22-18.17,0.36-23.16,0.84c-2.49,5.29-2.58,5.7-2.58,5.7
	C68.62,183.03,68.04,185.58,68.76,191.92z"/>
<path class="st8" d="M70.73,214.46c0,0,0.01,0.11,0.03,0.2c0.01,0.07,0.02,0.13,0.02,0.13c0.01,0.11,0.03,0.22,0.04,0.33
	c4.05,0.1,10.67,0.29,18.84,0.65c24.84,1.08,31.44,2.25,42.84,0.57c3.08-0.45,1.57-0.39,21.55-5.8
	c29.24-7.91,38.33-9.65,39.25-14.72c0.34-1.9-0.33-4.99-6.19-9.64c-15.33-0.37-27.04,1.89-34.92,4.03
	c-12.02,3.27-14.98,6.22-26.59,7.9c-9.83,1.42-13.65-0.19-28.45,0c-10.5,0.14-18.94,1-24.14,1.66c-2.5,5.39-2.59,5.8-2.59,5.8
	C70.43,205.56,69.87,208.13,70.73,214.46z"/>
<path class="st5" d="M198.89,203.08c-16.75-20.36-33.5-40.72-50.26-61.08c31.73-26.65,63.47-53.29,95.2-79.94
	c2.8,4.78,12.92,16.93,23.82,29.14c11.95,13.38,24.84,26.83,30.12,30.74c-54.56,45.69-94.59,79.03-95.26,79.39
	c-0.08,0.04-0.56,0.33-1.19,0.62c-0.75,0.34-1.44,0.65-1.69,0.4c-0.23-0.22,0.01-0.76-0.05-0.78
	C199.54,201.55,199.37,201.85,198.89,203.08z"/>
<ellipse transform="matrix(0.9998 -0.0209 0.0209 0.9998 -3.5838 3.6455)" class="st7" cx="172.59" cy="173.26" rx="42.28" ry="37.79"/>
<g>
	<polygon class="st4" points="199.92,195.8 151.82,141.1 285.52,32.25 333.62,86.96 	"/>
</g>
<ellipse class="st4" cx="307.96" cy="61.03" rx="37.5" ry="36.03"/>
<path class="st9" d="M496.75,67.26l-77.61-0.18c-2.64-0.01-4.8,3.62-4.81,8.1l-0.37,134.75c0-0.05,0-0.19,0-0.14
	c0,1.65,87.18,2.4,87.19,0.2l0,0c0,0,0,0.05,0,0.14l0.37-134.75C501.53,70.9,499.4,67.27,496.75,67.26z"/>
<path class="st10" d="M480.37,98.23h-48.93c-3.13,0-5.67-2.54-5.67-5.67v0c0-3.13,2.54-5.67,5.67-5.67h48.93
	c3.13,0,5.67,2.54,5.67,5.67v0C486.04,95.69,483.5,98.23,480.37,98.23z"/>
<ellipse class="st11" cx="479.3" cy="78.22" rx="3.15" ry="2.89"/>
<ellipse class="st12" cx="470.3" cy="78.22" rx="3.15" ry="2.89"/>
<ellipse class="st13" cx="457.71" cy="126.9" rx="9.89" ry="9.07"/>
<path class="st10" d="M468.85,128.96c1.3,0.39-10.08,22.28-11.14,22.28s-12.44-21.89-11.14-22.28c1.11-0.33,4.19,5.61,10.61,5.94
	c0.36,0.02,0.71,0.02,1.06,0C464.66,134.57,467.74,128.63,468.85,128.96z"/>
<text transform="matrix(1.2558 0 0 1 450.9619 128.6279)" class="st10 st14 st15">{     }</text>
<text transform="matrix(1.2372 0 0 1 454.5605 127.2393)" class="st10 st14 st16">...</text>
<ellipse transform="matrix(0.9995 -0.0325 0.0325 0.9995 -4.1332 44.0002)" class="st7" cx="1350.22" cy="149.03" rx="119.24" ry="112.08"/>
<g>
	<polygon class="st4" points="1464.18,150.82 1236.22,160.82 1218.55,-228.71 1446.51,-238.71 	"/>
</g>
<path class="st6" d="M1469.7,151.22l-238.26,10.45l-11.18-246.51c16.27,1.47,63.1,0.62,111.51-1.37
	c53.04-2.18,107.99-5.72,126.76-9.08C1462.25-13.12,1465.98,69.05,1469.7,151.22z"/>
<path class="st7" d="M1293.1,422.15c-0.4-0.03-3.55-0.26-3.57-0.43c0-0.02,0.03-0.03,0.06-0.04c-0.02,0.03-0.04,0.04-0.06,0.04
	c-0.96-0.08-0.02-35.07-4.14-75.75c-1.56-15.36-2.49-18.22-4.18-37.16c-1.71-19.09-2.56-28.64-2.4-37.07
	c0.09-4.49,1.79-65.64,29.1-67.93c4.86-0.41,13.57,0.74,27.31,11.85c-4.99,32.31-8.09,69.31-7.12,110.37
	c0.87,36.45,4.8,70.06,10.2,100.15c-0.28,0.11-0.57,0.2-0.87,0.3c0,0-0.45,0.14-0.91,0.26
	C1334.81,427.19,1296.96,422.46,1293.1,422.15z"/>
<path class="st7" d="M1378.77,424.2c-0.25-0.02-0.81-0.08-0.81-0.08c-0.27-0.03-0.54-0.05-0.81-0.08
	c-1.25-9.4-2.92-23.38-4.19-40.37c-6.64-88.4,0.41-217.46,33.75-223.5c4.97-0.9,12.74,0.53,24.15,12.68
	c-0.94,31.89-3.09,57.59-4.87,75.13c-2.67,26.28-4.55,34.64-6,59c-1.39,23.34-1.19,41.4-1,59c0.18,16.93,0.79,37.35,2.28,60.56
	c-0.13,0.07-0.26,0.14-0.4,0.21c-0.14,0.07-0.27,0.14-0.41,0.2c-0.34,0.16-0.64,0.28-0.85,0.37
	C1403.87,433.91,1380.4,424.36,1378.77,424.2z"/>
<path class="st7" d="M1261.26,278.83"/>
<path class="st17" d="M1469.71,145.3c-79.68,3.44-159.35,6.87-239.03,10.31c0.01,0.12,0.02,0.24,0.03,0.36
	c0.21,2.5,0.71,4.9,1.43,7.2c175.18-6.09,237.74-9.57,237.72-11.47c0-0.09-0.16-2.17-0.16-5.09
	C1469.7,146.07,1469.7,145.61,1469.71,145.3z"/>
<path class="st18" d="M1369.2,158.68c-7.45,0.17-14.91,0.35-22.36,0.52"/>
<path class="st18" d="M1369.22,158.01c0,0.22-0.01,0.44-0.01,0.66"/>
<path class="st18" d="M1346.85,158.93c0.14-2.76,0.29-5.51,0.43-8.27c7.37-0.35,14.74-0.7,22.11-1.05c-0.06,2.8-0.12,5.6-0.18,8.4"
	/>
<path class="st18" d="M1346.84,159.11c0-0.06,0.01-0.12,0.01-0.18"/>
<path class="st18" d="M1346.84,159.2c0-0.03,0-0.06,0.01-0.1"/>
<path class="st6" d="M200.51,201.76l-52.8-58.61l97.11-80.94c2.73,4.69,12.62,16.59,23.29,28.55c11.69,13.1,24.33,26.26,29.51,30.07
	C265.25,147.8,232.88,174.78,200.51,201.76z"/>
<path class="st7" d="M69.87,216.11c0,0,0.01,0.11,0.03,0.2c0.01,0.07,0.02,0.13,0.02,0.13c0.01,0.11,0.03,0.22,0.04,0.33
	c4.05,0.1,10.67,0.29,18.84,0.65c24.84,1.08,31.44,2.25,42.84,0.57c3.08-0.45,1.57-0.39,21.55-5.8
	c29.24-7.91,38.33-9.65,39.25-14.72c0.34-1.9-0.33-4.99-6.19-9.64c-15.33-0.37-27.04,1.89-34.92,4.03
	c-12.02,3.27-14.98,6.22-26.59,7.9c-9.83,1.42-13.65-0.19-28.45,0c-10.5,0.14-18.94,1-24.14,1.66c-2.5,5.39-2.59,5.8-2.59,5.8
	C69.56,207.22,69,209.79,69.87,216.11z"/>
<ellipse transform="matrix(0.9865 -0.1638 0.1638 0.9865 -8.0113 55.378)" class="st19" cx="331.87" cy="76.28" rx="6.88" ry="6.61"/>
<ellipse class="st7" cx="334.68" cy="77.6" rx="2.16" ry="2.07"/>
<ellipse class="st20" cx="330.84" cy="75.86" rx="10.74" ry="10.84"/>
<g>
	<g>
		<path class="st7" d="M322.77,68.41c-3.36-4.08-6.71-8.15-10.07-12.23c-1.88-2.28-3.67-5.44-6.92-5.62
			c-6.25-0.33-11.57,8.2-13.22,13.2c-0.61,1.84,2.29,2.62,2.89,0.8c0.97-2.92,2.55-5.5,4.75-7.67c1.66-1.64,2.48-2.19,4.87-2.36
			c2.9-0.2,2.48,0.11,4.25,2.25c3.79,4.57,7.55,9.17,11.32,13.76C321.87,72.03,323.98,69.89,322.77,68.41L322.77,68.41z"/>
	</g>
</g>
<g>
	<g>
		<path class="st7" d="M316.24,97.77c-1.73-0.02-4.3-0.51-5.35-2.06c-0.8-1.18-0.5-2.89,0.09-4.11c0.84-1.73-1.74-3.25-2.59-1.51
			c-1.06,2.19-1.46,4.94-0.13,7.1c1.57,2.56,5.17,3.55,7.98,3.58C318.17,100.8,318.17,97.8,316.24,97.77L316.24,97.77z"/>
	</g>
</g>
<path class="st17" d="M200.62,201.42c-0.02-0.03-1.94-2.57-4.31-4.97c-0.18-0.18-0.45-0.44-0.99-0.96c-0.41-0.4-0.75-0.73-1.04-1
	c-0.94-0.9-1.41-1.35-1.42-1.35c-0.01,0.01,1.67,1.71,1.72,1.66c0.09-0.08-3.8-4.4-4.31-4.97c-3.78-4.21-14.43-16.63-41.21-48.5
	c-0.06,0.04-0.14,0.11-0.24,0.19c-0.5,0.4-1.05,0.84-1.86,1.52c-0.97,0.81-1.83,1.56-2.39,2.05c20.35,24.85,31.85,39.55,38.17,48.3
	l0,0c0.7,0.68,1.81,1.76,3.22,3.06c2.41,2.24,4.32,3.87,9.48,8.28c0.86-0.55,1.72-1.1,2.59-1.66S199.75,201.97,200.62,201.42z"/>
<path class="st18" d="M202.34,201.42c-0.33-0.18-0.66-0.35-0.99-0.53c-0.2-0.16-0.4-0.32-0.6-0.49c-2-1.65-3.75-3.37-5.3-5.11
	c-0.06,0.04-0.14,0.11-0.24,0.18c-1.05,0.81-1.82,1.4-1.91,1.47c-0.55,0.43-1.64,1.22-3.9,2.81c0.65,1.01,1.5,2.15,2.59,3.31
	c0.76,0.81,1.51,1.5,2.21,2.08l0,0c0.13,0.14,0.25,0.27,0.38,0.41c1.46-0.39,3.35-1.07,5.32-2.31
	C200.86,202.65,201.67,202.02,202.34,201.42z"/>
<path class="st7" d="M196.3,203.91"/>
<path class="st5" d="M347.39,180.32c0.06-0.08,0.12-0.17,0.18-0.25c-2.18-0.13-5.37-0.36-9.16-0.84
	c-8.22-1.04-33.02-4.96-60.99-24.99c-7.94-5.69-31.24-22.38-26.75-31.18c1.3-2.56,4.62-3.8,7.26-4.45
	c8.77,5.24,22.07,13.25,38.67,23.54c5.63,3.49,7.44,4.64,10.13,6.21c10.11,5.91,25.24,13.48,46.29,19.8c0.06,0.2,0.1,0.41,0.13,0.61
	C353.78,173.04,349.35,178.22,347.39,180.32z"/>
<path class="st6" d="M348.38,179.31c0.06-0.08,0.12-0.17,0.18-0.25c-2.2-0.14-5.41-0.39-9.23-0.89
	c-8.29-1.08-33.28-5.13-61.56-25.36c-8.03-5.74-31.58-22.6-27.1-31.41c1.3-2.56,4.64-3.79,7.29-4.43c8.86,5.3,22.3,13.4,39.06,23.8
	c5.69,3.53,7.52,4.69,10.23,6.28c10.22,5.98,25.49,13.64,46.72,20.09c0.06,0.2,0.1,0.41,0.13,0.61
	C354.77,172.04,350.34,177.21,348.38,179.31z"/>
<path class="st21" d="M377.98,157.28l-1.45-6.79c-0.21-0.99,0.39-1.93,1.34-2.1l10.14-1.83c0.95-0.17,1.9,0.49,2.11,1.48l1.45,6.79
	c0.21,0.99-0.39,1.93-1.34,2.1l-10.14,1.83C379.13,158.93,378.19,158.27,377.98,157.28z"/>
</svg>
