<?xml version="1.0" encoding="utf-8"?>
<!-- Generator: Adobe Illustrator 19.0.0, SVG Export Plug-In . SVG Version: 6.00 Build 0)  -->
<svg version="1.1" id="Layer_1" xmlns="http://www.w3.org/2000/svg" xmlns:xlink="http://www.w3.org/1999/xlink" x="0px" y="0px"
	 viewBox="-348 276 583 250" style="enable-background:new -348 276 583 250;" xml:space="preserve">
<style type="text/css">
	.st0{fill:#3F1B06;}
	.st1{fill:#592706;}
	.st2{fill:#E9635E;}
	.st3{fill:#2D2C2C;}
	.st4{fill:#FFFFFF;}
	.st5{fill:#757575;}
	.st6{fill:#D8D8D8;}
	.st7{fill:#472C0C;}
	.st8{fill:#6B440C;}
	.st9{fill:#1E1E1E;}
	.st10{fill:#2C3E50;}
	.st11{fill:#050505;}
	.st12{fill:#DDDDDD;}
	.st13{fill:#EDEDED;}
	.st14{fill:#161616;}
	.st15{fill:none;stroke:#2D2C2C;stroke-width:3;stroke-miterlimit:10;}
	.st16{fill:#5E5E5E;}
	.st17{fill:#D6D6D6;}
	.st18{fill:#2F6AC9;}
	.st19{fill:none;}
	.st20{fill:#1B8212;}
	.st21{fill:#4C2E07;}
	.st22{fill:#494949;}
	.st23{fill:#F7F7F7;}
	.st24{fill:#7DC6EF;}
	.st25{fill:#595959;}
	.st26{fill:#141414;}
	.st27{fill:#3D3D3D;}
	.st28{fill:#EFD225;}
	.st29{fill:#E24B57;}
	.st30{fill:#2E9B10;}
	.st31{fill:#6B6B6B;}
</style>
<path class="st0" d="M-242.2,319.6c5.3,5.3,17.4,10.3,3.3,9.3c-14.1-1-52.5-16.7-52-24.6c0.5-7.9,3.9-9.1,18-8.9
	C-257.6,295.7-247.4,314.4-242.2,319.6z"/>
<path class="st1" d="M-232.1,326.7c4.1,6.9,15.4,15.7,1,10s-50.3-33.7-47.7-41.1s6.4-7.5,21-2.5
	C-241.8,298.5-236.1,319.9-232.1,326.7z"/>
<path class="st1" d="M-234,341.8c-0.1,8.8,13.9,15.8-0.9,10c-14.4-5.7-42.6-44.1-38.7-50.8s7.7-5.9,21.1,2.3
	C-238,312.1-233.9,333.7-234,341.8z"/>
<path class="st0" d="M-267.7,314.6c1-4.6-3.1-11.9-2.6-12.3c0.7-0.5,2.6,1.7,5,5.1c14.5,20.1,14.2,37,28.2,53
	c2.9,3.3,5.3,5.3,4.8,6.3c-1.2,2.3-18.9-0.5-27.2-12.6C-265.8,344.7-273.3,339.4-267.7,314.6z"/>
<path class="st1" d="M-260.8,315.5c1-4.6-3.1-11.9-2.6-12.3c0.7-0.5,2.6,1.7,5,5.1c14.5,20.1,14.2,37,28.2,53
	c2.9,3.3,5.3,5.3,4.8,6.3c-1.2,2.3-18.9-0.5-27.2-12.6C-259,345.6-266.4,340.3-260.8,315.5z"/>
<path class="st0" d="M-261.9,308.9c1-4.6-3.1-11.9-2.6-12.3c0.7-0.5,2.6,1.7,5,5.1c14.5,20.1,14.2,37,28.2,53
	c2.9,3.3,5.3,5.3,4.8,6.3c-1.2,2.3-18.9-0.5-27.2-12.6C-260,339-267.5,333.7-261.9,308.9z"/>
<path class="st1" d="M-259.1,308.8c1-4.6-3.1-11.9-2.6-12.3c0.7-0.5,2.6,1.7,5,5.1c14.5,20.1,14.2,37,28.2,53
	c2.9,3.3,5.3,5.3,4.8,6.3c-1.2,2.3-18.9-0.5-27.2-12.6C-257.2,339-264.7,333.6-259.1,308.8z"/>
<path class="st1" d="M-230.7,333.6c-0.1,8.8,13.9,15.8-0.9,10c-14.4-5.7-42.6-44.1-38.7-50.8s7.7-5.9,21.1,2.3
	C-234.8,303.9-230.6,325.6-230.7,333.6z"/>
<path class="st0" d="M-264.4,306.4c1-4.6-3.1-11.9-2.6-12.3c0.7-0.5,2.6,1.7,5,5.1c14.5,20.1,14.2,37,28.2,53
	c2.9,3.3,5.3,5.3,4.8,6.3c-1.2,2.3-18.9-0.5-27.2-12.6C-262.5,336.5-270,331.2-264.4,306.4z"/>
<path class="st1" d="M-257.5,307.3c1-4.6-3.1-11.9-2.6-12.3c0.7-0.5,2.6,1.7,5,5.1c14.5,20.1,14.2,37,28.2,53
	c2.9,3.3,5.3,5.3,4.8,6.3c-1.2,2.3-18.9-0.5-27.2-12.6C-255.7,337.4-263.1,332.1-257.5,307.3z"/>
<path class="st0" d="M-258.6,300.7c1-4.6-3.1-11.9-2.6-12.3c0.7-0.5,2.6,1.7,5,5.1c14.5,20.1,14.2,37,28.2,53
	c2.9,3.3,5.3,5.3,4.8,6.3c-1.2,2.3-18.9-0.5-27.2-12.6C-256.7,330.8-264.2,325.5-258.6,300.7z"/>
<path class="st1" d="M-255.8,300.7c1-4.6-3.1-11.9-2.6-12.3c0.7-0.5,2.6,1.7,5,5.1c14.5,20.1,14.2,37,28.2,53
	c2.9,3.3,5.3,5.3,4.8,6.3c-1.2,2.3-18.9-0.5-27.2-12.6C-253.9,330.8-261.4,325.4-255.8,300.7z"/>
<path class="st1" d="M-311.9,316.6c-3.6,4.9-12.5,8.7-1.8,9.3s38.8-11.4,37.8-19.7s-3.6-9.9-14.4-11.3
	C-302,293.4-308.3,311.7-311.9,316.6z"/>
<path class="st1" d="M-312.3,332.1c-0.9,8.5-11.4,9.5-0.5,10.1c10.7,0.6,34.7-24.8,32.6-32.9c-2-8.1-4.7-9-14.9-6.7
	C-306.1,304.9-311.5,324.2-312.3,332.1z"/>
<path class="st0" d="M-285.8,319.9c-0.2-4.9,3.5-10.2,3.2-10.8c-0.4-0.8-2,0.6-4,2.8c-12.3,13.4-14,29.9-25.5,39.5
	c-2.4,2-4.3,2.9-4,4.1c0.6,2.8,13.2,7.6,20.3-0.7C-290.4,348.4-284.6,346.3-285.8,319.9z"/>
<path class="st1" d="M-290.6,317.9c-0.2-4.9,3.5-10.2,3.2-10.8c-0.4-0.8-2,0.6-4,2.8c-12.3,13.4-14,29.9-25.5,39.5
	c-2.4,2-4.3,2.9-4,4.1c0.6,2.8,13.2,7.6,20.3-0.7C-295.3,346.4-289.5,344.3-290.6,317.9z"/>
<path class="st0" d="M-289.2,312c-0.2-4.9,3.5-10.2,3.2-10.8c-0.4-0.8-2,0.6-4,2.8c-12.3,13.4-14,29.9-25.5,39.5
	c-2.4,2-4.3,2.9-4,4.1c0.6,2.8,13.2,7.6,20.3-0.7C-293.8,340.4-288,338.4-289.2,312z"/>
<path class="st1" d="M-291.1,310.7c-0.2-4.9,3.5-10.2,3.2-10.8c-0.4-0.8-2,0.6-4,2.8c-12.3,13.4-14,29.9-25.5,39.5
	c-2.4,2-4.3,2.9-4,4.1c0.6,2.8,13.2,7.6,20.3-0.7C-295.8,339.2-290,337.1-291.1,310.7z"/>
<path class="st1" d="M-313.7,322.7c-0.9,8.5-11.4,9.5-0.5,10.1c10.7,0.6,34.7-24.8,32.6-32.9c-2-8.1-4.7-9-14.9-6.7
	C-307.5,295.6-312.8,314.9-313.7,322.7z"/>
<path class="st0" d="M-287.1,310.6c-0.2-4.9,3.5-10.2,3.2-10.8c-0.4-0.8-2,0.6-4,2.8c-12.3,13.4-14,29.9-25.5,39.5
	c-2.4,2-4.3,2.9-4,4.1c0.6,2.8,13.2,7.6,20.3-0.7C-291.8,339-286,337-287.1,310.6z"/>
<path class="st1" d="M-292,308.6c-0.2-4.9,3.5-10.2,3.2-10.8c-0.4-0.8-2,0.6-4,2.8c-12.3,13.4-14,29.9-25.5,39.5
	c-2.4,2-4.3,2.9-4,4.1c0.6,2.8,13.2,7.6,20.3-0.7C-296.7,337-290.9,335-292,308.6z"/>
<path class="st0" d="M-290.5,302.6c-0.2-4.9,3.5-10.2,3.2-10.8c-0.4-0.8-2,0.6-4,2.8c-12.3,13.4-14,29.9-25.5,39.5
	c-2.4,2-4.3,2.9-4,4.1c0.6,2.8,13.2,7.6,20.3-0.7C-295.2,331.1-289.4,329-290.5,302.6z"/>
<path class="st1" d="M-292.5,301.4c-0.2-4.9,3.5-10.2,3.2-10.8c-0.4-0.8-2,0.6-4,2.8c-12.3,13.4-14,29.9-25.5,39.5
	c-2.4,2-4.3,2.9-4,4.1c0.6,2.8,13.2,7.6,20.3-0.7C-297.1,329.8-291.4,327.8-292.5,301.4z"/>
<path class="st1" d="M-238,327.2c5.9,2.2,19.1,5.2,3.9,3c-15.2-2.2-57.1-11.8-56.8-13.9c0.3-2.1,3.8-1.9,19.1,0.1
	C-255.3,318.6-243.8,325.1-238,327.2z"/>
<path class="st1" d="M-237.1,321.4c0,20.6-15.5,37.3-34.6,37.3s-32.5-16.4-34.6-37.3c-2-19.9,16-35.7,34.6-37.3
	C-252.6,282.4-237.1,300.8-237.1,321.4z"/>
<ellipse class="st0" cx="-277.8" cy="324.8" rx="25.7" ry="35.2"/>
<path class="st0" d="M-240.5,330.2c2.6,5.3,17.1,10.7,2.2,6c-14.5-4.6-51.1-30.2-49.7-33.9c1.5-3.7,5-2.9,19.3,3.1
	C-253.2,311.9-242.9,325.3-240.5,330.2z"/>
<g>
	<polygon class="st2" points="-305.2,440.6 -240.2,442.5 -237.1,320.9 -302,319 	"/>
</g>
<path class="st2" d="M-302,319.7c0.4-17.8,15.3-31.9,33.2-31.4s32.1,15.3,31.7,33.1c-0.4,17.8-15.3,31.9-33.2,31.4
	C-288.2,352.3-302.4,337.5-302,319.7z"/>
<g>
	<g>
		<path class="st3" d="M-286.4,345.7c2.9,7.3,11.1,7.3,16.6,3.5c1.6-1.1,0.1-3.9-1.5-2.8c-4.2,2.9-10.3,3.4-12.5-2.3
			C-284.5,342.1-287.1,343.8-286.4,345.7L-286.4,345.7z"/>
	</g>
</g>
<path class="st4" d="M-284.1,325.3c0.1-3.6,2.6-6.5,5.6-6.4c3,0.1,5.4,3,5.4,6.7c-0.1,3.6-2.6,6.5-5.6,6.4
	C-281.7,331.9-284.2,328.9-284.1,325.3z"/>
<path class="st4" d="M-266.2,326.2c0.1-3.6,2.6-6.5,5.6-6.4c3,0.1,5.4,3,5.4,6.7c-0.1,3.6-2.6,6.5-5.6,6.4
	C-263.9,332.8-266.3,329.8-266.2,326.2z"/>
<path class="st3" d="M-279.2,326.1c0-1.3,0.9-2.2,1.9-2.2c1,0,1.9,1.1,1.8,2.3c0,1.3-0.9,2.2-1.9,2.2
	C-278.4,328.4-279.3,327.4-279.2,326.1z"/>
<path class="st3" d="M-263.6,327.1c0-1.3,0.9-2.2,1.9-2.2c1,0,1.9,1.1,1.8,2.3s-0.9,2.2-1.9,2.2
	C-262.8,329.4-263.7,328.3-263.6,327.1z"/>
<path class="st2" d="M-328.9,358.4"/>
<path class="st1" d="M-285.7,297.1c0-1.2,0.2-0.3,8.2,5.6c8,6,31.3,16.1,30.8,16.9c-0.5,0.8-15.7-2.2-23.8-8.1
	C-279.2,305.2-285.7,298.7-285.7,297.1z"/>
<path class="st0" d="M-291.2,304.6c-5.4,4.4-10.9,6.3-12.3,4.4c-1.4-2,1.9-6.8,7.3-11.5c5.1-4.4,10.5-5.9,12.3-4.4
	C-282.1,294.7-285.8,300.2-291.2,304.6z"/>
<path class="st0" d="M-239.6,309.6c1.9,9.8,19.6,9,4.2,9c-28.2,0-58.3-11.1-58.1-20.8c0-1.5,0.8-2.7,1.8-4.1
	c4.9-6.8,15.3-6.2,17.1-6.1C-265.8,288.2-245.6,278.9-239.6,309.6z"/>
<path class="st1" d="M-238.7,308.6c1.9,10.1,19.9,9.2,4.3,9.2c-26.5,0-59.2-11.4-58.9-21.2c0.1-1.5,0.9-2.6,2.1-4.1
	c5.3-6.8,15.4-6.3,17.1-6.3C-265.3,286.6-244.7,277.4-238.7,308.6z"/>
<path class="st1" d="M-295.2,289.8"/>
<path class="st1" d="M-291.6,304.3c-5.5,4.4-11,6.4-12.4,4.5c-1.4-2,2-6.9,7.4-11.6c5.2-4.5,10.6-6,12.4-4.5
	C-282.3,294.3-286.1,299.9-291.6,304.3z"/>
<path class="st5" d="M56.3,396.2h-1.8c-0.6-2.5-1.2-6-1-10.1c0.1-2.4,0.5-4.5,1-6.2c0.6,0,1.2,0,1.8,0c-0.6,1.9-1.1,4.4-1.2,7.5
	C55,391,55.7,394.1,56.3,396.2z"/>
<circle class="st5" cx="55.2" cy="380" r="2.2"/>
<path class="st6" d="M-122.4,513.2c-16.8,3.9-19.1,2.1-45.3,5.4c-16.9,2.2-29.3,4.7-51.7,5.6c-0.4,0-0.7,0-0.7,0
	c-21.7,0.8-34.9-0.8-62.4-3.5c-27.8-2.7-37.4-3.3-39.1-7.5c-0.8-1.9,0.3-3.8,1.3-5.2c4.5-1.5,11.1-3.5,19.5-5.5
	c16.7-4,32.3-5.9,84.6-8.4c30-1.4,45.3-2.1,57.1-1.5c21.6,1.1,38.9,4,50.4,6.4c3.6,0.8,8.7,2.5,8.8,4.8
	C-99.6,507.9-116.1,511.7-122.4,513.2z"/>
<path class="st7" d="M-248.3,503c1.4-0.5,1.8-1.1,1.8-1.5c0.2-1.4-3.1-2.4-7.5-5.4c-3.1-2.2-4.8-3.3-5.7-5.3c-1.4-2.9-1-6.9,1.6-9.8
	c3.1-3.5,9-4.7,14.2-2.6c0.8-1.2,1.5-2.5,2.3-3.7c-8.7-2.5-17.1-0.8-20.4,3.7c-2,2.7-1.9,7.7-1.9,9.7c0,1.1,0.1,2.3,0.5,3.5
	c0.4,1.3,1,2.2,1.5,2.8l0,0l0,0c1,0.8,2.1,1.6,3.2,2.3C-255.2,499.3-251.7,501.4-248.3,503z"/>
<path class="st7" d="M-206.7,498.7c-1.1-0.2-1.5-0.6-1.7-1c-0.6-1.3,1.4-3,3.4-7c1.4-2.8,2.2-4.3,2.2-6.5c0.1-3.1-1.4-6.9-4-9
	c-3.2-2.6-7.4-2.3-10.2,1c-0.9-1-1.8-2-2.6-3c5.1-4.5,11.2-4.9,14.7-1.4c2.1,2.1,3.6,6.9,4.2,8.8c0.4,1.1,0.6,2.2,0.7,3.5
	c0.1,1.3,0,2.4-0.1,3.1l0,0l0,0c-0.4,1-0.9,2-1.4,3C-203.2,493.5-204.9,496.3-206.7,498.7z"/>
<path class="st8" d="M-213.9,512.2l-19.6,2.3c-7.9,0.9-16.1-10.5-18.2-25.4c0,0,0-0.1,0-0.1c16.1-1.9,32.2-3.8,48.3-5.6l0,0
	c0,0,0,0.1,0,0.1C-201.3,498.4-206,511.2-213.9,512.2z"/>
<path class="st7" d="M-217.6,498.4l-16.2,1.9c-1.9,0-5.3-0.3-8.8-2c-6.1-2.9-8.5-7.8-9.2-9.4c4.8-4.3,9.7-8.6,14.6-12.8
	c0,0,0,0-0.1,0l16.2-1.9c0,0,0,0-0.1,0c5.9,3,11.8,6.1,17.7,9.1c-0.2,1.6-1.2,6.9-6.2,11.1C-212.7,496.8-215.8,497.9-217.6,498.4z"
	/>
<path class="st7" d="M-239.3,474.4l19.6-2.3c7.9-0.9,15.2,4,16.2,11.1c0,0,0,0,0,0.1c-16.1,1.9-32.2,3.8-48.3,5.7l0,0c0,0,0,0,0-0.1
	C-252.8,481.8-247.2,475.3-239.3,474.4z"/>
<path class="st8" d="M-219,496.3c-5,0.7-10.1,1.4-15.1,2c-1.2,0.1-5,0.2-8.8-2c-3.9-2.3-5.2-5.6-5.6-6.6c-0.2-0.4-2.8-5.2,0.2-10
	c2.1-3.5,6.3-5.6,10.8-5.6c0,0,0,0-0.1,0l16.2-1.9c0,0,0,0-0.1,0c0.5-0.1,5.9-1.5,10.3,1.7c3.5,2.5,4.9,6.8,3.6,10.9
	c0,0.9-0.2,4.5-3.3,7.6C-214,495.7-218.1,496.2-219,496.3z"/>
<path class="st9" d="M-222.7,500.1l-3.3,0.4c-1,0.1-1.9-0.5-2.1-1.5l-0.2-1.6c-0.1-0.9,0.6-1.8,1.6-1.9l3.3-0.4
	c1-0.1,1.9,0.5,2.1,1.5l0.2,1.6C-221,499.1-221.7,500-222.7,500.1z"/>
<path class="st2" d="M-253.1,508.3c0.1,0,0.8-0.1,0.8-0.1l0,0c0,0,0,0,0,0c0.2,0-0.1-9.9,0.6-21.4c0.3-4.3,0.5-5.1,0.8-10.5
	c0.3-5.4,0.4-8.1,0.4-10.5c0-1.3-0.7-18.6-6.7-19.4c-1.1-0.1-3,0.1-6,3.2c1.2,9.2,2.1,19.6,2,31.2c0,10.3-0.8,19.8-1.9,28.2
	c0.1,0,0.1,0.1,0.2,0.1c0,0,0.1,0,0.2,0.1C-262.3,509.5-254,508.4-253.1,508.3z"/>
<path class="st2" d="M-292.8,508.2c-0.1,0-0.9-0.1-0.9-0.1l0,0c0,0,0,0,0,0c-0.2,0,0-10-1-21.5c-0.4-4.4-0.6-5.2-1-10.5
	c-0.4-5.4-0.6-8.1-0.6-10.5c0-1.3,0.4-18.6,7.2-19.3c1.2-0.1,3.4,0.2,6.8,3.4c-1.2,9.2-2,19.7-1.8,31.3c0.2,10.3,1.2,19.9,2.5,28.4
	c-0.1,0-0.1,0.1-0.2,0.1c0,0-0.1,0-0.2,0.1C-282.5,509.6-291.8,508.3-292.8,508.2z"/>
<path class="st3" d="M-265.4,477.2c3.5,0.1,4.3-0.3,7.3,0c7.5,0.7,9.6,3.8,11.9,3.2c6.9-1.9,15-36.4-0.2-59.3
	c-10.4-15.6-31.3-25.1-44.8-16.7c-6.8,4.2-10.3,17.6-17.3,44.4c-5.1,19.4-5.2,27.6-1.8,30.5c0.8,0.7,1.8,1,4.6,1.1
	c13.8,0.3,17.3-6.3,27.5-5.3C-273.9,475.5-272.1,477-265.4,477.2z"/>
<path class="st2" d="M-227.1,432.4c1.9-0.4,4,1.4,4.8,3.7c0.7,1.9,0.4,3.7,0.2,5.1c-0.3,2.2-1.7,7.7-4.3,7.8
	c-2.6,0.2-4.7-4.2-4.9-7.9C-231.3,437.7-229.9,433-227.1,432.4z"/>
<path class="st2" d="M-323,432.4c1.9-0.4,4,1.4,4.8,3.7c0.7,1.9,0.4,3.7,0.2,5.1c-0.3,2.2-1.7,7.7-4.3,7.8c-2.6,0.2-4.7-4.2-4.9-7.9
	C-327.2,437.7-325.8,433-323,432.4z"/>
<path class="st10" d="M-306.9,442.2l68.7,2c-0.2-38.5,0.5-53.3,1.5-56.6c0.2-0.5,0.7-1.9,0.7-3.9c0.1-3.1-1.1-3.9-1.3-8
	c0,0,0,0-0.1-3.6c0-0.3,0-3.3-0.1-3.6c-9.7,0.3-20,0.4-30.8,0c-12.3-0.4-23.8-1.3-34.7-2.4c-0.3,0.8-0.7,2.1-1.1,3.6
	c-0.5,2.4-0.4,3.5-0.6,6.1c-0.4,4.3-1,4.4-1.2,7.8c-0.1,2.6,0.1,4.2,0.3,6.2c0.5,5.3-0.2,8.9-0.3,12.9
	C-306,409.5-306.3,421.1-306.9,442.2z"/>
<g>
	<path class="st2" d="M-237.5,368.4c-21.9-0.8-43.9-1.6-65.8-2.5c4.5,1.6,9.4,3.6,14.5,6.2c5.5,2.8,10.3,5.6,14.5,8.4
		C-262,376.5-249.8,372.5-237.5,368.4z"/>
</g>
<path class="st2" d="M-329.3,360.9"/>
<path class="st10" d="M-221.2,439.4c-0.1,0-0.1,0.1-0.2,0.1c0.2-1.5,0.6-3.6,0.8-6.2c0.5-5.5,1.4-22.2-9.3-41.3
	c-3-5.4-11.9-21.3-19.2-18.4c-2.1,0.8-3.6,3.1-4.5,4.8c2.6,6,6.5,15,11.6,26.3c1.7,3.8,2.3,5.1,3.1,6.9c2.9,6.9,6.2,17.1,7.7,31.3
	c0.1,0,0.3,0.1,0.4,0.1C-227.7,443.6-223.1,440.7-221.2,439.4z"/>
<path class="st10" d="M-327.1,438.6c0.1,0,0.1,0.1,0.2,0.1c-0.1-1.5-0.2-3.6-0.2-6.2c0-5.5,0.7-22.3,12.3-40.3
	c3.3-5.1,12.9-20.2,19.4-16.7c1.9,1,3,3.3,3.7,5.2c-2.9,5.7-7.4,14.4-13.1,25.2c-2,3.7-2.6,4.9-3.5,6.6c-3.3,6.6-7.3,16.5-9.9,30.6
	c-0.1,0-0.3,0.1-0.4,0.1C-321.5,443.3-325.5,440.1-327.1,438.6z"/>
<path class="st11" d="M-262.5,515.3c1.2,0.3,4.1,0.8,6.9,1.1c0.6,0.1,1.7,0.2,3.2,0.1c1.1,0,1.8-0.1,2.2-0.2
	c0.8-0.1,1.4-0.3,1.9-0.5c0.3-0.3,1.6-1.7,1.7-3.8c0.1-2.1-1.1-4.1-3.1-5.1c-4.3,0.1-8.5,0.1-12.7,0.2c-0.5,3-0.5,5.5-0.2,7.5
	c0,0.1,0,0.2,0,0.3C-262.6,515.1-262.6,515.2-262.5,515.3z"/>
<path class="st11" d="M-282.2,516c-1.1,0.2-3.8,0.7-6.5,0.8c-0.5,0-1.6,0.1-3,0c-1-0.1-1.6-0.2-2-0.3c-0.7-0.2-1.3-0.4-1.7-0.6
	c-0.3-0.4-1.4-1.8-1.4-4c0-2.1,1.3-4.1,3.1-5.1c4,0.2,7.9,0.5,11.8,0.7c0.3,3.1,0.2,5.7-0.1,7.7c0,0.1,0,0.2-0.1,0.3
	C-282,515.8-282.1,515.9-282.2,516z"/>
<path class="st6" d="M191.6,514.4c-17.4,3.1-19.6,1.2-46.5,3.4c-17.4,1.4-30.1,3.3-53.1,3.2c-0.4,0-0.7,0-0.7,0
	c-22.2-0.1-35.6-2.3-63.6-6.1c-28.3-3.9-38.1-4.8-39.7-9.1c-0.7-1.9,0.5-3.7,1.6-5c4.6-1.3,11.5-3,20.2-4.6
	c17.3-3.2,33.3-4.4,86.9-4.6c30.8-0.1,46.4-0.1,58.5,1c22.1,2,39.6,5.6,51.2,8.5c3.6,0.9,8.8,2.8,8.8,5.1
	C215.1,510.2,198,513.3,191.6,514.4z"/>
<ellipse transform="matrix(-0.1181 -0.993 0.993 -0.1181 -301.1902 593.1088)" class="st2" cx="112.8" cy="430.3" rx="7.1" ry="4.8"/>
<path class="st12" d="M185.9,416c-19.8,1.5-39.6,3-59.4,4.5c0,0-1.5,0.3-2.2,0c-1.2-0.4-1.4-2.7-1.5-6.2c-0.2-3.2-0.2-4.8-0.3-6.2
	c0-0.4,0-0.1-0.4-9.2c-0.1-3.2-0.3-6.9-0.5-10.8c-0.1-2.6-1.2-30.1-1.5-37c9.7,0.1,19.9,0,30.6-0.5c14.6-0.7,29.7-1.7,34.8-2.6
	c0,0.2,2,49.4,2,49.4c0.1,2.7,0.2,4.1,0.2,4.1c0.2,4.2,0.2,4.8,0.2,5.3c0,0,0,0.1,0,0.3c-0.1,1.6-1.4,12.3-2,12.3
	c-0.4-0.1-0.1-5.4-0.1-5.4C185.9,413.8,185.9,414.2,185.9,416z"/>
<path class="st12" d="M109.3,430.4c0.1,0,0.1,0,0.2,0c-0.4-1.3-0.9-3.1-1.4-5.4c-1.1-4.9-3.8-19.9,2.6-40.3
	c1.8-5.8,7.2-22.8,13.5-22.3c1.8,0.2,3.3,1.8,4.2,3.1c-1.4,6.2-3.5,15.5-6.4,27.3c-1,4-1.3,5.3-1.7,7.2c-1.5,7.1-3,17.4-2.5,30.8
	c-0.1,0.1-0.2,0.1-0.4,0.2C115.1,432.4,111,431.1,109.3,430.4z"/>
<path class="st13" d="M107.4,430.3c0.1,0,0.1,0,0.2,0c-0.3-1.3-0.7-3.3-1.1-5.6c-0.8-5.1-2.6-20.6,5.1-41.3
	c2.2-5.9,8.6-23.1,14.9-22.3c1.8,0.3,3.2,2,4,3.4c-1.8,6.3-4.5,15.8-8,27.8c-1.2,4.1-1.6,5.4-2.1,7.3c-2,7.2-4.1,17.7-4.4,31.5
	c-0.1,0.1-0.2,0.1-0.4,0.2C113.1,432.6,109.1,431,107.4,430.3z"/>
<ellipse transform="matrix(-0.2417 -0.9703 0.9703 -0.2417 -160.7947 724.7449)" class="st2" cx="202.8" cy="425.2" rx="7.1" ry="4.6"/>
<ellipse transform="matrix(-7.479989e-002 -0.9972 0.9972 -7.479989e-002 -665.8835 265.5147)" class="st2" cx="-209.8" cy="441.7" rx="7.2" ry="3.9"/>
<ellipse transform="matrix(-0.7246 -0.6892 0.6892 -0.7246 -397.4923 542.7733)" class="st2" cx="-90.3" cy="350.8" rx="3.8" ry="7.2"/>
<path class="st14" d="M-134.6,366.9c-21.3,0-42.6,0-63.9,0c-0.7-3.4-1.4-6.8-2.1-10.2c0.5-0.3,1.3-0.8,2.2-1.3
	c10-5.2,16.8,1.1,30.3,1.5c14.6,0.5,20.6-6.4,33.7-1.5c1.5,0.6,2.6,1.1,3.4,1.5C-132.2,360.3-133.4,363.6-134.6,366.9z"/>
<path class="st11" d="M151.5,505.9c-1.2,0.2-4,0.7-6.8,0.9c-0.6,0-1.7,0.1-3.1,0c-1.1-0.1-1.7-0.2-2.1-0.3c-0.8-0.2-1.4-0.4-1.8-0.6
	c-0.3-0.4-1.5-1.9-1.4-4c0-2.2,1.3-4.2,3.3-5.2c4.2,0.2,8.4,0.5,12.5,0.7c0.4,3.1,0.2,5.7-0.2,7.8c0,0.1,0,0.2-0.1,0.4
	C151.7,505.7,151.6,505.8,151.5,505.9z"/>
<path d="M174,505.1c-1,0.3-3.5,1.1-6,1.6c-0.5,0.1-1.5,0.3-2.8,0.3c-1,0-1.5,0-1.9-0.1c-0.7-0.1-1.3-0.2-1.7-0.4
	c-0.3-0.3-1.5-1.7-1.6-3.9c-0.1-2.2,0.9-4.3,2.5-5.5c3.7-0.2,7.5-0.4,11.2-0.6c0.6,3.1,0.6,5.7,0.5,7.8c0,0.1,0,0.2,0,0.4
	C174.1,504.9,174,505,174,505.1z"/>
<ellipse transform="matrix(-0.9979 -6.519819e-002 6.519819e-002 -0.9979 283.0108 845.8752)" class="st3" cx="155.3" cy="418.3" rx="31.3" ry="32.3"/>
<ellipse transform="matrix(-0.4563 -0.8898 0.8898 -0.4563 -54.9057 582.8199)" class="st2" cx="150.6" cy="308.2" rx="29.7" ry="30"/>
<g>
	<polygon class="st2" points="185.2,418.9 125.4,421.8 120.7,309.6 180.5,306.7 	"/>
</g>
<ellipse class="st15" cx="140.3" cy="318.1" rx="6" ry="6.4"/>
<ellipse transform="matrix(-0.9996 -2.650129e-002 2.650129e-002 -0.9996 319.5618 639.4952)" class="st15" cx="164" cy="317.6" rx="6.8" ry="7.4"/>
<line class="st15" x1="146.5" y1="318.5" x2="157.3" y2="316.8"/>
<path class="st13" d="M186.6,419l-62.5,3l-2.9-71c4.3,0.4,16.6,0.2,29.3-0.4c13.9-0.6,28.3-1.7,33.3-2.6
	C184.7,371.7,185.7,395.3,186.6,419z"/>
<g>
	<polygon class="st2" points="163.1,349.9 159.7,356.4 146.8,350.6 	"/>
</g>
<path class="st3" d="M140.3,497c-0.1,0-0.9-0.1-0.9-0.1l0,0c0,0,0,0,0,0c-0.3,0,0-10.1-1.1-21.8c-0.4-4.4-0.6-5.3-1.1-10.7
	c-0.5-5.5-0.7-8.3-0.6-10.7c0-1.3,0.5-18.9,7.6-19.6c1.3-0.1,3.6,0.2,7.2,3.4c-1.3,9.3-2.1,19.9-1.9,31.8
	c0.2,10.5,1.3,20.2,2.7,28.8c-0.1,0-0.1,0.1-0.2,0.1c0,0-0.1,0-0.2,0.1C151.2,498.4,141.3,497.1,140.3,497z"/>
<path class="st3" d="M162.8,497.6c-0.1,0-0.2,0-0.2,0c-0.1,0-0.1,0-0.2,0c-0.3-2.7-0.8-6.7-1.1-11.6c-1.7-25.4,0.1-62.6,8.9-64.3
	c1.3-0.3,3.3,0.1,6.3,3.6c-0.3,9.2-0.8,16.6-1.3,21.6c-0.7,7.6-1.2,10-1.6,17c-0.4,6.7-0.3,11.9-0.3,17c0,4.9,0.2,10.8,0.6,17.4
	c0,0-0.1,0-0.1,0.1s-0.1,0-0.1,0.1c-0.1,0-0.2,0.1-0.2,0.1C169.4,500.4,163.2,497.6,162.8,497.6z"/>
<path class="st13" d="M124.6,371.7"/>
<g>
	<g>
		<path class="st3" d="M163.7,330.1c-1.6,5-7.1,5.1-11,2.8c-1.7-1-3.2,1.6-1.5,2.6c5.7,3.4,13.2,2.3,15.4-4.6
			C167.2,329.1,164.3,328.3,163.7,330.1L163.7,330.1z"/>
	</g>
</g>
<path class="st3" d="M131.9,455.7"/>
<path class="st16" d="M141.5,496.8c-0.3,0-0.6-0.1-0.9-0.1"/>
<path class="st3" d="M154,492.9"/>
<path class="st17" d="M144,368c-0.1,0.8-0.1,1.6-0.2,2.5s-0.1,1.6-0.2,2.5c-1.9,0.7-4.5,1.3-7.6,1.2c-1.3,0-2.5-0.2-3.6-0.4
	c-0.5-1.6-1-3.7-1.2-6.1c-0.1-1.3-0.1-2.4-0.1-3.5c0.5-0.1,1.2-0.3,2-0.4c1.1-0.2,2.5-0.4,4.1-0.5c1.5-0.1,3.4-0.1,5.5,0.1
	c0.2,0,0.3,0,0.4,0C143.9,363.8,144.2,365.6,144,368z"/>
<path class="st18" d="M135.5,363.5c0.2-0.1,0.4-0.1,0.6-0.1c0.1,0,0.2,0,0.3,0c0.1,0,0.2,0,0.3,0h0l-0.6-3.2c0-0.2-0.2-0.3-0.3-0.3
	l-0.7,0.1c-0.2,0-0.3,0.2-0.2,0.4l0.5,3.1C135.4,363.5,135.5,363.5,135.5,363.5z"/>
<path class="st11" d="M137.4,363.4C137.4,363.4,137.4,363.4,137.4,363.4L137.4,363.4C137.4,363.4,137.4,363.4,137.4,363.4
	c0.1,0,0.1,0,0.1,0c0.2,0,0.4,0,0.6,0c0,0,0,0,0,0l-0.1-3c0-0.2-0.1-0.3-0.3-0.3l-0.7,0c-0.2,0-0.3,0.2-0.3,0.3l0.1,2.9
	C137,363.3,137.2,363.3,137.4,363.4z"/>
<path class="st18" d="M134.6,363.5L134.6,363.5z"/>
<g>
	<g>
		<path class="st3" d="M134.6,316.2c-2.7-0.4-5.5-0.9-8.2-1.3c-1.7-0.3-3.6-0.9-5.2-0.1c-2.9,1.4-2.7,5.4-1.4,7.8
			c0.9,1.7,3.5,0.2,2.6-1.5c-0.6-1.2-0.9-3.2,0.8-3.7c1-0.3,3,0.4,4,0.6c2.2,0.3,4.5,0.7,6.7,1C135.7,319.4,136.5,316.5,134.6,316.2
			L134.6,316.2z"/>
	</g>
</g>
<g>
	<g>
		<path class="st3" d="M171.8,316.4c2.9-1.9,6-4.3,9.2-5.7c-0.4,0-0.8,0.1-1.2,0.1c0.2,0,0.3,0.1,0.5,0.1c-0.3-0.2-0.6-0.5-0.9-0.7
			c0.4,0.6,0,2.1,0,2.7c-0.2,1.9,2.8,1.9,3,0c0.2-2.2,0.3-5.9-3-4.9c-1.5,0.4-3,1.7-4.3,2.5c-1.6,1-3.3,2.1-4.9,3.2
			C168.7,314.8,170.2,317.4,171.8,316.4L171.8,316.4z"/>
	</g>
</g>
<path class="st3" d="M148.9,498.1"/>
<path class="st8" d="M186.6,417.3c-20.9,1-41.8,2-62.7,3c0,0,0,0.1,0,0.1c0.1,0.7,0.2,1.4,0.4,2.1c46-1.8,62.4-2.8,62.4-3.3
	c0,0,0-0.6,0-1.5C186.6,417.5,186.6,417.4,186.6,417.3z"/>
<line class="st19" x1="147.8" y1="428" x2="147.8" y2="428"/>
<path class="st20" d="M186.3,419.1"/>
<path class="st20" d="M186.3,419.1"/>
<path class="st21" d="M160.3,421.1c-2,0-3.9,0.1-5.9,0.1"/>
<path class="st21" d="M160.3,421c0,0.1,0,0.1,0,0.2"/>
<path class="st21" d="M154.4,421.2c0-0.8,0.1-1.6,0.1-2.4c1.9-0.1,3.9-0.2,5.8-0.3c0,0.8,0,1.6,0,2.4"/>
<path class="st21" d="M154.4,421.3C154.4,421.2,154.4,421.2,154.4,421.3"/>
<path class="st21" d="M154.4,421.3C154.4,421.3,154.4,421.3,154.4,421.3"/>
<path class="st16" d="M138.9,499.8"/>
<path class="st16" d="M166.8,499.3"/>
<ellipse class="st4" cx="141.3" cy="317.9" rx="3.1" ry="3.5"/>
<ellipse class="st4" cx="163.1" cy="316.7" rx="3.1" ry="3.5"/>
<ellipse class="st3" cx="142" cy="318" rx="1.2" ry="1.3"/>
<ellipse class="st3" cx="162.4" cy="316.9" rx="1.2" ry="1.3"/>
<path class="st11" d="M-168.8,515.6c-1.2,0.2-4,0.7-6.8,0.9c-0.6,0-1.7,0.1-3.1,0c-1.1-0.1-1.7-0.2-2.1-0.3
	c-0.8-0.2-1.4-0.4-1.8-0.6c-0.3-0.4-1.5-1.9-1.4-4.1c0.1-2.2,1.3-4.2,3.3-5.3c4.2,0.2,8.4,0.5,12.5,0.7c0.4,3.2,0.2,5.8-0.2,7.9
	c0,0.1,0,0.2-0.1,0.4C-168.7,515.4-168.8,515.5-168.8,515.6z"/>
<path class="st11" d="M-161,517c1.3,0.3,4.3,0.8,7.3,1.1c0.6,0.1,1.8,0.2,3.4,0.1c1.2,0,1.9-0.1,2.3-0.2c0.8-0.1,1.5-0.3,2-0.5
	c0.3-0.3,1.7-1.8,1.8-3.9c0.1-2.1-1.2-4.2-3.2-5.2c-4.5,0.1-9,0.2-13.5,0.2c-0.6,3.1-0.5,5.6-0.2,7.7c0,0.1,0,0.2,0.1,0.3
	C-161.2,516.8-161.1,516.9-161,517z"/>
<ellipse transform="matrix(-0.9977 -6.839713e-002 6.839713e-002 -0.9977 -361.7373 841.5878)" class="st22" cx="-166.5" cy="427" rx="31.3" ry="32.7"/>
<ellipse transform="matrix(-0.9306 -0.366 0.366 -0.9306 -435.8578 547.9714)" class="st2" cx="-166" cy="315.3" rx="29.9" ry="30.2"/>
<g>
	<polygon class="st2" points="-136.6,429 -196.5,429 -196,315.3 -136,315.3 	"/>
</g>
<path d="M-135.2,429.1l-62.6,0l0.4-72c4.3,0.6,16.6,1,29.3,1c13.9,0,28.4-0.3,33.4-1C-134.9,381.2-135,405.2-135.2,429.1z"/>
<path d="M-89.1,355.1c0-0.1,0-0.1,0-0.2c-1,1.1-2.5,2.6-4.4,4.4c-4.1,3.9-16.6,15.3-38.3,22.5c-6.1,2-24.1,8-26.4,2.5
	c-0.6-1.6,0.2-3.8,1-5.4c6.3-2.6,15.8-6.6,27.9-11.5c4.1-1.6,5.4-2.2,7.3-3c7.2-3.1,17.3-8.2,29.4-16.8c0.1,0,0.2,0.1,0.4,0.1
	C-89.8,349.1-89.3,353.3-89.1,355.1z"/>
<path d="M-214,440c0.1,0,0.1,0.1,0.2,0.1c-0.3-1.5-0.7-3.6-1.1-6.2c-0.8-5.6-2.9-22.6,4.5-44.7c2.1-6.3,8.2-24.7,14.5-23.4
	c1.8,0.4,3.2,2.3,4.1,3.9c-1.7,6.7-4.2,17-7.6,29.8c-1.1,4.4-1.5,5.8-2,7.8c-1.8,7.8-3.8,19.1-3.9,34.1c-0.1,0.1-0.2,0.1-0.4,0.2
	C-208.3,442.9-212.3,440.9-214,440z"/>
<path class="st22" d="M-180.1,506.6c-0.1,0-0.9-0.1-0.9-0.1l0,0c0,0,0,0,0,0c-0.3,0,0-10.2-1.1-22.1c-0.4-4.5-0.6-5.3-1.1-10.8
	c-0.4-5.6-0.7-8.4-0.6-10.8c0-1.3,0.5-19.1,7.6-19.8c1.3-0.1,3.6,0.2,7.2,3.5c-1.3,9.4-2.1,20.2-1.9,32.2
	c0.2,10.6,1.3,20.4,2.7,29.2c-0.1,0-0.1,0.1-0.2,0.1c0,0-0.1,0-0.2,0.1C-169.1,508.1-179.1,506.7-180.1,506.6z"/>
<path class="st22" d="M-151.1,508.8c0.1,0,0.8-0.1,0.8-0.1l0,0c0,0,0,0,0,0c0.2,0-0.1-10.2,0.7-22c0.3-4.5,0.5-5.3,0.8-10.8
	c0.3-5.5,0.5-8.3,0.4-10.8c0-1.3-0.7-19.1-7.1-19.9c-1.1-0.1-3.2,0.1-6.4,3.3c1.3,9.4,2.2,20.2,2.1,32.1c-0.1,10.6-0.8,20.3-2,29
	c0.1,0,0.1,0.1,0.2,0.1c0,0,0.1,0,0.2,0.1C-160.9,510-152,508.8-151.1,508.8z"/>
<g>
	<g>
		<path class="st3" d="M-164.4,336.9c-3.4,4.4-8.5,2.6-11.6-1.2c-1.2-1.5-3.3,0.6-2.1,2.1c4,5,11.5,6.8,15.8,1.2
			C-161.1,337.5-163.2,335.4-164.4,336.9L-164.4,336.9z"/>
	</g>
</g>
<path class="st3" d="M-188.5,464.8"/>
<path class="st16" d="M-178.9,506.4c-0.3,0-0.6-0.1-0.9-0.1"/>
<path class="st3" d="M-166.4,502.5"/>
<path class="st18" d="M-184.6,370.5L-184.6,370.5z"/>
<path class="st3" d="M-195,502"/>
<line class="st19" x1="-197.7" y1="429.5" x2="-197.7" y2="429.5"/>
<path class="st20" d="M111.9,428.6"/>
<path class="st20" d="M111.9,428.6"/>
<path class="st21" d="M-161.6,430c-2,0-3.9-0.1-5.9-0.1"/>
<path class="st21" d="M-161.6,429.9c0,0.1,0,0.1,0,0.2"/>
<path class="st21" d="M-167.5,429.9C-167.5,429.9-167.5,429.9-167.5,429.9"/>
<path class="st21" d="M-167.5,429.9C-167.5,429.9-167.5,429.9-167.5,429.9"/>
<path class="st16" d="M-181.4,509.5"/>
<path class="st16" d="M-153.6,508.9"/>
<ellipse transform="matrix(-0.9993 -3.710043e-002 3.710043e-002 -0.9993 -364.3842 639.43)" class="st4" cx="-176.3" cy="323.1" rx="4.8" ry="5.4"/>
<ellipse transform="matrix(-0.9993 -3.710043e-002 3.710043e-002 -0.9993 -326.3252 641.9767)" class="st4" cx="-157.2" cy="324" rx="4.8" ry="5.4"/>
<ellipse transform="matrix(-0.9993 -3.670096e-002 3.670096e-002 -0.9993 -361.9142 640.7701)" class="st3" cx="-175.1" cy="323.7" rx="1.2" ry="1.3"/>
<ellipse transform="matrix(-0.9993 -3.670096e-002 3.670096e-002 -0.9993 -328.3188 643.0062)" class="st3" cx="-158.3" cy="324.5" rx="1.2" ry="1.3"/>
<path class="st12" d="M205.8,421.9c-0.1,0-0.1,0.1-0.2,0.1c0.1-1.5,0.2-3.6,0.2-6.1c0-5.5-0.5-22.3-11-42.4
	c-3-5.7-11.7-22.5-17.7-20.2c-1.7,0.7-2.8,2.8-3.4,4.5c2.6,6.2,6.6,15.7,11.8,27.5c1.8,4,2.3,5.3,3.1,7.2c2.9,7.2,6.5,17.8,8.8,32.3
	c0.1,0.1,0.3,0.1,0.4,0.1C200.6,425.5,204.3,423,205.8,421.9z"/>
<path class="st12" d="M146.7,424.9"/>
<path class="st13" d="M206.3,421.5c-0.1,0-0.1,0.1-0.2,0.1c0.1-1.5,0.2-3.6,0.1-6.2c0-5.6-0.7-22.5-11.3-42.9
	c-3-5.8-11.8-22.8-17.7-20.6c-1.7,0.6-2.7,2.8-3.3,4.5c2.7,6.3,6.8,15.9,12,27.9c1.8,4.1,2.4,5.4,3.2,7.3c3,7.3,6.7,18,9.1,32.6
	c0.1,0.1,0.3,0.1,0.4,0.1C201.3,425.2,204.9,422.6,206.3,421.5z"/>
<g>
	<g>
		<path class="st3" d="M-179.6,286.9c-1.8-1.6-3.6-2.9-5.6-4c-0.4,0.9-0.8,1.9-1.2,2.8c2.5,0.9,5,1.8,7.5,2.7c0.9,0.3,2-0.5,1.9-1.5
			c-0.2-2.6-0.6-5.1-1-7.7c-0.8,0.5-1.7,1-2.5,1.5c1.8,1.7,3.3,3.5,4.8,5.6c0.6,0.9,2,1,2.6,0c1.6-2.7,3.3-5.1,5.3-7.4
			c-0.8-0.1-1.6-0.2-2.4-0.3c0.3,1,0.5,1.9,0.8,2.9c0,1.1,1.3,1.9,2.3,1.3c1.8-1.1,3.5-2.3,5.1-3.6c-0.7-0.7-1.4-1.4-2.1-2.1
			c-0.9,1.2-1.5,2.2-1.9,3.6c-0.2,0.9,0.4,2.1,1.4,1.9c0.9-0.1,1.8-0.2,2.7-0.4c-0.5-0.6-1-1.3-1.4-1.9c-0.3,0.5-0.6,1-0.9,1.5
			c-0.9,0.9-0.3,2.6,1.1,2.6c2.5,0,5-0.3,7.4-0.7c-0.5-0.9-1-1.7-1.5-2.5c-0.8,0.6-1.5,1.3-2.3,1.9c-1.2,1,0.1,3,1.5,2.5
			c3.2-1,6.3-2.2,9.4-3.5c-0.6-0.7-1.1-1.5-1.7-2.2c-1,1.5-2.3,2.7-3.9,3.5c-1.2,0.7-0.8,2.9,0.8,2.8c2.2-0.1,4.4-0.2,6.6-0.3
			c-0.4-0.8-0.9-1.5-1.3-2.3c-0.9,0.9-1.7,1.7-2.6,2.6c-1.1,0.7-0.9,2.4,0.4,2.8c1.4,0.4,1.4,0.4,2.7,0.3c-0.4-0.8-0.9-1.5-1.3-2.3
			c-1,0.5-2,1.1-2.9,1.6c-0.1-1.1-0.9-1.6-1.9-1.5c-0.5,0.1-0.9,0.1-1.4,0.2c0.6,0.4,1.2,0.7,1.9,1.1c-0.4-1.2-0.7-2.5-0.8-3.8
			c-0.1-1.2-1.6-2.2-2.6-1.1c-0.3,0.3-0.6,0.7-0.9,1c0.6-0.1,1.2-0.2,1.8-0.2c-2.9-1.8-5.7-1.8-8.7-0.3c0.7,0.2,1.4,0.4,2.1,0.5
			c-2.7-4-9-1.4-12.5,0c0.4,0.9,0.8,1.8,1.2,2.8c0.9-0.5,1.8-0.9,2.7-1.4c-0.4-0.9-0.8-1.9-1.2-2.8c-1.8,0.8-3.4,1.8-5,3
			c-1.3,1-0.6,3.1,1.2,2.8c0.1,0,0.1,0,0.2,0c0.6-0.1,1.1-0.8,1.1-1.5c0-0.1,0-0.2,0-0.2c0-0.8-0.7-1.6-1.5-1.5
			c-1.6,0.1-2.6,1.1-3.8,2.1c-1.4,1.3,0.7,3.4,2.1,2.1c0.6-0.4,1.1-0.8,1.6-1.2c-0.5-0.5-1-1-1.5-1.5c0,0.1,0,0.2,0,0.2
			c0.4-0.5,0.7-1,1.1-1.5c-0.1,0-0.1,0-0.2,0c0.4,0.9,0.8,1.9,1.2,2.8c1.6-1.2,3.2-2.2,5-3c1.5-0.7,0.4-3.4-1.2-2.8
			c-1.8,0.7-1.8,0.7-3.4,1.7c-1.4,0.9-0.5,3.4,1.2,2.8c1.4-0.5,7.8-3.2,9.1-1.4c0.5,0.7,1.3,0.9,2.1,0.5c2-1.1,3.9-1,5.6,0.3
			c0.5,0.3,1.4,0.3,1.8-0.2c0.3-0.3,0.6-0.7,0.9-1c-0.9-0.4-1.7-0.7-2.6-1.1c0.1,1.6,0.4,3,0.9,4.6c0.3,0.9,1,1.2,1.9,1.1
			c0.5-0.1,0.9-0.1,1.4-0.2c-0.6-0.5-1.3-1-1.9-1.5c0.6,6,6.4,3.2,8.5-0.1c0.6-0.9-0.2-2.4-1.3-2.3c-0.6,0-1.3-0.1-1.9-0.1
			c0.1,0.9,0.2,1.9,0.4,2.8c1.6-1,2.6-2.1,3.6-3.7c0.6-0.9-0.2-2.3-1.3-2.3c-2.2,0.1-4.4,0.2-6.6,0.3c0.3,0.9,0.5,1.9,0.8,2.8
			c2.1-1.2,3.6-2.7,5-4.6c0.7-1-0.5-2.7-1.7-2.2c-3.1,1.3-6.2,2.5-9.4,3.5c0.5,0.8,1,1.7,1.5,2.5c0.8-0.6,1.5-1.3,2.3-1.9
			c1.3-1.1-0.1-2.8-1.5-2.5c-2.3,0.4-4.4,0.6-6.6,0.6c0.4,0.9,0.7,1.7,1.1,2.6c1-1.1,1.2-1.4,1.7-2.8c0.3-0.8-0.5-2-1.4-1.9
			c-0.9,0.1-1.8,0.2-2.7,0.4c0.5,0.6,1,1.3,1.4,1.9c0.4-0.8,0.7-1.5,1.1-2.3c1.2-1.5-0.6-3.4-2.1-2.1c-1.5,1.2-2.9,2.1-4.5,3.1
			c0.8,0.4,1.5,0.9,2.3,1.3c0-1.7-0.4-2.9-1.2-4.4c-0.5-0.8-1.7-1-2.4-0.3c-2.2,2.5-4.1,5.1-5.8,8c0.9,0,1.7,0,2.6,0
			c-1.6-2.2-3.3-4.3-5.3-6.2c-1.1-1.1-2.7,0-2.5,1.5c0.4,2.3,0.7,4.5,0.9,6.8c0.6-0.5,1.3-1,1.9-1.5c-2.5-0.9-5-1.8-7.5-2.7
			c-1.6-0.6-2.6,1.9-1.2,2.8c1.9,1,3.4,2.1,5,3.6C-180.3,290.4-178.1,288.2-179.6,286.9L-179.6,286.9z"/>
	</g>
</g>
<g>
	<g>
		<path class="st3" d="M-170,283.8c1.9,0,1.9-3,0-3S-171.9,283.8-170,283.8L-170,283.8z"/>
	</g>
</g>
<g>
	<g>
		<path class="st3" d="M-169.3,283.7c1.9,0,1.9-3,0-3S-171.2,283.7-169.3,283.7L-169.3,283.7z"/>
	</g>
</g>
<g>
	<g>
		<path class="st3" d="M-176.2,286.4c1.9,0,1.9-3,0-3S-178.1,286.4-176.2,286.4L-176.2,286.4z"/>
	</g>
</g>
<g>
	<g>
		<path class="st3" d="M-178,286.5c1.9,0,1.9-3,0-3S-179.9,286.5-178,286.5L-178,286.5z"/>
	</g>
</g>
<g>
	<g>
		<path class="st3" d="M-178.8,289.6c1.9,0,1.9-3,0-3S-180.8,289.6-178.8,289.6L-178.8,289.6z"/>
	</g>
</g>
<g>
	<g>
		<path class="st3" d="M-152.4,288.6c1.9,0,1.9-3,0-3S-154.3,288.6-152.4,288.6L-152.4,288.6z"/>
	</g>
</g>
<g>
	<g>
		<path class="st3" d="M-152.4,285.5c-9.8-2.1-19.8-2.4-28.6,3c-1.6,1-0.1,3.6,1.5,2.6c8.1-5,17.3-4.7,26.3-2.7
			C-151.3,288.8-150.5,285.9-152.4,285.5L-152.4,285.5z"/>
	</g>
</g>
<g>
	<g>
		<path class="st3" d="M-181.9,292.2c9.8,4.1,19.9,1.9,29.7-0.9c1.9-0.5,1.6-3-0.5-3c-9.3,0.2-20.1,1.8-29.2,0.1
			c-2.2-0.4-3.1,2.5-0.9,2.9c9.5,1.8,20.5,0.2,30.1,0c-0.2-1-0.3-2-0.5-3c-8.8,2.4-18.2,4.8-27,1.1
			C-182.2,288.7-184,291.3-181.9,292.2L-181.9,292.2z"/>
	</g>
</g>
<g>
	<g>
		<path class="st3" d="M-164.5,281.5c-0.4-0.3-0.9-0.4-1.4-0.5c-0.8-0.1-1.5,0.8-1.5,1.5c0,0.9,0.7,1.4,1.5,1.5
			c-0.1,0-0.3-0.1-0.1,0.1c0.7,0.5,1.7,0.1,2.1-0.6C-163.5,282.9-163.8,282-164.5,281.5L-164.5,281.5z"/>
	</g>
</g>
<g>
	<g>
		<path class="st3" d="M-155.3,292.4c1.3,0,2.5-0.2,3.6-0.6c1.2-0.4,1.6-1.4,0.9-2.1c-0.7-0.7-2.2-0.9-3.4-0.5
			c-0.3,0.1-0.3,0.1-0.1,0c-0.1,0-0.3,0-0.4,0.1c-0.2,0-0.2,0,0,0c-0.2,0-0.4,0-0.6,0c-1.3,0-2.6,0.7-2.5,1.5
			C-157.7,291.7-156.7,292.4-155.3,292.4L-155.3,292.4z"/>
	</g>
</g>
<g>
	<g>
		<path class="st3" d="M-182.2,290.3c1,0.5,2.1,1,3.1,1.5c0.4-0.9,0.8-1.9,1.2-2.8c-1.4-0.5-2.5-1.2-3.9-1.5c-1.4-0.2-2.7-0.1-4,0.2
			c-1.9,0.5-1.1,3.4,0.8,2.9c1.1-0.3,2.3-0.3,3.4,0c1.1,0.3,2,0.9,3,1.3c1.6,0.5,2.7-2,1.2-2.8c-1-0.5-2.1-1-3.1-1.5
			C-182.4,286.8-183.9,289.4-182.2,290.3L-182.2,290.3z"/>
	</g>
</g>
<g>
	<g>
		<path class="st3" d="M-179.7,289.8c-0.6-0.3-1.3-0.4-1.9-0.3c-0.4,0-1,0.2-1.3,0.1c-0.8-0.1-1.6,0.5-1.7,1.4
			c-0.1,0.8,0.5,1.6,1.3,1.7c0.5,0.1,1,0,1.6-0.1c0.4-0.1,0.5-0.1,0.9,0.1c0.7,0.4,1.7-0.2,1.9-0.9
			C-178.5,290.9-179,290.1-179.7,289.8L-179.7,289.8z"/>
	</g>
</g>
<g>
	<g>
		<path class="st3" d="M-177.9,289.3c-0.7,0.3-1.2,0.8-1.6,1.5c-0.8,1.2,0.5,2.5,1.7,2.2c2.9-0.6,5.9-1.3,8.9-1.2c1.9,0,1.9-3,0-3
			c-3.3,0-6.4,0.7-9.7,1.4c0.6,0.7,1.1,1.5,1.7,2.2c0.2-0.1,0.3-0.2,0.5-0.4C-174.6,291.1-176.1,288.5-177.9,289.3L-177.9,289.3z"/>
	</g>
</g>
<g>
	<g>
		<path class="st3" d="M-155.1,285.8c0.2,0.4,0.5,0.7,0.8,0.9c0.2,0.1,0.5,0.2,0.7,0.4c-0.2-0.2,0,0.1,0,0.2
			c0.1,0.5,0.3,0.9,0.4,1.4c0.5,1.9,3.4,1.1,2.9-0.8c-0.2-0.8-0.4-1.8-0.9-2.5c-0.2-0.4-0.5-0.6-0.9-0.9c-0.1-0.1-0.3-0.2-0.4-0.2
			c-0.2-0.1-0.1-0.1,0,0C-153.5,282.6-156.1,284.1-155.1,285.8L-155.1,285.8z"/>
	</g>
</g>
<g>
	<g>
		<path class="st3" d="M-152.8,285.6c0.1,0.8,0.1,1.6,0,2.4c0,0.8,0.7,1.6,1.5,1.5c0.9,0,1.5-0.7,1.5-1.5c0-0.8,0-1.6,0-2.4
			c-0.1-0.8-0.6-1.6-1.5-1.5C-152.1,284.2-152.9,284.8-152.8,285.6L-152.8,285.6z"/>
	</g>
</g>
<g>
	<g>
		<path class="st3" d="M-154.9,285.5c-2.5-0.1-5.1-0.1-7.6-0.1c-1.9,0-1.9,3.1,0,3c2.5,0,5.1,0,7.6,0.1
			C-153,288.6-153,285.5-154.9,285.5L-154.9,285.5z"/>
	</g>
</g>
<g>
	<g>
		<path class="st3" d="M-160.1,283.6c-4.1,0-8.3,0-12.4,0c-7.6,0-7.6,6.8,0,6.8c4.1,0,8.3,0,12.4,0
			C-152.5,290.4-152.4,283.6-160.1,283.6L-160.1,283.6z"/>
	</g>
</g>
<rect x="-177.8" y="358.1" class="st23" width="2.5" height="16"/>
<rect x="-160.3" y="358.1" class="st23" width="2.5" height="16"/>
<ellipse class="st23" cx="-176.6" cy="375" rx="1.9" ry="2"/>
<ellipse class="st23" cx="-159" cy="373.7" rx="1.9" ry="2"/>
<path class="st24" d="M-190.1,358.5"/>
<path class="st5" d="M54.8,506.3L54.8,506.3c-8.2,0-14.9-6.7-14.9-14.9V488c0-8.2,6.7-14.9,14.9-14.9l0,0c8.2,0,14.9,6.7,14.9,14.9
	v3.4C69.7,499.6,63.1,506.3,54.8,506.3z"/>
<path class="st25" d="M83.2,484.4H25.7c-5.2,0-9.5-4.2-9.5-9.5v-20.5c0-5.2,4.2-9.4,9.5-9.4h57.5c5.2,0,9.5,4.2,9.5,9.4v20.5
	C92.7,480.1,88.4,484.4,83.2,484.4z"/>
<path class="st25" d="M65.5,488.9h-22c-0.2,0-0.4-0.2-0.4-0.4v-0.6c0-0.2,0.2-0.4,0.4-0.4h22c0.2,0,0.4,0.2,0.4,0.4v0.6
	C65.9,488.7,65.7,488.9,65.5,488.9z"/>
<path class="st25" d="M65.5,492.7h-22c-0.2,0-0.4-0.2-0.4-0.4v-0.6c0-0.2,0.2-0.4,0.4-0.4h22c0.2,0,0.4,0.2,0.4,0.4v0.6
	C65.9,492.5,65.7,492.7,65.5,492.7z"/>
<path class="st25" d="M65.5,496.5h-22c-0.2,0-0.4-0.2-0.4-0.4v-0.6c0-0.2,0.2-0.4,0.4-0.4h22c0.2,0,0.4,0.2,0.4,0.4v0.6
	C65.9,496.3,65.7,496.5,65.5,496.5z"/>
<rect x="16.2" y="445" class="st25" width="76.4" height="7.1"/>
<ellipse class="st25" cx="54.5" cy="417.3" rx="29.8" ry="24.9"/>
<rect x="24.6" y="416.5" class="st25" width="59.6" height="25.6"/>
<path class="st25" d="M92.7,445H16.2c12.7-4.2,25.5-8.4,38.2-12.6l0,0l0,0l0,0C67.2,436.5,79.9,440.8,92.7,445z"/>
<ellipse class="st13" cx="54.8" cy="425.5" rx="8.8" ry="8.3"/>
<ellipse cx="54.8" cy="425.5" rx="7.3" ry="6.8"/>
<ellipse class="st26" cx="54.8" cy="425.5" rx="5" ry="4.5"/>
<ellipse cx="54.8" cy="425.5" rx="3.4" ry="3"/>
<ellipse class="st13" cx="55.2" cy="424.8" rx="0.8" ry="0.8"/>
<ellipse class="st13" cx="54.8" cy="425.9" rx="0.4" ry="0.4"/>
<circle class="st13" cx="54.5" cy="425.6" r="0"/>
<rect x="24.6" y="441.8" class="st5" width="59.6" height="0.4"/>
<path class="st27" d="M81.1,468.5H26.3c-1.3,0-2.4-1.1-2.4-2.4v-7.3c0-1.3,1.1-2.4,2.4-2.4h54.8c1.3,0,2.4,1.1,2.4,2.4v7.3
	C83.5,467.5,82.4,468.5,81.1,468.5z"/>
<ellipse class="st28" cx="62.3" cy="462.7" rx="2.4" ry="2.2"/>
<ellipse class="st29" cx="70" cy="462.7" rx="2.4" ry="2.2"/>
<ellipse class="st30" cx="77.6" cy="462.7" rx="2.4" ry="2.2"/>
<path class="st31" d="M53.2,464.2H28.8c-0.7,0-1.3-0.6-1.3-1.3l0,0c0-0.7,0.6-1.3,1.3-1.3h24.4c0.7,0,1.3,0.6,1.3,1.3l0,0
	C54.5,463.6,53.9,464.2,53.2,464.2z"/>
<path class="st2" d="M-305,378.3"/>
<path class="st8" d="M-238.2,443.2c-22.9-0.5-45.8-1-68.7-1.6c0,0,0,0.1,0,0.1c0,0.3-0.1,0.6-0.1,0.9c0,0.3-0.1,0.6-0.1,0.8
	c49.5,1.4,68.9,1.7,69,1.2c0,0,0-0.2,0-0.6C-238.2,443.7-238.2,443.5-238.2,443.2z"/>
<path class="st21" d="M-278.9,444.2c0.1-0.4,0.2-0.9,0.4-1.4c0-0.2,0.1-0.3,0.1-0.5c3.7,0.1,7.4,0.2,11.1,0.3c0,0.6-0.1,1.3-0.1,1.9
	C-271.3,444.4-275.1,444.3-278.9,444.2z"/>
</svg>
