<?xml version="1.0" encoding="utf-8"?>
<!-- Generator: Adobe Illustrator 23.0.1, SVG Export Plug-In . SVG Version: 6.00 Build 0)  -->
<svg version="1.1" id="Layer_1" xmlns="http://www.w3.org/2000/svg" xmlns:xlink="http://www.w3.org/1999/xlink" x="0px" y="0px"
	 viewBox="0 0 583 250" style="enable-background:new 0 0 583 250;" xml:space="preserve">
<style type="text/css">
	.st0{fill:#D8D8D8;}
	.st1{fill:#F4CC25;}
	.st2{fill:#2D2C2C;}
	.st3{fill:#595959;}
	.st4{fill:#EDEDED;}
	.st5{fill:#E9635E;}
	.st6{fill:#DDDDDD;}
	.st7{fill:none;stroke:#EDEDED;stroke-width:6.9;stroke-miterlimit:10;}
	.st8{font-family:'ArialMT';}
	.st9{font-size:8.0814px;}
	.st10{font-size:17.3056px;}
	.st11{fill:none;stroke:#D8D8D8;stroke-miterlimit:10;}
	.st12{fill:none;stroke:#2D2C2C;stroke-width:3;stroke-miterlimit:10;}
	.st13{fill:#2E9B10;}
</style>
<path class="st0" d="M461.9,225.6C336,259.6,61,248.4,58.4,211c-0.2-2.6,0.9-6.3,6.4-10.8c3.5-2.1,9.8-5.4,18.2-8.1
	c11-3.6,20.2-4.5,24.3-4.9c39.7-3.8,136.8-8,147.6-8.5c15.2-0.7,31.1-1.5,54.6-1.8c14.5-0.2,19.3,0.1,34.4-0.1
	c28.7-0.3,34.8-1.4,54.6-1.8c37.6-0.8,70.8,2,102.5,12.3c13.7,4.5,17.6,7.4,18.3,10.6C521.6,209.5,478,221.3,461.9,225.6z"/>
<ellipse class="st1" cx="172.4" cy="79.3" rx="10.9" ry="10.6"/>
<rect x="113.9" y="187" class="st2" width="73.8" height="2.5"/>
<path class="st3" d="M187.7,187h-36.9l0,0h-36.9c-0.8-4,37-16.3,37-16.3l0,0C150.9,170.7,188.5,183,187.7,187z"/>
<rect x="148.5" y="160.2" class="st3" width="4.5" height="11.7"/>
<polygon class="st3" points="112.3,90.5 108.5,93 149.3,155.4 153.1,153 "/>
<polygon class="st3" points="151.5,63.6 149.1,59.9 106,87.8 108.5,91.6 "/>
<ellipse class="st3" cx="150.8" cy="154.7" rx="6.7" ry="6.8"/>
<ellipse class="st3" cx="108.8" cy="89.3" rx="6.7" ry="6.8"/>
<ellipse class="st0" cx="108.8" cy="89.3" rx="2.9" ry="3"/>
<ellipse class="st0" cx="150.8" cy="154.7" rx="2.9" ry="3"/>
<ellipse class="st3" cx="151.5" cy="57.3" rx="5.8" ry="5.7"/>
<path class="st3" d="M196.1,65.7c-9.7-12.4-27.9-14.8-40.6-5.3c-12.7,9.4-15.2,27.1-5.5,39.5L196.1,65.7
	C196.1,65.7,196.1,65.7,196.1,65.7z"/>
<polygon class="st3" points="155.5,71.6 146.8,60.6 156.1,53.6 164.8,64.6 "/>
<path class="st2" d="M401.7,128.5H229.3c-2.9,0-5.2-2.3-5.2-5.2V9.8c0-2.8,2.3-5.2,5.2-5.2h172.4c2.9,0,5.2,2.3,5.2,5.2v113.5
	C406.9,126.2,404.5,128.5,401.7,128.5z"/>
<path class="st4" d="M403.1,142.5H227.9c-2.1,0-3.7-1.7-3.7-3.7V122c0-2.1,1.7-3.7,3.7-3.7h175.3c2,0,3.7,1.7,3.7,3.7v16.8
	C406.9,140.9,405.2,142.5,403.1,142.5z"/>
<rect x="224.2" y="114.4" class="st4" width="182.7" height="24.3"/>
<rect x="232.4" y="12.3" class="st5" width="166.3" height="94.5"/>
<path class="st4" d="M346,196.1h-59.7c3.9-17.9,7.8-35.8,11.7-53.6l0,0c-0.5,0-0.5,0-0.5,0s15.8,0,34.4,0h0
	C336.6,160.4,341.3,178.3,346,196.1z"/>
<g>
	<path class="st6" d="M333.1,147.6c-12.1,0-24.2,0-36.3,0c0.4-1.7,0.8-3.4,1.2-5.1c9.4,0,18.7,0,28.1,0c2,0,3.9,0,5.9,0
		C332.3,144.2,332.7,145.9,333.1,147.6z"/>
</g>
<rect x="267.5" y="196.1" class="st4" width="96" height="2.6"/>
<path class="st4" d="M223.3,107.1l-70.9,89c-1.2,1.5-3.2,1.6-4.6,0.4l-1.1-1c-1.4-1.3-1.5-3.5-0.3-4.9l70.9-89
	c1.2-1.5,3.2-1.6,4.6-0.4l1.1,1C224.3,103.4,224.5,105.7,223.3,107.1z"/>
<ellipse class="st7" cx="314.8" cy="49.4" rx="16.1" ry="17.5"/>
<path class="st4" d="M333.3,55.1c2.2,0.6-16.8,34.5-18.5,34.5S294,55.7,296.2,55.1c1.8-0.5,7,8.7,17.7,9.2c0.6,0,1.2,0,1.8,0
	C326.3,63.7,331.5,54.5,333.3,55.1z"/>
<text transform="matrix(0.8924 0 0 1 306.8643 51.5415)" class="st4 st8 st9">{      }</text>
<text transform="matrix(0.8247 0 0 1 309.4658 49.8228)" class="st4 st8 st10">...</text>
<path class="st0" d="M207.6,116.3l-1.4,1.7c-0.4,0.5-1.2,0.6-1.7,0.1l0,0c-0.5-0.5-0.5-1.3-0.1-1.8l1.4-1.7c0.4-0.5,1.2-0.6,1.7-0.1
	l0,0C208,115,208,115.8,207.6,116.3z"/>
<path class="st0" d="M203.6,121.2l-2.4,2.9c-0.4,0.5-1.2,0.6-1.7,0.1l0,0c-0.5-0.5-0.5-1.3-0.1-1.8l2.4-2.9c0.4-0.5,1.2-0.6,1.7-0.1
	l0,0C204,119.8,204.1,120.7,203.6,121.2z"/>
<path class="st0" d="M198.7,127.3l-0.4,0.5c-0.4,0.5-1.2,0.6-1.7,0.1l0,0c-0.5-0.5-0.5-1.3-0.1-1.8l0.4-0.5c0.4-0.5,1.2-0.6,1.7-0.1
	l0,0C199.1,125.9,199.2,126.8,198.7,127.3z"/>
<path class="st0" d="M177.1,154.1l-1.4,1.7c-0.4,0.5-1.2,0.6-1.7,0.1l0,0c-0.5-0.5-0.5-1.3-0.1-1.8l1.4-1.7c0.4-0.5,1.2-0.6,1.7-0.1
	l0,0C177.5,152.8,177.6,153.6,177.1,154.1z"/>
<path class="st0" d="M173.2,159l-2.4,2.9c-0.4,0.5-1.2,0.6-1.7,0.1l0,0c-0.5-0.5-0.5-1.3-0.1-1.8l2.4-2.9c0.4-0.5,1.2-0.6,1.7-0.1
	l0,0C173.6,157.7,173.6,158.5,173.2,159z"/>
<path class="st0" d="M168.3,165.1l-0.4,0.5c-0.4,0.5-1.2,0.6-1.7,0.1l0,0c-0.5-0.5-0.5-1.3-0.1-1.8l0.4-0.5c0.4-0.5,1.2-0.6,1.7-0.1
	l0,0C168.7,163.8,168.7,164.6,168.3,165.1z"/>
<path class="st0" d="M195.8,130.9l-6.3,7.8c-0.4,0.5-1.2,0.6-1.7,0.1l0,0c-0.5-0.5-0.5-1.3-0.1-1.8l6.3-7.8c0.4-0.5,1.2-0.6,1.7-0.1
	l0,0C196.2,129.6,196.2,130.4,195.8,130.9z"/>
<path class="st0" d="M165.3,168.8l-2.4,2.9c-0.4,0.5-1.2,0.6-1.7,0.1l0,0c-0.5-0.5-0.5-1.3-0.1-1.8l2.4-2.9c0.4-0.5,1.2-0.6,1.7-0.1
	l0,0C165.7,167.4,165.8,168.3,165.3,168.8z"/>
<path class="st0" d="M160.4,174.9l-0.4,0.5c-0.4,0.5-1.2,0.6-1.7,0.1l0,0c-0.5-0.5-0.5-1.3-0.1-1.8l0.4-0.5c0.4-0.5,1.2-0.6,1.7-0.1
	l0,0C160.8,173.6,160.9,174.4,160.4,174.9z"/>
<path class="st0" d="M157.5,178.6l-6.3,7.8c-0.4,0.5-1.2,0.6-1.7,0.1l0,0c-0.5-0.5-0.5-1.3-0.1-1.8l6.3-7.8c0.4-0.5,1.2-0.6,1.7-0.1
	l0,0C157.9,177.2,157.9,178,157.5,178.6z"/>
<path class="st0" d="M186.9,141.9l-3.4,4.2c-0.4,0.5-1.2,0.6-1.7,0.1l0,0c-0.5-0.5-0.5-1.3-0.1-1.8l3.4-4.2c0.4-0.5,1.2-0.6,1.7-0.1
	l0,0C187.3,140.6,187.4,141.4,186.9,141.9z"/>
<path class="st0" d="M181.1,149.3l-1.4,1.7c-0.4,0.5-1.2,0.6-1.7,0.1l0,0c-0.5-0.5-0.5-1.3-0.1-1.8l1.4-1.7c0.4-0.5,1.2-0.6,1.7-0.1
	l0,0C181.4,147.9,181.5,148.7,181.1,149.3z"/>
<g>
	<g>
		<path d="M261.8,144.6c-0.9,11-1.8,23.7-9.8,32.1c-3.6,3.8-8.8,6.2-13.4,8.6c-5.4,2.8-11,5.2-16.8,7.3c-8.9,3.2-16.2,6.1-22.8,13.3
			c-3.3,3.6-4.7,11.2,1.9,11.8c1.9,0.2,1.9-2.8,0-3c-1.6-3.1-1.4-5.5,0.7-7.2c0.8-0.7,1.5-1.4,2.3-2.1c2-1.8,4-3.6,6.3-5
			c4.1-2.4,8.8-3.6,13.3-5.2c7.9-2.9,15.6-6.5,23-10.6c14.8-8.4,17.1-24.2,18.4-39.9C264.9,142.7,261.9,142.7,261.8,144.6
			L261.8,144.6z"/>
	</g>
</g>
<rect x="260.4" y="142.1" width="6" height="2.4"/>
<g>
	<g>
		<path d="M200.5,217.7c6.4,0.7,12.9,1.2,19-1.4c6.2-2.6,12-5.9,18.5-7.9c7.1-2.2,16.3-5.1,22.7,0.2c4.5,3.7,8.1,6.7,14.1,7.7
			c1.9,0.3,2.7-2.6,0.8-2.9c-3.9-0.7-7.4-2.1-10.4-4.8c-2.2-1.8-3.8-3.8-6.5-4.9c-5.1-2.1-11-0.9-16.2,0.3
			c-6.5,1.6-12.8,3.9-18.8,6.9c-3.7,1.8-7,3.6-11.2,4.1c-4,0.5-7.9,0.1-11.9-0.4C198.6,214.5,198.6,217.5,200.5,217.7L200.5,217.7z"
			/>
	</g>
</g>
<ellipse transform="matrix(0.4249 -0.9053 0.9053 0.4249 -35.461 394.903)" class="st4" cx="293.1" cy="225.4" rx="12.8" ry="22"/>
<line class="st11" x1="275.1" y1="214.9" x2="287" y2="219.7"/>
<ellipse class="st12" cx="111" cy="215.7" rx="9.3" ry="11.7"/>
<ellipse class="st12" cx="143.9" cy="217.1" rx="10.6" ry="13.1"/>
<g>
	<g>
		<path class="st2" d="M102.8,217.7c5.1-3,10.2-6.1,15.3-9.1c2.4-1.4,4.8-2.9,7.3-4.3c0.8-0.5,2.1-1.5,3-1.7c4.3-0.7,3.7,2,3.5,4.5
			c-0.1,1.9,2.9,1.9,3,0c0.4-5.1-1.6-9.7-7.2-7.4c-4.4,1.8-8.6,4.8-12.7,7.3c-4.6,2.7-9.1,5.4-13.7,8.1
			C99.7,216.1,101.2,218.7,102.8,217.7L102.8,217.7z"/>
	</g>
</g>
<g>
	<g>
		<path class="st2" d="M155.4,216.7c5.1-3,10.2-6.1,15.3-9.1c2.4-1.4,4.8-2.9,7.3-4.3c0.8-0.5,2.1-1.5,3-1.7c4.3-0.7,3.7,2,3.5,4.5
			c-0.1,1.9,2.9,1.9,3,0c0.4-5.1-1.6-9.7-7.2-7.4c-4.4,1.8-8.6,4.8-12.7,7.3c-4.6,2.7-9.1,5.4-13.7,8.1
			C152.2,215.1,153.7,217.7,155.4,216.7L155.4,216.7z"/>
	</g>
</g>
<g>
	<g>
		<path class="st2" d="M120.5,217.6c4.1,0,8.3,0,12.4,0c1.9,0,1.9-3,0-3c-4.1,0-8.3,0-12.4,0C118.6,214.6,118.6,217.6,120.5,217.6
			L120.5,217.6z"/>
	</g>
</g>
<rect x="385.4" y="195.6" class="st4" width="111.6" height="18.1"/>
<path class="st13" d="M501.3,217.4H381c-0.5,0-0.9-0.4-0.9-0.9v-4.8c0-0.5,0.4-0.9,0.9-0.9h120.4c0.5,0,0.9,0.4,0.9,0.9v4.8
	C502.2,217,501.8,217.4,501.3,217.4z"/>
<path class="st13" d="M501.3,197.5H381c-0.5,0-0.9-0.4-0.9-0.9v-4.8c0-0.5,0.4-0.9,0.9-0.9h120.4c0.5,0,0.9,0.4,0.9,0.9v4.8
	C502.2,197.1,501.8,197.5,501.3,197.5z"/>
<path class="st13" d="M385.4,192.9v23.5c0,0.5-0.4,0.9-0.9,0.9H381c-0.5,0-0.9-0.4-0.9-0.9v-23.5c0-0.5,0.4-0.9,0.9-0.9h3.5
	C385,192,385.4,192.4,385.4,192.9z"/>
<rect x="380" y="176.3" class="st4" width="98.5" height="12.6"/>
<path class="st1" d="M482.3,191.4H376.2c-0.5,0-0.9-0.4-0.9-0.9v-2.8c0-0.5,0.4-0.9,0.9-0.9h106.1c0.5,0,0.9,0.4,0.9,0.9v2.8
	C483.2,191,482.8,191.4,482.3,191.4z"/>
<path class="st1" d="M482.3,177.6H376.2c-0.5,0-0.9-0.4-0.9-0.9v-2.8c0-0.5,0.4-0.9,0.9-0.9h106.1c0.5,0,0.9,0.4,0.9,0.9v2.8
	C483.2,177.2,482.8,177.6,482.3,177.6z"/>
<path class="st1" d="M380,174.7v15.8c0,0.5-0.4,0.9-0.9,0.9h-2.9c-0.5,0-0.9-0.4-0.9-0.9v-15.8c0-0.5,0.4-0.9,0.9-0.9h2.9
	C379.6,173.8,380,174.2,380,174.7z"/>
<rect x="384.7" y="158.5" class="st4" width="98.5" height="12.6"/>
<path class="st5" d="M487,173.5H381c-0.5,0-0.9-0.4-0.9-0.9v-2.8c0-0.5,0.4-0.9,0.9-0.9H487c0.5,0,0.9,0.4,0.9,0.9v2.8
	C488,173.1,487.5,173.5,487,173.5z"/>
<path class="st5" d="M487,159.7H381c-0.5,0-0.9-0.4-0.9-0.9V156c0-0.5,0.4-0.9,0.9-0.9H487c0.5,0,0.9,0.4,0.9,0.9v2.8
	C488,159.3,487.5,159.7,487,159.7z"/>
</svg>
