<?xml version="1.0" encoding="utf-8"?>
<!-- Generator: Adobe Illustrator 19.0.0, SVG Export Plug-In . SVG Version: 6.00 Build 0)  -->
<svg version="1.1" id="Layer_1" xmlns="http://www.w3.org/2000/svg" xmlns:xlink="http://www.w3.org/1999/xlink" x="0px" y="0px"
	 viewBox="252 -85 583 250" style="enable-background:new 252 -85 583 250;" xml:space="preserve">
<style type="text/css">
	.st0{fill:#D8D8D8;}
	.st1{fill:#F4CC25;}
	.st2{fill:#2D2C2C;}
	.st3{fill:#595959;}
	.st4{fill:#EDEDED;}
	.st5{fill:#E9635E;}
	.st6{fill:#DDDDDD;}
	.st7{fill:none;stroke:#EDEDED;stroke-width:6.9;stroke-miterlimit:10;}
	.st8{font-family:'ArialMT';}
	.st9{font-size:8.0814px;}
	.st10{font-size:17.3056px;}
	.st11{fill:none;stroke:#D8D8D8;stroke-miterlimit:10;}
	.st12{fill:none;stroke:#2D2C2C;stroke-width:3;stroke-miterlimit:10;}
	.st13{fill:#2E9B10;}
</style>
<path class="st0" d="M713.9,140.6C588,174.6,313,163.4,310.4,126c-0.2-2.6,0.9-6.3,6.4-10.8c3.5-2.1,9.8-5.4,18.2-8.1
	c11-3.6,20.2-4.5,24.3-4.9c39.7-3.8,136.8-8,147.6-8.5c15.2-0.7,31.1-1.5,54.6-1.8c14.5-0.2,19.3,0.1,34.4-0.1
	c28.7-0.3,34.8-1.4,54.6-1.8c37.6-0.8,70.8,2,102.5,12.3c13.7,4.5,17.6,7.4,18.3,10.6C773.6,124.5,730,136.3,713.9,140.6z"/>
<ellipse class="st1" cx="424.4" cy="-5.7" rx="10.9" ry="10.6"/>
<rect x="365.9" y="102" class="st2" width="73.8" height="2.5"/>
<path class="st3" d="M439.7,102h-36.9l0,0h-36.9c-0.8-4,37-16.3,37-16.3l0,0C402.9,85.7,440.5,98,439.7,102z"/>
<rect x="400.5" y="75.2" class="st3" width="4.5" height="11.7"/>
<polygon class="st3" points="364.3,5.5 360.5,8 401.3,70.4 405.1,68 "/>
<polygon class="st3" points="403.5,-21.4 401.1,-25.1 358,2.8 360.5,6.6 "/>
<ellipse class="st3" cx="402.8" cy="69.7" rx="6.7" ry="6.8"/>
<ellipse class="st3" cx="360.8" cy="4.3" rx="6.7" ry="6.8"/>
<ellipse class="st0" cx="360.8" cy="4.3" rx="2.9" ry="3"/>
<ellipse class="st0" cx="402.8" cy="69.7" rx="2.9" ry="3"/>
<ellipse class="st3" cx="403.5" cy="-27.7" rx="5.8" ry="5.7"/>
<path class="st3" d="M448.1-19.3c-9.7-12.4-27.9-14.8-40.6-5.3c-12.7,9.4-15.2,27.1-5.5,39.5L448.1-19.3L448.1-19.3z"/>
<polygon class="st3" points="407.5,-13.4 398.8,-24.4 408.1,-31.4 416.8,-20.4 "/>
<path class="st2" d="M653.7,43.5H481.3c-2.9,0-5.2-2.3-5.2-5.2V-75.2c0-2.8,2.3-5.2,5.2-5.2h172.4c2.9,0,5.2,2.3,5.2,5.2V38.3
	C658.9,41.2,656.5,43.5,653.7,43.5z"/>
<path class="st4" d="M655.1,57.5H479.8c-2.1,0-3.7-1.7-3.7-3.7V37c0-2.1,1.7-3.7,3.7-3.7h175.4c2,0,3.7,1.7,3.7,3.7v16.8
	C658.9,55.9,657.2,57.5,655.1,57.5z"/>
<rect x="476.1" y="29.4" class="st4" width="182.8" height="24.3"/>
<rect x="484.4" y="-72.7" class="st5" width="166.3" height="94.5"/>
<path class="st4" d="M598,111.1h-59.7c3.9-17.9,7.8-35.8,11.7-53.6l0,0c-0.5,0-0.5,0-0.5,0s15.8,0,34.4,0l0,0
	C588.6,75.4,593.3,93.3,598,111.1z"/>
<g>
	<path class="st6" d="M585.1,62.6c-12.1,0-24.2,0-36.3,0c0.4-1.7,0.8-3.4,1.2-5.1c9.4,0,18.7,0,28.1,0c2,0,3.9,0,5.9,0
		C584.3,59.2,584.7,60.9,585.1,62.6z"/>
</g>
<rect x="519.5" y="111.1" class="st4" width="96" height="2.6"/>
<path class="st4" d="M475.3,22.1l-70.9,89c-1.2,1.5-3.2,1.6-4.6,0.4l-1.1-1c-1.4-1.3-1.5-3.5-0.3-4.9l70.9-89
	c1.2-1.5,3.2-1.6,4.6-0.4l1.1,1C476.3,18.4,476.5,20.7,475.3,22.1z"/>
<ellipse class="st7" cx="566.8" cy="-35.6" rx="16.1" ry="17.5"/>
<path class="st4" d="M585.3-29.9c2.2,0.6-16.8,34.5-18.5,34.5S546-29.3,548.2-29.9c1.8-0.5,7,8.7,17.7,9.2c0.6,0,1.2,0,1.8,0
	C578.3-21.3,583.5-30.5,585.3-29.9z"/>
<text transform="matrix(0.8924 0 0 1 558.8643 -33.459)" class="st4 st8 st9">{      }</text>
<text transform="matrix(0.8247 0 0 1 561.4659 -35.1768)" class="st4 st8 st10">...</text>
<path class="st0" d="M459.6,31.3l-1.4,1.7c-0.4,0.5-1.2,0.6-1.7,0.1l0,0c-0.5-0.5-0.5-1.3-0.1-1.8l1.4-1.7c0.4-0.5,1.2-0.6,1.7-0.1
	l0,0C460,30,460,30.8,459.6,31.3z"/>
<path class="st0" d="M455.6,36.2l-2.4,2.9c-0.4,0.5-1.2,0.6-1.7,0.1l0,0c-0.5-0.5-0.5-1.3-0.1-1.8l2.4-2.9c0.4-0.5,1.2-0.6,1.7-0.1
	l0,0C456,34.8,456.1,35.7,455.6,36.2z"/>
<path class="st0" d="M450.7,42.3l-0.4,0.5c-0.4,0.5-1.2,0.6-1.7,0.1l0,0c-0.5-0.5-0.5-1.3-0.1-1.8l0.4-0.5c0.4-0.5,1.2-0.6,1.7-0.1
	l0,0C451.1,40.9,451.2,41.8,450.7,42.3z"/>
<path class="st0" d="M429.1,69.1l-1.4,1.7c-0.4,0.5-1.2,0.6-1.7,0.1l0,0c-0.5-0.5-0.5-1.3-0.1-1.8l1.4-1.7c0.4-0.5,1.2-0.6,1.7-0.1
	l0,0C429.5,67.8,429.6,68.6,429.1,69.1z"/>
<path class="st0" d="M425.2,74l-2.4,2.9c-0.4,0.5-1.2,0.6-1.7,0.1l0,0c-0.5-0.5-0.5-1.3-0.1-1.8l2.4-2.9c0.4-0.5,1.2-0.6,1.7-0.1
	l0,0C425.6,72.7,425.6,73.5,425.2,74z"/>
<path class="st0" d="M420.3,80.1l-0.4,0.5c-0.4,0.5-1.2,0.6-1.7,0.1l0,0c-0.5-0.5-0.5-1.3-0.1-1.8l0.4-0.5c0.4-0.5,1.2-0.6,1.7-0.1
	l0,0C420.7,78.8,420.7,79.6,420.3,80.1z"/>
<path class="st0" d="M447.8,45.9l-6.3,7.8c-0.4,0.5-1.2,0.6-1.7,0.1l0,0c-0.5-0.5-0.5-1.3-0.1-1.8l6.3-7.8c0.4-0.5,1.2-0.6,1.7-0.1
	l0,0C448.2,44.6,448.2,45.4,447.8,45.9z"/>
<path class="st0" d="M417.3,83.8l-2.4,2.9c-0.4,0.5-1.2,0.6-1.7,0.1l0,0c-0.5-0.5-0.5-1.3-0.1-1.8l2.4-2.9c0.4-0.5,1.2-0.6,1.7-0.1
	l0,0C417.7,82.4,417.8,83.3,417.3,83.8z"/>
<path class="st0" d="M412.4,89.9l-0.4,0.5c-0.4,0.5-1.2,0.6-1.7,0.1l0,0c-0.5-0.5-0.5-1.3-0.1-1.8l0.4-0.5c0.4-0.5,1.2-0.6,1.7-0.1
	l0,0C412.8,88.6,412.9,89.4,412.4,89.9z"/>
<path class="st0" d="M409.5,93.6l-6.3,7.8c-0.4,0.5-1.2,0.6-1.7,0.1l0,0c-0.5-0.5-0.5-1.3-0.1-1.8l6.3-7.8c0.4-0.5,1.2-0.6,1.7-0.1
	l0,0C409.9,92.2,409.9,93,409.5,93.6z"/>
<path class="st0" d="M438.9,56.9l-3.4,4.2c-0.4,0.5-1.2,0.6-1.7,0.1l0,0c-0.5-0.5-0.5-1.3-0.1-1.8l3.4-4.2c0.4-0.5,1.2-0.6,1.7-0.1
	l0,0C439.3,55.6,439.4,56.4,438.9,56.9z"/>
<path class="st0" d="M433.1,64.3l-1.4,1.7c-0.4,0.5-1.2,0.6-1.7,0.1l0,0c-0.5-0.5-0.5-1.3-0.1-1.8l1.4-1.7c0.4-0.5,1.2-0.6,1.7-0.1
	l0,0C433.4,62.9,433.5,63.7,433.1,64.3z"/>
<g>
	<g>
		<path d="M513.8,59.6c-0.9,11-1.8,23.7-9.8,32.1c-3.6,3.8-8.8,6.2-13.4,8.6c-5.4,2.8-11,5.2-16.8,7.3c-8.9,3.2-16.2,6.1-22.8,13.3
			c-3.3,3.6-4.7,11.2,1.9,11.8c1.9,0.2,1.9-2.8,0-3c-1.6-3.1-1.4-5.5,0.7-7.2c0.8-0.7,1.5-1.4,2.3-2.1c2-1.8,4-3.6,6.3-5
			c4.1-2.4,8.8-3.6,13.3-5.2c7.9-2.9,15.6-6.5,23-10.6c14.8-8.4,17.1-24.2,18.4-39.9C516.9,57.7,513.9,57.7,513.8,59.6L513.8,59.6z"
			/>
	</g>
</g>
<rect x="512.4" y="57.1" width="6" height="2.4"/>
<g>
	<g>
		<path d="M452.5,132.7c6.4,0.7,12.9,1.2,19-1.4c6.2-2.6,12-5.9,18.5-7.9c7.1-2.2,16.3-5.1,22.7,0.2c4.5,3.7,8.1,6.7,14.1,7.7
			c1.9,0.3,2.7-2.6,0.8-2.9c-3.9-0.7-7.4-2.1-10.4-4.8c-2.2-1.8-3.8-3.8-6.5-4.9c-5.1-2.1-11-0.9-16.2,0.3
			c-6.5,1.6-12.8,3.9-18.8,6.9c-3.7,1.8-7,3.6-11.2,4.1c-4,0.5-7.9,0.1-11.9-0.4C450.6,129.5,450.6,132.5,452.5,132.7L452.5,132.7z"
			/>
	</g>
</g>
<ellipse transform="matrix(-0.9053 -0.4249 0.4249 -0.9053 978.9891 498.9817)" class="st4" cx="545.1" cy="140.3" rx="22" ry="12.8"/>
<line class="st11" x1="527.1" y1="129.9" x2="539" y2="134.7"/>
<ellipse class="st12" cx="363" cy="130.7" rx="9.3" ry="11.7"/>
<ellipse class="st12" cx="395.9" cy="132.1" rx="10.6" ry="13.1"/>
<g>
	<g>
		<path class="st2" d="M354.8,132.7c5.1-3,10.2-6.1,15.3-9.1c2.4-1.4,4.8-2.9,7.3-4.3c0.8-0.5,2.1-1.5,3-1.7c4.3-0.7,3.7,2,3.5,4.5
			c-0.1,1.9,2.9,1.9,3,0c0.4-5.1-1.6-9.7-7.2-7.4c-4.4,1.8-8.6,4.8-12.7,7.3c-4.6,2.7-9.1,5.4-13.7,8.1
			C351.7,131.1,353.2,133.7,354.8,132.7L354.8,132.7z"/>
	</g>
</g>
<g>
	<g>
		<path class="st2" d="M407.4,131.7c5.1-3,10.2-6.1,15.3-9.1c2.4-1.4,4.8-2.9,7.3-4.3c0.8-0.5,2.1-1.5,3-1.7c4.3-0.7,3.7,2,3.5,4.5
			c-0.1,1.9,2.9,1.9,3,0c0.4-5.1-1.6-9.7-7.2-7.4c-4.4,1.8-8.6,4.8-12.7,7.3c-4.6,2.7-9.1,5.4-13.7,8.1
			C404.2,130.1,405.7,132.7,407.4,131.7L407.4,131.7z"/>
	</g>
</g>
<g>
	<g>
		<path class="st2" d="M372.5,132.6c4.1,0,8.3,0,12.4,0c1.9,0,1.9-3,0-3c-4.1,0-8.3,0-12.4,0C370.6,129.6,370.6,132.6,372.5,132.6
			L372.5,132.6z"/>
	</g>
</g>
<rect x="637.4" y="110.6" class="st4" width="111.6" height="18.1"/>
<path class="st13" d="M753.3,132.4H633c-0.5,0-0.9-0.4-0.9-0.9v-4.8c0-0.5,0.4-0.9,0.9-0.9h120.4c0.5,0,0.9,0.4,0.9,0.9v4.8
	C754.2,132,753.8,132.4,753.3,132.4z"/>
<path class="st13" d="M753.3,112.5H633c-0.5,0-0.9-0.4-0.9-0.9v-4.8c0-0.5,0.4-0.9,0.9-0.9h120.4c0.5,0,0.9,0.4,0.9,0.9v4.8
	C754.2,112.1,753.8,112.5,753.3,112.5z"/>
<path class="st13" d="M637.4,107.9v23.5c0,0.5-0.4,0.9-0.9,0.9H633c-0.5,0-0.9-0.4-0.9-0.9v-23.5c0-0.5,0.4-0.9,0.9-0.9h3.5
	C637,107,637.4,107.4,637.4,107.9z"/>
<rect x="632" y="91.3" class="st4" width="98.5" height="12.6"/>
<path class="st1" d="M734.3,106.4H628.2c-0.5,0-0.9-0.4-0.9-0.9v-2.8c0-0.5,0.4-0.9,0.9-0.9h106.1c0.5,0,0.9,0.4,0.9,0.9v2.8
	C735.2,106,734.8,106.4,734.3,106.4z"/>
<path class="st1" d="M734.3,92.6H628.2c-0.5,0-0.9-0.4-0.9-0.9v-2.8c0-0.5,0.4-0.9,0.9-0.9h106.1c0.5,0,0.9,0.4,0.9,0.9v2.8
	C735.2,92.2,734.8,92.6,734.3,92.6z"/>
<path class="st1" d="M632,89.7v15.8c0,0.5-0.4,0.9-0.9,0.9h-2.9c-0.5,0-0.9-0.4-0.9-0.9V89.7c0-0.5,0.4-0.9,0.9-0.9h2.9
	C631.6,88.8,632,89.2,632,89.7z"/>
<rect x="636.7" y="73.5" class="st4" width="98.5" height="12.6"/>
<path class="st5" d="M739,88.5H633c-0.5,0-0.9-0.4-0.9-0.9v-2.8c0-0.5,0.4-0.9,0.9-0.9h106c0.5,0,0.9,0.4,0.9,0.9v2.8
	C740,88.1,739.5,88.5,739,88.5z"/>
<path class="st5" d="M739,74.7H633c-0.5,0-0.9-0.4-0.9-0.9V71c0-0.5,0.4-0.9,0.9-0.9h106c0.5,0,0.9,0.4,0.9,0.9v2.8
	C740,74.3,739.5,74.7,739,74.7z"/>
</svg>
