<?xml version="1.0" encoding="utf-8"?>
<!-- Generator: Adobe Illustrator 23.0.1, SVG Export Plug-In . SVG Version: 6.00 Build 0)  -->
<svg version="1.1" id="Layer_1" xmlns="http://www.w3.org/2000/svg" xmlns:xlink="http://www.w3.org/1999/xlink" x="0px" y="0px"
	 viewBox="0 0 1020 888" style="enable-background:new 0 0 1020 888;" xml:space="preserve">
<style type="text/css">
	.st0{fill:#AAAAAA;}
	.st1{fill:#D8D8D8;}
	.st2{fill:#595959;}
	.st3{fill:#050505;}
	.st4{fill:#E9635E;}
	.st5{fill:#2D2C2C;}
	.st6{fill:none;stroke:#2D2C2C;stroke-width:3;stroke-miterlimit:10;}
	.st7{fill:#EDEDED;}
	.st8{fill:#5E5E5E;}
	.st9{fill:#D6D6D6;}
	.st10{fill:#2F6AC9;}
	.st11{fill:#EAEAEA;}
	.st12{fill:#6B6B6B;}
	.st13{fill:#757575;}
	.st14{fill:#4FE067;}
	.st15{fill:#E24B57;}
	.st16{fill:none;stroke:#6B6B6B;stroke-width:4;stroke-miterlimit:10;}
	.st17{font-family:'MyriadPro-Regular';}
	.st18{font-size:12.732px;}
	.st19{font-size:15.8093px;}
	.st20{fill:#6B440C;}
	.st21{fill:#1B8212;}
	.st22{fill:#4C2E07;}
	.st23{fill:#FFFFFF;}
</style>
<path class="st0" d="M130.65,190.65L130.65,190.65c-1.32-1.3-3.13-1.64-4.04-0.74l-9.94,9.7c-0.91,0.89-0.59,2.67,0.73,3.98h0
	c1.32,1.3,3.13,1.64,4.04,0.74l9.94-9.7C132.29,193.73,131.96,191.95,130.65,190.65z"/>
<path class="st0" d="M138.65,198.65L138.65,198.65c-1.32-1.3-3.13-1.64-4.04-0.74l-9.94,9.7c-0.91,0.89-0.59,2.67,0.73,3.98h0
	c1.32,1.3,3.13,1.64,4.04,0.74l9.94-9.7C140.29,201.73,139.96,199.95,138.65,198.65z"/>
<path class="st1" d="M923.52,775.68c-120.35,55.73-356.78,14.37-363.82-27c-1.7-10,2.46-17.63,2.46-17.63
	c8.34-4.72,20.78-11.24,36.48-17.5C629.89,701.1,659.08,695.65,757,691c56.21-2.67,84.77-3.95,107-1
	c40.48,5.37,72.79,16.6,94.34,25.63c7.41,3.64,15.59,9.21,16.56,16.96C977.2,750.82,937.99,768.98,923.52,775.68z"/>
<g>
	<g>
		<path d="M718.58,712.76c-69.25-13.41-139.55-2.01-208.52,7.32c-61.49,8.32-124.91,14.69-186.11,0.69
			c-28.84-6.6-56.63-17.97-80.68-35.36c-26.73-19.33-47.93-45.19-68.29-70.85c-20.12-25.36-39.31-51.68-54.78-80.18
			c-15.9-29.27-26.9-60.5-32.07-93.44c-5.4-34.39-5.21-69.39-3.75-104.07c0.69-16.37,1.42-32.78,2.71-49.12
			c1.2-15.16,3.25-30.47,8.61-44.79c2.77-7.39,6.5-14.3,11.16-20.67c1.14-1.56-1.46-3.06-2.59-1.51
			c-17.97,24.54-19.71,55.89-21.33,85.18c-1.95,35.21-3.74,70.57-1.12,105.8c2.48,33.37,9.36,66.11,22.57,96.94
			c12.9,30.11,30.69,57.86,50.14,84.12c19.25,26,39.47,52.12,62.82,74.6c21.89,21.09,47.45,37.21,76.06,47.55
			c57.33,20.72,120.55,19.43,180.3,12.69c71.65-8.08,143.65-23.7,216.06-16.2c9.4,0.97,18.75,2.38,28.03,4.17
			C719.66,716.02,720.47,713.13,718.58,712.76L718.58,712.76z"/>
	</g>
</g>
<path class="st2" d="M869.4,466.15l-139.64-0.35c-4.76-0.01-8.63,6.98-8.65,15.62l-0.67,259.96c0-0.09,0-0.36,0-0.27
	c-0.01,3.18,156.86,4.63,156.87,0.39l0,0c0,0,0,0.11,0,0.27l0.67-259.96C878,473.18,874.16,466.17,869.4,466.15z"/>
<path class="st1" d="M587.3,832.28c-8.48,14.21-76.2,13.78-76.2,13.78c-187.63-1.19-308.93,9.34-313.46-9.59
	c-0.66-2.74,1.23-5.78,7.13-9.97c61.14-43.47,264.83-26.6,300.1-23.5c12.86,1.25,26.45,2.83,40.65,4.84
	c12.28,1.73,23.91,3.63,34.87,5.61c2.14,1.23,6.59,4.13,8.26,8.7C588.66,822.14,590.44,827.03,587.3,832.28z"/>
<path class="st3" d="M391,826c-4.5,0.72-15.4,2.36-26,3c-2.18,0.13-6.51,0.35-12,0c-4.1-0.26-6.51-0.69-8-1c-2.87-0.6-5.25-1.36-7-2
	c-1.15-1.25-5.67-6.45-5.46-14.01c0.2-7.57,5.06-14.54,12.46-17.99c15.91,0.84,31.83,1.69,47.74,2.53
	c1.36,10.85,0.7,19.92-0.62,27.12c-0.08,0.42-0.16,0.83-0.24,1.25C391.59,825.26,391.29,825.63,391,826z"/>
<path d="M476.35,823.26c-3.95,1.14-13.53,3.82-22.92,5.47c-1.93,0.34-5.77,0.97-10.7,1.15c-3.67,0.13-5.86-0.07-7.22-0.23
	c-2.61-0.32-4.8-0.85-6.41-1.32c-1.13-1.13-5.6-5.88-6.07-13.42c-0.47-7.56,3.27-14.95,9.57-19.1c14.26-0.68,28.52-1.36,42.77-2.04
	c2.14,10.67,2.33,19.76,1.77,27.05c-0.03,0.42-0.07,0.84-0.11,1.26C476.81,822.47,476.58,822.87,476.35,823.26z"/>
<path class="st4" d="M114.42,273.87c-2.85,6.91-10.2,11.76-16.62,11.82c-5.16,0.05-8.37-3.02-10.75-5.3
	c-3.89-3.72-12.62-14.48-8.17-23.34c4.39-8.74,17.27-10.74,25.29-6.94C111.6,253.64,118.55,263.88,114.42,273.87z"/>
<ellipse transform="matrix(0.9687 -0.248 0.248 0.9687 -116.4871 162.3702)" class="st4" cx="586.13" cy="543.47" rx="16.03" ry="20.85"/>
<ellipse transform="matrix(0.9995 -0.0325 0.0325 0.9995 -16.7666 13.4577)" class="st5" cx="405.22" cy="522.03" rx="119.24" ry="112.08"/>
<ellipse transform="matrix(0.9993 -0.0369 0.0369 0.9993 -4.8813 14.412)" class="st4" cx="387.53" cy="139.29" rx="114.09" ry="103.45"/>
<g>
	<polygon class="st4" points="519.18,523.82 291.22,533.82 273.55,144.29 501.51,134.29 	"/>
</g>
<ellipse class="st6" cx="348.24" cy="173.6" rx="22.66" ry="22.28"/>
<ellipse transform="matrix(0.9755 -0.2202 0.2202 0.9755 -27.0944 100.7799)" class="st6" cx="438.59" cy="171.95" rx="25.92" ry="25.66"/>
<line class="st6" x1="371.68" y1="175.01" x2="412.88" y2="169.3"/>
<path class="st7" d="M524.7,524.22l-238.26,10.45l-11.18-246.51c16.27,1.47,63.1,0.62,111.51-1.37
	c53.04-2.18,107.99-5.72,126.76-9.08C517.25,359.88,520.98,442.05,524.7,524.22z"/>
<g>
	<polygon class="st4" points="435.01,284.11 421.99,306.86 372.99,286.64 	"/>
</g>
<path class="st7" d="M337.86,385.8c0.11-0.2,0.23-0.4,0.34-0.6c-5.12,0-12.62-0.12-21.59-0.71c-19.46-1.28-78.38-6.93-149.03-49.09
	c-20.05-11.97-78.9-47.09-70.78-67.85c2.36-6.03,9.77-9.32,15.74-11.17c21.87,10.82,55.05,27.4,96.54,48.74
	c14.08,7.24,18.61,9.63,25.3,12.86c25.18,12.18,62.52,27.49,113.33,39.16c0.18,0.46,0.34,0.92,0.46,1.38
	C350.82,368.26,341.87,380.72,337.86,385.8z"/>
<path class="st7" d="M599.76,533.03c-0.22,0.11-0.43,0.22-0.65,0.33c0.3-5.09,0.63-12.55,0.53-21.48
	c-0.2-19.37-2.68-78.04-43.1-148.93c-11.47-20.12-45.14-79.17-67.58-71.41c-6.52,2.25-10.44,9.58-12.75,15.48
	c10.15,21.91,25.73,55.16,45.84,96.74c6.83,14.11,9.08,18.66,12.11,25.35c11.4,25.23,25.38,62.59,34.71,113.29
	c0.47,0.19,0.95,0.35,1.43,0.48C580.43,545.64,594.14,536.94,599.76,533.03z"/>
<path class="st5" d="M348.1,795.15c-0.4-0.03-3.55-0.26-3.57-0.43c0-0.02,0.03-0.03,0.06-0.04c-0.02,0.03-0.04,0.04-0.06,0.04
	c-0.96-0.08-0.02-35.07-4.14-75.75c-1.56-15.36-2.49-18.22-4.18-37.16c-1.71-19.09-2.56-28.64-2.4-37.07
	c0.09-4.49,1.79-65.64,29.1-67.93c4.86-0.41,13.57,0.74,27.31,11.85c-4.99,32.31-8.09,69.31-7.12,110.37
	c0.87,36.45,4.8,70.06,10.2,100.15c-0.28,0.11-0.57,0.2-0.87,0.3c0,0-0.45,0.14-0.91,0.26C389.81,800.19,351.96,795.46,348.1,795.15
	z"/>
<path class="st5" d="M433.77,797.2c-0.25-0.02-0.81-0.08-0.81-0.08c-0.27-0.03-0.54-0.05-0.81-0.08c-1.25-9.4-2.92-23.38-4.19-40.37
	c-6.64-88.4,0.41-217.46,33.75-223.5c4.97-0.9,12.74,0.53,24.15,12.68c-0.94,31.89-3.09,57.59-4.87,75.13
	c-2.67,26.28-4.55,34.64-6,59c-1.39,23.34-1.19,41.4-1,59c0.18,16.93,0.79,37.35,2.28,60.56c-0.13,0.07-0.26,0.14-0.4,0.21
	c-0.14,0.07-0.27,0.14-0.41,0.2c-0.34,0.16-0.64,0.28-0.85,0.37C458.87,806.91,435.4,797.36,433.77,797.2z"/>
<path class="st7" d="M198.69,340.17"/>
<g>
	<g>
		<path class="st5" d="M441.48,216.58c-6.58,20.62-32.04,21.04-48.19,11.98c-1.69-0.95-3.2,1.64-1.51,2.59
			c17.98,10.09,45.41,8.74,52.6-13.77C444.96,215.53,442.07,214.74,441.48,216.58L441.48,216.58z"/>
	</g>
</g>
<path class="st5" d="M316.26,651.83"/>
<path class="st8" d="M352.76,794.36c-1.07-0.1-2.15-0.2-3.22-0.3"/>
<path class="st5" d="M400.49,781.08"/>
<path class="st9" d="M362.21,347.14c-0.28,2.85-0.56,5.7-0.83,8.55c-0.28,2.85-0.56,5.7-0.83,8.55c-7.4,2.3-17.26,4.38-28.86,4.18
	c-5.02-0.09-9.61-0.59-13.69-1.29c-1.86-5.67-3.63-12.79-4.44-21.13c-0.43-4.39-0.53-8.45-0.44-12.12c1.96-0.41,4.52-0.89,7.52-1.36
	c4.18-0.65,9.47-1.31,15.54-1.64c5.69-0.31,12.84-0.39,21.11,0.26c0.64-0.09,1.17-0.02,1.61,0.15
	C361.93,332.45,363.1,338.86,362.21,347.14z"/>
<path class="st10" d="M329.94,331.32c0.67-0.16,1.4-0.23,2.17-0.21c0.35-0.04,0.73-0.03,1.1-0.03c0.41-0.05,0.84-0.07,1.29-0.05
	c0.01,0,0.02,0,0.04,0l-2.31-11.17c-0.11-0.58-0.68-0.97-1.27-0.86l-2.63,0.48c-0.59,0.11-0.98,0.67-0.87,1.25l2.01,10.67
	C329.63,331.36,329.78,331.33,329.94,331.32z"/>
<path class="st3" d="M337.07,330.95c0.02,0,0.04,0.01,0.06,0.01c0.02,0,0.03,0,0.05,0c0.05,0,0.09,0.02,0.14,0.03
	c0.08,0.01,0.16,0.03,0.24,0.04c0.71-0.12,1.47-0.16,2.3-0.08c0.05,0,0.09,0.01,0.13,0.02l-0.47-10.27
	c-0.02-0.59-0.52-1.06-1.12-1.04l-2.67,0.07c-0.6,0.02-1.08,0.51-1.06,1.1l0.29,10.17C335.61,330.91,336.31,330.88,337.07,330.95z"
	/>
<path class="st10" d="M326.35,331.42L326.35,331.42z"/>
<path class="st11" d="M143.87,785.86"/>
<path class="st2" d="M893.83,715.68"/>
<path class="st12" d="M843.26,525.89h-94.68c-3.8,0-6.87-3.08-6.87-6.87v-8.13c0-3.8,3.08-6.87,6.87-6.87h94.68
	c3.8,0,6.87,3.08,6.87,6.87v8.13C850.14,522.81,847.06,525.89,843.26,525.89z"/>
<path class="st13" d="M109.08,231.67l-12.37-12.19c-1.8-1.77-1.98-4.47-0.4-6.01l16.8-16.48c1.58-1.55,4.32-1.36,6.12,0.41
	l12.37,12.19c1.8,1.77,1.98,4.47,0.4,6.01l-16.8,16.48C113.62,233.63,110.88,233.45,109.08,231.67z"/>
<ellipse class="st14" cx="838" cy="487.3" rx="5.66" ry="5.57"/>
<ellipse class="st15" cx="821.82" cy="487.3" rx="5.66" ry="5.57"/>
<path class="st2" d="M804.82,752.28"/>
<g>
	<g>
		<path class="st5" d="M325.47,170.77c-7.84-1.11-15.68-2.21-23.51-3.32c-6.79-0.96-14.61-3.24-21.49-2.55
			c-10.98,1.1-11.64,15.48-6.82,22.84c1.05,1.61,3.65,0.11,2.59-1.51c-3.08-4.7-4.23-12.44,0.5-16.7
			c4.16-3.75,12.75-0.82,17.55-0.15c10.12,1.43,20.25,2.86,30.37,4.29C326.56,173.93,327.37,171.04,325.47,170.77L325.47,170.77z"/>
	</g>
</g>
<g>
	<g>
		<path class="st5" d="M465.9,164.49c7.03-4.25,14.1-8.42,21.24-12.48c3.11-1.78,6.52-4.51,9.91-5.57c1.38-1.29,2.89-1.29,4.53,0.01
			c0.03,0.63,0.05,1.26,0.08,1.89c0.61,2.11-0.17,5.4-0.42,7.55c-0.22,1.91,2.78,1.9,3,0c0.76-6.63,1.68-17.5-7.87-12.49
			c-10.89,5.71-21.46,12.16-31.98,18.52C462.74,162.9,464.24,165.49,465.9,164.49L465.9,164.49z"/>
	</g>
</g>
<ellipse class="st16" cx="799.16" cy="581.2" rx="17.8" ry="17.51"/>
<path class="st12" d="M819.2,585.17c2.34,0.75-18.14,42.97-20.04,42.97c-1.9,0-22.38-42.23-20.04-42.97
	c1.99-0.64,7.53,10.83,19.09,11.46c0.64,0.03,1.27,0.03,1.91,0C811.67,596.01,817.21,584.54,819.2,585.17z"/>
<text transform="matrix(1.1712 0 0 1 787.0225 584.5371)" class="st12 st17 st18">{     }</text>
<text transform="matrix(1.1539 0 0 1 793.4971 581.8584)" class="st12 st17 st19">...</text>
<path class="st5" d="M291.25,779.39"/>
<path class="st20" d="M524.71,518.3c-79.68,3.44-159.35,6.87-239.03,10.31c0.01,0.12,0.02,0.24,0.03,0.36
	c0.21,2.5,0.71,4.9,1.43,7.2c175.18-6.09,237.74-9.57,237.72-11.47c0-0.09-0.16-2.17-0.16-5.09
	C524.7,519.07,524.7,518.61,524.71,518.3z"/>
<line class="st21" x1="286.96" y1="535.84" x2="286.96" y2="535.84"/>
<path class="st21" d="M523.23,524.7"/>
<path class="st21" d="M523.23,524.7"/>
<path class="st22" d="M424.2,531.68c-7.45,0.17-14.91,0.35-22.36,0.52"/>
<path class="st22" d="M424.22,531.01c0,0.22-0.01,0.44-0.01,0.66"/>
<path class="st22" d="M401.85,531.93c0.14-2.76,0.29-5.51,0.43-8.27c7.37-0.35,14.74-0.7,22.11-1.05c-0.06,2.8-0.12,5.6-0.18,8.4"/>
<path class="st22" d="M401.84,532.11c0-0.06,0.01-0.12,0.01-0.18"/>
<path class="st22" d="M401.84,532.2c0-0.03,0-0.06,0.01-0.1"/>
<path class="st8" d="M343,805"/>
<path class="st8" d="M449,803"/>
<circle class="st23" cx="352" cy="173" r="12"/>
<circle class="st23" cx="435" cy="169" r="12"/>
<circle class="st5" cx="354.5" cy="173.5" r="4.5"/>
<circle class="st5" cx="432.5" cy="169.5" r="4.5"/>
</svg>
