<?xml version="1.0" encoding="utf-8"?>
<!-- Generator: Adobe Illustrator 23.0.1, SVG Export Plug-In . SVG Version: 6.00 Build 0)  -->
<svg version="1.1" id="Layer_1" xmlns="http://www.w3.org/2000/svg" xmlns:xlink="http://www.w3.org/1999/xlink" x="0px" y="0px"
	 viewBox="0 0 583 250" style="enable-background:new 0 0 583 250;" xml:space="preserve">
<style type="text/css">
	.st0{fill:#D8D8D8;}
	.st1{fill:#2D2C2C;}
	.st2{fill:#EDEDED;}
	.st3{fill:#E9635E;}
	.st4{fill:#DDDDDD;}
	.st5{fill:none;stroke:#EDEDED;stroke-width:6.9;stroke-miterlimit:10;}
	.st6{font-family:'ArialMT';}
	.st7{font-size:8.0814px;}
	.st8{font-size:17.3056px;}
	.st9{fill:none;stroke:#D8D8D8;stroke-miterlimit:10;}
	.st10{fill:none;stroke:#2D2C2C;stroke-width:3;stroke-miterlimit:10;}
	.st11{fill:#2E9B10;}
	.st12{fill:#F4CC25;}
</style>
<path class="st0" d="M466.66,225.68c-119.13,33.99-379.48,22.76-381.95-14.64c-0.17-2.64,0.88-6.26,6.02-10.76
	c3.35-2.05,9.25-5.35,17.25-8.14c10.39-3.61,19.08-4.53,22.98-4.92c37.61-3.75,129.5-8.04,139.73-8.52
	c14.41-0.68,29.42-1.53,51.68-1.78c13.7-0.16,18.23,0.06,32.53-0.1c27.18-0.31,32.93-1.38,51.68-1.78
	c35.55-0.76,67.04,1.97,97.04,12.32c12.99,4.48,16.64,7.39,17.28,10.65C523.2,209.55,481.9,221.33,466.66,225.68z"/>
<path class="st1" d="M401.69,128.46H229.32c-2.85,0-5.16-2.31-5.16-5.16V9.79c0-2.85,2.31-5.16,5.16-5.16h172.37
	c2.85,0,5.16,2.31,5.16,5.16v113.52C406.85,126.15,404.54,128.46,401.69,128.46z"/>
<path class="st2" d="M403.14,142.51H227.87c-2.05,0-3.71-1.66-3.71-3.71v-16.84c0-2.05,1.66-3.71,3.71-3.71h175.27
	c2.05,0,3.71,1.66,3.71,3.71v16.84C406.85,140.85,405.19,142.51,403.14,142.51z"/>
<rect x="224.16" y="114.42" class="st2" width="182.69" height="24.26"/>
<rect x="232.36" y="12.29" class="st3" width="166.3" height="94.47"/>
<path class="st2" d="M345.95,196.13h-59.73c3.9-17.87,7.81-35.75,11.71-53.62l0,0c-0.46,0-0.51,0-0.51,0c0,0,15.79,0,34.44,0
	c0,0,0.04,0,0.04,0C336.59,160.38,341.27,178.25,345.95,196.13z"/>
<g>
	<path class="st4" d="M333.07,147.61c-12.1,0-24.2,0-36.3,0c0.39-1.7,0.78-3.4,1.17-5.11c9.36,0,18.72,0,28.08,0
		c1.96,0,3.92,0,5.88,0C332.29,144.21,332.68,145.91,333.07,147.61z"/>
</g>
<rect x="267.49" y="196.13" class="st2" width="96.03" height="2.55"/>
<path class="st2" d="M223.32,107.11l-70.9,88.96c-1.17,1.47-3.22,1.63-4.57,0.37l-1.06-0.98c-1.36-1.26-1.51-3.47-0.34-4.94
	l70.9-88.96c1.17-1.47,3.22-1.63,4.57-0.37l1.06,0.98C224.34,103.44,224.49,105.65,223.32,107.11z"/>
<ellipse class="st5" cx="314.75" cy="49.38" rx="16.15" ry="17.55"/>
<path class="st2" d="M333.3,55.06c2.17,0.6-16.79,34.45-18.55,34.45s-20.71-33.85-18.55-34.45c1.84-0.51,6.97,8.68,17.66,9.19
	c0.59,0.03,1.17,0.03,1.77,0C326.33,63.74,331.46,54.55,333.3,55.06z"/>
<text transform="matrix(0.8924 0 0 1 306.8643 51.5415)" class="st2 st6 st7">{      }</text>
<text transform="matrix(0.8247 0 0 1 309.4658 49.8228)" class="st2 st6 st8">...</text>
<path class="st0" d="M207.58,116.31l-1.4,1.73c-0.43,0.53-1.18,0.59-1.67,0.13v0c-0.49-0.46-0.54-1.27-0.12-1.8l1.4-1.73
	c0.43-0.53,1.18-0.59,1.67-0.13l0,0C207.96,114.97,208.01,115.77,207.58,116.31z"/>
<path class="st0" d="M203.65,121.19l-2.38,2.95c-0.43,0.53-1.18,0.59-1.67,0.13l0,0c-0.49-0.46-0.54-1.27-0.12-1.8l2.38-2.95
	c0.43-0.53,1.18-0.59,1.67-0.13v0C204.03,119.85,204.08,120.66,203.65,121.19z"/>
<path class="st0" d="M198.74,127.29l-0.41,0.51c-0.43,0.53-1.18,0.59-1.67,0.13v0c-0.49-0.46-0.54-1.27-0.12-1.8l0.41-0.51
	c0.43-0.53,1.18-0.59,1.67-0.13l0,0C199.12,125.95,199.17,126.76,198.74,127.29z"/>
<path class="st0" d="M177.13,154.14l-1.4,1.73c-0.43,0.53-1.18,0.59-1.67,0.13l0,0c-0.49-0.46-0.54-1.27-0.12-1.8l1.4-1.73
	c0.43-0.53,1.18-0.59,1.67-0.13l0,0C177.51,152.8,177.56,153.61,177.13,154.14z"/>
<path class="st0" d="M173.2,159.02l-2.38,2.95c-0.43,0.53-1.18,0.59-1.67,0.13v0c-0.49-0.46-0.54-1.27-0.12-1.8l2.38-2.95
	c0.43-0.53,1.18-0.59,1.67-0.13l0,0C173.58,157.68,173.63,158.49,173.2,159.02z"/>
<path class="st0" d="M168.29,165.12l-0.41,0.51c-0.43,0.53-1.18,0.59-1.67,0.13l0,0c-0.49-0.46-0.54-1.27-0.12-1.8l0.41-0.51
	c0.43-0.53,1.18-0.59,1.67-0.13l0,0C168.66,163.79,168.72,164.59,168.29,165.12z"/>
<path class="st0" d="M195.8,130.95l-6.31,7.84c-0.43,0.53-1.18,0.59-1.67,0.13l0,0c-0.49-0.46-0.54-1.27-0.12-1.8l6.31-7.84
	c0.43-0.53,1.18-0.59,1.67-0.13l0,0C196.17,129.61,196.22,130.42,195.8,130.95z"/>
<path class="st0" d="M165.34,168.78l-2.38,2.95c-0.43,0.53-1.18,0.59-1.67,0.13l0,0c-0.49-0.46-0.54-1.27-0.12-1.8l2.38-2.95
	c0.43-0.53,1.18-0.59,1.67-0.13h0C165.72,167.45,165.77,168.25,165.34,168.78z"/>
<path class="st0" d="M160.43,174.89l-0.41,0.51c-0.43,0.53-1.18,0.59-1.67,0.13l0,0c-0.49-0.46-0.54-1.27-0.12-1.8l0.41-0.51
	c0.43-0.53,1.18-0.59,1.67-0.13v0C160.8,173.55,160.86,174.35,160.43,174.89z"/>
<path class="st0" d="M157.48,178.55l-6.31,7.84c-0.43,0.53-1.18,0.59-1.67,0.13l0,0c-0.49-0.46-0.54-1.27-0.12-1.8l6.31-7.84
	c0.43-0.53,1.18-0.59,1.67-0.13l0,0C157.86,177.21,157.91,178.02,157.48,178.55z"/>
<path class="st0" d="M186.95,141.94l-3.36,4.18c-0.43,0.53-1.18,0.59-1.67,0.13l0,0c-0.49-0.46-0.54-1.27-0.12-1.8l3.36-4.18
	c0.43-0.53,1.18-0.59,1.67-0.13v0C187.33,140.6,187.38,141.4,186.95,141.94z"/>
<path class="st0" d="M181.06,149.26l-1.4,1.73c-0.43,0.53-1.18,0.59-1.67,0.13l0,0c-0.49-0.46-0.54-1.27-0.12-1.8l1.4-1.73
	c0.43-0.53,1.18-0.59,1.67-0.13l0,0C181.43,147.92,181.49,148.73,181.06,149.26z"/>
<g>
	<g>
		<path d="M261.78,144.64c-0.87,10.97-1.77,23.67-9.79,32.11c-3.64,3.83-8.76,6.2-13.42,8.55c-5.44,2.75-11.04,5.18-16.77,7.28
			c-8.87,3.24-16.22,6.14-22.79,13.3c-3.32,3.62-4.74,11.19,1.94,11.84c1.92,0.19,1.91-2.82,0-3c-1.65-3.11-1.43-5.52,0.67-7.24
			c0.75-0.72,1.5-1.43,2.27-2.13c1.97-1.8,3.98-3.6,6.28-4.99c4.07-2.45,8.84-3.55,13.26-5.19c7.9-2.94,15.64-6.46,22.96-10.64
			c14.81-8.44,17.14-24.16,18.39-39.89C264.93,142.71,261.93,142.72,261.78,144.64L261.78,144.64z"/>
	</g>
</g>
<rect x="260.4" y="142.08" width="5.99" height="2.43"/>
<g>
	<g>
		<path d="M200.51,217.66c6.45,0.68,12.92,1.17,19.04-1.4c6.22-2.61,11.97-5.89,18.48-7.9c7.07-2.19,16.31-5.1,22.66,0.17
			c4.5,3.74,8.06,6.69,14.06,7.7c1.89,0.32,2.7-2.57,0.8-2.89c-3.93-0.66-7.37-2.15-10.44-4.76c-2.17-1.84-3.84-3.79-6.55-4.87
			c-5.15-2.07-10.97-0.92-16.17,0.34c-6.51,1.58-12.81,3.93-18.8,6.9c-3.68,1.82-7.03,3.59-11.17,4.08
			c-3.97,0.48-7.94,0.05-11.9-0.37C198.59,214.46,198.61,217.46,200.51,217.66L200.51,217.66z"/>
	</g>
</g>
<ellipse transform="matrix(0.4249 -0.9053 0.9053 0.4249 -35.4704 394.8932)" class="st2" cx="293.04" cy="225.36" rx="12.78" ry="21.98"/>
<line class="st9" x1="275.07" y1="214.85" x2="287.05" y2="219.7"/>
<ellipse class="st10" cx="111.58" cy="205.32" rx="9.34" ry="11.71"/>
<ellipse class="st10" cx="144.51" cy="206.66" rx="10.57" ry="13.05"/>
<g>
	<g>
		<path class="st1" d="M103.44,207.3c5.11-3.04,10.21-6.07,15.32-9.11c2.42-1.44,4.82-2.91,7.26-4.32c0.84-0.49,2.05-1.51,3.02-1.68
			c4.25-0.73,3.7,2.02,3.5,4.49c-0.15,1.92,2.85,1.91,3,0c0.4-5.05-1.63-9.73-7.24-7.41c-4.43,1.84-8.55,4.84-12.67,7.28
			c-4.57,2.72-9.14,5.43-13.71,8.15C100.27,205.7,101.78,208.29,103.44,207.3L103.44,207.3z"/>
	</g>
</g>
<g>
	<g>
		<path class="st1" d="M156,206.28c5.11-3.04,10.21-6.07,15.32-9.11c2.42-1.44,4.82-2.91,7.26-4.32c0.84-0.49,2.05-1.51,3.02-1.68
			c4.25-0.73,3.7,2.02,3.5,4.49c-0.15,1.92,2.85,1.91,3,0c0.4-5.05-1.63-9.73-7.24-7.41c-4.43,1.84-8.55,4.84-12.67,7.28
			c-4.57,2.72-9.14,5.43-13.71,8.15C152.83,204.67,154.34,207.27,156,206.28L156,206.28z"/>
	</g>
</g>
<g>
	<g>
		<path class="st1" d="M121.11,207.24c4.14,0,8.29,0,12.43,0c1.93,0,1.93-3,0-3c-4.14,0-8.29,0-12.43,0
			C119.18,204.24,119.18,207.24,121.11,207.24L121.11,207.24z"/>
	</g>
</g>
<rect x="385.36" y="195.65" class="st2" width="111.56" height="18.1"/>
<path class="st11" d="M501.32,217.37H380.96c-0.5,0-0.91-0.41-0.91-0.91v-4.78c0-0.5,0.41-0.91,0.91-0.91h120.36
	c0.5,0,0.91,0.41,0.91,0.91v4.78C502.23,216.96,501.82,217.37,501.32,217.37z"/>
<path class="st11" d="M501.32,197.46H380.96c-0.5,0-0.91-0.41-0.91-0.91v-4.78c0-0.5,0.41-0.91,0.91-0.91h120.36
	c0.5,0,0.91,0.41,0.91,0.91v4.78C502.23,197.05,501.82,197.46,501.32,197.46z"/>
<path class="st11" d="M385.36,192.94v23.51c0,0.5-0.41,0.91-0.91,0.91h-3.49c-0.5,0-0.91-0.41-0.91-0.91v-23.51
	c0-0.5,0.41-0.91,0.91-0.91h3.49C384.95,192.03,385.36,192.44,385.36,192.94z"/>
<rect x="379.98" y="176.32" class="st2" width="98.52" height="12.55"/>
<path class="st12" d="M482.28,191.38H376.2c-0.5,0-0.91-0.41-0.91-0.91v-2.76c0-0.5,0.41-0.91,0.91-0.91h106.08
	c0.5,0,0.91,0.41,0.91,0.91v2.76C483.19,190.98,482.78,191.38,482.28,191.38z"/>
<path class="st12" d="M482.28,177.58H376.2c-0.5,0-0.91-0.41-0.91-0.91v-2.76c0-0.5,0.41-0.91,0.91-0.91h106.08
	c0.5,0,0.91,0.41,0.91,0.91v2.76C483.19,177.17,482.78,177.58,482.28,177.58z"/>
<path class="st12" d="M379.98,174.72v15.75c0,0.5-0.41,0.91-0.91,0.91h-2.87c-0.5,0-0.91-0.41-0.91-0.91v-15.75
	c0-0.5,0.41-0.91,0.91-0.91h2.87C379.57,173.81,379.98,174.22,379.98,174.72z"/>
<rect x="384.74" y="158.46" class="st2" width="98.52" height="12.55"/>
<path class="st3" d="M487.04,173.52H380.96c-0.5,0-0.91-0.41-0.91-0.91v-2.76c0-0.5,0.41-0.91,0.91-0.91h106.08
	c0.5,0,0.91,0.41,0.91,0.91v2.76C487.95,173.11,487.54,173.52,487.04,173.52z"/>
<path class="st3" d="M487.04,159.71H380.96c-0.5,0-0.91-0.41-0.91-0.91v-2.76c0-0.5,0.41-0.91,0.91-0.91h106.08
	c0.5,0,0.91,0.41,0.91,0.91v2.76C487.95,159.3,487.54,159.71,487.04,159.71z"/>
</svg>
