<?xml version="1.0" encoding="utf-8"?>
<!-- Generator: Adobe Illustrator 23.0.1, SVG Export Plug-In . SVG Version: 6.00 Build 0)  -->
<svg version="1.1" id="Layer_1" xmlns="http://www.w3.org/2000/svg" xmlns:xlink="http://www.w3.org/1999/xlink" x="0px" y="0px"
	 viewBox="0 0 583 250" style="enable-background:new 0 0 583 250;" xml:space="preserve">
<style type="text/css">
	.st0{fill:#D8D8D8;}
	.st1{fill:#472C0C;}
	.st2{fill:#6B440C;}
	.st3{fill:#1E1E1E;}
	.st4{fill:#E9635E;}
	.st5{fill:#2D2C2C;}
	.st6{fill:#282727;}
	.st7{fill:#8FCDF7;}
	.st8{fill:#FFFFFF;}
	.st9{fill:#050505;}
	.st10{fill:#EFD225;}
	.st11{fill:#5E5E5E;}
	.st12{fill:#2F6AC9;}
	.st13{fill:none;}
	.st14{fill:#1B8212;}
	.st15{fill:#4C2E07;}
	.st16{fill:#DDDDDD;}
	.st17{fill:#EDEDED;}
	.st18{fill:#161616;}
	.st19{fill:none;stroke:#2D2C2C;stroke-width:3;stroke-miterlimit:10;}
	.st20{fill:#D6D6D6;}
	.st21{fill:#494949;}
	.st22{fill:#F7F7F7;}
	.st23{fill:#282828;}
	.st24{fill:#7DC6EF;}
</style>
<path class="st0" d="M225.62,237.17c-16.83,3.9-19.06,2.06-45.27,5.43c-16.92,2.18-29.27,4.65-51.74,5.55
	c-0.38,0.01-0.67,0.03-0.72,0.03c-21.67,0.82-34.89-0.8-62.37-3.47c-27.81-2.69-37.4-3.26-39.12-7.55c-0.76-1.89,0.29-3.8,1.34-5.17
	c4.46-1.47,11.11-3.51,19.5-5.52c16.7-3.99,32.3-5.9,84.62-8.38c30.03-1.42,45.28-2.12,57.15-1.51c21.62,1.1,38.86,4.02,50.36,6.4
	c3.58,0.75,8.71,2.47,8.83,4.76C248.42,231.89,231.89,235.72,225.62,237.17z"/>
<path class="st1" d="M99.66,227.05c1.41-0.55,1.78-1.09,1.84-1.51c0.2-1.43-3.13-2.37-7.46-5.39c-3.11-2.16-4.75-3.31-5.71-5.32
	c-1.38-2.91-0.96-6.92,1.56-9.77c3.15-3.55,9.04-4.72,14.21-2.57c0.77-1.24,1.54-2.47,2.3-3.71c-8.7-2.51-17.11-0.8-20.41,3.73
	c-1.99,2.73-1.92,7.74-1.95,9.68c-0.02,1.14,0.09,2.27,0.5,3.52c0.42,1.26,1.02,2.22,1.48,2.84c0,0,0,0,0,0c0,0,0,0,0,0
	c1.02,0.78,2.1,1.56,3.22,2.33C92.83,223.33,96.34,225.36,99.66,227.05z"/>
<path class="st1" d="M141.34,222.73c-1.1-0.18-1.51-0.61-1.67-1c-0.56-1.32,1.38-3.03,3.36-6.97c1.42-2.82,2.18-4.32,2.22-6.47
	c0.05-3.12-1.42-6.86-3.96-8.97c-3.16-2.64-7.44-2.32-10.24,0.99c-0.88-1-1.76-1.99-2.64-2.99c5.05-4.52,11.16-4.92,14.71-1.39
	c2.14,2.13,3.59,6.94,4.19,8.79c0.35,1.09,0.62,2.19,0.71,3.48c0.09,1.31-0.02,2.37-0.14,3.07c0,0,0,0,0,0c0,0,0,0,0,0
	c-0.45,0.99-0.93,2-1.45,3.01C144.79,217.51,143.06,220.31,141.34,222.73z"/>
<path class="st2" d="M134.07,236.16l-19.63,2.28c-7.92,0.92-16.08-10.47-18.22-25.44c-0.01-0.04-0.01-0.09-0.02-0.13
	c16.11-1.87,32.22-3.75,48.32-5.62l0,0c0.01,0.04,0.01,0.09,0.02,0.13C146.68,222.36,142,235.24,134.07,236.16z"/>
<path class="st1" d="M130.35,222.36l-16.19,1.88c-1.92-0.04-5.26-0.35-8.79-2.03c-6.09-2.89-8.5-7.83-9.17-9.35
	c4.85-4.28,9.7-8.56,14.56-12.85c-0.02,0-0.04,0-0.06,0.01l16.19-1.88c-0.02,0-0.04,0-0.06,0.01c5.9,3.03,11.79,6.06,17.69,9.1
	c-0.22,1.62-1.17,6.95-6.24,11.14C135.34,220.83,132.2,221.89,130.35,222.36z"/>
<path class="st1" d="M108.68,198.35l19.63-2.31c7.92-0.93,15.17,4.04,16.2,11.11c0,0.02,0.01,0.04,0.01,0.06
	c-16.1,1.9-32.21,3.79-48.31,5.69l0,0c0-0.02-0.01-0.04-0.01-0.06C95.17,205.77,100.76,199.28,108.68,198.35z"/>
<path class="st2" d="M128.96,220.32c-5.02,0.68-10.05,1.36-15.07,2.04c-1.16,0.08-4.98,0.23-8.79-2.03c-3.88-2.3-5.24-5.6-5.6-6.59
	c-0.24-0.44-2.76-5.23,0.15-10.02c2.12-3.5,6.31-5.65,10.84-5.57c-0.02,0-0.04,0-0.06,0.01l16.19-1.88c-0.02,0-0.04,0-0.06,0.01
	c0.48-0.13,5.88-1.51,10.29,1.69c3.47,2.52,4.91,6.84,3.59,10.9c-0.01,0.9-0.19,4.51-3.31,7.65
	C133.96,219.69,129.94,220.21,128.96,220.32z"/>
<path class="st3" d="M125.31,224.06l-3.34,0.38c-1.02,0.11-1.94-0.54-2.07-1.45l-0.22-1.61c-0.13-0.92,0.59-1.75,1.61-1.87
	l3.34-0.38c1.02-0.11,1.94,0.54,2.07,1.45l0.22,1.61C127.04,223.11,126.32,223.95,125.31,224.06z"/>
<path class="st4" d="M94.88,232.33c0.09-0.01,0.78-0.05,0.78-0.1l-0.01-0.01c0.01,0.01,0.01,0.01,0.01,0.01
	c0.22-0.02-0.13-9.92,0.62-21.39c0.28-4.33,0.48-5.14,0.78-10.48c0.3-5.38,0.45-8.08,0.39-10.46c-0.04-1.27-0.65-18.57-6.7-19.41
	c-1.08-0.15-3,0.12-6,3.16c1.23,9.17,2.06,19.64,2,31.24c-0.05,10.3-0.79,19.77-1.87,28.24c0.07,0.03,0.13,0.06,0.2,0.09
	c0,0,0.1,0.04,0.2,0.08C85.67,233.47,94.03,232.39,94.88,232.33z"/>
<path class="st4" d="M55.2,232.19c-0.1-0.01-0.88-0.08-0.89-0.12l0.01-0.01c-0.01,0.01-0.01,0.01-0.01,0.01
	c-0.24-0.02-0.01-9.95-1.03-21.5c-0.39-4.36-0.61-5.17-1.04-10.55c-0.43-5.42-0.63-8.13-0.6-10.52c0.02-1.27,0.44-18.63,7.22-19.28
	c1.2-0.12,3.36,0.21,6.78,3.36c-1.24,9.17-2,19.66-1.77,31.32c0.22,10.34,1.19,19.88,2.53,28.42c-0.07,0.03-0.14,0.06-0.22,0.09
	c0,0-0.11,0.04-0.23,0.08C65.55,233.62,56.16,232.28,55.2,232.19z"/>
<path class="st5" d="M67.69,203.63c-3.66,0.09-4.46-0.27-7.56,0c-7.72,0.67-9.9,3.55-12.29,2.96c-7.11-1.76-15.47-34.15,0.25-55.53
	c10.73-14.59,32.23-23.48,46.18-15.65c7.02,3.95,10.63,16.5,17.84,41.61c5.23,18.2,5.4,25.89,1.89,28.58
	c-0.85,0.65-1.8,0.93-4.73,0.99c-14.22,0.27-17.87-5.89-28.35-4.93C76.39,202.08,74.55,203.46,67.69,203.63z"/>
<path class="st4" d="M120.92,156.44c1.95-0.37,4,1.35,4.85,3.72c0.68,1.9,0.4,3.72,0.18,5.08c-0.34,2.21-1.67,7.66-4.26,7.84
	c-2.56,0.18-4.69-4.18-4.86-7.94C116.68,161.66,118.11,156.97,120.92,156.44z"/>
<path class="st4" d="M27.48,157.83c1.61-1.63,4.36-1.75,6.32-0.53c1.58,0.97,2.22,2.55,2.71,3.73c0.79,1.92,2.29,6.97-0.01,8.9
	c-2.27,1.91-6.4,0.07-8.43-2.66C26.18,164.73,25.16,160.18,27.48,157.83z"/>
<g>
	<g>
		<path class="st6" d="M101.11,53.38c1.24,5.38,4.72,9.85,6.73,14.92c1.49,3.75,2.12,8.19,5.39,10.67c1.58,1.2,3.09-1.58,1.52-2.77
			c-2.91-2.21-3.75-8.43-5.27-11.84c-1.77-3.96-4.48-7.52-5.46-11.83C103.57,50.53,100.65,51.38,101.11,53.38L101.11,53.38z"/>
	</g>
</g>
<g>
	<g>
		<path class="st6" d="M102.25,59.44c1.24,5.38,4.72,9.85,6.73,14.92c1.49,3.75,2.12,8.19,5.39,10.67c1.58,1.2,3.09-1.58,1.52-2.77
			c-2.91-2.21-3.75-8.43-5.27-11.84c-1.77-3.96-4.48-7.52-5.46-11.83C104.69,56.59,101.79,57.44,102.25,59.44L102.25,59.44z"/>
	</g>
</g>
<g>
	<g>
		<path class="st6" d="M101.11,63.08c1.24,5.38,4.72,9.85,6.73,14.92c1.49,3.75,2.12,8.19,5.39,10.67c1.58,1.2,3.09-1.58,1.52-2.77
			c-2.91-2.21-3.75-8.43-5.27-11.84c-1.77-3.96-4.48-7.52-5.46-11.83C103.57,60.22,100.65,61.07,101.11,63.08L101.11,63.08z"/>
	</g>
</g>
<g>
	<g>
		<path class="st6" d="M108.63,59.67c1.03,1.38,1.18,3.95,1.58,5.62c0.49,2.05,0.99,4.09,1.48,6.14c0.71,2.98,1.19,5.76,3.08,8.15
			c1.25,1.58,3.38-0.69,2.13-2.27c-2.33-2.95-2.73-8.47-3.6-12.12c-0.64-2.67-0.91-5.6-2.54-7.8
			C109.56,55.78,107.44,58.07,108.63,59.67L108.63,59.67z"/>
	</g>
</g>
<g>
	<g>
		<path class="st6" d="M105.24,60.88c1.03,1.38,1.18,3.95,1.58,5.62c0.49,2.05,0.99,4.09,1.48,6.14c0.71,2.98,1.19,5.76,3.08,8.15
			c1.25,1.58,3.38-0.69,2.13-2.27c-2.33-2.95-2.73-8.47-3.6-12.12c-0.64-2.67-0.91-5.6-2.54-7.8
			C106.17,57,104.05,59.28,105.24,60.88L105.24,60.88z"/>
	</g>
</g>
<g>
	<g>
		<path class="st6" d="M105.24,65.73c1.03,1.38,1.18,3.95,1.58,5.62c0.49,2.05,0.99,4.09,1.48,6.14c0.71,2.98,1.19,5.76,3.08,8.15
			c1.25,1.58,3.38-0.69,2.13-2.27c-2.33-2.95-2.73-8.47-3.6-12.12c-0.64-2.67-0.91-5.6-2.54-7.8
			C106.17,61.84,104.05,64.13,105.24,65.73L105.24,65.73z"/>
	</g>
</g>
<g>
	<g>
		<path class="st6" d="M44.38,60.54c-1.1,5.67-2.06,11.67-4.19,17.03c-0.75,1.9,2.17,2.73,2.91,0.85
			c2.12-5.36,3.09-11.36,4.19-17.03C47.68,59.37,44.77,58.51,44.38,60.54L44.38,60.54z"/>
	</g>
</g>
<g>
	<g>
		<path class="st6" d="M46.64,61.75c-1.1,5.67-2.06,11.67-4.19,17.03c-0.75,1.9,2.17,2.73,2.91,0.85
			c2.12-5.36,3.09-11.36,4.19-17.03C49.94,60.58,47.03,59.73,46.64,61.75L46.64,61.75z"/>
	</g>
</g>
<g>
	<g>
		<path class="st6" d="M43.26,72.66c-1.1,5.67-2.06,11.67-4.19,17.03c-0.75,1.9,2.17,2.73,2.91,0.85
			c2.12-5.36,3.09-11.36,4.19-17.03C46.56,71.49,43.65,70.63,43.26,72.66L43.26,72.66z"/>
	</g>
</g>
<g>
	<g>
		<path class="st6" d="M45.51,73.87c-1.1,5.67-2.06,11.67-4.19,17.03c-0.75,1.9,2.17,2.73,2.91,0.85
			c2.12-5.36,3.09-11.36,4.19-17.03C48.81,72.7,45.9,71.85,45.51,73.87L45.51,73.87z"/>
	</g>
</g>
<ellipse transform="matrix(0.0568 -0.9984 0.9984 0.0568 27.2798 122.9843)" class="st4" cx="78.73" cy="47.05" rx="31.82" ry="32.88"/>
<g>
	<polygon class="st4" points="42.68,166.05 108.42,167.92 111.6,47.99 45.87,46.12 	"/>
</g>
<path class="st7" d="M41.09,166.2l68.7,1.96c-0.18-38.47,0.49-53.25,1.47-56.57c0.15-0.52,0.65-1.91,0.68-3.89
	c0.06-3.13-1.11-3.92-1.33-8c0-0.03,0-0.01-0.06-3.63c0-0.31-0.05-3.33-0.06-3.63c-9.74,0.32-20.03,0.36-30.83,0.01
	c-12.25-0.41-23.83-1.27-34.66-2.44c-0.3,0.87-0.69,2.12-1.07,3.65c-0.64,2.65-0.91,4.79-1.04,6.08c-0.53,5.31-0.43,11.1-0.42,14.02
	c0.02,4.32-0.23,8.62-0.34,12.94C41.97,133.5,41.67,145.1,41.09,166.2z"/>
<g>
	<g>
		<path class="st5" d="M61.71,72.47c2.91,7.23,11.28,7.15,16.81,3.44c1.64-1.1,0.12-3.88-1.52-2.77c-4.24,2.84-10.4,3.37-12.68-2.29
			C63.55,68.96,60.95,70.6,61.71,72.47L61.71,72.47z"/>
	</g>
</g>
<ellipse transform="matrix(0.015 -0.9999 0.9999 0.015 16.0347 121.308)" class="st8" cx="69.59" cy="52.52" rx="6.43" ry="5.57"/>
<ellipse transform="matrix(0.015 -0.9999 0.9999 0.015 32.9616 140.2527)" class="st8" cx="87.67" cy="53.4" rx="6.43" ry="5.57"/>
<ellipse transform="matrix(0.0157 -0.9999 0.9999 0.0157 16.4686 123.2147)" class="st5" cx="70.81" cy="53.24" rx="2.23" ry="1.92"/>
<ellipse transform="matrix(0.0157 -0.9999 0.9999 0.0157 31.1154 139.9312)" class="st5" cx="86.63" cy="54.16" rx="2.23" ry="1.92"/>
<g>
	<g>
		<path class="st6" d="M63.97,16.79c-3.58,0.63-7.4,1.43-10.18,4.08c-3.43,3.26-5.24,8.83-6.75,13.3
			c-3.95,11.71-4.59,24.29-6.84,36.41c-0.37,2.02,2.54,2.87,2.91,0.85c1.82-9.77,2.59-19.76,4.87-29.44
			c1.24-5.27,2.98-10.37,5.43-15.13c2.54-4.92,6.48-6.14,11.37-7C66.69,19.54,65.88,16.45,63.97,16.79L63.97,16.79z"/>
	</g>
</g>
<g>
	<g>
		<path class="st6" d="M63.24,22.83c-3.95,0.3-8.18,0.74-11.33,3.57c-3.68,3.31-6.04,8.91-7.92,13.5
			c-4.5,10.96-6.25,22.87-9.43,34.28c-0.55,1.99,2.36,2.83,2.91,0.85c2.5-8.98,4.11-18.21,6.86-27.1c1.5-4.81,3.36-9.48,5.85-13.82
			c3.36-5.86,6.83-7.61,13.06-8.08C65.16,25.89,65.18,22.69,63.24,22.83L63.24,22.83z"/>
	</g>
</g>
<g>
	<g>
		<path class="st6" d="M64.37,28.89c-3.95,0.3-8.18,0.74-11.33,3.57c-3.68,3.31-6.04,8.91-7.92,13.5
			c-4.5,10.96-6.25,22.87-9.43,34.28c-0.55,1.99,2.36,2.83,2.91,0.85c2.5-8.98,4.11-18.21,6.86-27.1c1.5-4.81,3.36-9.48,5.85-13.82
			c3.36-5.86,6.83-7.61,13.06-8.08C66.29,31.95,66.31,28.75,64.37,28.89L64.37,28.89z"/>
	</g>
</g>
<g>
	<g>
		<path class="st6" d="M65.49,38.59c-3.95,0.3-8.18,0.74-11.33,3.57c-3.68,3.31-6.04,8.91-7.92,13.5
			c-4.5,10.96-6.25,22.87-9.43,34.28c-0.55,1.99,2.36,2.83,2.91,0.85c2.5-8.98,4.11-18.21,6.86-27.1c1.5-4.81,3.36-9.48,5.85-13.82
			c3.36-5.86,6.83-7.61,13.06-8.08C67.41,41.65,67.43,38.44,65.49,38.59L65.49,38.59z"/>
	</g>
</g>
<g>
	<g>
		<path class="st6" d="M62.98,18.5c-6.54,3.99-11.19,10.41-13.22,18.11c-0.52,1.99,2.38,2.84,2.91,0.85
			c1.83-6.92,5.96-12.61,11.83-16.2C66.19,20.24,64.67,17.47,62.98,18.5L62.98,18.5z"/>
	</g>
</g>
<g>
	<g>
		<path class="st6" d="M63.61,19.32c-2.55,1.18-2.67,4.11-3.63,6.52c-1.08,2.66-2.46,4.97-2.47,7.95c-0.01,2.06,3.01,2.06,3.02,0
			c0.01-2.29,1.12-4.15,1.98-6.17c0.71-1.67,0.97-4.78,2.63-5.54C66.91,21.28,65.38,18.51,63.61,19.32L63.61,19.32z"/>
	</g>
</g>
<g>
	<g>
		<path class="st6" d="M56.98,19.88c-2.04,2.61-3.91,5.34-5.59,8.22c-1.03,1.75,1.58,3.37,2.61,1.61c1.55-2.65,3.25-5.17,5.13-7.58
			C60.34,20.57,58.22,18.3,56.98,19.88L56.98,19.88z"/>
	</g>
</g>
<g>
	<g>
		<path class="st6" d="M61.04,18.48c-2.01,2.89-4.46,5.76-5.12,9.38c-0.37,2.02,2.54,2.87,2.91,0.85c0.6-3.31,2.98-5.98,4.82-8.62
			C64.8,18.43,62.18,16.84,61.04,18.48L61.04,18.48z"/>
	</g>
</g>
<g>
	<g>
		<path class="st6" d="M56.18,26.72c-0.82,1.52-1.62,3.05-2.44,4.56c-0.96,1.8,1.65,3.42,2.61,1.61c0.82-1.52,1.62-3.05,2.44-4.56
			C59.75,26.54,57.14,24.92,56.18,26.72L56.18,26.72z"/>
	</g>
</g>
<g>
	<g>
		<path class="st6" d="M66.74,16.59c-3.62,3.12-4.82,10.02-4.79,14.7c0.01,2.06,3.03,2.06,3.02,0c-0.02-3.79,0.98-9.92,3.9-12.44
			C70.39,17.55,68.24,15.29,66.74,16.59L66.74,16.59z"/>
	</g>
</g>
<g>
	<g>
		<path class="st6" d="M68.13,17.26c-0.13,2.53-1.22,5.25-1.84,7.69c-0.51,1.99,2.39,2.84,2.91,0.85c0.7-2.75,1.81-5.69,1.95-8.55
			C71.25,15.2,68.23,15.21,68.13,17.26L68.13,17.26z"/>
	</g>
</g>
<g>
	<g>
		<path class="st6" d="M93.09,21.35c3.9,2.39,7.98,4.87,10.39,9.08c1.84,3.22,3.58,8.03,4.48,11.69c2.08,8.56-0.25,17.86,1.6,26.62
			c0.42,2.01,3.33,1.16,2.91-0.85c-2.25-10.7,0.5-21.29-3.36-31.64c-1.17-3.14-2.19-6.44-4.14-9.16c-2.68-3.75-6.59-6.19-10.36-8.5
			C92.93,17.55,91.41,20.33,93.09,21.35L93.09,21.35z"/>
	</g>
</g>
<g>
	<g>
		<path class="st6" d="M102.96,27.21c3.08,6.26,6.39,12.23,8.05,19.11c1.36,5.64,1.7,11.86,3.96,17.17c0.8,1.88,3.4,0.25,2.61-1.61
			c-2.52-5.88-2.74-13.21-4.41-19.46c-1.59-5.94-4.93-11.38-7.62-16.82C104.67,23.77,102.07,25.38,102.96,27.21L102.96,27.21z"/>
	</g>
</g>
<g>
	<g>
		<path class="st6" d="M105.49,25.11c-5.1-4.43-10.93-7.06-17.47-7.89c-1.92-0.25-1.91,2.97,0,3.21c5.68,0.72,10.92,3.1,15.33,6.95
			C104.85,28.67,107,26.42,105.49,25.11L105.49,25.11z"/>
	</g>
</g>
<g>
	<g>
		<path class="st6" d="M94.24,17.6c-8.59-2.4-18.96-4.14-27.37-0.3c-1.78,0.81-0.24,3.57,1.52,2.77c7.52-3.43,17.44-1.51,25.04,0.62
			C95.32,21.21,96.12,18.12,94.24,17.6L94.24,17.6z"/>
	</g>
</g>
<g>
	<g>
		<path class="st6" d="M70.82,15.69c-2.54-0.37-4.81,0.27-7.19,1.14c-1.82,0.67-1.04,3.77,0.8,3.09c1.77-0.65,3.68-1.43,5.59-1.14
			C71.91,19.07,72.74,15.97,70.82,15.69L70.82,15.69z"/>
	</g>
</g>
<g>
	<g>
		<path class="st6" d="M67.2,19.81c2.58-0.87,5.19-1.46,7.88-1.72c1.92-0.18,1.94-3.4,0-3.21c-2.96,0.29-5.85,0.88-8.68,1.84
			C64.56,17.34,65.34,20.44,67.2,19.81L67.2,19.81z"/>
	</g>
</g>
<g>
	<g>
		<path class="st6" d="M79.03,17.08c-5.41,2.08-5.99,8.44-6.22,13.73c-0.09,2.06,2.93,2.06,3.02,0c0.15-3.49,0.19-9.17,4-10.64
			C81.64,19.47,80.86,16.37,79.03,17.08L79.03,17.08z"/>
	</g>
</g>
<g>
	<g>
		<path class="st6" d="M67.89,19.71c-1.11,1.92-1.26,4.19-1.8,6.34c-0.66,2.67-0.6,5.14-0.29,7.88c0.23,2.02,3.25,2.05,3.02,0
			c-0.28-2.43-0.41-4.63,0.18-7.02c0.45-1.83,0.55-3.95,1.5-5.58C71.51,19.56,68.9,17.94,67.89,19.71L67.89,19.71z"/>
	</g>
</g>
<g>
	<g>
		<path class="st6" d="M71.21,17.61c-1.15,4.02-2.39,7.93-1.63,12.16c0.36,2.02,3.28,1.16,2.91-0.85c-0.64-3.57,0.66-7.1,1.63-10.46
			C74.69,16.48,71.77,15.63,71.21,17.61L71.21,17.61z"/>
	</g>
</g>
<g>
	<g>
		<path class="st6" d="M73.46,17.02c0.07,1.18-0.69,2.33-1.01,3.44c-0.34,1.25-0.58,2.53-0.88,3.79c-0.45,2.01,2.46,2.86,2.91,0.85
			c0.32-1.43,0.57-2.93,1.03-4.33c0.42-1.28,1.05-2.35,0.96-3.76C76.35,14.97,73.33,14.96,73.46,17.02L73.46,17.02z"/>
	</g>
</g>
<g>
	<g>
		<path class="st6" d="M79.92,16.35c-1.26,1.12-1.7,3.03-2.23,4.63c-0.63,1.92-1.08,3.85-1.27,5.87c-0.19,2.05,2.83,2.04,3.02,0
			c0.14-1.51,0.5-2.96,0.96-4.39c0.37-1.19,0.73-3.01,1.66-3.84C83.54,17.29,81.4,15.04,79.92,16.35L79.92,16.35z"/>
	</g>
</g>
<g>
	<g>
		<path class="st6" d="M82.54,17.74c-1.55,3.38-2.42,6.92-2.62,10.67c-0.11,2.06,2.91,2.05,3.02,0c0.16-3.16,0.9-6.2,2.2-9.05
			C85.99,17.51,83.38,15.88,82.54,17.74L82.54,17.74z"/>
	</g>
</g>
<g>
	<g>
		<path class="st6" d="M84.36,20.97c2.06,2.32,1.6,5.95,1.37,8.89c-0.17,2.05,2.86,2.04,3.02,0c0.32-3.98,0.49-8.08-2.24-11.17
			C85.16,17.2,83.03,19.46,84.36,20.97L84.36,20.97z"/>
	</g>
</g>
<g>
	<g>
		<path class="st6" d="M83.18,21.17c0.38,0.84,0.25,1.92,0.24,2.83c-0.01,1.12-0.06,2.22-0.19,3.33c-0.23,2.04,2.79,2.03,3.02,0
			c0.28-2.49,0.58-5.46-0.46-7.79C84.95,17.69,82.35,19.31,83.18,21.17L83.18,21.17z"/>
	</g>
</g>
<g>
	<g>
		<path class="st6" d="M88.47,20.94c2.87,3.9,1.79,9.37,2,13.95c0.09,2.05,3.11,2.06,3.02,0c-0.26-5.73,0.66-11.39-2.88-16.21
			C89.41,17.05,87.29,19.33,88.47,20.94L88.47,20.94z"/>
	</g>
</g>
<g>
	<g>
		<path class="st6" d="M87.21,22.09c0.57,1.53,0.86,3.16,0.64,4.81c-0.11,0.87,0.19,1.71,1.06,1.98c0.7,0.21,1.75-0.27,1.86-1.12
			c0.28-2.23,0.13-4.4-0.64-6.51C89.41,19.34,86.49,20.17,87.21,22.09L87.21,22.09z"/>
	</g>
</g>
<g>
	<g>
		<path class="st6" d="M91.32,21.18c1.22,1.75,2.97,3.63,3.6,5.75c0.71,2.4,0.93,5.11,1.22,7.59c0.23,2.02,3.26,2.04,3.02,0
			c-0.32-2.79-0.58-5.74-1.33-8.44c-0.68-2.48-2.5-4.49-3.9-6.52C92.79,17.91,90.17,19.51,91.32,21.18L91.32,21.18z"/>
	</g>
</g>
<g>
	<g>
		<path class="st6" d="M91.39,24.08c0.94,2.17,1.28,4.48,1.15,6.85c-0.11,2.06,2.91,2.05,3.02,0c0.16-2.96-0.4-5.78-1.56-8.47
			C93.19,20.58,90.59,22.21,91.39,24.08L91.39,24.08z"/>
	</g>
</g>
<g>
	<g>
		<path class="st6" d="M96.53,24.97c2.81,4.77,5.22,9.76,5.5,15.47c0.1,2.05,3.12,2.06,3.02,0c-0.3-6.3-2.81-11.82-5.92-17.1
			C98.11,21.61,95.51,23.22,96.53,24.97L96.53,24.97z"/>
	</g>
</g>
<g>
	<g>
		<path class="st6" d="M101.43,30.53c2.44,2.71,2.89,5.88,2.91,9.49c0.01,2.06,3.03,2.06,3.02,0c-0.03-4.49-0.79-8.42-3.79-11.76
			C102.23,26.77,100.1,29.05,101.43,30.53L101.43,30.53z"/>
	</g>
</g>
<g>
	<g>
		<path class="st6" d="M97.68,31.08c0.78,1.04,0.67,2.69,0.65,3.93c-0.02,2.06,3,2.06,3.02,0c0.03-2.25-0.17-4.38-1.54-6.2
			c-0.51-0.67-1.6-0.57-2.13,0C97.06,29.48,97.17,30.4,97.68,31.08L97.68,31.08z"/>
	</g>
</g>
<g>
	<g>
		<path class="st6" d="M104.66,42.66c1.23,2.87,0.93,6.43,1.55,9.52c0.4,2.02,3.32,1.16,2.91-0.85c-0.7-3.48-0.45-6.99-1.85-10.28
			C106.47,39.17,103.87,40.79,104.66,42.66L104.66,42.66z"/>
	</g>
</g>
<g>
	<g>
		<path class="st6" d="M50.36,36.23c-1.37,3.12-2.12,5.48-2.86,8.92c-0.87,4.07-2,8.06-3.32,11.99c-0.65,1.94,2.26,2.78,2.91,0.85
			c2.24-6.65,3.09-13.83,5.88-20.14C53.78,35.99,51.18,34.36,50.36,36.23L50.36,36.23z"/>
	</g>
</g>
<g>
	<g>
		<path class="st6" d="M54.72,32.72c0.25,2.27-1.49,4.83-2.27,6.86c-0.79,2.06-1.31,4.09-1.35,6.33c-0.04,2.06,2.98,2.06,3.02,0
			c0.05-2.74,1.1-5.08,2.11-7.54c0.73-1.77,1.73-3.68,1.52-5.65C57.51,30.69,54.49,30.67,54.72,32.72L54.72,32.72z"/>
	</g>
</g>
<g>
	<g>
		<path class="st6" d="M54.43,31.34c-0.5,1.3-1.12,2.54-1.77,3.76c-0.58,1.09-1.07,2.2-0.96,3.48c0.18,2.03,3.2,2.05,3.02,0
			c-0.1-1.15,0.71-2.15,1.21-3.13c0.53-1.06,0.99-2.16,1.41-3.27C58.08,30.29,55.16,29.45,54.43,31.34L54.43,31.34z"/>
	</g>
</g>
<g>
	<g>
		<path class="st6" d="M59.3,31.24c-0.85,3.47-1.68,6.94-2.53,10.41c-0.48,2,2.42,2.85,2.91,0.85c0.85-3.47,1.68-6.94,2.53-10.41
			C62.71,30.09,59.8,29.24,59.3,31.24L59.3,31.24z"/>
	</g>
</g>
<g>
	<g>
		<path class="st6" d="M62.75,27.21c0.08,1.73-0.52,3.38-0.87,5.05c-0.35,1.72-0.62,3.45-0.89,5.18c-0.31,2.02,2.6,2.89,2.91,0.85
			c0.3-2,0.61-4,1.05-5.97c0.37-1.71,0.89-3.34,0.8-5.12C65.67,25.16,62.66,25.15,62.75,27.21L62.75,27.21z"/>
	</g>
</g>
<g>
	<g>
		<path class="st6" d="M66.58,24.33c-0.4,3.7-1.3,7.37-2.24,10.94c-0.52,1.99,2.38,2.84,2.91,0.85c1.02-3.86,1.92-7.81,2.34-11.8
			C69.82,22.29,66.8,22.3,66.58,24.33L66.58,24.33z"/>
	</g>
</g>
<g>
	<g>
		<path class="st6" d="M57.94,30.48c-1.67,2.98-2.79,6.2-3.3,9.62c-0.3,2.02,2.61,2.89,2.91,0.85c0.47-3.17,1.45-6.09,3-8.86
			C61.54,30.32,58.93,28.7,57.94,30.48L57.94,30.48z"/>
	</g>
</g>
<g>
	<g>
		<path class="st6" d="M65.54,22.97c-0.71,2.44-1.75,4.8-2.65,7.16c-0.72,1.91,2.19,2.75,2.91,0.85c0.9-2.36,1.93-4.72,2.65-7.16
			C69.03,21.84,66.12,21,65.54,22.97L65.54,22.97z"/>
	</g>
</g>
<g>
	<g>
		<path class="st6" d="M61.18,27.03c-1.44,1.21-2.67,2.63-3.74,4.21c-0.48,0.71-0.11,1.78,0.54,2.19c0.76,0.47,1.58,0.13,2.06-0.58
			c0.93-1.35,2.04-2.53,3.27-3.56c0.64-0.53,0.53-1.71,0-2.27C62.68,26.35,61.81,26.48,61.18,27.03L61.18,27.03z"/>
	</g>
</g>
<g>
	<g>
		<path class="st6" d="M52.03,28.11c-1.88,2.36-2.49,5.44-4.24,7.87c-1.18,1.64,1.44,3.24,2.61,1.61c1.59-2.2,2.08-5.1,3.76-7.21
			C55.42,28.8,53.29,26.52,52.03,28.11L52.03,28.11z"/>
	</g>
</g>
<g>
	<g>
		<path class="st6" d="M71.57,23.78c-1.56,2.55-2.79,5.29-3.72,8.16c-0.63,1.96,2.28,2.8,2.91,0.85c0.85-2.63,1.99-5.08,3.41-7.41
			C75.23,23.66,72.63,22.06,71.57,23.78L71.57,23.78z"/>
	</g>
</g>
<g>
	<g>
		<path class="st6" d="M75.1,22.13c-1.26,3.06-2.71,6.05-3.06,9.39c-0.22,2.05,2.81,2.03,3.02,0c0.29-2.73,1.63-5.3,2.66-7.78
			C78.48,21.88,75.88,20.24,75.1,22.13L75.1,22.13z"/>
	</g>
</g>
<g>
	<g>
		<path class="st6" d="M79.1,21.18c-1.25,2.33-1.26,5.23-1.56,7.82c-0.24,2.04,2.79,2.02,3.02,0c0.23-2,0.19-4.41,1.15-6.2
			C82.67,21.01,80.06,19.39,79.1,21.18L79.1,21.18z"/>
	</g>
</g>
<g>
	<g>
		<path class="st6" d="M82.57,23.14c-0.15,1.78-0.41,3.55-0.77,5.3c-0.41,2.01,2.5,2.87,2.91,0.85c0.42-2.03,0.7-4.08,0.89-6.16
			C85.76,21.08,82.74,21.1,82.57,23.14L82.57,23.14z"/>
	</g>
</g>
<g>
	<g>
		<path class="st6" d="M76.32,24.87c-0.32,1.31-0.46,2.67-0.39,4.02c0.04,0.87,0.66,1.6,1.51,1.6c0.78,0,1.55-0.74,1.51-1.6
			c-0.06-1.09,0.03-2.12,0.29-3.16C79.72,23.72,76.81,22.87,76.32,24.87L76.32,24.87z"/>
	</g>
</g>
<g>
	<g>
		<path class="st6" d="M87.82,25.28c1.38,2.35-0.76,4.86,0.35,7.3c0.85,1.86,3.45,0.24,2.61-1.61c-0.19-0.42,0.24-1.29,0.33-1.72
			c0.13-0.63,0.22-1.29,0.23-1.94c0.02-1.29-0.27-2.53-0.92-3.63C89.4,21.92,86.79,23.52,87.82,25.28L87.82,25.28z"/>
	</g>
</g>
<g>
	<g>
		<path class="st6" d="M83.77,26.26c-0.06,0.58-0.2,1.31-0.35,1.96c-0.2,0.81,0.25,1.77,1.06,1.98c0.78,0.19,1.65-0.25,1.86-1.12
			c0.22-0.92,0.36-1.86,0.46-2.81c0.09-0.83-0.75-1.64-1.51-1.6C84.38,24.7,83.86,25.36,83.77,26.26L83.77,26.26z"/>
	</g>
</g>
<g>
	<g>
		<path class="st6" d="M93.57,29.13c0.47,0.4,0.25,1.84,0.2,2.43c-0.07,0.94-0.3,1.85-0.59,2.74c-0.63,1.96,2.28,2.79,2.91,0.85
			c0.7-2.16,1.63-6.6-0.39-8.28C94.19,25.61,92.04,27.86,93.57,29.13L93.57,29.13z"/>
	</g>
</g>
<g>
	<g>
		<path class="st6" d="M97.71,31.18c1.78,2.39,1.62,6.84,1.48,9.69c-0.1,2.06,2.92,2.05,3.02,0c0.19-3.91,0.01-8.76-2.36-11.96
			C98.65,27.29,96.52,29.58,97.71,31.18L97.71,31.18z"/>
	</g>
</g>
<g>
	<g>
		<path class="st6" d="M101.97,37.58c0.36,1.7,0.06,3.45,0.4,5.16c0.43,2.11,0.67,3.98,0.66,6.16c-0.01,2.06,3.01,2.06,3.02,0
			c0.01-2.13-0.12-4.1-0.56-6.18c-0.42-2-0.18-4-0.6-6C104.44,34.72,101.54,35.58,101.97,37.58L101.97,37.58z"/>
	</g>
</g>
<g>
	<g>
		<path class="st6" d="M105.12,48.17c0.99,1.71,0.58,3.68,0.77,5.58c0.07,0.72,0.28,1.45,0.28,2.18c0,0.83-0.27,1.59-0.23,2.44
			c0.1,2.05,3.12,2.06,3.02,0c-0.05-0.93,0.24-1.82,0.21-2.75c-0.03-1.09-0.32-2.15-0.34-3.25c-0.04-2.08-0.06-3.99-1.12-5.81
			C106.71,44.81,104.1,46.41,105.12,48.17L105.12,48.17z"/>
	</g>
</g>
<g>
	<g>
		<path class="st6" d="M108.63,51.19c1.03,1.38,1.18,3.95,1.58,5.62c0.49,2.05,0.99,4.09,1.48,6.14c0.71,2.98,1.19,5.76,3.08,8.15
			c1.25,1.58,3.38-0.69,2.13-2.27c-2.33-2.95-2.73-8.47-3.6-12.12c-0.64-2.67-0.91-5.6-2.54-7.8
			C109.56,47.3,107.44,49.59,108.63,51.19L108.63,51.19z"/>
	</g>
</g>
<g>
	<g>
		<path class="st6" d="M49,30.94c-3.15,9.41-6.24,18.63-9.86,27.88c-0.74,1.9,2.17,2.74,2.91,0.85c3.62-9.25,6.71-18.47,9.86-27.88
			C52.56,29.84,49.64,29,49,30.94L49,30.94z"/>
	</g>
</g>
<g>
	<g>
		<path class="st6" d="M48.97,28.94c-0.39,2.92-2.31,6.05-3.55,8.69c-1.46,3.11-3.06,6.07-5.21,8.72c-1.26,1.56,0.87,3.84,2.13,2.27
			c2.31-2.85,4.11-6,5.68-9.36c1.36-2.89,3.42-6.23,3.86-9.45C52.16,27.77,49.25,26.9,48.97,28.94L48.97,28.94z"/>
	</g>
</g>
<g>
	<g>
		<path class="st6" d="M53.19,22.2c-0.85,2.8-3.25,5.54-4.89,7.92c-1.93,2.8-3.98,5.43-6.53,7.65c-1.49,1.31,0.24,3.94,1.74,2.62
			c2.74-2.4,5-5.17,7.09-8.2c1.8-2.6,4.37-5.52,5.32-8.61C56.52,21.62,53.79,20.24,53.19,22.2L53.19,22.2z"/>
	</g>
</g>
<g>
	<g>
		<path class="st6" d="M50.79,27.7c-0.85,2.8-3.25,5.54-4.89,7.92c-1.93,2.8-3.98,5.43-6.53,7.65c-1.49,1.31,0.24,3.94,1.74,2.62
			c2.74-2.4,5-5.17,7.09-8.2c1.8-2.6,4.37-5.52,5.32-8.61C54.12,27.13,51.39,25.74,50.79,27.7L50.79,27.7z"/>
	</g>
</g>
<g>
	<g>
		<path class="st6" d="M49.41,34.7c-0.85,2.8-3.25,5.54-4.89,7.92c-1.93,2.8-3.98,5.43-6.53,7.65c-1.49,1.31,0.24,3.94,1.74,2.62
			c2.74-2.4,5-5.17,7.09-8.2c1.8-2.6,4.37-5.52,5.32-8.61C52.74,34.13,50.02,32.74,49.41,34.7L49.41,34.7z"/>
	</g>
</g>
<g>
	<g>
		<path class="st6" d="M47.27,40.19c-0.85,2.8-3.25,5.54-4.89,7.92c-1.93,2.8-3.98,5.43-6.53,7.65c-1.49,1.31,0.24,3.94,1.74,2.62
			c2.74-2.4,5-5.17,7.09-8.2c1.8-2.6,4.37-5.52,5.32-8.61C50.6,39.61,47.87,38.23,47.27,40.19L47.27,40.19z"/>
	</g>
</g>
<g>
	<g>
		<path class="st6" d="M46.21,44.53c-0.85,2.8-3.25,5.54-4.89,7.92c-1.93,2.8-3.98,5.43-6.53,7.65c-1.49,1.31,0.24,3.94,1.74,2.62
			c2.74-2.4,5-5.17,7.09-8.2c1.8-2.6,4.37-5.52,5.32-8.61C49.54,43.96,46.81,42.57,46.21,44.53L46.21,44.53z"/>
	</g>
</g>
<g>
	<g>
		<path class="st6" d="M44.75,48.92c-0.85,2.8-3.25,5.54-4.89,7.92c-1.93,2.8-3.98,5.43-6.53,7.65c-1.49,1.31,0.24,3.94,1.74,2.62
			c2.74-2.4,5-5.17,7.09-8.2c1.8-2.6,4.37-5.52,5.32-8.61C48.08,48.35,45.35,46.96,44.75,48.92L44.75,48.92z"/>
	</g>
</g>
<g>
	<g>
		<path class="st6" d="M43.39,54.73c-0.85,2.8-3.25,5.54-4.89,7.92c-1.93,2.8-3.98,5.43-6.53,7.65c-1.49,1.31,0.24,3.94,1.74,2.62
			c2.74-2.4,5-5.17,7.09-8.2c1.8-2.6,4.37-5.52,5.32-8.61C46.72,54.16,43.99,52.77,43.39,54.73L43.39,54.73z"/>
	</g>
</g>
<g>
	<g>
		<path class="st6" d="M42.01,59.69c-0.85,2.8-3.25,5.54-4.89,7.92c-1.93,2.8-3.98,5.43-6.53,7.65c-1.49,1.31,0.24,3.94,1.74,2.62
			c2.74-2.4,5-5.17,7.09-8.2c1.8-2.6,4.37-5.52,5.32-8.61C45.34,59.11,42.62,57.73,42.01,59.69L42.01,59.69z"/>
	</g>
</g>
<g>
	<g>
		<path class="st6" d="M41.63,63.91c-0.85,2.8-3.25,5.54-4.89,7.92c-1.93,2.8-3.98,5.43-6.53,7.65c-1.49,1.31,0.24,3.94,1.74,2.62
			c2.74-2.4,5-5.17,7.09-8.2c1.8-2.6,4.37-5.52,5.32-8.61C44.96,63.33,42.23,61.95,41.63,63.91L41.63,63.91z"/>
	</g>
</g>
<g>
	<g>
		<path class="st6" d="M41.33,66.22c-0.85,2.8-3.25,5.54-4.89,7.92c-1.93,2.8-3.98,5.43-6.53,7.65c-1.49,1.31,0.24,3.94,1.74,2.62
			c2.74-2.4,5-5.17,7.09-8.2c1.8-2.6,4.37-5.52,5.32-8.61C44.66,65.64,41.94,64.26,41.33,66.22L41.33,66.22z"/>
	</g>
</g>
<g>
	<g>
		<path class="st6" d="M39.87,72.05c-0.85,2.8-3.25,5.54-4.89,7.92c-1.93,2.8-3.98,5.43-6.53,7.65c-1.49,1.31,0.24,3.94,1.74,2.62
			c2.74-2.4,5-5.17,7.09-8.2c1.8-2.6,4.37-5.52,5.32-8.61C43.2,71.48,40.47,70.09,39.87,72.05L39.87,72.05z"/>
	</g>
</g>
<g>
	<g>
		<path class="st6" d="M40.21,73.96c-0.85,2.8-3.25,5.54-4.89,7.92c-1.93,2.8-3.98,5.43-6.53,7.65c-1.49,1.31,0.24,3.94,1.74,2.62
			c2.74-2.4,5-5.17,7.09-8.2c1.8-2.6,4.37-5.52,5.32-8.61C43.54,73.38,40.81,72,40.21,73.96L40.21,73.96z"/>
	</g>
</g>
<g>
	<g>
		<path class="st6" d="M42.08,73.89c-0.57,2.88-2.68,5.87-4.08,8.42c-1.65,3-3.43,5.84-5.74,8.34c-1.35,1.47,0.63,3.89,1.99,2.41
			c2.49-2.69,4.47-5.69,6.24-8.94c1.53-2.78,3.8-5.98,4.44-9.16C45.34,72.95,42.49,71.87,42.08,73.89L42.08,73.89z"/>
	</g>
</g>
<g>
	<g>
		<path class="st6" d="M104.5,31.57c1.24,5.38,4.72,9.85,6.73,14.92c1.49,3.75,2.12,8.19,5.39,10.67c1.58,1.2,3.09-1.58,1.52-2.77
			c-2.91-2.21-3.75-8.43-5.27-11.84c-1.77-3.96-4.48-7.52-5.46-11.83C106.95,28.72,104.04,29.56,104.5,31.57L104.5,31.57z"/>
	</g>
</g>
<g>
	<g>
		<path class="st6" d="M104.18,27.4c1.53,5.29,5.25,9.55,7.53,14.48c1.69,3.65,2.57,8.04,5.97,10.32c1.64,1.1,3-1.77,1.37-2.86
			c-3.02-2.03-4.21-8.19-5.91-11.5c-1.98-3.85-4.88-7.24-6.1-11.47C106.47,24.4,103.61,25.42,104.18,27.4L104.18,27.4z"/>
	</g>
</g>
<g>
	<g>
		<path class="st6" d="M103.38,30.02c1.53,5.29,5.25,9.55,7.53,14.48c1.69,3.65,2.57,8.04,5.97,10.32c1.64,1.1,3-1.77,1.37-2.86
			c-3.02-2.03-4.21-8.19-5.91-11.5c-1.98-3.85-4.88-7.24-6.1-11.47C105.67,27.03,102.81,28.05,103.38,30.02L103.38,30.02z"/>
	</g>
</g>
<g>
	<g>
		<path class="st6" d="M103.55,35.1c1.53,5.29,5.25,9.55,7.53,14.48c1.69,3.65,2.57,8.04,5.97,10.32c1.64,1.1,3-1.77,1.37-2.86
			c-3.02-2.03-4.21-8.19-5.91-11.5c-1.98-3.85-4.88-7.24-6.1-11.47C105.83,32.11,102.98,33.13,103.55,35.1L103.55,35.1z"/>
	</g>
</g>
<g>
	<g>
		<path class="st6" d="M105.02,39.91c1.53,5.29,5.25,9.55,7.53,14.48c1.69,3.65,2.57,8.04,5.97,10.32c1.64,1.1,3-1.77,1.37-2.86
			c-3.02-2.03-4.21-8.19-5.91-11.5c-1.98-3.85-4.88-7.24-6.1-11.47C107.3,36.91,104.44,37.93,105.02,39.91L105.02,39.91z"/>
	</g>
</g>
<g>
	<g>
		<path class="st6" d="M104.75,43.59c1.53,5.29,5.25,9.55,7.53,14.48c1.69,3.65,2.57,8.04,5.97,10.32c1.64,1.1,3-1.77,1.37-2.86
			c-3.02-2.03-4.21-8.19-5.91-11.5c-1.98-3.85-4.88-7.24-6.1-11.47C107.04,40.59,104.18,41.61,104.75,43.59L104.75,43.59z"/>
	</g>
</g>
<g>
	<g>
		<path class="st6" d="M103.87,44.92c1.53,5.29,5.25,9.55,7.53,14.48c1.69,3.65,2.57,8.04,5.97,10.32c1.64,1.1,3-1.77,1.37-2.86
			c-3.02-2.03-4.21-8.19-5.91-11.5c-1.98-3.85-4.88-7.24-6.1-11.47C106.15,41.92,103.3,42.94,103.87,44.92L103.87,44.92z"/>
	</g>
</g>
<g>
	<g>
		<path class="st6" d="M104.75,49.12c1.53,5.29,5.25,9.55,7.53,14.48c1.69,3.65,2.57,8.04,5.97,10.32c1.64,1.1,3-1.77,1.37-2.86
			c-3.02-2.03-4.21-8.19-5.91-11.5c-1.98-3.85-4.88-7.24-6.1-11.47C107.04,46.12,104.18,47.14,104.75,49.12L104.75,49.12z"/>
	</g>
</g>
<g>
	<g>
		<path class="st6" d="M105.02,53.98c1.53,5.29,5.25,9.55,7.53,14.48c1.69,3.65,2.57,8.04,5.97,10.32c1.64,1.1,3-1.77,1.37-2.86
			c-3.02-2.03-4.21-8.19-5.91-11.5c-1.98-3.85-4.88-7.24-6.1-11.47C107.3,50.98,104.44,52,105.02,53.98L105.02,53.98z"/>
	</g>
</g>
<g>
	<g>
		<path class="st6" d="M103.38,49.75c1.24,5.38,4.72,9.85,6.73,14.92c1.49,3.75,2.12,8.19,5.39,10.67c1.58,1.2,3.09-1.58,1.52-2.77
			c-2.91-2.21-3.75-8.43-5.27-11.84c-1.77-3.96-4.48-7.52-5.46-11.83C105.82,46.89,102.91,47.74,103.38,49.75L103.38,49.75z"/>
	</g>
</g>
<g>
	<g>
		<path class="st6" d="M105.5,58.4c1.03,5.42,4.52,10.1,6.41,15.27c1.39,3.82,1.83,8.27,5.2,10.95c1.63,1.3,3.41-1.36,1.79-2.64
			c-3-2.39-3.57-8.62-5.01-12.11c-1.68-4.06-4.39-7.77-5.22-12.11C108.29,55.73,105.12,56.38,105.5,58.4L105.5,58.4z"/>
	</g>
</g>
<g>
	<g>
		<path class="st6" d="M75.75,26.64c-4.03,3.78-7.6,7.52-13.1,8.56c-1.91,0.36-1.1,3.45,0.8,3.09c5.99-1.12,10.03-5.25,14.44-9.38
			C79.34,27.54,77.21,25.27,75.75,26.64L75.75,26.64z"/>
	</g>
</g>
<g>
	<g>
		<path class="st6" d="M80.5,26.57c-2.95,3.68-6.79,5.95-11.29,6.67c-1.91,0.31-1.1,3.4,0.8,3.09c4.95-0.79,9.38-3.45,12.62-7.49
			C83.88,27.27,81.75,24.99,80.5,26.57L80.5,26.57z"/>
	</g>
</g>
<g>
	<g>
		<path class="st6" d="M85.2,27.76c-2.83,1.96-5.94,4.18-9.31,4.84c-1.91,0.37-1.1,3.46,0.8,3.09c3.63-0.71,6.97-3.07,10.02-5.16
			C88.35,29.41,86.84,26.64,85.2,27.76L85.2,27.76z"/>
	</g>
</g>
<g>
	<g>
		<path class="st6" d="M88.24,28.17c-0.11,0.31-0.72,0.59-0.97,0.79c-0.43,0.36-0.82,0.79-1.27,1.13c-1.1,0.82-2.38,1.39-3.57,2.02
			c-1.73,0.93-0.21,3.7,1.52,2.77c1.55-0.83,3.18-1.58,4.52-2.79c1.05-0.95,2.18-1.65,2.68-3.08
			C91.83,27.08,88.91,26.25,88.24,28.17L88.24,28.17z"/>
	</g>
</g>
<g>
	<g>
		<path class="st6" d="M91.94,29.35c-2,1.64-4,3.56-6.45,4.41c-1.83,0.64-1.05,3.74,0.8,3.09c2.74-0.96,4.91-2.9,7.16-4.74
			C94.98,30.87,93.49,28.08,91.94,29.35L91.94,29.35z"/>
	</g>
</g>
<g>
	<g>
		<path class="st6" d="M66.09,34.31c-2.25,1.13-3.9,2.98-5.87,4.56c-2.34,1.89-5.04,3.1-7.78,4.18c-1.8,0.72-1.03,3.82,0.8,3.09
			c2.61-1.03,5.21-2.13,7.54-3.76c2.36-1.67,4.24-4.01,6.82-5.3C69.37,36.21,67.84,33.44,66.09,34.31L66.09,34.31z"/>
	</g>
</g>
<g>
	<g>
		<path class="st6" d="M57.27,40.18c-3.51,2.46-7.12,4.74-10.83,6.85c-1.71,0.97-0.19,3.74,1.52,2.77c3.7-2.12,7.32-4.39,10.83-6.85
			C60.41,41.82,58.9,39.04,57.27,40.18L57.27,40.18z"/>
	</g>
</g>
<g>
	<g>
		<path class="st6" d="M55.57,39.07c-1.93,1.2-3.85,2.43-5.77,3.67c-1.65,1.08-0.14,3.86,1.52,2.77c1.91-1.25,3.82-2.47,5.77-3.67
			C58.77,40.8,57.25,38.02,55.57,39.07L55.57,39.07z"/>
	</g>
</g>
<g>
	<g>
		<path class="st6" d="M57.97,39.73c-4.01,4-8.06,7.91-13.02,10.54c-1.74,0.92-0.21,3.69,1.52,2.77c5.18-2.75,9.44-6.86,13.62-11.04
			C61.52,40.58,59.39,38.32,57.97,39.73L57.97,39.73z"/>
	</g>
</g>
<g>
	<g>
		<path class="st6" d="M74.82,31.97c-5.64,4.69-12.71,7.58-19.12,10.87c-1.75,0.9-0.22,3.67,1.52,2.77
			c6.71-3.44,13.83-6.47,19.73-11.37C78.48,32.97,76.33,30.71,74.82,31.97L74.82,31.97z"/>
	</g>
</g>
<g>
	<g>
		<path class="st6" d="M79.44,33.31c-3.31,1.89-6.7,3.61-10.18,5.13c-1.77,0.77-1,3.88,0.8,3.09c3.72-1.62,7.36-3.42,10.91-5.45
			C82.67,35.11,81.15,32.34,79.44,33.31L79.44,33.31z"/>
	</g>
</g>
<g>
	<g>
		<path class="st6" d="M87.13,31.5c-2.97,1.75-6.02,3.33-9.15,4.71c-1.77,0.78-1,3.88,0.8,3.09c3.38-1.49,6.67-3.15,9.87-5.03
			C90.35,33.27,88.83,30.5,87.13,31.5L87.13,31.5z"/>
	</g>
</g>
<g>
	<g>
		<path class="st6" d="M86.4,33.38c-1.81,0.5-3.55,1.22-5.21,2.14c-1.73,0.95-0.2,3.72,1.52,2.77c1.44-0.79,2.93-1.38,4.49-1.81
			C89.09,35.96,88.29,32.87,86.4,33.38L86.4,33.38z"/>
	</g>
</g>
<g>
	<g>
		<path class="st6" d="M91.73,32.04c-2.68,0.35-4.92,1.9-7.24,3.26c-1.7,0.99-0.18,3.77,1.52,2.77c1.75-1.03,3.69-2.55,5.73-2.82
			C93.64,35,93.66,31.78,91.73,32.04L91.73,32.04z"/>
	</g>
</g>
<g>
	<g>
		<path class="st6" d="M94.75,32.27c-1.87,0.87-3.69,1.83-5.45,2.91c-1.68,1.03-0.16,3.79,1.52,2.77c1.77-1.08,3.58-2.05,5.45-2.91
			c0.75-0.34,0.91-1.51,0.54-2.19C96.37,32.03,95.5,31.93,94.75,32.27L94.75,32.27z"/>
	</g>
</g>
<g>
	<g>
		<path class="st6" d="M96.69,32.96c-1.26,0.48-2.49,1.05-3.66,1.7c-1.72,0.96-0.2,3.73,1.52,2.77c0.96-0.53,1.93-0.99,2.95-1.38
			c0.76-0.29,1.28-1.09,1.06-1.98C98.34,33.29,97.45,32.67,96.69,32.96L96.69,32.96z"/>
	</g>
</g>
<g>
	<g>
		<path class="st6" d="M99.02,34.49c-0.68,0.42-1.36,0.83-2.04,1.26c-0.7,0.44-0.96,1.44-0.54,2.19c0.41,0.75,1.36,1.02,2.06,0.58
			c0.68-0.42,1.36-0.83,2.04-1.26c0.7-0.44,0.96-1.44,0.54-2.19C100.67,34.31,99.72,34.06,99.02,34.49L99.02,34.49z"/>
	</g>
</g>
<g>
	<g>
		<path class="st6" d="M65.95,19.39c0.23,2.15-1.46,3.79-2.25,5.62c-0.82,1.86,1.79,3.48,2.61,1.61c1.05-2.39,2.97-4.39,2.67-7.25
			C68.75,17.36,65.73,17.33,65.95,19.39L65.95,19.39z"/>
	</g>
</g>
<g>
	<g>
		<path class="st6" d="M69.48,20.45c-1.29,3.72-2.58,7.43-3.86,11.15c-0.67,1.93,2.24,2.78,2.91,0.85
			c1.29-3.72,2.58-7.43,3.86-11.15C73.06,19.38,70.15,18.53,69.48,20.45L69.48,20.45z"/>
	</g>
</g>
<g>
	<g>
		<path class="st6" d="M70.81,23.2c-0.79,2.74-1.85,5.33-3.19,7.82c-0.97,1.8,1.64,3.41,2.61,1.61c1.46-2.73,2.63-5.59,3.5-8.58
			C74.29,22.08,71.38,21.23,70.81,23.2L70.81,23.2z"/>
	</g>
</g>
<g>
	<g>
		<path class="st6" d="M73.66,24.31c-0.85,2.4-1.96,4.66-3.31,6.79c-1.09,1.72,1.53,3.32,2.61,1.61c1.5-2.36,2.69-4.88,3.61-7.56
			C77.25,23.22,74.33,22.39,73.66,24.31L73.66,24.31z"/>
	</g>
</g>
<g>
	<g>
		<path class="st6" d="M71.21,24.24c-2.65,0.34-4.32,2.11-6.07,4.11c-1.91,2.2-3.62,4.57-5.17,7.07c-1.08,1.73,1.54,3.33,2.61,1.61
			c1.16-1.86,2.39-3.63,3.76-5.31c1.2-1.46,2.92-4.04,4.87-4.29C73.11,27.2,73.14,23.98,71.21,24.24L71.21,24.24z"/>
	</g>
</g>
<g>
	<g>
		<path class="st6" d="M66.27,28.45c-1.66,2.87-3.56,5.54-5.73,8c-1.33,1.51,0.8,3.78,2.13,2.27c2.33-2.66,4.42-5.55,6.2-8.66
			C69.89,28.3,67.28,26.68,66.27,28.45L66.27,28.45z"/>
	</g>
</g>
<g>
	<g>
		<path class="st6" d="M62.8,32.21c-1.68,2.25-3.56,4.3-5.64,6.12c-1.5,1.31,0.64,3.57,2.13,2.27c2.08-1.83,3.97-3.87,5.64-6.12
			C66.12,32.87,63.99,30.6,62.8,32.21L62.8,32.21z"/>
	</g>
</g>
<g>
	<g>
		<path class="st6" d="M60.07,22.19c-1.26,2.87-1.82,6.28-4.11,8.48c-1.44,1.39,0.69,3.65,2.13,2.27c2.55-2.45,3.19-5.95,4.58-9.14
			C63.49,21.94,60.88,20.32,60.07,22.19L60.07,22.19z"/>
	</g>
</g>
<g>
	<g>
		<path class="st6" d="M58.62,25.45c-2.44,4.48-4.76,9.02-6.97,13.63c-0.89,1.84,1.72,3.46,2.61,1.61
			c2.21-4.61,4.54-9.15,6.97-13.63C62.2,25.27,59.6,23.66,58.62,25.45L58.62,25.45z"/>
	</g>
</g>
<g>
	<g>
		<path class="st6" d="M53.4,35.49c-1.29,2.04-2.59,4.07-3.87,6.11c-1.09,1.72,1.53,3.32,2.61,1.61c1.29-2.04,2.59-4.07,3.87-6.11
			C57.09,35.39,54.48,33.79,53.4,35.49L53.4,35.49z"/>
	</g>
</g>
<g>
	<g>
		<path class="st6" d="M53.54,35.57c-1.22,1.88-2.5,3.72-3.84,5.49c-1.21,1.59,0.92,3.88,2.13,2.27c1.51-1.99,2.96-4.04,4.32-6.14
			C57.24,35.48,54.63,33.88,53.54,35.57L53.54,35.57z"/>
	</g>
</g>
<g>
	<g>
		<path class="st6" d="M74.49,18.37c-0.56,1.05-1.14,2.09-1.7,3.14c-0.97,1.8,1.64,3.41,2.61,1.61c0.56-1.05,1.14-2.09,1.7-3.14
			C78.07,18.19,75.45,16.58,74.49,18.37L74.49,18.37z"/>
	</g>
</g>
<g>
	<g>
		<path class="st6" d="M78.53,19.83c-0.05-0.02-2.02,4.49-2.19,4.87c-0.82,1.86,1.78,3.48,2.61,1.61c0.77-1.75,1.72-3.51,2.32-5.33
			c0.49-1.49,0.2-3.17-1.21-3.93C78.33,16.14,76.79,18.9,78.53,19.83L78.53,19.83z"/>
	</g>
</g>
<g>
	<g>
		<path class="st6" d="M82.02,18.25c-1.48,2.06-2.81,4.23-3.98,6.51c-0.94,1.81,1.67,3.43,2.61,1.61c1.18-2.28,2.51-4.43,3.98-6.51
			C85.81,18.23,83.18,16.63,82.02,18.25L82.02,18.25z"/>
	</g>
</g>
<g>
	<g>
		<path class="st6" d="M80.84,18.04c-1.96,3.38-4.07,6.65-6.32,9.81c-1.18,1.65,1.45,3.25,2.61,1.61c2.25-3.16,4.36-6.43,6.32-9.81
			C84.47,17.9,81.85,16.29,80.84,18.04L80.84,18.04z"/>
	</g>
</g>
<g>
	<g>
		<path class="st6" d="M75.12,28.33c-0.7,0.96-1.42,1.92-2.12,2.89c-0.5,0.68-0.62,1.6,0,2.27c0.52,0.56,1.63,0.68,2.13,0
			c0.7-0.96,1.42-1.92,2.12-2.89c0.5-0.68,0.62-1.6,0-2.27C76.73,27.77,75.63,27.64,75.12,28.33L75.12,28.33z"/>
	</g>
</g>
<g>
	<g>
		<path class="st6" d="M80.76,25.93c-1.27,1.45-2.55,2.89-3.84,4.3c-1.36,1.47,0.77,3.75,2.13,2.27c1.3-1.42,2.58-2.85,3.84-4.3
			C84.21,26.68,82.08,24.41,80.76,25.93L80.76,25.93z"/>
	</g>
</g>
<g>
	<g>
		<path class="st6" d="M81.91,27.14c-1.25,1.66-2.54,3.27-3.85,4.85c-1.29,1.54,0.85,3.82,2.13,2.27c1.33-1.58,2.61-3.21,3.85-4.85
			c0.51-0.67,0.62-1.6,0-2.27C83.51,26.59,82.42,26.47,81.91,27.14L81.91,27.14z"/>
	</g>
</g>
<g>
	<g>
		<path class="st6" d="M81.52,28.86c-0.57,1.07-1.04,2.19-1.41,3.34c-0.26,0.82,0.3,1.75,1.06,1.98c0.83,0.25,1.59-0.3,1.86-1.12
			c0.29-0.9,0.65-1.75,1.11-2.58C85.08,28.68,82.48,27.07,81.52,28.86L81.52,28.86z"/>
	</g>
</g>
<g>
	<g>
		<path class="st6" d="M82.56,31.01c-0.76,0.95-1.59,1.84-2.47,2.67c-0.6,0.58-0.55,1.68,0,2.27c0.6,0.64,1.53,0.58,2.13,0
			c0.88-0.83,1.7-1.72,2.47-2.67c0.53-0.65,0.6-1.62,0-2.27C84.15,30.44,83.09,30.35,82.56,31.01L82.56,31.01z"/>
	</g>
</g>
<g>
	<g>
		<path class="st6" d="M81.39,32.18c-0.02,0.04-0.04,0.1-0.07,0.14c-0.36,0.77-0.19,1.73,0.54,2.19c0.66,0.42,1.7,0.2,2.06-0.58
			c0.02-0.04,0.04-0.1,0.07-0.14c0.36-0.77,0.19-1.73-0.54-2.19C82.78,31.18,81.75,31.4,81.39,32.18L81.39,32.18z"/>
	</g>
</g>
<g>
	<g>
		<path class="st6" d="M93.51,26c-1.6,1.86-3.07,3.82-4.44,5.87c-1.13,1.69,1.49,3.29,2.61,1.61c1.22-1.83,2.55-3.57,3.96-5.23
			C96.95,26.75,94.81,24.48,93.51,26L93.51,26z"/>
	</g>
</g>
<g>
	<g>
		<path class="st6" d="M94.73,28.73c-0.61,0.94-1.24,1.88-1.85,2.82c-0.46,0.71-0.12,1.78,0.54,2.19c0.75,0.47,1.6,0.14,2.06-0.58
			c0.61-0.94,1.24-1.88,1.85-2.82c0.46-0.71,0.12-1.78-0.54-2.19C96.04,27.69,95.2,28.02,94.73,28.73L94.73,28.73z"/>
	</g>
</g>
<g>
	<g>
		<path class="st6" d="M94.42,29.02c-0.94,0.9-1.8,1.85-2.6,2.89c-0.52,0.66-0.61,1.61,0,2.27c0.53,0.57,1.61,0.67,2.13,0
			c0.79-1.03,1.66-1.99,2.6-2.89c0.6-0.58,0.55-1.68,0-2.27C95.96,28.38,95.04,28.45,94.42,29.02L94.42,29.02z"/>
	</g>
</g>
<g>
	<g>
		<path class="st6" d="M99.72,25.92c-0.17,0.38-0.36,0.75-0.58,1.1c-0.23,0.36-0.32,0.49-0.6,0.81c-0.54,0.64-0.59,1.64,0,2.27
			c0.55,0.59,1.59,0.64,2.13,0c0.65-0.77,1.23-1.62,1.65-2.56c0.35-0.78,0.2-1.73-0.54-2.19C101.12,24.93,100.08,25.14,99.72,25.92
			L99.72,25.92z"/>
	</g>
</g>
<g>
	<g>
		<path class="st6" d="M96.94,27.71c-0.5,1.34-0.79,2.96,0.07,4.21c0.48,0.69,1.31,1.05,2.06,0.58c0.64-0.41,1.03-1.5,0.54-2.19
			c-0.01-0.02-0.21-0.43-0.14-0.22c-0.07-0.2-0.05-0.07-0.02-0.26c0.08-0.38,0.23-0.85,0.39-1.26c0.3-0.8-0.33-1.76-1.06-1.98
			C97.93,26.33,97.25,26.9,96.94,27.71L96.94,27.71z"/>
	</g>
</g>
<g>
	<g>
		<path class="st6" d="M103.99,34.53c0.05,2.21,1.22,3.85,2.24,5.67c0.99,1.77,3.6,0.16,2.61-1.61c-0.69-1.25-1.79-2.53-1.83-4.05
			C106.96,32.47,103.94,32.46,103.99,34.53L103.99,34.53z"/>
	</g>
</g>
<g>
	<g>
		<path class="st6" d="M105.59,39.32c-0.1,3.84,1.79,7.28,3.27,10.67c0.82,1.87,3.42,0.25,2.61-1.61c-1.25-2.85-2.95-5.8-2.86-9.04
			C108.66,37.25,105.64,37.25,105.59,39.32L105.59,39.32z"/>
	</g>
</g>
<g>
	<g>
		<path class="st6" d="M108.6,47.23c0.91,1.75,1.43,3.69,2.45,5.38c1.04,1.73,3.65,0.13,2.61-1.61c-1.02-1.69-1.54-3.62-2.45-5.38
			C110.27,43.8,107.66,45.42,108.6,47.23L108.6,47.23z"/>
	</g>
</g>
<g>
	<path class="st4" d="M110.5,92.42c-21.93-0.83-43.86-1.65-65.79-2.48c9.7,4.16,19.39,8.31,29.09,12.47
		C86.03,99.08,98.27,95.75,110.5,92.42z"/>
</g>
<path class="st4" d="M18.66,84.94"/>
<path class="st7" d="M126.78,163.43c-0.07,0.04-0.14,0.08-0.21,0.11c0.24-1.46,0.56-3.61,0.79-6.16c0.49-5.53,1.4-22.23-9.29-41.28
	c-3.03-5.41-11.94-21.28-19.23-18.39c-2.12,0.84-3.56,3.05-4.46,4.81c2.57,5.96,6.52,15,11.65,26.28c1.74,3.83,2.32,5.06,3.08,6.88
	c2.86,6.87,6.19,17.13,7.67,31.34c0.14,0.04,0.29,0.07,0.44,0.09C120.33,167.62,124.89,164.72,126.78,163.43z"/>
<path class="st7" d="M28.48,168.91c-0.46-0.64-1.13-1.65-1.8-2.99c-3.79-7.49-3.1-15.8-2.79-19.04c0.39-4.1,1.35-7.32,3.29-13.74
	c2.55-8.47,3.82-12.71,6.1-16.28c5.91-9.26,16.83-15.21,20.01-12.09c0.84,0.82,1.25,2.38,0.98,5c-3.38,3.74-8.35,10.1-12.25,19.21
	c-5.87,13.7-5.97,25.79-5.71,31.33C33.7,163.17,31.09,166.04,28.48,168.91z"/>
<path class="st9" d="M85.51,239.32c1.19,0.25,4.06,0.81,6.88,1.08c0.58,0.06,1.73,0.16,3.19,0.12c1.1-0.03,1.75-0.13,2.15-0.2
	c0.78-0.14,1.42-0.33,1.89-0.48c0.32-0.34,1.6-1.72,1.65-3.8c0.06-2.09-1.14-4.06-3.06-5.09c-4.25,0.08-8.5,0.15-12.75,0.23
	c-0.52,2.98-0.47,5.48-0.23,7.48c0.02,0.12,0.03,0.23,0.05,0.34C85.37,239.1,85.44,239.21,85.51,239.32z"/>
<path class="st9" d="M65.84,239.96c-1.12,0.21-3.82,0.67-6.45,0.85c-0.54,0.04-1.62,0.1-2.98,0c-1.02-0.08-1.62-0.2-1.98-0.29
	c-0.71-0.17-1.3-0.38-1.74-0.57c-0.28-0.35-1.41-1.83-1.35-3.97c0.05-2.15,1.26-4.13,3.09-5.11c3.95,0.24,7.89,0.48,11.84,0.72
	c0.34,3.08,0.17,5.66-0.15,7.7c-0.02,0.12-0.04,0.24-0.06,0.35C65.99,239.75,65.91,239.86,65.84,239.96z"/>
<path class="st0" d="M551.92,237.8c-19.33,3.65-21.86,1.81-51.94,4.83c-19.42,1.95-33.6,4.25-59.35,4.87
	c-0.44,0.01-0.77,0.02-0.83,0.02c-24.84,0.56-39.96-1.2-71.41-4.15c-31.83-2.98-42.81-3.66-44.72-7.91
	c-0.84-1.87,0.38-3.75,1.6-5.09c5.13-1.4,12.78-3.34,22.42-5.22c19.19-3.74,37.09-5.45,97.06-7.28c34.42-1.05,51.91-1.56,65.5-0.82
	c24.75,1.34,44.47,4.42,57.61,6.91c4.09,0.78,9.94,2.54,10.05,4.8C578.11,232.86,559.12,236.44,551.92,237.8z"/>
<path class="st4" d="M400.98,229.44c0.12-0.01,1.02-0.09,1.02-0.14c0,0-0.01-0.01-0.02-0.01c0.01,0.01,0.01,0.01,0.02,0.01
	c0.28-0.03-0.17-10.1,0.82-21.83c0.37-4.43,0.62-5.26,1.02-10.72c0.4-5.5,0.59-8.26,0.51-10.68c-0.05-1.29-0.83-18.89-8.66-19.41
	c-1.39-0.09-3.88,0.28-7.76,3.55c1.59,9.27,2.65,19.91,2.57,31.74c-0.07,10.5-1.03,20.19-2.43,28.88c0.08,0.03,0.17,0.06,0.25,0.08
	c0,0,0.13,0.04,0.26,0.07C389.06,231.1,399.88,229.55,400.98,229.44z"/>
<path d="M371.56,16.48c13.42-6.54,34.93-3.48,44.05,12.76c8.2,14.61,1.77,32.58-14.36,40.14c-19.38,9.08-39.67-4.06-44.05-12.76
	c-3.26-6.48-3.44-13.47-3.44-13.47s-0.06-2.23,0.19-4.28C354.85,31.4,362.05,21.11,371.56,16.48z"/>
<path class="st4" d="M376.46,230.46c0.07-0.01,0.23-0.03,0.23-0.03c0.08-0.01,0.15-0.02,0.23-0.03c0.31-2.71,0.72-6.74,1-11.64
	c1.47-25.48-1.18-62.6-10.75-64.17c-1.43-0.23-3.65,0.21-6.85,3.77c0.43,9.17,1.16,16.56,1.76,21.6c0.89,7.55,1.47,9.95,2.01,16.95
	c0.51,6.71,0.54,11.91,0.57,16.98c0.03,4.87-0.04,10.76-0.36,17.44c0.04,0.02,0.08,0.04,0.12,0.06c0.04,0.02,0.08,0.04,0.12,0.06
	c0.1,0.04,0.18,0.08,0.24,0.1C369.32,233.38,375.99,230.51,376.46,230.46z"/>
<path class="st5" d="M376.6,211.74c0.07-0.01,0.23-0.03,0.23-0.03c0.03,0,0.08-0.01,0.11-0.01c0.43-0.06,0.85-0.11,1.28-0.17
	c-0.01-2.64-0.04-6.63-0.16-11.48c-0.66-25.37-1.56-62.69-10.75-64.17c-1.43-0.23-3.65,0.21-6.85,3.77
	c0.43,9.17,1.16,16.56,1.76,21.6c0.55,4.58,3.1,11.6,1.58,12.32c-0.76,0.36-1.71-1.21-2.47-0.9c-1.91,0.76,1.32,11.57,2.63,22.58
	c0.88,7.43,0.73,13.53,0.48,17.38c0.04,0.02,0.08,0.04,0.12,0.06c0.04,0.02,0.08,0.04,0.12,0.06c0.1,0.04,0.18,0.08,0.24,0.1
	C369.46,214.66,376.13,211.79,376.6,211.74z"/>
<path class="st5" d="M401.92,211.74c0.07-0.01,0.23-0.03,0.23-0.03c0.03,0,0.08-0.01,0.11-0.01c0.43-0.06,0.85-0.11,1.28-0.17
	c0.19-2.63,0.44-6.53,0.61-11.28c0,0,0.26-7.11,0.21-13.65c-0.06-8.22-1.63-49.06-11.74-50.72c-1.41-0.23-3.64,0.2-6.85,3.77
	c0.43,9.17,1.16,16.56,1.76,21.6c0.55,4.58,3.1,11.6,1.58,12.32c-0.76,0.36-1.71-1.21-2.47-0.9c-1.91,0.76,1.32,11.57,2.63,22.58
	c0.88,7.43,0.73,13.53,0.48,17.38c0.04,0.02,0.08,0.04,0.12,0.06c0.04,0.02,0.08,0.04,0.12,0.06c0.1,0.04,0.18,0.08,0.24,0.1
	C394.78,214.66,401.45,211.79,401.92,211.74z"/>
<ellipse transform="matrix(0.9993 -0.0361 0.0361 0.9993 -5.261 13.9418)" class="st5" cx="383.23" cy="152.58" rx="34.14" ry="32.27"/>
<ellipse transform="matrix(0.993 -0.1181 0.1181 0.993 -14.9966 55.4773)" class="st4" cx="460.78" cy="154.32" rx="4.78" ry="7.13"/>
<ellipse transform="matrix(0.2843 -0.9587 0.9587 0.2843 84.9552 431.515)" class="st4" cx="331.5" cy="158.85" rx="7.17" ry="5.02"/>
<ellipse transform="matrix(0.9915 -0.1298 0.1298 0.9915 -16.5744 58.0879)" class="st4" cx="437.36" cy="156.2" rx="4.8" ry="7.79"/>
<path class="st6" d="M388.73,238.03c1.29,0.18,4.42,0.6,7.46,0.73c0.63,0.03,1.87,0.07,3.44-0.06c1.17-0.1,1.86-0.23,2.29-0.33
	c0.82-0.19,1.5-0.42,1.99-0.61c0.32-0.36,1.59-1.88,1.5-4.06c-0.1-2.18-1.52-4.16-3.66-5.12c-4.55,0.32-9.11,0.64-13.66,0.97
	c-0.34,3.13-0.1,5.74,0.31,7.8c0.02,0.12,0.05,0.24,0.07,0.36C388.57,237.82,388.64,237.92,388.73,238.03z"/>
<path class="st6" d="M377.15,238.35c-1.33,0.27-4.54,0.9-7.68,1.24c-0.65,0.07-1.93,0.2-3.57,0.17c-1.22-0.02-1.95-0.1-2.4-0.17
	c-0.86-0.13-1.58-0.31-2.11-0.47c-0.36-0.34-1.79-1.77-1.85-3.95s1.27-4.25,3.42-5.35c4.75,0.01,9.49,0.02,14.24,0.04
	c0.58,3.1,0.53,5.72,0.25,7.81c-0.02,0.12-0.03,0.24-0.05,0.36C377.31,238.13,377.23,238.24,377.15,238.35z"/>
<g>
	<path class="st4" d="M350.67,152.19l65.33,1.75c1.98-36.69,3.04-73.62,3.16-110.79c0-0.37,0-1.06,0-1.43
		c-21.77-0.58-43.55-1.17-65.32-1.75c-0.06,0.49-0.12,1.09-0.15,1.77c-0.05,1.22,0.03,2.12,0.03,2.2
		C353.82,45.21,352.92,77.6,350.67,152.19z"/>
</g>
<path class="st10" d="M349.09,152.33l68.28,1.83c-0.18-36,0.49-49.83,1.46-52.94c0.14-0.44,0.71-1.78,0.68-3.64
	c-0.03-1.49-0.41-1.99-1-5.51c-0.2-1.19-0.3-1.98-0.32-1.98c-0.04,0,0.14,2.15,0.26,2.14c0.17,0,0.22-4.48,0.22-9.22
	c-9.77,0.44-20.21,0.58-31.24,0.28c-12.26-0.33-23.77-1.15-34.45-2.28c-0.3,0.81-0.69,1.98-1.06,3.42c-0.64,2.48-0.9,4.48-1.03,5.69
	c-0.53,4.97-0.43,10.39-0.42,13.12c0.02,4.04-0.23,8.07-0.34,12.11C349.96,121.73,349.66,132.59,349.09,152.33z"/>
<g>
	<g>
		<path class="st5" d="M366.78,64.19c3.83,8.56,14.85,8.46,22.13,4.07c2.16-1.3,0.16-4.59-2-3.28c-5.58,3.37-13.69,3.99-16.69-2.71
			C369.21,60.04,365.79,61.98,366.78,64.19L366.78,64.19z"/>
	</g>
</g>
<path class="st11" d="M389.82,228.88c0.31-0.03,0.61-0.07,0.92-0.1"/>
<path class="st5" d="M376.09,225.29"/>
<path class="st12" d="M404.95,95.85L404.95,95.85z"/>
<path class="st5" d="M381.77,230.38"/>
<line class="st13" x1="391.63" y1="160.61" x2="391.63" y2="160.61"/>
<path class="st14" d="M349.51,152.46"/>
<path class="st14" d="M349.51,152.46"/>
<path class="st15" d="M377.91,153.98c2.14,0.01,4.27,0.03,6.41,0.04"/>
<path class="st15" d="M377.9,153.79c0,0.06,0,0.13,0.01,0.19"/>
<path class="st15" d="M384.31,153.99c0-0.02,0-0.03,0-0.05"/>
<path class="st15" d="M384.31,154.02c0-0.01,0-0.02,0-0.03"/>
<path class="st11" d="M392.67,231.9"/>
<path class="st11" d="M362.31,231.84"/>
<path class="st16" d="M392.76,157.45"/>
<path class="st10" d="M327.64,155.24c0.06,0.03,0.13,0.06,0.19,0.09c-0.11-1.46-0.24-3.61-0.26-6.18
	c-0.04-5.58,0.39-22.48,11.62-43.09c3.19-5.85,12.54-23.01,19-20.89c1.88,0.62,3.04,2.7,3.73,4.39c-2.8,6.36-7.1,16.01-12.66,28.07
	c-1.89,4.1-2.51,5.42-3.34,7.36c-3.14,7.32-6.96,18.14-9.39,32.78c-0.13,0.06-0.27,0.1-0.41,0.15
	C333.24,158.77,329.27,156.33,327.64,155.24z"/>
<path class="st10" d="M412.84,85.69c-0.05,0.03-0.1,0.07-0.15,0.11c0.9,0.85,2.2,2.12,3.69,3.78c4.4,4.87,11.37,13.97,18.79,38.21
	c4.78,15.58,8.09,26.75,3.92,30.23c-1.71,1.43-4.2,1.15-6.19,0.61c-2.21-6.6-5.54-16.67-9.61-29.4c-1.38-4.32-1.81-5.74-2.51-7.73
	c-2.59-7.53-6.84-17.92-14.01-29.56c0.04-0.16,0.08-0.31,0.12-0.46C407.91,88.35,411.37,86.42,412.84,85.69z"/>
<ellipse transform="matrix(0.0259 -0.9997 0.9997 0.0259 321.7 422.0487)" class="st8" cx="377.41" cy="45.95" rx="6.02" ry="5.54"/>
<ellipse transform="matrix(0.0259 -0.9997 0.9997 0.0259 338.3776 440.813)" class="st8" cx="395.38" cy="46.78" rx="6.02" ry="5.54"/>
<ellipse transform="matrix(0.0262 -0.9997 0.9997 0.0262 322.0945 423.9141)" class="st5" cx="378.63" cy="46.63" rx="2.09" ry="1.91"/>
<ellipse transform="matrix(0.0262 -0.9997 0.9997 0.0262 336.5389 440.4624)" class="st5" cx="394.35" cy="47.49" rx="2.09" ry="1.91"/>
<path class="st16" d="M533.86,139.97c-19.81,1.49-39.63,2.99-59.44,4.48c-0.01,0-1.52,0.27-2.24,0c-1.18-0.44-1.35-2.7-1.52-6.18
	c-0.16-3.2-0.24-4.81-0.25-6.16c0-0.39,0-0.07-0.38-9.23c-0.13-3.23-0.28-6.9-0.45-10.83c-0.11-2.59-1.24-30.06-1.52-37.03
	c9.71,0.12,19.93,0,30.62-0.48c14.57-0.66,29.66-1.69,34.81-2.65c0.01,0.19,2.03,49.37,2.03,49.39c0.11,2.71,0.17,4.07,0.17,4.07
	c0.18,4.18,0.24,4.79,0.24,5.3c0,0,0,0.15-0.01,0.3c-0.06,1.57-1.39,12.31-1.96,12.25c-0.4-0.05-0.1-5.43-0.09-5.43
	C533.87,137.77,533.87,138.23,533.86,139.97z"/>
<path class="st16" d="M457.33,154.42c0.06,0.02,0.13,0.03,0.19,0.04c-0.37-1.27-0.89-3.13-1.38-5.39
	c-1.07-4.9-3.82-19.85,2.65-40.27c1.83-5.8,7.22-22.8,13.54-22.26c1.84,0.16,3.29,1.76,4.23,3.1c-1.39,6.17-3.54,15.52-6.38,27.27
	c-0.97,3.98-1.3,5.27-1.7,7.15c-1.53,7.08-3.01,17.37-2.52,30.75c-0.11,0.08-0.23,0.15-0.35,0.21
	C463.11,156.39,459.02,155.06,457.33,154.42z"/>
<path class="st17" d="M455.41,154.31c0.06,0.02,0.13,0.03,0.19,0.05c-0.3-1.31-0.71-3.26-1.06-5.6c-0.78-5.08-2.63-20.57,5.06-41.29
	c2.19-5.88,8.59-23.13,14.89-22.3c1.83,0.25,3.18,1.95,4.05,3.37c-1.76,6.27-4.47,15.81-8.03,27.77c-1.2,4.06-1.61,5.37-2.13,7.28
	c-1.95,7.21-4.06,17.74-4.37,31.51c-0.12,0.07-0.24,0.14-0.36,0.2C461.08,156.58,457.07,155.03,455.41,154.31z"/>
<ellipse transform="matrix(0.9703 -0.2417 0.2417 0.9703 -19.73 137.5679)" class="st4" cx="550.84" cy="149.2" rx="4.63" ry="7.12"/>
<ellipse transform="matrix(0.9972 -0.0748 0.0748 0.9972 -12.0016 10.8014)" class="st4" cx="138.23" cy="165.66" rx="3.92" ry="7.21"/>
<ellipse transform="matrix(0.6892 -0.7246 0.7246 0.6892 25.8906 209.9801)" class="st4" cx="257.7" cy="74.81" rx="7.17" ry="3.78"/>
<path class="st18" d="M213.42,90.93c-21.29,0-42.58-0.01-63.88-0.01c-0.71-3.39-1.43-6.78-2.14-10.17c0.48-0.32,1.25-0.81,2.23-1.32
	c10.03-5.16,16.78,1.08,30.28,1.5c14.55,0.45,20.62-6.37,33.68-1.5c1.46,0.55,2.63,1.09,3.38,1.47
	C215.79,84.26,214.6,87.59,213.42,90.93z"/>
<path class="st9" d="M499.54,229.87c-1.18,0.21-4.04,0.68-6.82,0.86c-0.57,0.04-1.71,0.1-3.15,0c-1.08-0.08-1.71-0.2-2.1-0.29
	c-0.75-0.17-1.38-0.39-1.84-0.58c-0.3-0.36-1.49-1.86-1.43-4.03c0.05-2.18,1.33-4.19,3.27-5.18c4.18,0.24,8.35,0.49,12.53,0.73
	c0.36,3.12,0.18,5.74-0.16,7.81c-0.02,0.12-0.04,0.24-0.06,0.36C499.7,229.66,499.62,229.77,499.54,229.87z"/>
<path d="M521.95,229.09c-1.04,0.33-3.55,1.1-6.02,1.57c-0.51,0.1-1.52,0.28-2.81,0.33c-0.96,0.04-1.54-0.02-1.89-0.07
	c-0.69-0.09-1.26-0.24-1.68-0.38c-0.3-0.33-1.47-1.69-1.59-3.86c-0.12-2.18,0.86-4.31,2.51-5.5c3.74-0.2,7.49-0.39,11.23-0.59
	c0.56,3.07,0.61,5.69,0.46,7.79c-0.01,0.12-0.02,0.24-0.03,0.36C522.07,228.86,522.01,228.97,521.95,229.09z"/>
<ellipse transform="matrix(0.0652 -0.9979 0.9979 0.0652 328.4322 635.2872)" class="st5" cx="503.29" cy="142.35" rx="32.28" ry="31.29"/>
<ellipse transform="matrix(0.8898 -0.4563 0.4563 0.8898 40.2585 231.0706)" class="st4" cx="498.62" cy="32.17" rx="30" ry="29.73"/>
<g>
	<polygon class="st4" points="533.19,142.88 473.35,145.75 468.72,33.61 528.55,30.73 	"/>
</g>
<ellipse class="st19" cx="488.32" cy="42.07" rx="5.95" ry="6.44"/>
<ellipse transform="matrix(0.0265 -0.9996 0.9996 0.0265 456.8862 552.3203)" class="st19" cx="512.02" cy="41.58" rx="7.39" ry="6.8"/>
<line class="st19" x1="494.47" y1="42.45" x2="505.29" y2="40.81"/>
<path class="st17" d="M534.64,142.99L472.1,146l-2.93-70.97c4.27,0.42,16.56,0.18,29.27-0.39c13.92-0.63,28.35-1.65,33.27-2.62
	C532.68,95.68,533.66,119.34,534.64,142.99z"/>
<g>
	<polygon class="st4" points="511.1,73.86 507.68,80.41 494.82,74.59 	"/>
</g>
<path class="st5" d="M488.28,220.99c-0.11-0.01-0.93-0.08-0.94-0.12l0.01-0.01c-0.01,0.01-0.01,0.01-0.01,0.01
	c-0.25-0.02-0.01-10.1-1.09-21.81c-0.41-4.42-0.65-5.25-1.1-10.7c-0.45-5.5-0.67-8.25-0.63-10.67c0.02-1.29,0.47-18.9,7.64-19.56
	c1.27-0.12,3.56,0.21,7.17,3.41c-1.31,9.3-2.12,19.95-1.87,31.78c0.23,10.49,1.26,20.17,2.68,28.83c-0.07,0.03-0.15,0.06-0.23,0.09
	c0,0-0.12,0.04-0.24,0.08C499.23,222.44,489.3,221.08,488.28,220.99z"/>
<path class="st5" d="M510.77,221.58c-0.07-0.01-0.21-0.02-0.21-0.02c-0.07-0.01-0.14-0.01-0.21-0.02c-0.33-2.7-0.77-6.73-1.1-11.62
	c-1.74-25.45,0.11-62.61,8.86-64.35c1.3-0.26,3.34,0.15,6.34,3.65c-0.25,9.18-0.81,16.58-1.28,21.63c-0.7,7.57-1.19,9.97-1.57,16.99
	c-0.36,6.72-0.31,11.92-0.26,16.99c0.05,4.87,0.21,10.75,0.6,17.43c-0.03,0.02-0.07,0.04-0.11,0.06s-0.07,0.04-0.11,0.06
	c-0.09,0.05-0.17,0.08-0.22,0.11C517.36,224.38,511.2,221.63,510.77,221.58z"/>
<path class="st17" d="M472.62,95.67"/>
<g>
	<g>
		<path class="st5" d="M511.73,54.14c-1.59,4.98-7.08,5.13-11.02,2.81c-1.67-0.98-3.18,1.61-1.51,2.59
			c5.73,3.36,13.24,2.26,15.43-4.6C515.21,53.09,512.31,52.3,511.73,54.14L511.73,54.14z"/>
	</g>
</g>
<path class="st5" d="M479.93,179.73"/>
<path class="st11" d="M489.51,220.77c-0.28-0.03-0.56-0.06-0.85-0.09"/>
<path class="st5" d="M502.03,216.94"/>
<path class="st20" d="M491.99,92.01c-0.07,0.82-0.15,1.64-0.22,2.46s-0.15,1.64-0.22,2.46c-1.94,0.66-4.53,1.26-7.57,1.2
	c-1.32-0.02-2.52-0.17-3.59-0.37c-0.49-1.63-0.95-3.68-1.17-6.08c-0.11-1.26-0.14-2.43-0.12-3.49c0.52-0.12,1.19-0.26,1.97-0.39
	c1.1-0.19,2.49-0.38,4.08-0.47c1.49-0.09,3.37-0.11,5.54,0.08c0.17-0.03,0.31,0,0.42,0.04C491.91,87.78,492.22,89.63,491.99,92.01z"
	/>
<path class="st12" d="M483.52,87.45c0.18-0.05,0.37-0.07,0.57-0.06c0.09-0.01,0.19-0.01,0.29-0.01c0.11-0.01,0.22-0.02,0.34-0.02
	h0.01l-0.61-3.22c-0.03-0.17-0.18-0.28-0.33-0.25l-0.69,0.14c-0.16,0.03-0.26,0.19-0.23,0.36l0.53,3.07
	C483.43,87.47,483.48,87.46,483.52,87.45z"/>
<path class="st9" d="M485.39,87.35c0.01,0,0.01,0,0.02,0h0.01c0.01,0,0.02,0.01,0.04,0.01c0.02,0,0.04,0.01,0.06,0.01
	c0.19-0.03,0.39-0.05,0.6-0.02c0.01,0,0.02,0,0.04,0.01l-0.12-2.96c0-0.17-0.14-0.31-0.29-0.3l-0.7,0.02
	c-0.16,0-0.28,0.15-0.28,0.32l0.08,2.93C485,87.34,485.19,87.33,485.39,87.35z"/>
<path class="st12" d="M482.58,87.48L482.58,87.48z"/>
<g>
	<g>
		<path class="st5" d="M482.64,40.2c-2.74-0.42-5.49-0.85-8.23-1.27c-1.67-0.26-3.61-0.86-5.21-0.08c-2.89,1.39-2.71,5.4-1.41,7.81
			c0.92,1.7,3.51,0.19,2.59-1.51c-0.63-1.17-0.94-3.22,0.76-3.68c0.95-0.26,3,0.44,4.02,0.6c2.23,0.34,4.46,0.69,6.69,1.03
			C483.73,43.39,484.54,40.5,482.64,40.2L482.64,40.2z"/>
	</g>
</g>
<g>
	<g>
		<path class="st5" d="M519.76,40.35c2.92-1.93,5.96-4.29,9.17-5.71c-0.39,0.05-0.77,0.1-1.16,0.15c0.18,0.03,0.35,0.07,0.53,0.1
			c-0.3-0.23-0.6-0.46-0.9-0.69c0.36,0.62,0.04,2.06-0.03,2.74c-0.19,1.92,2.81,1.91,3,0c0.22-2.17,0.3-5.9-2.96-4.9
			c-1.47,0.45-2.97,1.72-4.27,2.54c-1.64,1.04-3.28,2.09-4.9,3.17C516.65,38.82,518.15,41.42,519.76,40.35L519.76,40.35z"/>
	</g>
</g>
<path class="st5" d="M496.91,222.13"/>
<path class="st2" d="M534.64,141.29c-20.91,0.99-41.83,1.98-62.74,2.97c0,0.03,0,0.07,0.01,0.1c0.06,0.72,0.19,1.41,0.37,2.07
	c45.98-1.75,62.41-2.75,62.4-3.3c0-0.03-0.04-0.63-0.04-1.47C534.64,141.51,534.64,141.38,534.64,141.29z"/>
<line class="st13" x1="495.79" y1="152.01" x2="495.79" y2="152.01"/>
<path class="st14" d="M534.25,143.13"/>
<path class="st14" d="M534.25,143.13"/>
<path class="st15" d="M508.26,145.14c-1.96,0.05-3.91,0.1-5.87,0.15"/>
<path class="st15" d="M508.26,144.95c0,0.06,0,0.13,0,0.19"/>
<path class="st15" d="M502.39,145.21c0.04-0.79,0.08-1.59,0.11-2.38c1.93-0.1,3.87-0.2,5.8-0.3c-0.02,0.81-0.03,1.61-0.05,2.42"/>
<path class="st15" d="M502.39,145.26c0-0.02,0-0.03,0-0.05"/>
<path class="st15" d="M502.39,145.29c0-0.01,0-0.02,0-0.03"/>
<path class="st11" d="M486.94,223.83"/>
<path class="st11" d="M514.77,223.25"/>
<ellipse class="st8" cx="489.31" cy="41.87" rx="3.15" ry="3.45"/>
<ellipse class="st8" cx="511.09" cy="40.72" rx="3.15" ry="3.45"/>
<ellipse class="st5" cx="489.96" cy="42.02" rx="1.18" ry="1.3"/>
<ellipse class="st5" cx="510.44" cy="40.87" rx="1.18" ry="1.3"/>
<path class="st9" d="M179.16,239.6c-1.18,0.21-4.04,0.69-6.82,0.87c-0.57,0.04-1.71,0.1-3.15,0c-1.08-0.08-1.71-0.2-2.1-0.29
	c-0.75-0.17-1.38-0.4-1.84-0.59c-0.3-0.36-1.49-1.88-1.43-4.08c0.05-2.21,1.33-4.24,3.27-5.25c4.18,0.24,8.35,0.5,12.54,0.74
	c0.36,3.16,0.18,5.81-0.16,7.91c-0.02,0.12-0.04,0.24-0.06,0.36C179.32,239.39,179.24,239.5,179.16,239.6z"/>
<path class="st9" d="M186.98,240.97c1.26,0.25,4.3,0.83,7.28,1.11c0.61,0.06,1.83,0.16,3.38,0.12c1.16-0.03,1.85-0.13,2.27-0.2
	c0.82-0.14,1.5-0.33,2-0.5c0.34-0.34,1.69-1.77,1.75-3.91c0.06-2.15-1.21-4.17-3.24-5.23c-4.5,0.08-9,0.15-13.5,0.23
	c-0.55,3.06-0.5,5.63-0.24,7.69c0.02,0.12,0.03,0.23,0.05,0.35C186.83,240.75,186.91,240.86,186.98,240.97z"/>
<ellipse transform="matrix(0.0684 -0.9977 0.9977 0.0684 18.449 321.7693)" class="st21" cx="181.52" cy="151.01" rx="32.68" ry="31.31"/>
<ellipse transform="matrix(0.366 -0.9306 0.9306 0.366 78.8359 194.2849)" class="st4" cx="182" cy="39.29" rx="30.2" ry="29.94"/>
<g>
	<polygon class="st4" points="211.39,152.96 151.46,152.99 152.04,39.29 211.98,39.26 	"/>
</g>
<path d="M212.84,153.15l-62.65,0.03l0.37-71.95c4.25,0.63,16.55,0.98,29.28,1.01c13.95,0.04,28.41-0.3,33.38-1.04
	C213.08,105.18,212.96,129.16,212.84,153.15z"/>
<path d="M258.88,79.08c-0.01-0.06-0.03-0.13-0.04-0.19c-1,1.09-2.5,2.65-4.36,4.44c-4.05,3.88-16.64,15.32-38.26,22.51
	c-6.14,2.04-24.14,8.04-26.37,2.5c-0.65-1.61,0.19-3.79,1.03-5.39c6.28-2.64,15.84-6.61,27.9-11.47c4.09-1.65,5.42-2.17,7.33-2.98
	c7.18-3.09,17.33-8.18,29.43-16.78c0.12,0.04,0.23,0.1,0.35,0.15C258.19,73.11,258.73,77.29,258.88,79.08z"/>
<path d="M134.01,163.99c0.06,0.02,0.12,0.05,0.19,0.07c-0.31-1.46-0.74-3.6-1.12-6.18c-0.84-5.6-2.87-22.64,4.48-44.74
	c2.09-6.27,8.22-24.69,14.47-23.36c1.81,0.38,3.18,2.34,4.06,3.95c-1.66,6.74-4.22,16.97-7.6,29.79c-1.14,4.36-1.53,5.75-2.02,7.81
	c-1.83,7.75-3.79,19.1-3.92,34.12c-0.11,0.07-0.23,0.14-0.35,0.19C139.66,166.85,135.66,164.89,134.01,163.99z"/>
<path class="st21" d="M167.9,230.61c-0.11-0.01-0.93-0.08-0.94-0.12l0.01-0.01c-0.01,0.01-0.01,0.01-0.01,0.01
	c-0.25-0.02-0.01-10.23-1.09-22.09c-0.41-4.48-0.65-5.32-1.1-10.84c-0.45-5.57-0.67-8.36-0.63-10.81
	c0.02-1.31,0.47-19.14,7.64-19.81c1.27-0.12,3.56,0.21,7.17,3.45c-1.31,9.42-2.12,20.21-1.87,32.19c0.23,10.63,1.26,20.43,2.68,29.2
	c-0.07,0.03-0.15,0.06-0.23,0.09c0,0-0.12,0.04-0.24,0.08C178.85,232.07,168.92,230.7,167.9,230.61z"/>
<path class="st21" d="M196.9,232.77c0.09-0.01,0.83-0.05,0.83-0.1l-0.01-0.01c0.01,0.01,0.01,0.01,0.01,0.01
	c0.23-0.02-0.14-10.19,0.66-21.98c0.3-4.45,0.51-5.28,0.83-10.77c0.32-5.53,0.48-8.31,0.41-10.75c-0.04-1.31-0.69-19.08-7.09-19.94
	c-1.14-0.15-3.17,0.12-6.35,3.25c1.3,9.42,2.18,20.19,2.12,32.11c-0.05,10.59-0.84,20.32-1.98,29.02c0.07,0.03,0.14,0.06,0.21,0.09
	c0,0,0.11,0.04,0.21,0.08C187.15,233.95,196,232.83,196.9,232.77z"/>
<path class="st17" d="M421.37,104.22"/>
<g>
	<g>
		<path class="st5" d="M183.64,60.92c-3.36,4.36-8.49,2.6-11.57-1.21c-1.22-1.52-3.33,0.65-2.12,2.15c4.02,5,11.49,6.81,15.81,1.21
			C186.95,61.54,184.84,59.38,183.64,60.92L183.64,60.92z"/>
	</g>
</g>
<path class="st5" d="M159.53,188.81"/>
<path class="st11" d="M169.13,230.37c-0.28-0.03-0.56-0.06-0.85-0.09"/>
<path class="st5" d="M181.65,226.5"/>
<path class="st12" d="M163.38,94.48L163.38,94.48z"/>
<path class="st5" d="M152.97,226.01"/>
<line class="st13" x1="150.31" y1="153.53" x2="150.31" y2="153.53"/>
<path class="st14" d="M459.91,152.58"/>
<path class="st14" d="M459.91,152.58"/>
<path class="st15" d="M186.38,154.05c-1.96-0.04-3.91-0.09-5.87-0.13"/>
<path class="st15" d="M186.39,153.85c0,0.06-0.01,0.13-0.01,0.19"/>
<path class="st15" d="M180.5,153.9c0-0.02,0-0.03,0-0.05"/>
<path class="st15" d="M180.5,153.92c0-0.01,0-0.02,0-0.03"/>
<path class="st11" d="M166.55,233.48"/>
<path class="st11" d="M194.4,232.9"/>
<ellipse transform="matrix(0.0371 -0.9993 0.9993 0.0371 118.3241 216.9644)" class="st8" cx="171.74" cy="47.08" rx="5.4" ry="4.83"/>
<ellipse transform="matrix(0.0371 -0.9993 0.9993 0.0371 135.7446 236.8901)" class="st8" cx="190.79" cy="48.01" rx="5.4" ry="4.83"/>
<ellipse transform="matrix(0.0367 -0.9993 0.9993 0.0367 118.9208 218.757)" class="st5" cx="172.93" cy="47.69" rx="1.32" ry="1.18"/>
<ellipse transform="matrix(0.0367 -0.9993 0.9993 0.0367 134.3028 236.3457)" class="st5" cx="189.75" cy="48.51" rx="1.32" ry="1.18"/>
<path class="st16" d="M553.77,145.89c-0.06,0.03-0.12,0.06-0.17,0.1c0.1-1.46,0.2-3.59,0.2-6.14c0-5.54-0.48-22.3-10.96-42.45
	c-2.97-5.72-11.7-22.5-17.66-20.22c-1.73,0.66-2.79,2.77-3.42,4.46c2.62,6.23,6.64,15.69,11.84,27.52c1.76,4.01,2.35,5.31,3.13,7.21
	c2.94,7.18,6.53,17.82,8.84,32.28c0.12,0.05,0.25,0.1,0.38,0.13C548.62,149.55,552.27,147.02,553.77,145.89z"/>
<path class="st16" d="M494.7,148.87"/>
<path class="st17" d="M554.34,145.53c-0.06,0.03-0.11,0.06-0.17,0.1c0.08-1.47,0.16-3.61,0.14-6.18
	c-0.05-5.58-0.7-22.47-11.31-42.88c-3.01-5.79-11.85-22.79-17.74-20.56c-1.71,0.65-2.74,2.76-3.35,4.46
	c2.67,6.31,6.75,15.88,12.03,27.85c1.79,4.06,2.38,5.37,3.18,7.3c2.99,7.26,6.66,18.02,9.11,32.62c0.12,0.05,0.25,0.1,0.38,0.14
	C549.27,149.16,552.87,146.65,554.34,145.53z"/>
<g>
	<g>
		<path class="st5" d="M168.41,10.93c-1.75-1.58-3.56-2.89-5.62-4.03c-0.39,0.92-0.77,1.85-1.16,2.78c2.49,0.89,4.97,1.79,7.46,2.68
			c0.86,0.31,1.99-0.52,1.9-1.47c-0.24-2.57-0.57-5.11-0.98-7.65c-0.84,0.5-1.67,0.98-2.51,1.48c1.77,1.74,3.33,3.54,4.78,5.57
			c0.64,0.9,1.98,1.05,2.59,0c1.55-2.66,3.29-5.1,5.32-7.4c-0.79-0.1-1.57-0.2-2.36-0.3c0.27,0.97,0.53,1.93,0.8,2.91
			c0.02,1.14,1.26,1.9,2.26,1.32c1.8-1.07,3.46-2.26,5.09-3.58c-0.71-0.72-1.41-1.43-2.12-2.15c-0.94,1.18-1.49,2.19-1.87,3.65
			c-0.22,0.85,0.44,2.06,1.45,1.92c0.91-0.12,1.82-0.24,2.73-0.37c-0.48-0.64-0.96-1.29-1.45-1.92c-0.3,0.49-0.61,0.97-0.91,1.46
			c-0.86,0.94-0.28,2.6,1.06,2.59c2.53-0.02,4.97-0.26,7.45-0.72c-0.49-0.85-0.97-1.69-1.46-2.54c-0.76,0.65-1.52,1.3-2.28,1.94
			c-1.16,0.99,0.08,2.98,1.46,2.54c3.18-1,6.3-2.15,9.39-3.45c-0.56-0.74-1.13-1.49-1.69-2.23c-1,1.54-2.32,2.71-3.95,3.54
			c-1.24,0.74-0.76,2.91,0.76,2.84c2.2-0.11,4.4-0.21,6.6-0.32c-0.43-0.76-0.86-1.52-1.3-2.29c-0.85,0.86-1.71,1.71-2.56,2.57
			c-1.06,0.69-0.93,2.43,0.36,2.78c1.35,0.36,1.35,0.38,2.74,0.25c-0.43-0.76-0.86-1.52-1.3-2.29c-0.98,0.54-1.96,1.08-2.94,1.62
			c-0.1-1.06-0.87-1.62-1.9-1.47c-0.47,0.07-0.94,0.14-1.4,0.21c0.62,0.35,1.23,0.71,1.85,1.06c-0.43-1.22-0.69-2.48-0.75-3.79
			c-0.11-1.18-1.64-2.18-2.56-1.07c-0.29,0.34-0.58,0.69-0.86,1.03c0.61-0.08,1.21-0.16,1.82-0.23c-2.88-1.76-5.68-1.8-8.67-0.3
			c0.68,0.18,1.37,0.36,2.05,0.55c-2.71-3.97-8.99-1.36-12.48-0.01c0.39,0.92,0.77,1.85,1.16,2.78c0.91-0.46,1.83-0.92,2.74-1.38
			c-0.39-0.92-0.77-1.85-1.16-2.78c-1.8,0.83-3.39,1.79-4.97,3.01c-1.34,1.02-0.59,3.12,1.16,2.78c0.06-0.01,0.13-0.02,0.19-0.04
			c0.63-0.12,1.11-0.84,1.1-1.47c0-0.08,0-0.16,0-0.24c-0.01-0.78-0.68-1.57-1.5-1.52c-1.57,0.1-2.62,1.08-3.77,2.12
			c-1.45,1.31,0.68,3.44,2.12,2.15c0.55-0.41,1.1-0.82,1.65-1.23c-0.5-0.51-1-1.01-1.5-1.52c0,0.08,0,0.16,0,0.24
			c0.37-0.49,0.73-0.97,1.1-1.47c-0.06,0.01-0.13,0.02-0.19,0.04c0.39,0.92,0.77,1.85,1.16,2.78c1.58-1.22,3.16-2.18,4.97-3.01
			c1.53-0.71,0.44-3.37-1.16-2.78c-1.79,0.67-1.83,0.67-3.45,1.68c-1.38,0.86-0.5,3.41,1.16,2.78c1.42-0.55,7.84-3.2,9.09-1.39
			c0.49,0.71,1.28,0.93,2.05,0.55c2.04-1.08,3.92-0.98,5.63,0.3c0.53,0.32,1.4,0.26,1.82-0.23c0.29-0.34,0.58-0.69,0.86-1.03
			c-0.85-0.35-1.71-0.72-2.56-1.07c0.15,1.6,0.4,3.04,0.86,4.59c0.25,0.86,1.02,1.19,1.85,1.06c0.47-0.07,0.94-0.14,1.4-0.21
			c-0.63-0.49-1.27-0.97-1.9-1.47c0.56,5.97,6.37,3.21,8.53-0.09c0.6-0.91-0.18-2.39-1.3-2.29c-0.65-0.05-1.3-0.1-1.94-0.15
			c0.12,0.92,0.24,1.85,0.36,2.78c1.59-1.04,2.6-2.07,3.64-3.67c0.61-0.94-0.19-2.34-1.3-2.29c-2.2,0.11-4.4,0.21-6.6,0.32
			c0.25,0.94,0.5,1.88,0.76,2.84c2.08-1.23,3.59-2.67,5.03-4.63c0.74-1.01-0.51-2.73-1.69-2.23c-3.08,1.3-6.19,2.45-9.39,3.45
			c0.49,0.85,0.97,1.69,1.46,2.54c0.76-0.65,1.52-1.3,2.28-1.94c1.26-1.07-0.14-2.78-1.46-2.54c-2.31,0.42-4.35,0.59-6.65,0.61
			c0.35,0.86,0.71,1.73,1.06,2.59c1.01-1.1,1.16-1.39,1.68-2.8c0.32-0.84-0.52-2.05-1.45-1.92c-0.91,0.12-1.82,0.24-2.73,0.37
			c0.48,0.64,0.96,1.29,1.45,1.92c0.37-0.77,0.73-1.54,1.1-2.31c1.22-1.53-0.61-3.37-2.12-2.15c-1.46,1.19-2.88,2.15-4.48,3.1
			c0.75,0.44,1.5,0.87,2.26,1.32c-0.04-1.74-0.36-2.94-1.21-4.44c-0.46-0.81-1.71-1.04-2.36-0.3c-2.2,2.51-4.1,5.14-5.78,8.02
			c0.86,0,1.73,0,2.59,0c-1.59-2.23-3.29-4.26-5.25-6.18c-1.15-1.12-2.74,0.04-2.51,1.48c0.37,2.27,0.66,4.55,0.87,6.84
			c0.63-0.49,1.27-0.97,1.9-1.47c-2.49-0.89-4.97-1.79-7.46-2.68c-1.61-0.58-2.63,1.95-1.16,2.78c1.9,1.05,3.36,2.07,5.01,3.56
			C167.72,14.37,169.85,12.24,168.41,10.93L168.41,10.93z"/>
	</g>
</g>
<g>
	<g>
		<path class="st5" d="M178.03,7.77c1.93,0,1.93-3.04,0-3.04C176.1,4.73,176.1,7.77,178.03,7.77L178.03,7.77z"/>
	</g>
</g>
<g>
	<g>
		<path class="st5" d="M178.7,7.72c1.93,0,1.93-3.04,0-3.04C176.77,4.68,176.76,7.72,178.7,7.72L178.7,7.72z"/>
	</g>
</g>
<g>
	<g>
		<path class="st5" d="M171.79,10.37c1.93,0,1.93-3.04,0-3.04S169.86,10.37,171.79,10.37L171.79,10.37z"/>
	</g>
</g>
<g>
	<g>
		<path class="st5" d="M170.02,10.52c1.93,0,1.93-3.04,0-3.04S168.09,10.52,170.02,10.52L170.02,10.52z"/>
	</g>
</g>
<g>
	<g>
		<path class="st5" d="M169.16,13.56c1.93,0,1.93-3.04,0-3.04S167.22,13.56,169.16,13.56L169.16,13.56z"/>
	</g>
</g>
<g>
	<g>
		<path class="st5" d="M195.59,12.62c1.93,0,1.93-3.04,0-3.04C193.66,9.58,193.66,12.62,195.59,12.62L195.59,12.62z"/>
	</g>
</g>
<g>
	<g>
		<path class="st5" d="M195.65,9.47c-9.79-2.1-19.8-2.4-28.61,3.03c-1.65,1.01-0.14,3.65,1.51,2.62c8.13-5.01,17.27-4.66,26.3-2.72
			C196.73,12.81,197.54,9.88,195.65,9.47L195.65,9.47z"/>
	</g>
</g>
<g>
	<g>
		<path class="st5" d="M193.73,12.19c-8.25-4.13-16.8-1.97-25.17,0.67c-1.57,0.5-1.35,3.03,0.4,2.99
			c7.86-0.18,17.02-1.69,24.73,0.06c1.88,0.43,2.68-2.5,0.8-2.93c-8.01-1.81-17.37-0.35-25.53-0.16c0.13,0.99,0.27,1.99,0.4,2.99
			c7.48-2.36,15.4-4.71,22.86-0.98C193.94,15.68,195.46,13.07,193.73,12.19L193.73,12.19z"/>
	</g>
</g>
<g>
	<g>
		<path class="st5" d="M183.52,5.55c-0.44-0.32-0.92-0.43-1.45-0.48c-0.78-0.08-1.53,0.76-1.5,1.52c0.04,0.89,0.66,1.43,1.5,1.52
			c-0.14-0.01-0.26-0.08-0.06,0.06c0.66,0.49,1.67,0.11,2.05-0.55C184.5,6.86,184.18,6.04,183.52,5.55L183.52,5.55z"/>
	</g>
</g>
<g>
	<g>
		<path class="st5" d="M194.66,16.12c0.77,0.02,1.5-0.18,2.18-0.55c0.71-0.38,0.94-1.39,0.54-2.08c-0.42-0.73-1.33-0.93-2.05-0.55
			c-0.16,0.08-0.19,0.1-0.09,0.05c-0.08,0.03-0.16,0.05-0.24,0.07c-0.1,0.02-0.11,0.02-0.01,0.01c-0.11,0.01-0.22,0.01-0.33,0
			c-0.79-0.02-1.54,0.72-1.5,1.52C193.2,15.45,193.82,16.09,194.66,16.12L194.66,16.12z"/>
	</g>
</g>
<g>
	<g>
		<path class="st5" d="M165.8,14.27c1.03,0.5,2.06,0.98,3.08,1.48c0.39-0.92,0.77-1.85,1.16-2.78c-1.37-0.45-2.47-1.24-3.92-1.47
			c-1.36-0.22-2.7-0.13-4.04,0.19c-1.88,0.46-1.08,3.39,0.8,2.93c1.12-0.27,2.25-0.31,3.36-0.01c1.07,0.28,1.96,0.94,3.01,1.28
			c1.59,0.52,2.71-2.04,1.16-2.78c-1.03-0.5-2.06-0.98-3.08-1.48C165.58,10.82,164.05,13.43,165.8,14.27L165.8,14.27z"/>
	</g>
</g>
<g>
	<g>
		<path class="st5" d="M168.52,13.37c-0.66-0.08-1.3,0.13-1.89,0.42c-0.4,0.2-0.83,0.52-1.18,0.62c-0.78,0.23-1.27,1.06-1.05,1.87
			c0.21,0.78,1.07,1.3,1.85,1.06c0.51-0.15,0.96-0.4,1.42-0.66c0.39-0.23,0.45-0.32,0.85-0.26c0.8,0.1,1.5-0.77,1.5-1.52
			C170.02,13.98,169.33,13.47,168.52,13.37L168.52,13.37z"/>
	</g>
</g>
<g>
	<g>
		<path class="st5" d="M170.13,13.28c-0.73,0.31-1.17,0.78-1.59,1.45c-0.77,1.21,0.5,2.46,1.69,2.23c2.94-0.56,5.86-1.29,8.87-1.24
			c1.93,0.03,1.93-3.01,0-3.04c-3.27-0.05-6.45,0.74-9.67,1.35c0.56,0.74,1.13,1.49,1.69,2.23c0.17-0.12,0.34-0.23,0.51-0.35
			C173.41,15.13,171.89,12.52,170.13,13.28L170.13,13.28z"/>
	</g>
</g>
<g>
	<g>
		<path class="st5" d="M192.9,9.8c0.22,0.36,0.49,0.65,0.83,0.89c0.19,0.14,0.52,0.24,0.68,0.42c-0.17-0.18-0.02,0.11,0.01,0.22
			c0.13,0.46,0.26,0.9,0.38,1.36c0.53,1.87,3.43,1.08,2.89-0.81c-0.24-0.83-0.39-1.81-0.87-2.54c-0.23-0.35-0.54-0.63-0.9-0.85
			c-0.13-0.08-0.28-0.18-0.42-0.24c-0.18-0.08-0.1-0.11-0.02,0.03C194.5,6.59,191.9,8.11,192.9,9.8L192.9,9.8z"/>
	</g>
</g>
<g>
	<g>
		<path class="st5" d="M195.17,9.65c0.07,0.8,0.08,1.6,0.04,2.41c-0.04,0.79,0.72,1.56,1.5,1.52c0.85-0.04,1.46-0.67,1.5-1.52
			c0.04-0.8,0.03-1.61-0.04-2.41c-0.07-0.79-0.64-1.56-1.5-1.52C195.91,8.16,195.09,8.8,195.17,9.65L195.17,9.65z"/>
	</g>
</g>
<g>
	<g>
		<path class="st5" d="M193.06,9.46c-2.54-0.11-5.07-0.15-7.61-0.11c-1.93,0.03-1.93,3.07,0,3.04c2.54-0.03,5.08,0,7.61,0.11
			C194.99,12.58,194.98,9.54,193.06,9.46L193.06,9.46z"/>
	</g>
</g>
<g>
	<g>
		<path class="st5" d="M183.45,7.64c-1.05,0-2.11,0-3.16,0c-1.93,0-1.93,3.04,0,3.04c1.05,0,2.11,0,3.16,0
			C185.39,10.68,185.4,7.64,183.45,7.64L183.45,7.64z"/>
	</g>
</g>
<g>
	<path class="st4" d="M418,83.05c-21.77-0.69-43.54-1.38-65.31-2.07c9.57,6.2,19.15,12.39,28.72,18.59
		C393.6,94.06,405.8,88.55,418,83.05z"/>
</g>
<path class="st4" d="M326.8,76.29"/>
<rect x="170.2" y="82.15" class="st22" width="2.49" height="15.96"/>
<rect x="187.71" y="82.15" class="st22" width="2.49" height="15.96"/>
<ellipse class="st22" cx="171.44" cy="98.99" rx="1.95" ry="1.98"/>
<ellipse class="st22" cx="188.96" cy="97.69" rx="1.95" ry="1.98"/>
<path class="st23" d="M418.72,37.88c-21.39-0.62-42.78-1.23-64.18-1.85c-0.18,0.6-0.35,1.28-0.49,2.04
	c-0.12,0.69-0.19,1.33-0.22,1.9c21.77,0.58,43.55,1.17,65.32,1.75c-0.03-0.55-0.07-1.14-0.14-1.74
	C418.95,39.23,418.84,38.53,418.72,37.88z"/>
<g>
	<g>
		<path class="st2" d="M381.92,61.55c-0.06,0.19-0.12,0.37-0.18,0.56c0.43-0.25,0.86-0.5,1.3-0.74c-0.23,0.02-0.79-0.75-1.08-0.9
			c-0.4-0.2-0.82-0.3-1.26-0.26c-1.06,0.11-1.77,1.07-2.64,1.57c0.39-0.05,0.77-0.1,1.16-0.15c-0.44-0.07-1.02-0.85-1.24-1.14
			c-0.53-0.71-1.66-1.11-2.36-0.3c-0.68,0.78-1.06,0.61-1.79,0.11c-1.59-1.1-3.1,1.5-1.51,2.59c1.88,1.29,3.84,1.24,5.42-0.58
			c-0.79-0.1-1.57-0.2-2.36-0.3c1.37,1.82,3.33,3.7,5.34,1.52c-0.53-0.66-0.48-0.67,0.15-0.05c0.29,0.24,0.59,0.45,0.92,0.63
			c0.32,0.15,0.64,0.28,1,0.3c1.31,0.06,1.73-0.99,2.03-2.04C385.35,60.49,382.45,59.7,381.92,61.55L381.92,61.55z"/>
	</g>
</g>
<path class="st24" d="M157.93,82.54"/>
</svg>
